M48
;GenerationSoftware,Autodesk,EAGLE,9.3.1*%
;CreationDate,2019-03-08T17:38:33Z*%
FMAT,2
ICI,OFF
METRIC,TZ,000.000
T7C0.800
T6C0.900
T5C1.000
T4C1.016
T3C1.092
T2C1.753
T1C4.089
%
G90
M71
T1
X38100Y73660
X15240Y93980
X113030Y93980
X38100Y53340
X63500Y53340
X88900Y53340
X113030Y53340
X113030Y12700
X88900Y33020
X113030Y33020
X113030Y73660
X38100Y33020
X88900Y93980
X88900Y73660
X63500Y93980
X63500Y73660
X38100Y93980
X15240Y73660
X15240Y53340
X15240Y33020
X15240Y12700
T2
X66040Y88900
X59690Y91440
X40640Y68580
X34290Y71120
X85090Y91440
X115570Y68580
X40640Y88900
X34290Y91440
X115570Y27940
X109220Y30480
X17780Y27940
X85090Y30480
X115570Y7620
X109220Y10160
X115570Y48260
X109220Y50800
X91440Y48260
X85090Y50800
X66040Y48260
X109220Y71120
X115570Y88900
X109220Y91440
X17780Y7620
X11430Y10160
X91440Y68580
X85090Y71120
X11430Y30480
X66040Y68580
X59690Y71120
X17780Y48260
X11430Y50800
X40640Y27940
X17780Y68580
X11430Y71120
X91440Y27940
X34290Y30480
X91440Y88900
X17780Y88900
X11430Y91440
X59690Y50800
X40640Y48260
X34290Y50800
T3
X13970Y58420
X16510Y78740
X114300Y17780
X111760Y17780
X13970Y78740
X16510Y99060
X114300Y58420
X111760Y58420
X13970Y99060
X39370Y78740
X90170Y58420
X87630Y58420
X36830Y78740
X39370Y99060
X36830Y99060
X64770Y78740
X111760Y99060
X62230Y78740
X64770Y99060
X90170Y78740
X87630Y78740
X90170Y99060
X87630Y99060
X39370Y38100
X36830Y38100
X16510Y58420
X114300Y78740
X111760Y78740
X62230Y99060
X16510Y17780
X13970Y17780
X114300Y38100
X111760Y38100
X16510Y38100
X114300Y99060
X13970Y38100
X64770Y58420
X62230Y58420
X90170Y38100
X87630Y38100
X39370Y58420
X36830Y58420
T4
X10414Y33147
X7874Y12700
X10414Y12700
X106426Y53467
X108966Y53467
X56769Y74041
X59309Y74041
X56769Y94234
X59309Y94234
X31242Y94361
X33782Y94361
X33782Y74168
X31496Y53721
X34036Y53721
X31369Y33401
X33909Y33401
X82042Y33274
X84582Y33274
X106172Y73787
X108712Y73787
X106299Y93980
X108839Y93980
X106299Y13081
X108839Y13081
X106172Y33147
X108712Y33147
X81915Y94107
X84455Y94107
X82169Y73914
X84709Y73914
X82423Y53213
X84963Y53213
X57023Y53467
X59563Y53467
X10668Y94107
X31242Y74168
X59690Y113030
X57150Y113030
X54610Y113030
X52070Y113030
X49530Y113030
X46990Y113030
X73660Y113030
X76200Y113030
X78740Y113030
X81280Y113030
X83820Y113030
X86360Y113030
X88900Y113030
X8128Y94107
X7747Y73787
X10287Y73787
X8001Y53721
X10541Y53721
X7874Y33147
T5
X54483Y64770
X54610Y71120
X53340Y86360
X101600Y45974
X48641Y91694
X73660Y91948
X75438Y98806
X80645Y98679
X99060Y99060
X104267Y98933
X99060Y78740
X104267Y78613
X99060Y58420
X78740Y64770
X104267Y58293
X99060Y38100
X104267Y37973
X99060Y17780
X104267Y17653
X25019Y30353
X25146Y24638
X25019Y51181
X25146Y45466
X25146Y71374
X25273Y65659
X24892Y91948
X25019Y86233
X73660Y50800
X73787Y45085
X73660Y85598
X98044Y91694
X101600Y26035
X78740Y91440
X98044Y85725
X73787Y65405
X73660Y71120
X97790Y64389
X101600Y30226
X78740Y86360
X97790Y70993
X48260Y71120
X48133Y65405
X46990Y50800
X78740Y71120
X47117Y45085
X78740Y50800
X101473Y91059
X48768Y85725
X101600Y86868
X101600Y70866
X53340Y92710
X101473Y66421
X101600Y50927
T6
X102870Y22225
X110617Y42545
X102997Y42545
X89027Y62992
X81407Y62992
X87757Y83312
X80137Y83312
X87757Y102997
X80137Y102997
X54610Y102870
X62230Y102870
X55880Y83439
X63500Y83439
X55372Y62738
X62992Y62738
X29210Y102870
X36830Y102870
X29210Y83058
X36830Y83058
X29083Y63119
X36703Y63119
X29083Y42672
X36703Y42672
X83058Y42037
X90678Y42037
X6350Y102870
X13970Y102870
X6223Y82931
X13843Y82931
X110363Y102997
X6223Y63119
X13843Y63119
X102743Y102997
X13716Y22225
X110490Y83058
X102870Y83058
X6223Y42545
X13843Y42545
X110490Y62865
X102870Y62865
X110490Y22225
X6096Y22225
T7
X66040Y30480
X97790Y25400
X97790Y30480
X62230Y25400
X67310Y5080
X38100Y106680
X78740Y45720
X63500Y10160
X38100Y113030
X29210Y50800
X29210Y66040
X20320Y113030
X20320Y107950
X66040Y110490
X66040Y104140
X29210Y71120
X29210Y86360
X29210Y91440
X66040Y25400
X67310Y10160
X63500Y5080
X62230Y30480
X29210Y45720
M30