M48
;GenerationSoftware,Autodesk,EAGLE,9.3.1*%
;CreationDate,2019-03-05T15:17:29Z*%
FMAT,2
ICI,OFF
METRIC,TZ,000.000
T6C0.900
T5C1.000
T4C1.016
T3C1.092
T2C1.753
T1C4.089
%
G90
M71
T1
X62230Y68580
X16510Y11430
X83820Y11430
X62230Y87630
X16510Y30480
X83820Y87630
X39370Y49530
X83820Y68580
X83820Y30480
X83820Y49530
X16510Y68580
X16510Y87630
X39370Y68580
X62230Y49530
X16510Y49530
X39370Y87630
T2
X58420Y66040
X41910Y63500
X35560Y66040
X12700Y85090
X19050Y82550
X41910Y82550
X35560Y85090
X12700Y66040
X19050Y63500
X64770Y63500
X64770Y82550
X58420Y85090
X19050Y25400
X12700Y27940
X86360Y63500
X80010Y66040
X86360Y25400
X80010Y85090
X80010Y27940
X19050Y6350
X12700Y8890
X86360Y6350
X80010Y8890
X80010Y46990
X12700Y46990
X64770Y44450
X58420Y46990
X41910Y44450
X35560Y46990
X19050Y44450
X86360Y82550
X86360Y44450
T3
X40640Y73660
X38100Y73660
X40640Y92710
X38100Y92710
X15240Y54610
X60960Y54610
X85090Y54610
X82550Y16510
X85090Y16510
X15240Y16510
X17780Y16510
X82550Y35560
X85090Y35560
X82550Y73660
X85090Y73660
X15240Y35560
X17780Y35560
X60960Y92710
X63500Y92710
X60960Y73660
X63500Y73660
X15240Y92710
X85090Y92710
X40640Y54610
X82550Y92710
X17780Y92710
X38100Y54610
X63500Y54610
X15240Y73660
X17780Y73660
X82550Y54610
X17780Y54610
T4
X9652Y88011
X12192Y88011
X9652Y69088
X9906Y49911
X12446Y49911
X9779Y30861
X12319Y30861
X9652Y11684
X12192Y11684
X76962Y68707
X79502Y68707
X77089Y87630
X79629Y87630
X77089Y11811
X79629Y11811
X76962Y30607
X79502Y30607
X55245Y87757
X57785Y87757
X55499Y68834
X58039Y68834
X55753Y49403
X58293Y49403
X32893Y49657
X35433Y49657
X58420Y20320
X12192Y69088
X77216Y49657
X79756Y49657
X32639Y68961
X35179Y68961
X32639Y87884
X35179Y87884
X40640Y25400
X40640Y22860
X40640Y20320
X40640Y17780
X40640Y15240
X40640Y12700
X58420Y25400
X58420Y22860
X58420Y17780
X58420Y15240
X58420Y12700
X58420Y10160
T5
X73660Y47117
X73660Y42164
X48260Y36830
X48260Y46990
X65659Y30480
X71120Y30480
X73533Y61341
X50800Y36830
X50800Y41910
X27940Y41910
X27305Y47371
X27432Y58801
X27432Y66294
X27940Y2540
X27940Y7620
X25400Y49530
X22987Y40005
X22733Y59055
X70612Y65913
X69215Y59182
X48260Y66040
X44577Y59055
X67818Y78105
X70866Y84836
X48260Y78740
X48260Y85090
X25400Y85090
X22733Y77978
X52070Y13970
X45720Y10160
X29210Y86360
X29210Y80010
X30480Y66040
X30353Y60960
X30480Y47244
X30480Y34290
X53340Y46990
X53340Y36830
X53340Y30480
X49530Y24130
X52070Y60960
X52070Y66040
X52070Y80010
X52070Y85090
X44450Y20320
X60960Y7620
X44450Y25400
X66040Y7620
X73660Y23495
X73660Y27686
X25400Y68580
X73533Y84709
X73660Y80518
X73660Y65786
T6
X81280Y20955
X73660Y77978
X81280Y77978
X73533Y96647
X81153Y96647
X73660Y20955
X81407Y40005
X73787Y40005
X73660Y59055
X81280Y59055
X62357Y59182
X54737Y59182
X61087Y78232
X53467Y78232
X61087Y96647
X53467Y96647
X30480Y96520
X38100Y96520
X31750Y78359
X39370Y78359
X31242Y58928
X38862Y58928
X7620Y96520
X15240Y96520
X7620Y77978
X15240Y77978
X7493Y59309
X15113Y59309
X7493Y40132
X15113Y40132
X10668Y20447
X18288Y20447
M30