M48
;GenerationSoftware,Autodesk,EAGLE,9.3.1*%
;CreationDate,2019-03-05T15:16:45Z*%
FMAT,2
ICI,OFF
METRIC,TZ,000.000
T5C0.700
T4C0.813
T3C0.900
T2C1.016
T1C1.118
%
G90
M71
T1
X6985Y15113
X6985Y17653
X6985Y20193
X6985Y22733
X6985Y25273
X6985Y27813
X29845Y15113
X29845Y12573
X29845Y10033
X29845Y7493
X29845Y4953
X29845Y2413
X6985Y2413
X6985Y4953
X6985Y7493
X6985Y10033
X6985Y12573
X6985Y30353
X29845Y17653
X29845Y20193
X29845Y22733
X29845Y25273
X29845Y27813
X29845Y30353
T2
X10795Y17653
X10795Y20193
X10795Y22733
X10795Y25273
X10795Y27813
X26035Y30353
X26035Y27813
X26035Y25273
X26035Y22733
X26035Y20193
X26035Y17653
X26035Y15113
X26035Y12573
X26035Y10033
X26035Y7493
X26035Y4953
X26035Y2413
X3175Y27813
X3175Y20193
X3175Y22733
X3175Y25273
X10795Y30353
X3175Y30353
X3175Y32893
X45085Y8763
X45085Y11303
X45085Y13843
X45085Y16383
X45085Y18923
X45085Y21463
X45085Y24003
X10795Y2413
X10795Y4953
X10795Y7493
X10795Y10033
X10795Y12573
X10795Y15113
T3
X41275Y13843
X33655Y13843
X41275Y11303
X33655Y11303
X41275Y8763
X33655Y8763
X33655Y21463
X41275Y21463
X41275Y18923
X33655Y18923
X41275Y16383
X33655Y16383
T4
X57785Y4953
X57785Y7493
X57785Y10033
X57785Y12573
X57785Y15113
X57785Y17653
X57785Y20193
X50165Y15113
X50165Y17653
X50165Y12573
X50165Y10033
X50165Y22733
X50165Y20193
X50165Y7493
X50165Y4953
X57785Y22733
T5
X60325Y7493
X60325Y10033
M30