G04 EAGLE Gerber RS-274X export*
G75*
%MOMM*%
%FSLAX34Y34*%
%LPD*%
%IN*%
%IPPOS*%
%AMOC8*
5,1,8,0,0,1.08239X$1,22.5*%
G01*
%ADD10C,0.254000*%


D10*
X0Y0D02*
X1269800Y0D01*
X1269800Y1190500D01*
X0Y1190500D01*
X0Y0D01*
X1150747Y940418D02*
X1150672Y941651D01*
X1150523Y942878D01*
X1150301Y944093D01*
X1150005Y945293D01*
X1149637Y946473D01*
X1149199Y947628D01*
X1148692Y948755D01*
X1148118Y949849D01*
X1147479Y950907D01*
X1146777Y951924D01*
X1146015Y952896D01*
X1145195Y953821D01*
X1144321Y954695D01*
X1143396Y955515D01*
X1142424Y956277D01*
X1141407Y956979D01*
X1140349Y957618D01*
X1139255Y958192D01*
X1138128Y958699D01*
X1136973Y959137D01*
X1135793Y959505D01*
X1134593Y959801D01*
X1133378Y960023D01*
X1132151Y960172D01*
X1130918Y960247D01*
X1129682Y960247D01*
X1128449Y960172D01*
X1127222Y960023D01*
X1126007Y959801D01*
X1124807Y959505D01*
X1123627Y959137D01*
X1122472Y958699D01*
X1121345Y958192D01*
X1120251Y957618D01*
X1119193Y956979D01*
X1118176Y956277D01*
X1117204Y955515D01*
X1116279Y954695D01*
X1115405Y953821D01*
X1114586Y952896D01*
X1113823Y951924D01*
X1113121Y950907D01*
X1112482Y949849D01*
X1111908Y948755D01*
X1111401Y947628D01*
X1110963Y946473D01*
X1110595Y945293D01*
X1110299Y944093D01*
X1110077Y942878D01*
X1109928Y941651D01*
X1109853Y940418D01*
X1109853Y939182D01*
X1109928Y937949D01*
X1110077Y936722D01*
X1110299Y935507D01*
X1110595Y934307D01*
X1110963Y933127D01*
X1111401Y931972D01*
X1111908Y930845D01*
X1112482Y929751D01*
X1113121Y928693D01*
X1113823Y927676D01*
X1114586Y926704D01*
X1115405Y925779D01*
X1116279Y924905D01*
X1117204Y924086D01*
X1118176Y923323D01*
X1119193Y922621D01*
X1120251Y921982D01*
X1121345Y921408D01*
X1122472Y920901D01*
X1123627Y920463D01*
X1124807Y920095D01*
X1126007Y919799D01*
X1127222Y919577D01*
X1128449Y919428D01*
X1129682Y919353D01*
X1130918Y919353D01*
X1132151Y919428D01*
X1133378Y919577D01*
X1134593Y919799D01*
X1135793Y920095D01*
X1136973Y920463D01*
X1138128Y920901D01*
X1139255Y921408D01*
X1140349Y921982D01*
X1141407Y922621D01*
X1142424Y923323D01*
X1143396Y924086D01*
X1144321Y924905D01*
X1145195Y925779D01*
X1146015Y926704D01*
X1146777Y927676D01*
X1147479Y928693D01*
X1148118Y929751D01*
X1148692Y930845D01*
X1149199Y931972D01*
X1149637Y933127D01*
X1150005Y934307D01*
X1150301Y935507D01*
X1150523Y936722D01*
X1150672Y937949D01*
X1150747Y939182D01*
X1150747Y940418D01*
X401447Y534018D02*
X401372Y535251D01*
X401223Y536478D01*
X401001Y537693D01*
X400705Y538893D01*
X400337Y540073D01*
X399899Y541228D01*
X399392Y542355D01*
X398818Y543449D01*
X398179Y544507D01*
X397477Y545524D01*
X396715Y546496D01*
X395895Y547421D01*
X395021Y548295D01*
X394096Y549115D01*
X393124Y549877D01*
X392107Y550579D01*
X391049Y551218D01*
X389955Y551792D01*
X388828Y552299D01*
X387673Y552737D01*
X386493Y553105D01*
X385293Y553401D01*
X384078Y553623D01*
X382851Y553772D01*
X381618Y553847D01*
X380382Y553847D01*
X379149Y553772D01*
X377922Y553623D01*
X376707Y553401D01*
X375507Y553105D01*
X374327Y552737D01*
X373172Y552299D01*
X372045Y551792D01*
X370951Y551218D01*
X369893Y550579D01*
X368876Y549877D01*
X367904Y549115D01*
X366979Y548295D01*
X366105Y547421D01*
X365286Y546496D01*
X364523Y545524D01*
X363821Y544507D01*
X363182Y543449D01*
X362608Y542355D01*
X362101Y541228D01*
X361663Y540073D01*
X361295Y538893D01*
X360999Y537693D01*
X360777Y536478D01*
X360628Y535251D01*
X360553Y534018D01*
X360553Y532782D01*
X360628Y531549D01*
X360777Y530322D01*
X360999Y529107D01*
X361295Y527907D01*
X361663Y526727D01*
X362101Y525572D01*
X362608Y524445D01*
X363182Y523351D01*
X363821Y522293D01*
X364523Y521276D01*
X365286Y520304D01*
X366105Y519379D01*
X366979Y518505D01*
X367904Y517686D01*
X368876Y516923D01*
X369893Y516221D01*
X370951Y515582D01*
X372045Y515008D01*
X373172Y514501D01*
X374327Y514063D01*
X375507Y513695D01*
X376707Y513399D01*
X377922Y513177D01*
X379149Y513028D01*
X380382Y512953D01*
X381618Y512953D01*
X382851Y513028D01*
X384078Y513177D01*
X385293Y513399D01*
X386493Y513695D01*
X387673Y514063D01*
X388828Y514501D01*
X389955Y515008D01*
X391049Y515582D01*
X392107Y516221D01*
X393124Y516923D01*
X394096Y517686D01*
X395021Y518505D01*
X395895Y519379D01*
X396715Y520304D01*
X397477Y521276D01*
X398179Y522293D01*
X398818Y523351D01*
X399392Y524445D01*
X399899Y525572D01*
X400337Y526727D01*
X400705Y527907D01*
X401001Y529107D01*
X401223Y530322D01*
X401372Y531549D01*
X401447Y532782D01*
X401447Y534018D01*
X655447Y534018D02*
X655372Y535251D01*
X655223Y536478D01*
X655001Y537693D01*
X654705Y538893D01*
X654337Y540073D01*
X653899Y541228D01*
X653392Y542355D01*
X652818Y543449D01*
X652179Y544507D01*
X651477Y545524D01*
X650715Y546496D01*
X649895Y547421D01*
X649021Y548295D01*
X648096Y549115D01*
X647124Y549877D01*
X646107Y550579D01*
X645049Y551218D01*
X643955Y551792D01*
X642828Y552299D01*
X641673Y552737D01*
X640493Y553105D01*
X639293Y553401D01*
X638078Y553623D01*
X636851Y553772D01*
X635618Y553847D01*
X634382Y553847D01*
X633149Y553772D01*
X631922Y553623D01*
X630707Y553401D01*
X629507Y553105D01*
X628327Y552737D01*
X627172Y552299D01*
X626045Y551792D01*
X624951Y551218D01*
X623893Y550579D01*
X622876Y549877D01*
X621904Y549115D01*
X620979Y548295D01*
X620105Y547421D01*
X619286Y546496D01*
X618523Y545524D01*
X617821Y544507D01*
X617182Y543449D01*
X616608Y542355D01*
X616101Y541228D01*
X615663Y540073D01*
X615295Y538893D01*
X614999Y537693D01*
X614777Y536478D01*
X614628Y535251D01*
X614553Y534018D01*
X614553Y532782D01*
X614628Y531549D01*
X614777Y530322D01*
X614999Y529107D01*
X615295Y527907D01*
X615663Y526727D01*
X616101Y525572D01*
X616608Y524445D01*
X617182Y523351D01*
X617821Y522293D01*
X618523Y521276D01*
X619286Y520304D01*
X620105Y519379D01*
X620979Y518505D01*
X621904Y517686D01*
X622876Y516923D01*
X623893Y516221D01*
X624951Y515582D01*
X626045Y515008D01*
X627172Y514501D01*
X628327Y514063D01*
X629507Y513695D01*
X630707Y513399D01*
X631922Y513177D01*
X633149Y513028D01*
X634382Y512953D01*
X635618Y512953D01*
X636851Y513028D01*
X638078Y513177D01*
X639293Y513399D01*
X640493Y513695D01*
X641673Y514063D01*
X642828Y514501D01*
X643955Y515008D01*
X645049Y515582D01*
X646107Y516221D01*
X647124Y516923D01*
X648096Y517686D01*
X649021Y518505D01*
X649895Y519379D01*
X650715Y520304D01*
X651477Y521276D01*
X652179Y522293D01*
X652818Y523351D01*
X653392Y524445D01*
X653899Y525572D01*
X654337Y526727D01*
X654705Y527907D01*
X655001Y529107D01*
X655223Y530322D01*
X655372Y531549D01*
X655447Y532782D01*
X655447Y534018D01*
X909447Y534018D02*
X909372Y535251D01*
X909223Y536478D01*
X909001Y537693D01*
X908705Y538893D01*
X908337Y540073D01*
X907899Y541228D01*
X907392Y542355D01*
X906818Y543449D01*
X906179Y544507D01*
X905477Y545524D01*
X904715Y546496D01*
X903895Y547421D01*
X903021Y548295D01*
X902096Y549115D01*
X901124Y549877D01*
X900107Y550579D01*
X899049Y551218D01*
X897955Y551792D01*
X896828Y552299D01*
X895673Y552737D01*
X894493Y553105D01*
X893293Y553401D01*
X892078Y553623D01*
X890851Y553772D01*
X889618Y553847D01*
X888382Y553847D01*
X887149Y553772D01*
X885922Y553623D01*
X884707Y553401D01*
X883507Y553105D01*
X882327Y552737D01*
X881172Y552299D01*
X880045Y551792D01*
X878951Y551218D01*
X877893Y550579D01*
X876876Y549877D01*
X875904Y549115D01*
X874979Y548295D01*
X874105Y547421D01*
X873286Y546496D01*
X872523Y545524D01*
X871821Y544507D01*
X871182Y543449D01*
X870608Y542355D01*
X870101Y541228D01*
X869663Y540073D01*
X869295Y538893D01*
X868999Y537693D01*
X868777Y536478D01*
X868628Y535251D01*
X868553Y534018D01*
X868553Y532782D01*
X868628Y531549D01*
X868777Y530322D01*
X868999Y529107D01*
X869295Y527907D01*
X869663Y526727D01*
X870101Y525572D01*
X870608Y524445D01*
X871182Y523351D01*
X871821Y522293D01*
X872523Y521276D01*
X873286Y520304D01*
X874105Y519379D01*
X874979Y518505D01*
X875904Y517686D01*
X876876Y516923D01*
X877893Y516221D01*
X878951Y515582D01*
X880045Y515008D01*
X881172Y514501D01*
X882327Y514063D01*
X883507Y513695D01*
X884707Y513399D01*
X885922Y513177D01*
X887149Y513028D01*
X888382Y512953D01*
X889618Y512953D01*
X890851Y513028D01*
X892078Y513177D01*
X893293Y513399D01*
X894493Y513695D01*
X895673Y514063D01*
X896828Y514501D01*
X897955Y515008D01*
X899049Y515582D01*
X900107Y516221D01*
X901124Y516923D01*
X902096Y517686D01*
X903021Y518505D01*
X903895Y519379D01*
X904715Y520304D01*
X905477Y521276D01*
X906179Y522293D01*
X906818Y523351D01*
X907392Y524445D01*
X907899Y525572D01*
X908337Y526727D01*
X908705Y527907D01*
X909001Y529107D01*
X909223Y530322D01*
X909372Y531549D01*
X909447Y532782D01*
X909447Y534018D01*
X1150747Y534018D02*
X1150672Y535251D01*
X1150523Y536478D01*
X1150301Y537693D01*
X1150005Y538893D01*
X1149637Y540073D01*
X1149199Y541228D01*
X1148692Y542355D01*
X1148118Y543449D01*
X1147479Y544507D01*
X1146777Y545524D01*
X1146015Y546496D01*
X1145195Y547421D01*
X1144321Y548295D01*
X1143396Y549115D01*
X1142424Y549877D01*
X1141407Y550579D01*
X1140349Y551218D01*
X1139255Y551792D01*
X1138128Y552299D01*
X1136973Y552737D01*
X1135793Y553105D01*
X1134593Y553401D01*
X1133378Y553623D01*
X1132151Y553772D01*
X1130918Y553847D01*
X1129682Y553847D01*
X1128449Y553772D01*
X1127222Y553623D01*
X1126007Y553401D01*
X1124807Y553105D01*
X1123627Y552737D01*
X1122472Y552299D01*
X1121345Y551792D01*
X1120251Y551218D01*
X1119193Y550579D01*
X1118176Y549877D01*
X1117204Y549115D01*
X1116279Y548295D01*
X1115405Y547421D01*
X1114586Y546496D01*
X1113823Y545524D01*
X1113121Y544507D01*
X1112482Y543449D01*
X1111908Y542355D01*
X1111401Y541228D01*
X1110963Y540073D01*
X1110595Y538893D01*
X1110299Y537693D01*
X1110077Y536478D01*
X1109928Y535251D01*
X1109853Y534018D01*
X1109853Y532782D01*
X1109928Y531549D01*
X1110077Y530322D01*
X1110299Y529107D01*
X1110595Y527907D01*
X1110963Y526727D01*
X1111401Y525572D01*
X1111908Y524445D01*
X1112482Y523351D01*
X1113121Y522293D01*
X1113823Y521276D01*
X1114586Y520304D01*
X1115405Y519379D01*
X1116279Y518505D01*
X1117204Y517686D01*
X1118176Y516923D01*
X1119193Y516221D01*
X1120251Y515582D01*
X1121345Y515008D01*
X1122472Y514501D01*
X1123627Y514063D01*
X1124807Y513695D01*
X1126007Y513399D01*
X1127222Y513177D01*
X1128449Y513028D01*
X1129682Y512953D01*
X1130918Y512953D01*
X1132151Y513028D01*
X1133378Y513177D01*
X1134593Y513399D01*
X1135793Y513695D01*
X1136973Y514063D01*
X1138128Y514501D01*
X1139255Y515008D01*
X1140349Y515582D01*
X1141407Y516221D01*
X1142424Y516923D01*
X1143396Y517686D01*
X1144321Y518505D01*
X1145195Y519379D01*
X1146015Y520304D01*
X1146777Y521276D01*
X1147479Y522293D01*
X1148118Y523351D01*
X1148692Y524445D01*
X1149199Y525572D01*
X1149637Y526727D01*
X1150005Y527907D01*
X1150301Y529107D01*
X1150523Y530322D01*
X1150672Y531549D01*
X1150747Y532782D01*
X1150747Y534018D01*
X1150747Y127618D02*
X1150672Y128851D01*
X1150523Y130078D01*
X1150301Y131293D01*
X1150005Y132493D01*
X1149637Y133673D01*
X1149199Y134828D01*
X1148692Y135955D01*
X1148118Y137049D01*
X1147479Y138107D01*
X1146777Y139124D01*
X1146015Y140096D01*
X1145195Y141021D01*
X1144321Y141895D01*
X1143396Y142715D01*
X1142424Y143477D01*
X1141407Y144179D01*
X1140349Y144818D01*
X1139255Y145392D01*
X1138128Y145899D01*
X1136973Y146337D01*
X1135793Y146705D01*
X1134593Y147001D01*
X1133378Y147223D01*
X1132151Y147372D01*
X1130918Y147447D01*
X1129682Y147447D01*
X1128449Y147372D01*
X1127222Y147223D01*
X1126007Y147001D01*
X1124807Y146705D01*
X1123627Y146337D01*
X1122472Y145899D01*
X1121345Y145392D01*
X1120251Y144818D01*
X1119193Y144179D01*
X1118176Y143477D01*
X1117204Y142715D01*
X1116279Y141895D01*
X1115405Y141021D01*
X1114586Y140096D01*
X1113823Y139124D01*
X1113121Y138107D01*
X1112482Y137049D01*
X1111908Y135955D01*
X1111401Y134828D01*
X1110963Y133673D01*
X1110595Y132493D01*
X1110299Y131293D01*
X1110077Y130078D01*
X1109928Y128851D01*
X1109853Y127618D01*
X1109853Y126382D01*
X1109928Y125149D01*
X1110077Y123922D01*
X1110299Y122707D01*
X1110595Y121507D01*
X1110963Y120327D01*
X1111401Y119172D01*
X1111908Y118045D01*
X1112482Y116951D01*
X1113121Y115893D01*
X1113823Y114876D01*
X1114586Y113904D01*
X1115405Y112979D01*
X1116279Y112105D01*
X1117204Y111286D01*
X1118176Y110523D01*
X1119193Y109821D01*
X1120251Y109182D01*
X1121345Y108608D01*
X1122472Y108101D01*
X1123627Y107663D01*
X1124807Y107295D01*
X1126007Y106999D01*
X1127222Y106777D01*
X1128449Y106628D01*
X1129682Y106553D01*
X1130918Y106553D01*
X1132151Y106628D01*
X1133378Y106777D01*
X1134593Y106999D01*
X1135793Y107295D01*
X1136973Y107663D01*
X1138128Y108101D01*
X1139255Y108608D01*
X1140349Y109182D01*
X1141407Y109821D01*
X1142424Y110523D01*
X1143396Y111286D01*
X1144321Y112105D01*
X1145195Y112979D01*
X1146015Y113904D01*
X1146777Y114876D01*
X1147479Y115893D01*
X1148118Y116951D01*
X1148692Y118045D01*
X1149199Y119172D01*
X1149637Y120327D01*
X1150005Y121507D01*
X1150301Y122707D01*
X1150523Y123922D01*
X1150672Y125149D01*
X1150747Y126382D01*
X1150747Y127618D01*
X909447Y330818D02*
X909372Y332051D01*
X909223Y333278D01*
X909001Y334493D01*
X908705Y335693D01*
X908337Y336873D01*
X907899Y338028D01*
X907392Y339155D01*
X906818Y340249D01*
X906179Y341307D01*
X905477Y342324D01*
X904715Y343296D01*
X903895Y344221D01*
X903021Y345095D01*
X902096Y345915D01*
X901124Y346677D01*
X900107Y347379D01*
X899049Y348018D01*
X897955Y348592D01*
X896828Y349099D01*
X895673Y349537D01*
X894493Y349905D01*
X893293Y350201D01*
X892078Y350423D01*
X890851Y350572D01*
X889618Y350647D01*
X888382Y350647D01*
X887149Y350572D01*
X885922Y350423D01*
X884707Y350201D01*
X883507Y349905D01*
X882327Y349537D01*
X881172Y349099D01*
X880045Y348592D01*
X878951Y348018D01*
X877893Y347379D01*
X876876Y346677D01*
X875904Y345915D01*
X874979Y345095D01*
X874105Y344221D01*
X873286Y343296D01*
X872523Y342324D01*
X871821Y341307D01*
X871182Y340249D01*
X870608Y339155D01*
X870101Y338028D01*
X869663Y336873D01*
X869295Y335693D01*
X868999Y334493D01*
X868777Y333278D01*
X868628Y332051D01*
X868553Y330818D01*
X868553Y329582D01*
X868628Y328349D01*
X868777Y327122D01*
X868999Y325907D01*
X869295Y324707D01*
X869663Y323527D01*
X870101Y322372D01*
X870608Y321245D01*
X871182Y320151D01*
X871821Y319093D01*
X872523Y318076D01*
X873286Y317104D01*
X874105Y316179D01*
X874979Y315305D01*
X875904Y314486D01*
X876876Y313723D01*
X877893Y313021D01*
X878951Y312382D01*
X880045Y311808D01*
X881172Y311301D01*
X882327Y310863D01*
X883507Y310495D01*
X884707Y310199D01*
X885922Y309977D01*
X887149Y309828D01*
X888382Y309753D01*
X889618Y309753D01*
X890851Y309828D01*
X892078Y309977D01*
X893293Y310199D01*
X894493Y310495D01*
X895673Y310863D01*
X896828Y311301D01*
X897955Y311808D01*
X899049Y312382D01*
X900107Y313021D01*
X901124Y313723D01*
X902096Y314486D01*
X903021Y315305D01*
X903895Y316179D01*
X904715Y317104D01*
X905477Y318076D01*
X906179Y319093D01*
X906818Y320151D01*
X907392Y321245D01*
X907899Y322372D01*
X908337Y323527D01*
X908705Y324707D01*
X909001Y325907D01*
X909223Y327122D01*
X909372Y328349D01*
X909447Y329582D01*
X909447Y330818D01*
X1150747Y330818D02*
X1150672Y332051D01*
X1150523Y333278D01*
X1150301Y334493D01*
X1150005Y335693D01*
X1149637Y336873D01*
X1149199Y338028D01*
X1148692Y339155D01*
X1148118Y340249D01*
X1147479Y341307D01*
X1146777Y342324D01*
X1146015Y343296D01*
X1145195Y344221D01*
X1144321Y345095D01*
X1143396Y345915D01*
X1142424Y346677D01*
X1141407Y347379D01*
X1140349Y348018D01*
X1139255Y348592D01*
X1138128Y349099D01*
X1136973Y349537D01*
X1135793Y349905D01*
X1134593Y350201D01*
X1133378Y350423D01*
X1132151Y350572D01*
X1130918Y350647D01*
X1129682Y350647D01*
X1128449Y350572D01*
X1127222Y350423D01*
X1126007Y350201D01*
X1124807Y349905D01*
X1123627Y349537D01*
X1122472Y349099D01*
X1121345Y348592D01*
X1120251Y348018D01*
X1119193Y347379D01*
X1118176Y346677D01*
X1117204Y345915D01*
X1116279Y345095D01*
X1115405Y344221D01*
X1114586Y343296D01*
X1113823Y342324D01*
X1113121Y341307D01*
X1112482Y340249D01*
X1111908Y339155D01*
X1111401Y338028D01*
X1110963Y336873D01*
X1110595Y335693D01*
X1110299Y334493D01*
X1110077Y333278D01*
X1109928Y332051D01*
X1109853Y330818D01*
X1109853Y329582D01*
X1109928Y328349D01*
X1110077Y327122D01*
X1110299Y325907D01*
X1110595Y324707D01*
X1110963Y323527D01*
X1111401Y322372D01*
X1111908Y321245D01*
X1112482Y320151D01*
X1113121Y319093D01*
X1113823Y318076D01*
X1114586Y317104D01*
X1115405Y316179D01*
X1116279Y315305D01*
X1117204Y314486D01*
X1118176Y313723D01*
X1119193Y313021D01*
X1120251Y312382D01*
X1121345Y311808D01*
X1122472Y311301D01*
X1123627Y310863D01*
X1124807Y310495D01*
X1126007Y310199D01*
X1127222Y309977D01*
X1128449Y309828D01*
X1129682Y309753D01*
X1130918Y309753D01*
X1132151Y309828D01*
X1133378Y309977D01*
X1134593Y310199D01*
X1135793Y310495D01*
X1136973Y310863D01*
X1138128Y311301D01*
X1139255Y311808D01*
X1140349Y312382D01*
X1141407Y313021D01*
X1142424Y313723D01*
X1143396Y314486D01*
X1144321Y315305D01*
X1145195Y316179D01*
X1146015Y317104D01*
X1146777Y318076D01*
X1147479Y319093D01*
X1148118Y320151D01*
X1148692Y321245D01*
X1149199Y322372D01*
X1149637Y323527D01*
X1150005Y324707D01*
X1150301Y325907D01*
X1150523Y327122D01*
X1150672Y328349D01*
X1150747Y329582D01*
X1150747Y330818D01*
X1150747Y737218D02*
X1150672Y738451D01*
X1150523Y739678D01*
X1150301Y740893D01*
X1150005Y742093D01*
X1149637Y743273D01*
X1149199Y744428D01*
X1148692Y745555D01*
X1148118Y746649D01*
X1147479Y747707D01*
X1146777Y748724D01*
X1146015Y749696D01*
X1145195Y750621D01*
X1144321Y751495D01*
X1143396Y752315D01*
X1142424Y753077D01*
X1141407Y753779D01*
X1140349Y754418D01*
X1139255Y754992D01*
X1138128Y755499D01*
X1136973Y755937D01*
X1135793Y756305D01*
X1134593Y756601D01*
X1133378Y756823D01*
X1132151Y756972D01*
X1130918Y757047D01*
X1129682Y757047D01*
X1128449Y756972D01*
X1127222Y756823D01*
X1126007Y756601D01*
X1124807Y756305D01*
X1123627Y755937D01*
X1122472Y755499D01*
X1121345Y754992D01*
X1120251Y754418D01*
X1119193Y753779D01*
X1118176Y753077D01*
X1117204Y752315D01*
X1116279Y751495D01*
X1115405Y750621D01*
X1114586Y749696D01*
X1113823Y748724D01*
X1113121Y747707D01*
X1112482Y746649D01*
X1111908Y745555D01*
X1111401Y744428D01*
X1110963Y743273D01*
X1110595Y742093D01*
X1110299Y740893D01*
X1110077Y739678D01*
X1109928Y738451D01*
X1109853Y737218D01*
X1109853Y735982D01*
X1109928Y734749D01*
X1110077Y733522D01*
X1110299Y732307D01*
X1110595Y731107D01*
X1110963Y729927D01*
X1111401Y728772D01*
X1111908Y727645D01*
X1112482Y726551D01*
X1113121Y725493D01*
X1113823Y724476D01*
X1114586Y723504D01*
X1115405Y722579D01*
X1116279Y721705D01*
X1117204Y720886D01*
X1118176Y720123D01*
X1119193Y719421D01*
X1120251Y718782D01*
X1121345Y718208D01*
X1122472Y717701D01*
X1123627Y717263D01*
X1124807Y716895D01*
X1126007Y716599D01*
X1127222Y716377D01*
X1128449Y716228D01*
X1129682Y716153D01*
X1130918Y716153D01*
X1132151Y716228D01*
X1133378Y716377D01*
X1134593Y716599D01*
X1135793Y716895D01*
X1136973Y717263D01*
X1138128Y717701D01*
X1139255Y718208D01*
X1140349Y718782D01*
X1141407Y719421D01*
X1142424Y720123D01*
X1143396Y720886D01*
X1144321Y721705D01*
X1145195Y722579D01*
X1146015Y723504D01*
X1146777Y724476D01*
X1147479Y725493D01*
X1148118Y726551D01*
X1148692Y727645D01*
X1149199Y728772D01*
X1149637Y729927D01*
X1150005Y731107D01*
X1150301Y732307D01*
X1150523Y733522D01*
X1150672Y734749D01*
X1150747Y735982D01*
X1150747Y737218D01*
X401447Y330818D02*
X401372Y332051D01*
X401223Y333278D01*
X401001Y334493D01*
X400705Y335693D01*
X400337Y336873D01*
X399899Y338028D01*
X399392Y339155D01*
X398818Y340249D01*
X398179Y341307D01*
X397477Y342324D01*
X396715Y343296D01*
X395895Y344221D01*
X395021Y345095D01*
X394096Y345915D01*
X393124Y346677D01*
X392107Y347379D01*
X391049Y348018D01*
X389955Y348592D01*
X388828Y349099D01*
X387673Y349537D01*
X386493Y349905D01*
X385293Y350201D01*
X384078Y350423D01*
X382851Y350572D01*
X381618Y350647D01*
X380382Y350647D01*
X379149Y350572D01*
X377922Y350423D01*
X376707Y350201D01*
X375507Y349905D01*
X374327Y349537D01*
X373172Y349099D01*
X372045Y348592D01*
X370951Y348018D01*
X369893Y347379D01*
X368876Y346677D01*
X367904Y345915D01*
X366979Y345095D01*
X366105Y344221D01*
X365286Y343296D01*
X364523Y342324D01*
X363821Y341307D01*
X363182Y340249D01*
X362608Y339155D01*
X362101Y338028D01*
X361663Y336873D01*
X361295Y335693D01*
X360999Y334493D01*
X360777Y333278D01*
X360628Y332051D01*
X360553Y330818D01*
X360553Y329582D01*
X360628Y328349D01*
X360777Y327122D01*
X360999Y325907D01*
X361295Y324707D01*
X361663Y323527D01*
X362101Y322372D01*
X362608Y321245D01*
X363182Y320151D01*
X363821Y319093D01*
X364523Y318076D01*
X365286Y317104D01*
X366105Y316179D01*
X366979Y315305D01*
X367904Y314486D01*
X368876Y313723D01*
X369893Y313021D01*
X370951Y312382D01*
X372045Y311808D01*
X373172Y311301D01*
X374327Y310863D01*
X375507Y310495D01*
X376707Y310199D01*
X377922Y309977D01*
X379149Y309828D01*
X380382Y309753D01*
X381618Y309753D01*
X382851Y309828D01*
X384078Y309977D01*
X385293Y310199D01*
X386493Y310495D01*
X387673Y310863D01*
X388828Y311301D01*
X389955Y311808D01*
X391049Y312382D01*
X392107Y313021D01*
X393124Y313723D01*
X394096Y314486D01*
X395021Y315305D01*
X395895Y316179D01*
X396715Y317104D01*
X397477Y318076D01*
X398179Y319093D01*
X398818Y320151D01*
X399392Y321245D01*
X399899Y322372D01*
X400337Y323527D01*
X400705Y324707D01*
X401001Y325907D01*
X401223Y327122D01*
X401372Y328349D01*
X401447Y329582D01*
X401447Y330818D01*
X909447Y940418D02*
X909372Y941651D01*
X909223Y942878D01*
X909001Y944093D01*
X908705Y945293D01*
X908337Y946473D01*
X907899Y947628D01*
X907392Y948755D01*
X906818Y949849D01*
X906179Y950907D01*
X905477Y951924D01*
X904715Y952896D01*
X903895Y953821D01*
X903021Y954695D01*
X902096Y955515D01*
X901124Y956277D01*
X900107Y956979D01*
X899049Y957618D01*
X897955Y958192D01*
X896828Y958699D01*
X895673Y959137D01*
X894493Y959505D01*
X893293Y959801D01*
X892078Y960023D01*
X890851Y960172D01*
X889618Y960247D01*
X888382Y960247D01*
X887149Y960172D01*
X885922Y960023D01*
X884707Y959801D01*
X883507Y959505D01*
X882327Y959137D01*
X881172Y958699D01*
X880045Y958192D01*
X878951Y957618D01*
X877893Y956979D01*
X876876Y956277D01*
X875904Y955515D01*
X874979Y954695D01*
X874105Y953821D01*
X873286Y952896D01*
X872523Y951924D01*
X871821Y950907D01*
X871182Y949849D01*
X870608Y948755D01*
X870101Y947628D01*
X869663Y946473D01*
X869295Y945293D01*
X868999Y944093D01*
X868777Y942878D01*
X868628Y941651D01*
X868553Y940418D01*
X868553Y939182D01*
X868628Y937949D01*
X868777Y936722D01*
X868999Y935507D01*
X869295Y934307D01*
X869663Y933127D01*
X870101Y931972D01*
X870608Y930845D01*
X871182Y929751D01*
X871821Y928693D01*
X872523Y927676D01*
X873286Y926704D01*
X874105Y925779D01*
X874979Y924905D01*
X875904Y924086D01*
X876876Y923323D01*
X877893Y922621D01*
X878951Y921982D01*
X880045Y921408D01*
X881172Y920901D01*
X882327Y920463D01*
X883507Y920095D01*
X884707Y919799D01*
X885922Y919577D01*
X887149Y919428D01*
X888382Y919353D01*
X889618Y919353D01*
X890851Y919428D01*
X892078Y919577D01*
X893293Y919799D01*
X894493Y920095D01*
X895673Y920463D01*
X896828Y920901D01*
X897955Y921408D01*
X899049Y921982D01*
X900107Y922621D01*
X901124Y923323D01*
X902096Y924086D01*
X903021Y924905D01*
X903895Y925779D01*
X904715Y926704D01*
X905477Y927676D01*
X906179Y928693D01*
X906818Y929751D01*
X907392Y930845D01*
X907899Y931972D01*
X908337Y933127D01*
X908705Y934307D01*
X909001Y935507D01*
X909223Y936722D01*
X909372Y937949D01*
X909447Y939182D01*
X909447Y940418D01*
X909447Y737218D02*
X909372Y738451D01*
X909223Y739678D01*
X909001Y740893D01*
X908705Y742093D01*
X908337Y743273D01*
X907899Y744428D01*
X907392Y745555D01*
X906818Y746649D01*
X906179Y747707D01*
X905477Y748724D01*
X904715Y749696D01*
X903895Y750621D01*
X903021Y751495D01*
X902096Y752315D01*
X901124Y753077D01*
X900107Y753779D01*
X899049Y754418D01*
X897955Y754992D01*
X896828Y755499D01*
X895673Y755937D01*
X894493Y756305D01*
X893293Y756601D01*
X892078Y756823D01*
X890851Y756972D01*
X889618Y757047D01*
X888382Y757047D01*
X887149Y756972D01*
X885922Y756823D01*
X884707Y756601D01*
X883507Y756305D01*
X882327Y755937D01*
X881172Y755499D01*
X880045Y754992D01*
X878951Y754418D01*
X877893Y753779D01*
X876876Y753077D01*
X875904Y752315D01*
X874979Y751495D01*
X874105Y750621D01*
X873286Y749696D01*
X872523Y748724D01*
X871821Y747707D01*
X871182Y746649D01*
X870608Y745555D01*
X870101Y744428D01*
X869663Y743273D01*
X869295Y742093D01*
X868999Y740893D01*
X868777Y739678D01*
X868628Y738451D01*
X868553Y737218D01*
X868553Y735982D01*
X868628Y734749D01*
X868777Y733522D01*
X868999Y732307D01*
X869295Y731107D01*
X869663Y729927D01*
X870101Y728772D01*
X870608Y727645D01*
X871182Y726551D01*
X871821Y725493D01*
X872523Y724476D01*
X873286Y723504D01*
X874105Y722579D01*
X874979Y721705D01*
X875904Y720886D01*
X876876Y720123D01*
X877893Y719421D01*
X878951Y718782D01*
X880045Y718208D01*
X881172Y717701D01*
X882327Y717263D01*
X883507Y716895D01*
X884707Y716599D01*
X885922Y716377D01*
X887149Y716228D01*
X888382Y716153D01*
X889618Y716153D01*
X890851Y716228D01*
X892078Y716377D01*
X893293Y716599D01*
X894493Y716895D01*
X895673Y717263D01*
X896828Y717701D01*
X897955Y718208D01*
X899049Y718782D01*
X900107Y719421D01*
X901124Y720123D01*
X902096Y720886D01*
X903021Y721705D01*
X903895Y722579D01*
X904715Y723504D01*
X905477Y724476D01*
X906179Y725493D01*
X906818Y726551D01*
X907392Y727645D01*
X907899Y728772D01*
X908337Y729927D01*
X908705Y731107D01*
X909001Y732307D01*
X909223Y733522D01*
X909372Y734749D01*
X909447Y735982D01*
X909447Y737218D01*
X655447Y940418D02*
X655372Y941651D01*
X655223Y942878D01*
X655001Y944093D01*
X654705Y945293D01*
X654337Y946473D01*
X653899Y947628D01*
X653392Y948755D01*
X652818Y949849D01*
X652179Y950907D01*
X651477Y951924D01*
X650715Y952896D01*
X649895Y953821D01*
X649021Y954695D01*
X648096Y955515D01*
X647124Y956277D01*
X646107Y956979D01*
X645049Y957618D01*
X643955Y958192D01*
X642828Y958699D01*
X641673Y959137D01*
X640493Y959505D01*
X639293Y959801D01*
X638078Y960023D01*
X636851Y960172D01*
X635618Y960247D01*
X634382Y960247D01*
X633149Y960172D01*
X631922Y960023D01*
X630707Y959801D01*
X629507Y959505D01*
X628327Y959137D01*
X627172Y958699D01*
X626045Y958192D01*
X624951Y957618D01*
X623893Y956979D01*
X622876Y956277D01*
X621904Y955515D01*
X620979Y954695D01*
X620105Y953821D01*
X619286Y952896D01*
X618523Y951924D01*
X617821Y950907D01*
X617182Y949849D01*
X616608Y948755D01*
X616101Y947628D01*
X615663Y946473D01*
X615295Y945293D01*
X614999Y944093D01*
X614777Y942878D01*
X614628Y941651D01*
X614553Y940418D01*
X614553Y939182D01*
X614628Y937949D01*
X614777Y936722D01*
X614999Y935507D01*
X615295Y934307D01*
X615663Y933127D01*
X616101Y931972D01*
X616608Y930845D01*
X617182Y929751D01*
X617821Y928693D01*
X618523Y927676D01*
X619286Y926704D01*
X620105Y925779D01*
X620979Y924905D01*
X621904Y924086D01*
X622876Y923323D01*
X623893Y922621D01*
X624951Y921982D01*
X626045Y921408D01*
X627172Y920901D01*
X628327Y920463D01*
X629507Y920095D01*
X630707Y919799D01*
X631922Y919577D01*
X633149Y919428D01*
X634382Y919353D01*
X635618Y919353D01*
X636851Y919428D01*
X638078Y919577D01*
X639293Y919799D01*
X640493Y920095D01*
X641673Y920463D01*
X642828Y920901D01*
X643955Y921408D01*
X645049Y921982D01*
X646107Y922621D01*
X647124Y923323D01*
X648096Y924086D01*
X649021Y924905D01*
X649895Y925779D01*
X650715Y926704D01*
X651477Y927676D01*
X652179Y928693D01*
X652818Y929751D01*
X653392Y930845D01*
X653899Y931972D01*
X654337Y933127D01*
X654705Y934307D01*
X655001Y935507D01*
X655223Y936722D01*
X655372Y937949D01*
X655447Y939182D01*
X655447Y940418D01*
X655447Y737218D02*
X655372Y738451D01*
X655223Y739678D01*
X655001Y740893D01*
X654705Y742093D01*
X654337Y743273D01*
X653899Y744428D01*
X653392Y745555D01*
X652818Y746649D01*
X652179Y747707D01*
X651477Y748724D01*
X650715Y749696D01*
X649895Y750621D01*
X649021Y751495D01*
X648096Y752315D01*
X647124Y753077D01*
X646107Y753779D01*
X645049Y754418D01*
X643955Y754992D01*
X642828Y755499D01*
X641673Y755937D01*
X640493Y756305D01*
X639293Y756601D01*
X638078Y756823D01*
X636851Y756972D01*
X635618Y757047D01*
X634382Y757047D01*
X633149Y756972D01*
X631922Y756823D01*
X630707Y756601D01*
X629507Y756305D01*
X628327Y755937D01*
X627172Y755499D01*
X626045Y754992D01*
X624951Y754418D01*
X623893Y753779D01*
X622876Y753077D01*
X621904Y752315D01*
X620979Y751495D01*
X620105Y750621D01*
X619286Y749696D01*
X618523Y748724D01*
X617821Y747707D01*
X617182Y746649D01*
X616608Y745555D01*
X616101Y744428D01*
X615663Y743273D01*
X615295Y742093D01*
X614999Y740893D01*
X614777Y739678D01*
X614628Y738451D01*
X614553Y737218D01*
X614553Y735982D01*
X614628Y734749D01*
X614777Y733522D01*
X614999Y732307D01*
X615295Y731107D01*
X615663Y729927D01*
X616101Y728772D01*
X616608Y727645D01*
X617182Y726551D01*
X617821Y725493D01*
X618523Y724476D01*
X619286Y723504D01*
X620105Y722579D01*
X620979Y721705D01*
X621904Y720886D01*
X622876Y720123D01*
X623893Y719421D01*
X624951Y718782D01*
X626045Y718208D01*
X627172Y717701D01*
X628327Y717263D01*
X629507Y716895D01*
X630707Y716599D01*
X631922Y716377D01*
X633149Y716228D01*
X634382Y716153D01*
X635618Y716153D01*
X636851Y716228D01*
X638078Y716377D01*
X639293Y716599D01*
X640493Y716895D01*
X641673Y717263D01*
X642828Y717701D01*
X643955Y718208D01*
X645049Y718782D01*
X646107Y719421D01*
X647124Y720123D01*
X648096Y720886D01*
X649021Y721705D01*
X649895Y722579D01*
X650715Y723504D01*
X651477Y724476D01*
X652179Y725493D01*
X652818Y726551D01*
X653392Y727645D01*
X653899Y728772D01*
X654337Y729927D01*
X654705Y731107D01*
X655001Y732307D01*
X655223Y733522D01*
X655372Y734749D01*
X655447Y735982D01*
X655447Y737218D01*
X401447Y940418D02*
X401372Y941651D01*
X401223Y942878D01*
X401001Y944093D01*
X400705Y945293D01*
X400337Y946473D01*
X399899Y947628D01*
X399392Y948755D01*
X398818Y949849D01*
X398179Y950907D01*
X397477Y951924D01*
X396715Y952896D01*
X395895Y953821D01*
X395021Y954695D01*
X394096Y955515D01*
X393124Y956277D01*
X392107Y956979D01*
X391049Y957618D01*
X389955Y958192D01*
X388828Y958699D01*
X387673Y959137D01*
X386493Y959505D01*
X385293Y959801D01*
X384078Y960023D01*
X382851Y960172D01*
X381618Y960247D01*
X380382Y960247D01*
X379149Y960172D01*
X377922Y960023D01*
X376707Y959801D01*
X375507Y959505D01*
X374327Y959137D01*
X373172Y958699D01*
X372045Y958192D01*
X370951Y957618D01*
X369893Y956979D01*
X368876Y956277D01*
X367904Y955515D01*
X366979Y954695D01*
X366105Y953821D01*
X365286Y952896D01*
X364523Y951924D01*
X363821Y950907D01*
X363182Y949849D01*
X362608Y948755D01*
X362101Y947628D01*
X361663Y946473D01*
X361295Y945293D01*
X360999Y944093D01*
X360777Y942878D01*
X360628Y941651D01*
X360553Y940418D01*
X360553Y939182D01*
X360628Y937949D01*
X360777Y936722D01*
X360999Y935507D01*
X361295Y934307D01*
X361663Y933127D01*
X362101Y931972D01*
X362608Y930845D01*
X363182Y929751D01*
X363821Y928693D01*
X364523Y927676D01*
X365286Y926704D01*
X366105Y925779D01*
X366979Y924905D01*
X367904Y924086D01*
X368876Y923323D01*
X369893Y922621D01*
X370951Y921982D01*
X372045Y921408D01*
X373172Y920901D01*
X374327Y920463D01*
X375507Y920095D01*
X376707Y919799D01*
X377922Y919577D01*
X379149Y919428D01*
X380382Y919353D01*
X381618Y919353D01*
X382851Y919428D01*
X384078Y919577D01*
X385293Y919799D01*
X386493Y920095D01*
X387673Y920463D01*
X388828Y920901D01*
X389955Y921408D01*
X391049Y921982D01*
X392107Y922621D01*
X393124Y923323D01*
X394096Y924086D01*
X395021Y924905D01*
X395895Y925779D01*
X396715Y926704D01*
X397477Y927676D01*
X398179Y928693D01*
X398818Y929751D01*
X399392Y930845D01*
X399899Y931972D01*
X400337Y933127D01*
X400705Y934307D01*
X401001Y935507D01*
X401223Y936722D01*
X401372Y937949D01*
X401447Y939182D01*
X401447Y940418D01*
X401447Y737218D02*
X401372Y738451D01*
X401223Y739678D01*
X401001Y740893D01*
X400705Y742093D01*
X400337Y743273D01*
X399899Y744428D01*
X399392Y745555D01*
X398818Y746649D01*
X398179Y747707D01*
X397477Y748724D01*
X396715Y749696D01*
X395895Y750621D01*
X395021Y751495D01*
X394096Y752315D01*
X393124Y753077D01*
X392107Y753779D01*
X391049Y754418D01*
X389955Y754992D01*
X388828Y755499D01*
X387673Y755937D01*
X386493Y756305D01*
X385293Y756601D01*
X384078Y756823D01*
X382851Y756972D01*
X381618Y757047D01*
X380382Y757047D01*
X379149Y756972D01*
X377922Y756823D01*
X376707Y756601D01*
X375507Y756305D01*
X374327Y755937D01*
X373172Y755499D01*
X372045Y754992D01*
X370951Y754418D01*
X369893Y753779D01*
X368876Y753077D01*
X367904Y752315D01*
X366979Y751495D01*
X366105Y750621D01*
X365286Y749696D01*
X364523Y748724D01*
X363821Y747707D01*
X363182Y746649D01*
X362608Y745555D01*
X362101Y744428D01*
X361663Y743273D01*
X361295Y742093D01*
X360999Y740893D01*
X360777Y739678D01*
X360628Y738451D01*
X360553Y737218D01*
X360553Y735982D01*
X360628Y734749D01*
X360777Y733522D01*
X360999Y732307D01*
X361295Y731107D01*
X361663Y729927D01*
X362101Y728772D01*
X362608Y727645D01*
X363182Y726551D01*
X363821Y725493D01*
X364523Y724476D01*
X365286Y723504D01*
X366105Y722579D01*
X366979Y721705D01*
X367904Y720886D01*
X368876Y720123D01*
X369893Y719421D01*
X370951Y718782D01*
X372045Y718208D01*
X373172Y717701D01*
X374327Y717263D01*
X375507Y716895D01*
X376707Y716599D01*
X377922Y716377D01*
X379149Y716228D01*
X380382Y716153D01*
X381618Y716153D01*
X382851Y716228D01*
X384078Y716377D01*
X385293Y716599D01*
X386493Y716895D01*
X387673Y717263D01*
X388828Y717701D01*
X389955Y718208D01*
X391049Y718782D01*
X392107Y719421D01*
X393124Y720123D01*
X394096Y720886D01*
X395021Y721705D01*
X395895Y722579D01*
X396715Y723504D01*
X397477Y724476D01*
X398179Y725493D01*
X398818Y726551D01*
X399392Y727645D01*
X399899Y728772D01*
X400337Y729927D01*
X400705Y731107D01*
X401001Y732307D01*
X401223Y733522D01*
X401372Y734749D01*
X401447Y735982D01*
X401447Y737218D01*
X172847Y940418D02*
X172772Y941651D01*
X172623Y942878D01*
X172401Y944093D01*
X172105Y945293D01*
X171737Y946473D01*
X171299Y947628D01*
X170792Y948755D01*
X170218Y949849D01*
X169579Y950907D01*
X168877Y951924D01*
X168115Y952896D01*
X167295Y953821D01*
X166421Y954695D01*
X165496Y955515D01*
X164524Y956277D01*
X163507Y956979D01*
X162449Y957618D01*
X161355Y958192D01*
X160228Y958699D01*
X159073Y959137D01*
X157893Y959505D01*
X156693Y959801D01*
X155478Y960023D01*
X154251Y960172D01*
X153018Y960247D01*
X151782Y960247D01*
X150549Y960172D01*
X149322Y960023D01*
X148107Y959801D01*
X146907Y959505D01*
X145727Y959137D01*
X144572Y958699D01*
X143445Y958192D01*
X142351Y957618D01*
X141293Y956979D01*
X140276Y956277D01*
X139304Y955515D01*
X138379Y954695D01*
X137505Y953821D01*
X136686Y952896D01*
X135923Y951924D01*
X135221Y950907D01*
X134582Y949849D01*
X134008Y948755D01*
X133501Y947628D01*
X133063Y946473D01*
X132695Y945293D01*
X132399Y944093D01*
X132177Y942878D01*
X132028Y941651D01*
X131953Y940418D01*
X131953Y939182D01*
X132028Y937949D01*
X132177Y936722D01*
X132399Y935507D01*
X132695Y934307D01*
X133063Y933127D01*
X133501Y931972D01*
X134008Y930845D01*
X134582Y929751D01*
X135221Y928693D01*
X135923Y927676D01*
X136686Y926704D01*
X137505Y925779D01*
X138379Y924905D01*
X139304Y924086D01*
X140276Y923323D01*
X141293Y922621D01*
X142351Y921982D01*
X143445Y921408D01*
X144572Y920901D01*
X145727Y920463D01*
X146907Y920095D01*
X148107Y919799D01*
X149322Y919577D01*
X150549Y919428D01*
X151782Y919353D01*
X153018Y919353D01*
X154251Y919428D01*
X155478Y919577D01*
X156693Y919799D01*
X157893Y920095D01*
X159073Y920463D01*
X160228Y920901D01*
X161355Y921408D01*
X162449Y921982D01*
X163507Y922621D01*
X164524Y923323D01*
X165496Y924086D01*
X166421Y924905D01*
X167295Y925779D01*
X168115Y926704D01*
X168877Y927676D01*
X169579Y928693D01*
X170218Y929751D01*
X170792Y930845D01*
X171299Y931972D01*
X171737Y933127D01*
X172105Y934307D01*
X172401Y935507D01*
X172623Y936722D01*
X172772Y937949D01*
X172847Y939182D01*
X172847Y940418D01*
X172847Y737218D02*
X172772Y738451D01*
X172623Y739678D01*
X172401Y740893D01*
X172105Y742093D01*
X171737Y743273D01*
X171299Y744428D01*
X170792Y745555D01*
X170218Y746649D01*
X169579Y747707D01*
X168877Y748724D01*
X168115Y749696D01*
X167295Y750621D01*
X166421Y751495D01*
X165496Y752315D01*
X164524Y753077D01*
X163507Y753779D01*
X162449Y754418D01*
X161355Y754992D01*
X160228Y755499D01*
X159073Y755937D01*
X157893Y756305D01*
X156693Y756601D01*
X155478Y756823D01*
X154251Y756972D01*
X153018Y757047D01*
X151782Y757047D01*
X150549Y756972D01*
X149322Y756823D01*
X148107Y756601D01*
X146907Y756305D01*
X145727Y755937D01*
X144572Y755499D01*
X143445Y754992D01*
X142351Y754418D01*
X141293Y753779D01*
X140276Y753077D01*
X139304Y752315D01*
X138379Y751495D01*
X137505Y750621D01*
X136686Y749696D01*
X135923Y748724D01*
X135221Y747707D01*
X134582Y746649D01*
X134008Y745555D01*
X133501Y744428D01*
X133063Y743273D01*
X132695Y742093D01*
X132399Y740893D01*
X132177Y739678D01*
X132028Y738451D01*
X131953Y737218D01*
X131953Y735982D01*
X132028Y734749D01*
X132177Y733522D01*
X132399Y732307D01*
X132695Y731107D01*
X133063Y729927D01*
X133501Y728772D01*
X134008Y727645D01*
X134582Y726551D01*
X135221Y725493D01*
X135923Y724476D01*
X136686Y723504D01*
X137505Y722579D01*
X138379Y721705D01*
X139304Y720886D01*
X140276Y720123D01*
X141293Y719421D01*
X142351Y718782D01*
X143445Y718208D01*
X144572Y717701D01*
X145727Y717263D01*
X146907Y716895D01*
X148107Y716599D01*
X149322Y716377D01*
X150549Y716228D01*
X151782Y716153D01*
X153018Y716153D01*
X154251Y716228D01*
X155478Y716377D01*
X156693Y716599D01*
X157893Y716895D01*
X159073Y717263D01*
X160228Y717701D01*
X161355Y718208D01*
X162449Y718782D01*
X163507Y719421D01*
X164524Y720123D01*
X165496Y720886D01*
X166421Y721705D01*
X167295Y722579D01*
X168115Y723504D01*
X168877Y724476D01*
X169579Y725493D01*
X170218Y726551D01*
X170792Y727645D01*
X171299Y728772D01*
X171737Y729927D01*
X172105Y731107D01*
X172401Y732307D01*
X172623Y733522D01*
X172772Y734749D01*
X172847Y735982D01*
X172847Y737218D01*
X172847Y534018D02*
X172772Y535251D01*
X172623Y536478D01*
X172401Y537693D01*
X172105Y538893D01*
X171737Y540073D01*
X171299Y541228D01*
X170792Y542355D01*
X170218Y543449D01*
X169579Y544507D01*
X168877Y545524D01*
X168115Y546496D01*
X167295Y547421D01*
X166421Y548295D01*
X165496Y549115D01*
X164524Y549877D01*
X163507Y550579D01*
X162449Y551218D01*
X161355Y551792D01*
X160228Y552299D01*
X159073Y552737D01*
X157893Y553105D01*
X156693Y553401D01*
X155478Y553623D01*
X154251Y553772D01*
X153018Y553847D01*
X151782Y553847D01*
X150549Y553772D01*
X149322Y553623D01*
X148107Y553401D01*
X146907Y553105D01*
X145727Y552737D01*
X144572Y552299D01*
X143445Y551792D01*
X142351Y551218D01*
X141293Y550579D01*
X140276Y549877D01*
X139304Y549115D01*
X138379Y548295D01*
X137505Y547421D01*
X136686Y546496D01*
X135923Y545524D01*
X135221Y544507D01*
X134582Y543449D01*
X134008Y542355D01*
X133501Y541228D01*
X133063Y540073D01*
X132695Y538893D01*
X132399Y537693D01*
X132177Y536478D01*
X132028Y535251D01*
X131953Y534018D01*
X131953Y532782D01*
X132028Y531549D01*
X132177Y530322D01*
X132399Y529107D01*
X132695Y527907D01*
X133063Y526727D01*
X133501Y525572D01*
X134008Y524445D01*
X134582Y523351D01*
X135221Y522293D01*
X135923Y521276D01*
X136686Y520304D01*
X137505Y519379D01*
X138379Y518505D01*
X139304Y517686D01*
X140276Y516923D01*
X141293Y516221D01*
X142351Y515582D01*
X143445Y515008D01*
X144572Y514501D01*
X145727Y514063D01*
X146907Y513695D01*
X148107Y513399D01*
X149322Y513177D01*
X150549Y513028D01*
X151782Y512953D01*
X153018Y512953D01*
X154251Y513028D01*
X155478Y513177D01*
X156693Y513399D01*
X157893Y513695D01*
X159073Y514063D01*
X160228Y514501D01*
X161355Y515008D01*
X162449Y515582D01*
X163507Y516221D01*
X164524Y516923D01*
X165496Y517686D01*
X166421Y518505D01*
X167295Y519379D01*
X168115Y520304D01*
X168877Y521276D01*
X169579Y522293D01*
X170218Y523351D01*
X170792Y524445D01*
X171299Y525572D01*
X171737Y526727D01*
X172105Y527907D01*
X172401Y529107D01*
X172623Y530322D01*
X172772Y531549D01*
X172847Y532782D01*
X172847Y534018D01*
X172847Y330818D02*
X172772Y332051D01*
X172623Y333278D01*
X172401Y334493D01*
X172105Y335693D01*
X171737Y336873D01*
X171299Y338028D01*
X170792Y339155D01*
X170218Y340249D01*
X169579Y341307D01*
X168877Y342324D01*
X168115Y343296D01*
X167295Y344221D01*
X166421Y345095D01*
X165496Y345915D01*
X164524Y346677D01*
X163507Y347379D01*
X162449Y348018D01*
X161355Y348592D01*
X160228Y349099D01*
X159073Y349537D01*
X157893Y349905D01*
X156693Y350201D01*
X155478Y350423D01*
X154251Y350572D01*
X153018Y350647D01*
X151782Y350647D01*
X150549Y350572D01*
X149322Y350423D01*
X148107Y350201D01*
X146907Y349905D01*
X145727Y349537D01*
X144572Y349099D01*
X143445Y348592D01*
X142351Y348018D01*
X141293Y347379D01*
X140276Y346677D01*
X139304Y345915D01*
X138379Y345095D01*
X137505Y344221D01*
X136686Y343296D01*
X135923Y342324D01*
X135221Y341307D01*
X134582Y340249D01*
X134008Y339155D01*
X133501Y338028D01*
X133063Y336873D01*
X132695Y335693D01*
X132399Y334493D01*
X132177Y333278D01*
X132028Y332051D01*
X131953Y330818D01*
X131953Y329582D01*
X132028Y328349D01*
X132177Y327122D01*
X132399Y325907D01*
X132695Y324707D01*
X133063Y323527D01*
X133501Y322372D01*
X134008Y321245D01*
X134582Y320151D01*
X135221Y319093D01*
X135923Y318076D01*
X136686Y317104D01*
X137505Y316179D01*
X138379Y315305D01*
X139304Y314486D01*
X140276Y313723D01*
X141293Y313021D01*
X142351Y312382D01*
X143445Y311808D01*
X144572Y311301D01*
X145727Y310863D01*
X146907Y310495D01*
X148107Y310199D01*
X149322Y309977D01*
X150549Y309828D01*
X151782Y309753D01*
X153018Y309753D01*
X154251Y309828D01*
X155478Y309977D01*
X156693Y310199D01*
X157893Y310495D01*
X159073Y310863D01*
X160228Y311301D01*
X161355Y311808D01*
X162449Y312382D01*
X163507Y313021D01*
X164524Y313723D01*
X165496Y314486D01*
X166421Y315305D01*
X167295Y316179D01*
X168115Y317104D01*
X168877Y318076D01*
X169579Y319093D01*
X170218Y320151D01*
X170792Y321245D01*
X171299Y322372D01*
X171737Y323527D01*
X172105Y324707D01*
X172401Y325907D01*
X172623Y327122D01*
X172772Y328349D01*
X172847Y329582D01*
X172847Y330818D01*
X172847Y127618D02*
X172772Y128851D01*
X172623Y130078D01*
X172401Y131293D01*
X172105Y132493D01*
X171737Y133673D01*
X171299Y134828D01*
X170792Y135955D01*
X170218Y137049D01*
X169579Y138107D01*
X168877Y139124D01*
X168115Y140096D01*
X167295Y141021D01*
X166421Y141895D01*
X165496Y142715D01*
X164524Y143477D01*
X163507Y144179D01*
X162449Y144818D01*
X161355Y145392D01*
X160228Y145899D01*
X159073Y146337D01*
X157893Y146705D01*
X156693Y147001D01*
X155478Y147223D01*
X154251Y147372D01*
X153018Y147447D01*
X151782Y147447D01*
X150549Y147372D01*
X149322Y147223D01*
X148107Y147001D01*
X146907Y146705D01*
X145727Y146337D01*
X144572Y145899D01*
X143445Y145392D01*
X142351Y144818D01*
X141293Y144179D01*
X140276Y143477D01*
X139304Y142715D01*
X138379Y141895D01*
X137505Y141021D01*
X136686Y140096D01*
X135923Y139124D01*
X135221Y138107D01*
X134582Y137049D01*
X134008Y135955D01*
X133501Y134828D01*
X133063Y133673D01*
X132695Y132493D01*
X132399Y131293D01*
X132177Y130078D01*
X132028Y128851D01*
X131953Y127618D01*
X131953Y126382D01*
X132028Y125149D01*
X132177Y123922D01*
X132399Y122707D01*
X132695Y121507D01*
X133063Y120327D01*
X133501Y119172D01*
X134008Y118045D01*
X134582Y116951D01*
X135221Y115893D01*
X135923Y114876D01*
X136686Y113904D01*
X137505Y112979D01*
X138379Y112105D01*
X139304Y111286D01*
X140276Y110523D01*
X141293Y109821D01*
X142351Y109182D01*
X143445Y108608D01*
X144572Y108101D01*
X145727Y107663D01*
X146907Y107295D01*
X148107Y106999D01*
X149322Y106777D01*
X150549Y106628D01*
X151782Y106553D01*
X153018Y106553D01*
X154251Y106628D01*
X155478Y106777D01*
X156693Y106999D01*
X157893Y107295D01*
X159073Y107663D01*
X160228Y108101D01*
X161355Y108608D01*
X162449Y109182D01*
X163507Y109821D01*
X164524Y110523D01*
X165496Y111286D01*
X166421Y112105D01*
X167295Y112979D01*
X168115Y113904D01*
X168877Y114876D01*
X169579Y115893D01*
X170218Y116951D01*
X170792Y118045D01*
X171299Y119172D01*
X171737Y120327D01*
X172105Y121507D01*
X172401Y122707D01*
X172623Y123922D01*
X172772Y125149D01*
X172847Y126382D01*
X172847Y127618D01*
M02*
