G04 EAGLE Gerber RS-274X export*
G75*
%MOMM*%
%FSLAX34Y34*%
%LPD*%
%IN*%
%IPPOS*%
%AMOC8*
5,1,8,0,0,1.08239X$1,22.5*%
G01*
%ADD10C,0.254000*%


D10*
X0Y0D02*
X1003100Y0D01*
X1003100Y1000000D01*
X0Y1000000D01*
X0Y0D01*
X858647Y876918D02*
X858572Y878151D01*
X858423Y879378D01*
X858201Y880593D01*
X857905Y881793D01*
X857537Y882973D01*
X857099Y884128D01*
X856592Y885255D01*
X856018Y886349D01*
X855379Y887407D01*
X854677Y888424D01*
X853915Y889396D01*
X853095Y890321D01*
X852221Y891195D01*
X851296Y892015D01*
X850324Y892777D01*
X849307Y893479D01*
X848249Y894118D01*
X847155Y894692D01*
X846028Y895199D01*
X844873Y895637D01*
X843693Y896005D01*
X842493Y896301D01*
X841278Y896523D01*
X840051Y896672D01*
X838818Y896747D01*
X837582Y896747D01*
X836349Y896672D01*
X835122Y896523D01*
X833907Y896301D01*
X832707Y896005D01*
X831527Y895637D01*
X830372Y895199D01*
X829245Y894692D01*
X828151Y894118D01*
X827093Y893479D01*
X826076Y892777D01*
X825104Y892015D01*
X824179Y891195D01*
X823305Y890321D01*
X822486Y889396D01*
X821723Y888424D01*
X821021Y887407D01*
X820382Y886349D01*
X819808Y885255D01*
X819301Y884128D01*
X818863Y882973D01*
X818495Y881793D01*
X818199Y880593D01*
X817977Y879378D01*
X817828Y878151D01*
X817753Y876918D01*
X817753Y875682D01*
X817828Y874449D01*
X817977Y873222D01*
X818199Y872007D01*
X818495Y870807D01*
X818863Y869627D01*
X819301Y868472D01*
X819808Y867345D01*
X820382Y866251D01*
X821021Y865193D01*
X821723Y864176D01*
X822486Y863204D01*
X823305Y862279D01*
X824179Y861405D01*
X825104Y860586D01*
X826076Y859823D01*
X827093Y859121D01*
X828151Y858482D01*
X829245Y857908D01*
X830372Y857401D01*
X831527Y856963D01*
X832707Y856595D01*
X833907Y856299D01*
X835122Y856077D01*
X836349Y855928D01*
X837582Y855853D01*
X838818Y855853D01*
X840051Y855928D01*
X841278Y856077D01*
X842493Y856299D01*
X843693Y856595D01*
X844873Y856963D01*
X846028Y857401D01*
X847155Y857908D01*
X848249Y858482D01*
X849307Y859121D01*
X850324Y859823D01*
X851296Y860586D01*
X852221Y861405D01*
X853095Y862279D01*
X853915Y863204D01*
X854677Y864176D01*
X855379Y865193D01*
X856018Y866251D01*
X856592Y867345D01*
X857099Y868472D01*
X857537Y869627D01*
X857905Y870807D01*
X858201Y872007D01*
X858423Y873222D01*
X858572Y874449D01*
X858647Y875682D01*
X858647Y876918D01*
X185547Y495918D02*
X185472Y497151D01*
X185323Y498378D01*
X185101Y499593D01*
X184805Y500793D01*
X184437Y501973D01*
X183999Y503128D01*
X183492Y504255D01*
X182918Y505349D01*
X182279Y506407D01*
X181577Y507424D01*
X180815Y508396D01*
X179995Y509321D01*
X179121Y510195D01*
X178196Y511015D01*
X177224Y511777D01*
X176207Y512479D01*
X175149Y513118D01*
X174055Y513692D01*
X172928Y514199D01*
X171773Y514637D01*
X170593Y515005D01*
X169393Y515301D01*
X168178Y515523D01*
X166951Y515672D01*
X165718Y515747D01*
X164482Y515747D01*
X163249Y515672D01*
X162022Y515523D01*
X160807Y515301D01*
X159607Y515005D01*
X158427Y514637D01*
X157272Y514199D01*
X156145Y513692D01*
X155051Y513118D01*
X153993Y512479D01*
X152976Y511777D01*
X152004Y511015D01*
X151079Y510195D01*
X150205Y509321D01*
X149386Y508396D01*
X148623Y507424D01*
X147921Y506407D01*
X147282Y505349D01*
X146708Y504255D01*
X146201Y503128D01*
X145763Y501973D01*
X145395Y500793D01*
X145099Y499593D01*
X144877Y498378D01*
X144728Y497151D01*
X144653Y495918D01*
X144653Y494682D01*
X144728Y493449D01*
X144877Y492222D01*
X145099Y491007D01*
X145395Y489807D01*
X145763Y488627D01*
X146201Y487472D01*
X146708Y486345D01*
X147282Y485251D01*
X147921Y484193D01*
X148623Y483176D01*
X149386Y482204D01*
X150205Y481279D01*
X151079Y480405D01*
X152004Y479586D01*
X152976Y478823D01*
X153993Y478121D01*
X155051Y477482D01*
X156145Y476908D01*
X157272Y476401D01*
X158427Y475963D01*
X159607Y475595D01*
X160807Y475299D01*
X162022Y475077D01*
X163249Y474928D01*
X164482Y474853D01*
X165718Y474853D01*
X166951Y474928D01*
X168178Y475077D01*
X169393Y475299D01*
X170593Y475595D01*
X171773Y475963D01*
X172928Y476401D01*
X174055Y476908D01*
X175149Y477482D01*
X176207Y478121D01*
X177224Y478823D01*
X178196Y479586D01*
X179121Y480405D01*
X179995Y481279D01*
X180815Y482204D01*
X181577Y483176D01*
X182279Y484193D01*
X182918Y485251D01*
X183492Y486345D01*
X183999Y487472D01*
X184437Y488627D01*
X184805Y489807D01*
X185101Y491007D01*
X185323Y492222D01*
X185472Y493449D01*
X185547Y494682D01*
X185547Y495918D01*
X414147Y495918D02*
X414072Y497151D01*
X413923Y498378D01*
X413701Y499593D01*
X413405Y500793D01*
X413037Y501973D01*
X412599Y503128D01*
X412092Y504255D01*
X411518Y505349D01*
X410879Y506407D01*
X410177Y507424D01*
X409415Y508396D01*
X408595Y509321D01*
X407721Y510195D01*
X406796Y511015D01*
X405824Y511777D01*
X404807Y512479D01*
X403749Y513118D01*
X402655Y513692D01*
X401528Y514199D01*
X400373Y514637D01*
X399193Y515005D01*
X397993Y515301D01*
X396778Y515523D01*
X395551Y515672D01*
X394318Y515747D01*
X393082Y515747D01*
X391849Y515672D01*
X390622Y515523D01*
X389407Y515301D01*
X388207Y515005D01*
X387027Y514637D01*
X385872Y514199D01*
X384745Y513692D01*
X383651Y513118D01*
X382593Y512479D01*
X381576Y511777D01*
X380604Y511015D01*
X379679Y510195D01*
X378805Y509321D01*
X377986Y508396D01*
X377223Y507424D01*
X376521Y506407D01*
X375882Y505349D01*
X375308Y504255D01*
X374801Y503128D01*
X374363Y501973D01*
X373995Y500793D01*
X373699Y499593D01*
X373477Y498378D01*
X373328Y497151D01*
X373253Y495918D01*
X373253Y494682D01*
X373328Y493449D01*
X373477Y492222D01*
X373699Y491007D01*
X373995Y489807D01*
X374363Y488627D01*
X374801Y487472D01*
X375308Y486345D01*
X375882Y485251D01*
X376521Y484193D01*
X377223Y483176D01*
X377986Y482204D01*
X378805Y481279D01*
X379679Y480405D01*
X380604Y479586D01*
X381576Y478823D01*
X382593Y478121D01*
X383651Y477482D01*
X384745Y476908D01*
X385872Y476401D01*
X387027Y475963D01*
X388207Y475595D01*
X389407Y475299D01*
X390622Y475077D01*
X391849Y474928D01*
X393082Y474853D01*
X394318Y474853D01*
X395551Y474928D01*
X396778Y475077D01*
X397993Y475299D01*
X399193Y475595D01*
X400373Y475963D01*
X401528Y476401D01*
X402655Y476908D01*
X403749Y477482D01*
X404807Y478121D01*
X405824Y478823D01*
X406796Y479586D01*
X407721Y480405D01*
X408595Y481279D01*
X409415Y482204D01*
X410177Y483176D01*
X410879Y484193D01*
X411518Y485251D01*
X412092Y486345D01*
X412599Y487472D01*
X413037Y488627D01*
X413405Y489807D01*
X413701Y491007D01*
X413923Y492222D01*
X414072Y493449D01*
X414147Y494682D01*
X414147Y495918D01*
X642747Y495918D02*
X642672Y497151D01*
X642523Y498378D01*
X642301Y499593D01*
X642005Y500793D01*
X641637Y501973D01*
X641199Y503128D01*
X640692Y504255D01*
X640118Y505349D01*
X639479Y506407D01*
X638777Y507424D01*
X638015Y508396D01*
X637195Y509321D01*
X636321Y510195D01*
X635396Y511015D01*
X634424Y511777D01*
X633407Y512479D01*
X632349Y513118D01*
X631255Y513692D01*
X630128Y514199D01*
X628973Y514637D01*
X627793Y515005D01*
X626593Y515301D01*
X625378Y515523D01*
X624151Y515672D01*
X622918Y515747D01*
X621682Y515747D01*
X620449Y515672D01*
X619222Y515523D01*
X618007Y515301D01*
X616807Y515005D01*
X615627Y514637D01*
X614472Y514199D01*
X613345Y513692D01*
X612251Y513118D01*
X611193Y512479D01*
X610176Y511777D01*
X609204Y511015D01*
X608279Y510195D01*
X607405Y509321D01*
X606586Y508396D01*
X605823Y507424D01*
X605121Y506407D01*
X604482Y505349D01*
X603908Y504255D01*
X603401Y503128D01*
X602963Y501973D01*
X602595Y500793D01*
X602299Y499593D01*
X602077Y498378D01*
X601928Y497151D01*
X601853Y495918D01*
X601853Y494682D01*
X601928Y493449D01*
X602077Y492222D01*
X602299Y491007D01*
X602595Y489807D01*
X602963Y488627D01*
X603401Y487472D01*
X603908Y486345D01*
X604482Y485251D01*
X605121Y484193D01*
X605823Y483176D01*
X606586Y482204D01*
X607405Y481279D01*
X608279Y480405D01*
X609204Y479586D01*
X610176Y478823D01*
X611193Y478121D01*
X612251Y477482D01*
X613345Y476908D01*
X614472Y476401D01*
X615627Y475963D01*
X616807Y475595D01*
X618007Y475299D01*
X619222Y475077D01*
X620449Y474928D01*
X621682Y474853D01*
X622918Y474853D01*
X624151Y474928D01*
X625378Y475077D01*
X626593Y475299D01*
X627793Y475595D01*
X628973Y475963D01*
X630128Y476401D01*
X631255Y476908D01*
X632349Y477482D01*
X633407Y478121D01*
X634424Y478823D01*
X635396Y479586D01*
X636321Y480405D01*
X637195Y481279D01*
X638015Y482204D01*
X638777Y483176D01*
X639479Y484193D01*
X640118Y485251D01*
X640692Y486345D01*
X641199Y487472D01*
X641637Y488627D01*
X642005Y489807D01*
X642301Y491007D01*
X642523Y492222D01*
X642672Y493449D01*
X642747Y494682D01*
X642747Y495918D01*
X858647Y495918D02*
X858572Y497151D01*
X858423Y498378D01*
X858201Y499593D01*
X857905Y500793D01*
X857537Y501973D01*
X857099Y503128D01*
X856592Y504255D01*
X856018Y505349D01*
X855379Y506407D01*
X854677Y507424D01*
X853915Y508396D01*
X853095Y509321D01*
X852221Y510195D01*
X851296Y511015D01*
X850324Y511777D01*
X849307Y512479D01*
X848249Y513118D01*
X847155Y513692D01*
X846028Y514199D01*
X844873Y514637D01*
X843693Y515005D01*
X842493Y515301D01*
X841278Y515523D01*
X840051Y515672D01*
X838818Y515747D01*
X837582Y515747D01*
X836349Y515672D01*
X835122Y515523D01*
X833907Y515301D01*
X832707Y515005D01*
X831527Y514637D01*
X830372Y514199D01*
X829245Y513692D01*
X828151Y513118D01*
X827093Y512479D01*
X826076Y511777D01*
X825104Y511015D01*
X824179Y510195D01*
X823305Y509321D01*
X822486Y508396D01*
X821723Y507424D01*
X821021Y506407D01*
X820382Y505349D01*
X819808Y504255D01*
X819301Y503128D01*
X818863Y501973D01*
X818495Y500793D01*
X818199Y499593D01*
X817977Y498378D01*
X817828Y497151D01*
X817753Y495918D01*
X817753Y494682D01*
X817828Y493449D01*
X817977Y492222D01*
X818199Y491007D01*
X818495Y489807D01*
X818863Y488627D01*
X819301Y487472D01*
X819808Y486345D01*
X820382Y485251D01*
X821021Y484193D01*
X821723Y483176D01*
X822486Y482204D01*
X823305Y481279D01*
X824179Y480405D01*
X825104Y479586D01*
X826076Y478823D01*
X827093Y478121D01*
X828151Y477482D01*
X829245Y476908D01*
X830372Y476401D01*
X831527Y475963D01*
X832707Y475595D01*
X833907Y475299D01*
X835122Y475077D01*
X836349Y474928D01*
X837582Y474853D01*
X838818Y474853D01*
X840051Y474928D01*
X841278Y475077D01*
X842493Y475299D01*
X843693Y475595D01*
X844873Y475963D01*
X846028Y476401D01*
X847155Y476908D01*
X848249Y477482D01*
X849307Y478121D01*
X850324Y478823D01*
X851296Y479586D01*
X852221Y480405D01*
X853095Y481279D01*
X853915Y482204D01*
X854677Y483176D01*
X855379Y484193D01*
X856018Y485251D01*
X856592Y486345D01*
X857099Y487472D01*
X857537Y488627D01*
X857905Y489807D01*
X858201Y491007D01*
X858423Y492222D01*
X858572Y493449D01*
X858647Y494682D01*
X858647Y495918D01*
X858647Y114918D02*
X858572Y116151D01*
X858423Y117378D01*
X858201Y118593D01*
X857905Y119793D01*
X857537Y120973D01*
X857099Y122128D01*
X856592Y123255D01*
X856018Y124349D01*
X855379Y125407D01*
X854677Y126424D01*
X853915Y127396D01*
X853095Y128321D01*
X852221Y129195D01*
X851296Y130015D01*
X850324Y130777D01*
X849307Y131479D01*
X848249Y132118D01*
X847155Y132692D01*
X846028Y133199D01*
X844873Y133637D01*
X843693Y134005D01*
X842493Y134301D01*
X841278Y134523D01*
X840051Y134672D01*
X838818Y134747D01*
X837582Y134747D01*
X836349Y134672D01*
X835122Y134523D01*
X833907Y134301D01*
X832707Y134005D01*
X831527Y133637D01*
X830372Y133199D01*
X829245Y132692D01*
X828151Y132118D01*
X827093Y131479D01*
X826076Y130777D01*
X825104Y130015D01*
X824179Y129195D01*
X823305Y128321D01*
X822486Y127396D01*
X821723Y126424D01*
X821021Y125407D01*
X820382Y124349D01*
X819808Y123255D01*
X819301Y122128D01*
X818863Y120973D01*
X818495Y119793D01*
X818199Y118593D01*
X817977Y117378D01*
X817828Y116151D01*
X817753Y114918D01*
X817753Y113682D01*
X817828Y112449D01*
X817977Y111222D01*
X818199Y110007D01*
X818495Y108807D01*
X818863Y107627D01*
X819301Y106472D01*
X819808Y105345D01*
X820382Y104251D01*
X821021Y103193D01*
X821723Y102176D01*
X822486Y101204D01*
X823305Y100279D01*
X824179Y99405D01*
X825104Y98586D01*
X826076Y97823D01*
X827093Y97121D01*
X828151Y96482D01*
X829245Y95908D01*
X830372Y95401D01*
X831527Y94963D01*
X832707Y94595D01*
X833907Y94299D01*
X835122Y94077D01*
X836349Y93928D01*
X837582Y93853D01*
X838818Y93853D01*
X840051Y93928D01*
X841278Y94077D01*
X842493Y94299D01*
X843693Y94595D01*
X844873Y94963D01*
X846028Y95401D01*
X847155Y95908D01*
X848249Y96482D01*
X849307Y97121D01*
X850324Y97823D01*
X851296Y98586D01*
X852221Y99405D01*
X853095Y100279D01*
X853915Y101204D01*
X854677Y102176D01*
X855379Y103193D01*
X856018Y104251D01*
X856592Y105345D01*
X857099Y106472D01*
X857537Y107627D01*
X857905Y108807D01*
X858201Y110007D01*
X858423Y111222D01*
X858572Y112449D01*
X858647Y113682D01*
X858647Y114918D01*
X185547Y114918D02*
X185472Y116151D01*
X185323Y117378D01*
X185101Y118593D01*
X184805Y119793D01*
X184437Y120973D01*
X183999Y122128D01*
X183492Y123255D01*
X182918Y124349D01*
X182279Y125407D01*
X181577Y126424D01*
X180815Y127396D01*
X179995Y128321D01*
X179121Y129195D01*
X178196Y130015D01*
X177224Y130777D01*
X176207Y131479D01*
X175149Y132118D01*
X174055Y132692D01*
X172928Y133199D01*
X171773Y133637D01*
X170593Y134005D01*
X169393Y134301D01*
X168178Y134523D01*
X166951Y134672D01*
X165718Y134747D01*
X164482Y134747D01*
X163249Y134672D01*
X162022Y134523D01*
X160807Y134301D01*
X159607Y134005D01*
X158427Y133637D01*
X157272Y133199D01*
X156145Y132692D01*
X155051Y132118D01*
X153993Y131479D01*
X152976Y130777D01*
X152004Y130015D01*
X151079Y129195D01*
X150205Y128321D01*
X149386Y127396D01*
X148623Y126424D01*
X147921Y125407D01*
X147282Y124349D01*
X146708Y123255D01*
X146201Y122128D01*
X145763Y120973D01*
X145395Y119793D01*
X145099Y118593D01*
X144877Y117378D01*
X144728Y116151D01*
X144653Y114918D01*
X144653Y113682D01*
X144728Y112449D01*
X144877Y111222D01*
X145099Y110007D01*
X145395Y108807D01*
X145763Y107627D01*
X146201Y106472D01*
X146708Y105345D01*
X147282Y104251D01*
X147921Y103193D01*
X148623Y102176D01*
X149386Y101204D01*
X150205Y100279D01*
X151079Y99405D01*
X152004Y98586D01*
X152976Y97823D01*
X153993Y97121D01*
X155051Y96482D01*
X156145Y95908D01*
X157272Y95401D01*
X158427Y94963D01*
X159607Y94595D01*
X160807Y94299D01*
X162022Y94077D01*
X163249Y93928D01*
X164482Y93853D01*
X165718Y93853D01*
X166951Y93928D01*
X168178Y94077D01*
X169393Y94299D01*
X170593Y94595D01*
X171773Y94963D01*
X172928Y95401D01*
X174055Y95908D01*
X175149Y96482D01*
X176207Y97121D01*
X177224Y97823D01*
X178196Y98586D01*
X179121Y99405D01*
X179995Y100279D01*
X180815Y101204D01*
X181577Y102176D01*
X182279Y103193D01*
X182918Y104251D01*
X183492Y105345D01*
X183999Y106472D01*
X184437Y107627D01*
X184805Y108807D01*
X185101Y110007D01*
X185323Y111222D01*
X185472Y112449D01*
X185547Y113682D01*
X185547Y114918D01*
X858647Y305418D02*
X858572Y306651D01*
X858423Y307878D01*
X858201Y309093D01*
X857905Y310293D01*
X857537Y311473D01*
X857099Y312628D01*
X856592Y313755D01*
X856018Y314849D01*
X855379Y315907D01*
X854677Y316924D01*
X853915Y317896D01*
X853095Y318821D01*
X852221Y319695D01*
X851296Y320515D01*
X850324Y321277D01*
X849307Y321979D01*
X848249Y322618D01*
X847155Y323192D01*
X846028Y323699D01*
X844873Y324137D01*
X843693Y324505D01*
X842493Y324801D01*
X841278Y325023D01*
X840051Y325172D01*
X838818Y325247D01*
X837582Y325247D01*
X836349Y325172D01*
X835122Y325023D01*
X833907Y324801D01*
X832707Y324505D01*
X831527Y324137D01*
X830372Y323699D01*
X829245Y323192D01*
X828151Y322618D01*
X827093Y321979D01*
X826076Y321277D01*
X825104Y320515D01*
X824179Y319695D01*
X823305Y318821D01*
X822486Y317896D01*
X821723Y316924D01*
X821021Y315907D01*
X820382Y314849D01*
X819808Y313755D01*
X819301Y312628D01*
X818863Y311473D01*
X818495Y310293D01*
X818199Y309093D01*
X817977Y307878D01*
X817828Y306651D01*
X817753Y305418D01*
X817753Y304182D01*
X817828Y302949D01*
X817977Y301722D01*
X818199Y300507D01*
X818495Y299307D01*
X818863Y298127D01*
X819301Y296972D01*
X819808Y295845D01*
X820382Y294751D01*
X821021Y293693D01*
X821723Y292676D01*
X822486Y291704D01*
X823305Y290779D01*
X824179Y289905D01*
X825104Y289086D01*
X826076Y288323D01*
X827093Y287621D01*
X828151Y286982D01*
X829245Y286408D01*
X830372Y285901D01*
X831527Y285463D01*
X832707Y285095D01*
X833907Y284799D01*
X835122Y284577D01*
X836349Y284428D01*
X837582Y284353D01*
X838818Y284353D01*
X840051Y284428D01*
X841278Y284577D01*
X842493Y284799D01*
X843693Y285095D01*
X844873Y285463D01*
X846028Y285901D01*
X847155Y286408D01*
X848249Y286982D01*
X849307Y287621D01*
X850324Y288323D01*
X851296Y289086D01*
X852221Y289905D01*
X853095Y290779D01*
X853915Y291704D01*
X854677Y292676D01*
X855379Y293693D01*
X856018Y294751D01*
X856592Y295845D01*
X857099Y296972D01*
X857537Y298127D01*
X857905Y299307D01*
X858201Y300507D01*
X858423Y301722D01*
X858572Y302949D01*
X858647Y304182D01*
X858647Y305418D01*
X858647Y686418D02*
X858572Y687651D01*
X858423Y688878D01*
X858201Y690093D01*
X857905Y691293D01*
X857537Y692473D01*
X857099Y693628D01*
X856592Y694755D01*
X856018Y695849D01*
X855379Y696907D01*
X854677Y697924D01*
X853915Y698896D01*
X853095Y699821D01*
X852221Y700695D01*
X851296Y701515D01*
X850324Y702277D01*
X849307Y702979D01*
X848249Y703618D01*
X847155Y704192D01*
X846028Y704699D01*
X844873Y705137D01*
X843693Y705505D01*
X842493Y705801D01*
X841278Y706023D01*
X840051Y706172D01*
X838818Y706247D01*
X837582Y706247D01*
X836349Y706172D01*
X835122Y706023D01*
X833907Y705801D01*
X832707Y705505D01*
X831527Y705137D01*
X830372Y704699D01*
X829245Y704192D01*
X828151Y703618D01*
X827093Y702979D01*
X826076Y702277D01*
X825104Y701515D01*
X824179Y700695D01*
X823305Y699821D01*
X822486Y698896D01*
X821723Y697924D01*
X821021Y696907D01*
X820382Y695849D01*
X819808Y694755D01*
X819301Y693628D01*
X818863Y692473D01*
X818495Y691293D01*
X818199Y690093D01*
X817977Y688878D01*
X817828Y687651D01*
X817753Y686418D01*
X817753Y685182D01*
X817828Y683949D01*
X817977Y682722D01*
X818199Y681507D01*
X818495Y680307D01*
X818863Y679127D01*
X819301Y677972D01*
X819808Y676845D01*
X820382Y675751D01*
X821021Y674693D01*
X821723Y673676D01*
X822486Y672704D01*
X823305Y671779D01*
X824179Y670905D01*
X825104Y670086D01*
X826076Y669323D01*
X827093Y668621D01*
X828151Y667982D01*
X829245Y667408D01*
X830372Y666901D01*
X831527Y666463D01*
X832707Y666095D01*
X833907Y665799D01*
X835122Y665577D01*
X836349Y665428D01*
X837582Y665353D01*
X838818Y665353D01*
X840051Y665428D01*
X841278Y665577D01*
X842493Y665799D01*
X843693Y666095D01*
X844873Y666463D01*
X846028Y666901D01*
X847155Y667408D01*
X848249Y667982D01*
X849307Y668621D01*
X850324Y669323D01*
X851296Y670086D01*
X852221Y670905D01*
X853095Y671779D01*
X853915Y672704D01*
X854677Y673676D01*
X855379Y674693D01*
X856018Y675751D01*
X856592Y676845D01*
X857099Y677972D01*
X857537Y679127D01*
X857905Y680307D01*
X858201Y681507D01*
X858423Y682722D01*
X858572Y683949D01*
X858647Y685182D01*
X858647Y686418D01*
X185547Y305418D02*
X185472Y306651D01*
X185323Y307878D01*
X185101Y309093D01*
X184805Y310293D01*
X184437Y311473D01*
X183999Y312628D01*
X183492Y313755D01*
X182918Y314849D01*
X182279Y315907D01*
X181577Y316924D01*
X180815Y317896D01*
X179995Y318821D01*
X179121Y319695D01*
X178196Y320515D01*
X177224Y321277D01*
X176207Y321979D01*
X175149Y322618D01*
X174055Y323192D01*
X172928Y323699D01*
X171773Y324137D01*
X170593Y324505D01*
X169393Y324801D01*
X168178Y325023D01*
X166951Y325172D01*
X165718Y325247D01*
X164482Y325247D01*
X163249Y325172D01*
X162022Y325023D01*
X160807Y324801D01*
X159607Y324505D01*
X158427Y324137D01*
X157272Y323699D01*
X156145Y323192D01*
X155051Y322618D01*
X153993Y321979D01*
X152976Y321277D01*
X152004Y320515D01*
X151079Y319695D01*
X150205Y318821D01*
X149386Y317896D01*
X148623Y316924D01*
X147921Y315907D01*
X147282Y314849D01*
X146708Y313755D01*
X146201Y312628D01*
X145763Y311473D01*
X145395Y310293D01*
X145099Y309093D01*
X144877Y307878D01*
X144728Y306651D01*
X144653Y305418D01*
X144653Y304182D01*
X144728Y302949D01*
X144877Y301722D01*
X145099Y300507D01*
X145395Y299307D01*
X145763Y298127D01*
X146201Y296972D01*
X146708Y295845D01*
X147282Y294751D01*
X147921Y293693D01*
X148623Y292676D01*
X149386Y291704D01*
X150205Y290779D01*
X151079Y289905D01*
X152004Y289086D01*
X152976Y288323D01*
X153993Y287621D01*
X155051Y286982D01*
X156145Y286408D01*
X157272Y285901D01*
X158427Y285463D01*
X159607Y285095D01*
X160807Y284799D01*
X162022Y284577D01*
X163249Y284428D01*
X164482Y284353D01*
X165718Y284353D01*
X166951Y284428D01*
X168178Y284577D01*
X169393Y284799D01*
X170593Y285095D01*
X171773Y285463D01*
X172928Y285901D01*
X174055Y286408D01*
X175149Y286982D01*
X176207Y287621D01*
X177224Y288323D01*
X178196Y289086D01*
X179121Y289905D01*
X179995Y290779D01*
X180815Y291704D01*
X181577Y292676D01*
X182279Y293693D01*
X182918Y294751D01*
X183492Y295845D01*
X183999Y296972D01*
X184437Y298127D01*
X184805Y299307D01*
X185101Y300507D01*
X185323Y301722D01*
X185472Y302949D01*
X185547Y304182D01*
X185547Y305418D01*
X642747Y876918D02*
X642672Y878151D01*
X642523Y879378D01*
X642301Y880593D01*
X642005Y881793D01*
X641637Y882973D01*
X641199Y884128D01*
X640692Y885255D01*
X640118Y886349D01*
X639479Y887407D01*
X638777Y888424D01*
X638015Y889396D01*
X637195Y890321D01*
X636321Y891195D01*
X635396Y892015D01*
X634424Y892777D01*
X633407Y893479D01*
X632349Y894118D01*
X631255Y894692D01*
X630128Y895199D01*
X628973Y895637D01*
X627793Y896005D01*
X626593Y896301D01*
X625378Y896523D01*
X624151Y896672D01*
X622918Y896747D01*
X621682Y896747D01*
X620449Y896672D01*
X619222Y896523D01*
X618007Y896301D01*
X616807Y896005D01*
X615627Y895637D01*
X614472Y895199D01*
X613345Y894692D01*
X612251Y894118D01*
X611193Y893479D01*
X610176Y892777D01*
X609204Y892015D01*
X608279Y891195D01*
X607405Y890321D01*
X606586Y889396D01*
X605823Y888424D01*
X605121Y887407D01*
X604482Y886349D01*
X603908Y885255D01*
X603401Y884128D01*
X602963Y882973D01*
X602595Y881793D01*
X602299Y880593D01*
X602077Y879378D01*
X601928Y878151D01*
X601853Y876918D01*
X601853Y875682D01*
X601928Y874449D01*
X602077Y873222D01*
X602299Y872007D01*
X602595Y870807D01*
X602963Y869627D01*
X603401Y868472D01*
X603908Y867345D01*
X604482Y866251D01*
X605121Y865193D01*
X605823Y864176D01*
X606586Y863204D01*
X607405Y862279D01*
X608279Y861405D01*
X609204Y860586D01*
X610176Y859823D01*
X611193Y859121D01*
X612251Y858482D01*
X613345Y857908D01*
X614472Y857401D01*
X615627Y856963D01*
X616807Y856595D01*
X618007Y856299D01*
X619222Y856077D01*
X620449Y855928D01*
X621682Y855853D01*
X622918Y855853D01*
X624151Y855928D01*
X625378Y856077D01*
X626593Y856299D01*
X627793Y856595D01*
X628973Y856963D01*
X630128Y857401D01*
X631255Y857908D01*
X632349Y858482D01*
X633407Y859121D01*
X634424Y859823D01*
X635396Y860586D01*
X636321Y861405D01*
X637195Y862279D01*
X638015Y863204D01*
X638777Y864176D01*
X639479Y865193D01*
X640118Y866251D01*
X640692Y867345D01*
X641199Y868472D01*
X641637Y869627D01*
X642005Y870807D01*
X642301Y872007D01*
X642523Y873222D01*
X642672Y874449D01*
X642747Y875682D01*
X642747Y876918D01*
X642747Y686418D02*
X642672Y687651D01*
X642523Y688878D01*
X642301Y690093D01*
X642005Y691293D01*
X641637Y692473D01*
X641199Y693628D01*
X640692Y694755D01*
X640118Y695849D01*
X639479Y696907D01*
X638777Y697924D01*
X638015Y698896D01*
X637195Y699821D01*
X636321Y700695D01*
X635396Y701515D01*
X634424Y702277D01*
X633407Y702979D01*
X632349Y703618D01*
X631255Y704192D01*
X630128Y704699D01*
X628973Y705137D01*
X627793Y705505D01*
X626593Y705801D01*
X625378Y706023D01*
X624151Y706172D01*
X622918Y706247D01*
X621682Y706247D01*
X620449Y706172D01*
X619222Y706023D01*
X618007Y705801D01*
X616807Y705505D01*
X615627Y705137D01*
X614472Y704699D01*
X613345Y704192D01*
X612251Y703618D01*
X611193Y702979D01*
X610176Y702277D01*
X609204Y701515D01*
X608279Y700695D01*
X607405Y699821D01*
X606586Y698896D01*
X605823Y697924D01*
X605121Y696907D01*
X604482Y695849D01*
X603908Y694755D01*
X603401Y693628D01*
X602963Y692473D01*
X602595Y691293D01*
X602299Y690093D01*
X602077Y688878D01*
X601928Y687651D01*
X601853Y686418D01*
X601853Y685182D01*
X601928Y683949D01*
X602077Y682722D01*
X602299Y681507D01*
X602595Y680307D01*
X602963Y679127D01*
X603401Y677972D01*
X603908Y676845D01*
X604482Y675751D01*
X605121Y674693D01*
X605823Y673676D01*
X606586Y672704D01*
X607405Y671779D01*
X608279Y670905D01*
X609204Y670086D01*
X610176Y669323D01*
X611193Y668621D01*
X612251Y667982D01*
X613345Y667408D01*
X614472Y666901D01*
X615627Y666463D01*
X616807Y666095D01*
X618007Y665799D01*
X619222Y665577D01*
X620449Y665428D01*
X621682Y665353D01*
X622918Y665353D01*
X624151Y665428D01*
X625378Y665577D01*
X626593Y665799D01*
X627793Y666095D01*
X628973Y666463D01*
X630128Y666901D01*
X631255Y667408D01*
X632349Y667982D01*
X633407Y668621D01*
X634424Y669323D01*
X635396Y670086D01*
X636321Y670905D01*
X637195Y671779D01*
X638015Y672704D01*
X638777Y673676D01*
X639479Y674693D01*
X640118Y675751D01*
X640692Y676845D01*
X641199Y677972D01*
X641637Y679127D01*
X642005Y680307D01*
X642301Y681507D01*
X642523Y682722D01*
X642672Y683949D01*
X642747Y685182D01*
X642747Y686418D01*
X414147Y876918D02*
X414072Y878151D01*
X413923Y879378D01*
X413701Y880593D01*
X413405Y881793D01*
X413037Y882973D01*
X412599Y884128D01*
X412092Y885255D01*
X411518Y886349D01*
X410879Y887407D01*
X410177Y888424D01*
X409415Y889396D01*
X408595Y890321D01*
X407721Y891195D01*
X406796Y892015D01*
X405824Y892777D01*
X404807Y893479D01*
X403749Y894118D01*
X402655Y894692D01*
X401528Y895199D01*
X400373Y895637D01*
X399193Y896005D01*
X397993Y896301D01*
X396778Y896523D01*
X395551Y896672D01*
X394318Y896747D01*
X393082Y896747D01*
X391849Y896672D01*
X390622Y896523D01*
X389407Y896301D01*
X388207Y896005D01*
X387027Y895637D01*
X385872Y895199D01*
X384745Y894692D01*
X383651Y894118D01*
X382593Y893479D01*
X381576Y892777D01*
X380604Y892015D01*
X379679Y891195D01*
X378805Y890321D01*
X377986Y889396D01*
X377223Y888424D01*
X376521Y887407D01*
X375882Y886349D01*
X375308Y885255D01*
X374801Y884128D01*
X374363Y882973D01*
X373995Y881793D01*
X373699Y880593D01*
X373477Y879378D01*
X373328Y878151D01*
X373253Y876918D01*
X373253Y875682D01*
X373328Y874449D01*
X373477Y873222D01*
X373699Y872007D01*
X373995Y870807D01*
X374363Y869627D01*
X374801Y868472D01*
X375308Y867345D01*
X375882Y866251D01*
X376521Y865193D01*
X377223Y864176D01*
X377986Y863204D01*
X378805Y862279D01*
X379679Y861405D01*
X380604Y860586D01*
X381576Y859823D01*
X382593Y859121D01*
X383651Y858482D01*
X384745Y857908D01*
X385872Y857401D01*
X387027Y856963D01*
X388207Y856595D01*
X389407Y856299D01*
X390622Y856077D01*
X391849Y855928D01*
X393082Y855853D01*
X394318Y855853D01*
X395551Y855928D01*
X396778Y856077D01*
X397993Y856299D01*
X399193Y856595D01*
X400373Y856963D01*
X401528Y857401D01*
X402655Y857908D01*
X403749Y858482D01*
X404807Y859121D01*
X405824Y859823D01*
X406796Y860586D01*
X407721Y861405D01*
X408595Y862279D01*
X409415Y863204D01*
X410177Y864176D01*
X410879Y865193D01*
X411518Y866251D01*
X412092Y867345D01*
X412599Y868472D01*
X413037Y869627D01*
X413405Y870807D01*
X413701Y872007D01*
X413923Y873222D01*
X414072Y874449D01*
X414147Y875682D01*
X414147Y876918D01*
X414147Y686418D02*
X414072Y687651D01*
X413923Y688878D01*
X413701Y690093D01*
X413405Y691293D01*
X413037Y692473D01*
X412599Y693628D01*
X412092Y694755D01*
X411518Y695849D01*
X410879Y696907D01*
X410177Y697924D01*
X409415Y698896D01*
X408595Y699821D01*
X407721Y700695D01*
X406796Y701515D01*
X405824Y702277D01*
X404807Y702979D01*
X403749Y703618D01*
X402655Y704192D01*
X401528Y704699D01*
X400373Y705137D01*
X399193Y705505D01*
X397993Y705801D01*
X396778Y706023D01*
X395551Y706172D01*
X394318Y706247D01*
X393082Y706247D01*
X391849Y706172D01*
X390622Y706023D01*
X389407Y705801D01*
X388207Y705505D01*
X387027Y705137D01*
X385872Y704699D01*
X384745Y704192D01*
X383651Y703618D01*
X382593Y702979D01*
X381576Y702277D01*
X380604Y701515D01*
X379679Y700695D01*
X378805Y699821D01*
X377986Y698896D01*
X377223Y697924D01*
X376521Y696907D01*
X375882Y695849D01*
X375308Y694755D01*
X374801Y693628D01*
X374363Y692473D01*
X373995Y691293D01*
X373699Y690093D01*
X373477Y688878D01*
X373328Y687651D01*
X373253Y686418D01*
X373253Y685182D01*
X373328Y683949D01*
X373477Y682722D01*
X373699Y681507D01*
X373995Y680307D01*
X374363Y679127D01*
X374801Y677972D01*
X375308Y676845D01*
X375882Y675751D01*
X376521Y674693D01*
X377223Y673676D01*
X377986Y672704D01*
X378805Y671779D01*
X379679Y670905D01*
X380604Y670086D01*
X381576Y669323D01*
X382593Y668621D01*
X383651Y667982D01*
X384745Y667408D01*
X385872Y666901D01*
X387027Y666463D01*
X388207Y666095D01*
X389407Y665799D01*
X390622Y665577D01*
X391849Y665428D01*
X393082Y665353D01*
X394318Y665353D01*
X395551Y665428D01*
X396778Y665577D01*
X397993Y665799D01*
X399193Y666095D01*
X400373Y666463D01*
X401528Y666901D01*
X402655Y667408D01*
X403749Y667982D01*
X404807Y668621D01*
X405824Y669323D01*
X406796Y670086D01*
X407721Y670905D01*
X408595Y671779D01*
X409415Y672704D01*
X410177Y673676D01*
X410879Y674693D01*
X411518Y675751D01*
X412092Y676845D01*
X412599Y677972D01*
X413037Y679127D01*
X413405Y680307D01*
X413701Y681507D01*
X413923Y682722D01*
X414072Y683949D01*
X414147Y685182D01*
X414147Y686418D01*
X185547Y876918D02*
X185472Y878151D01*
X185323Y879378D01*
X185101Y880593D01*
X184805Y881793D01*
X184437Y882973D01*
X183999Y884128D01*
X183492Y885255D01*
X182918Y886349D01*
X182279Y887407D01*
X181577Y888424D01*
X180815Y889396D01*
X179995Y890321D01*
X179121Y891195D01*
X178196Y892015D01*
X177224Y892777D01*
X176207Y893479D01*
X175149Y894118D01*
X174055Y894692D01*
X172928Y895199D01*
X171773Y895637D01*
X170593Y896005D01*
X169393Y896301D01*
X168178Y896523D01*
X166951Y896672D01*
X165718Y896747D01*
X164482Y896747D01*
X163249Y896672D01*
X162022Y896523D01*
X160807Y896301D01*
X159607Y896005D01*
X158427Y895637D01*
X157272Y895199D01*
X156145Y894692D01*
X155051Y894118D01*
X153993Y893479D01*
X152976Y892777D01*
X152004Y892015D01*
X151079Y891195D01*
X150205Y890321D01*
X149386Y889396D01*
X148623Y888424D01*
X147921Y887407D01*
X147282Y886349D01*
X146708Y885255D01*
X146201Y884128D01*
X145763Y882973D01*
X145395Y881793D01*
X145099Y880593D01*
X144877Y879378D01*
X144728Y878151D01*
X144653Y876918D01*
X144653Y875682D01*
X144728Y874449D01*
X144877Y873222D01*
X145099Y872007D01*
X145395Y870807D01*
X145763Y869627D01*
X146201Y868472D01*
X146708Y867345D01*
X147282Y866251D01*
X147921Y865193D01*
X148623Y864176D01*
X149386Y863204D01*
X150205Y862279D01*
X151079Y861405D01*
X152004Y860586D01*
X152976Y859823D01*
X153993Y859121D01*
X155051Y858482D01*
X156145Y857908D01*
X157272Y857401D01*
X158427Y856963D01*
X159607Y856595D01*
X160807Y856299D01*
X162022Y856077D01*
X163249Y855928D01*
X164482Y855853D01*
X165718Y855853D01*
X166951Y855928D01*
X168178Y856077D01*
X169393Y856299D01*
X170593Y856595D01*
X171773Y856963D01*
X172928Y857401D01*
X174055Y857908D01*
X175149Y858482D01*
X176207Y859121D01*
X177224Y859823D01*
X178196Y860586D01*
X179121Y861405D01*
X179995Y862279D01*
X180815Y863204D01*
X181577Y864176D01*
X182279Y865193D01*
X182918Y866251D01*
X183492Y867345D01*
X183999Y868472D01*
X184437Y869627D01*
X184805Y870807D01*
X185101Y872007D01*
X185323Y873222D01*
X185472Y874449D01*
X185547Y875682D01*
X185547Y876918D01*
X185547Y686418D02*
X185472Y687651D01*
X185323Y688878D01*
X185101Y690093D01*
X184805Y691293D01*
X184437Y692473D01*
X183999Y693628D01*
X183492Y694755D01*
X182918Y695849D01*
X182279Y696907D01*
X181577Y697924D01*
X180815Y698896D01*
X179995Y699821D01*
X179121Y700695D01*
X178196Y701515D01*
X177224Y702277D01*
X176207Y702979D01*
X175149Y703618D01*
X174055Y704192D01*
X172928Y704699D01*
X171773Y705137D01*
X170593Y705505D01*
X169393Y705801D01*
X168178Y706023D01*
X166951Y706172D01*
X165718Y706247D01*
X164482Y706247D01*
X163249Y706172D01*
X162022Y706023D01*
X160807Y705801D01*
X159607Y705505D01*
X158427Y705137D01*
X157272Y704699D01*
X156145Y704192D01*
X155051Y703618D01*
X153993Y702979D01*
X152976Y702277D01*
X152004Y701515D01*
X151079Y700695D01*
X150205Y699821D01*
X149386Y698896D01*
X148623Y697924D01*
X147921Y696907D01*
X147282Y695849D01*
X146708Y694755D01*
X146201Y693628D01*
X145763Y692473D01*
X145395Y691293D01*
X145099Y690093D01*
X144877Y688878D01*
X144728Y687651D01*
X144653Y686418D01*
X144653Y685182D01*
X144728Y683949D01*
X144877Y682722D01*
X145099Y681507D01*
X145395Y680307D01*
X145763Y679127D01*
X146201Y677972D01*
X146708Y676845D01*
X147282Y675751D01*
X147921Y674693D01*
X148623Y673676D01*
X149386Y672704D01*
X150205Y671779D01*
X151079Y670905D01*
X152004Y670086D01*
X152976Y669323D01*
X153993Y668621D01*
X155051Y667982D01*
X156145Y667408D01*
X157272Y666901D01*
X158427Y666463D01*
X159607Y666095D01*
X160807Y665799D01*
X162022Y665577D01*
X163249Y665428D01*
X164482Y665353D01*
X165718Y665353D01*
X166951Y665428D01*
X168178Y665577D01*
X169393Y665799D01*
X170593Y666095D01*
X171773Y666463D01*
X172928Y666901D01*
X174055Y667408D01*
X175149Y667982D01*
X176207Y668621D01*
X177224Y669323D01*
X178196Y670086D01*
X179121Y670905D01*
X179995Y671779D01*
X180815Y672704D01*
X181577Y673676D01*
X182279Y674693D01*
X182918Y675751D01*
X183492Y676845D01*
X183999Y677972D01*
X184437Y679127D01*
X184805Y680307D01*
X185101Y681507D01*
X185323Y682722D01*
X185472Y683949D01*
X185547Y685182D01*
X185547Y686418D01*
M02*
