G04 EAGLE Gerber RS-274X export*
G75*
%MOMM*%
%FSLAX34Y34*%
%LPD*%
%INSilkscreen Bottom*%
%IPPOS*%
%AMOC8*
5,1,8,0,0,1.08239X$1,22.5*%
G01*
%ADD10C,0.228600*%
%ADD11C,0.203200*%
%ADD12C,0.127000*%


D10*
X815467Y925661D02*
X806831Y925661D01*
X811149Y921343D02*
X811149Y929979D01*
X864743Y925661D02*
X873379Y925661D01*
D11*
X800100Y850900D02*
X825500Y825500D01*
X830580Y838200D02*
X863600Y825500D01*
X899160Y808990D02*
X777240Y808990D01*
X899160Y808990D02*
X899160Y943610D01*
X777240Y943610D01*
X777240Y808990D01*
D12*
X762889Y873916D02*
X762891Y873981D01*
X762897Y874045D01*
X762907Y874109D01*
X762920Y874173D01*
X762938Y874235D01*
X762959Y874296D01*
X762983Y874356D01*
X763012Y874414D01*
X763044Y874471D01*
X763079Y874525D01*
X763117Y874577D01*
X763159Y874627D01*
X763203Y874674D01*
X763250Y874718D01*
X763300Y874760D01*
X763352Y874798D01*
X763406Y874833D01*
X763463Y874865D01*
X763521Y874894D01*
X763581Y874918D01*
X763642Y874939D01*
X763704Y874957D01*
X763768Y874970D01*
X763832Y874980D01*
X763896Y874986D01*
X763961Y874988D01*
X762889Y873916D02*
X762891Y873822D01*
X762897Y873728D01*
X762907Y873634D01*
X762920Y873541D01*
X762938Y873449D01*
X762959Y873357D01*
X762984Y873266D01*
X763013Y873176D01*
X763046Y873088D01*
X763082Y873001D01*
X763122Y872916D01*
X763165Y872832D01*
X763212Y872751D01*
X763262Y872671D01*
X763315Y872593D01*
X763372Y872518D01*
X763431Y872445D01*
X763494Y872375D01*
X763559Y872307D01*
X766643Y872442D02*
X766708Y872444D01*
X766772Y872450D01*
X766836Y872460D01*
X766900Y872473D01*
X766962Y872491D01*
X767023Y872512D01*
X767083Y872536D01*
X767141Y872565D01*
X767198Y872597D01*
X767252Y872632D01*
X767304Y872670D01*
X767354Y872712D01*
X767401Y872756D01*
X767445Y872803D01*
X767487Y872853D01*
X767525Y872905D01*
X767560Y872959D01*
X767592Y873016D01*
X767621Y873074D01*
X767645Y873134D01*
X767666Y873195D01*
X767684Y873257D01*
X767697Y873321D01*
X767707Y873385D01*
X767713Y873449D01*
X767715Y873514D01*
X767713Y873600D01*
X767708Y873686D01*
X767698Y873772D01*
X767685Y873857D01*
X767669Y873942D01*
X767649Y874026D01*
X767625Y874109D01*
X767598Y874191D01*
X767567Y874271D01*
X767533Y874351D01*
X767495Y874428D01*
X767454Y874504D01*
X767410Y874578D01*
X767363Y874650D01*
X767313Y874721D01*
X765705Y872978D02*
X765738Y872925D01*
X765775Y872874D01*
X765814Y872825D01*
X765856Y872778D01*
X765901Y872734D01*
X765948Y872693D01*
X765997Y872654D01*
X766049Y872618D01*
X766103Y872585D01*
X766158Y872556D01*
X766215Y872530D01*
X766274Y872507D01*
X766333Y872487D01*
X766394Y872471D01*
X766455Y872458D01*
X766518Y872449D01*
X766580Y872444D01*
X766643Y872442D01*
X764899Y874453D02*
X764866Y874506D01*
X764829Y874557D01*
X764790Y874606D01*
X764748Y874653D01*
X764703Y874697D01*
X764656Y874738D01*
X764607Y874777D01*
X764555Y874813D01*
X764501Y874846D01*
X764446Y874875D01*
X764389Y874901D01*
X764330Y874924D01*
X764271Y874944D01*
X764210Y874960D01*
X764149Y874973D01*
X764086Y874982D01*
X764024Y874987D01*
X763961Y874989D01*
X764900Y874453D02*
X765704Y872978D01*
X766643Y877611D02*
X767715Y878952D01*
X762889Y878952D01*
X762889Y880292D02*
X762889Y877611D01*
D10*
X142367Y544661D02*
X133731Y544661D01*
X138049Y540343D02*
X138049Y548979D01*
X191643Y544661D02*
X200279Y544661D01*
D11*
X127000Y469900D02*
X152400Y444500D01*
X157480Y457200D02*
X190500Y444500D01*
X226060Y427990D02*
X104140Y427990D01*
X226060Y427990D02*
X226060Y562610D01*
X104140Y562610D01*
X104140Y427990D01*
D12*
X89789Y490173D02*
X89791Y490238D01*
X89797Y490302D01*
X89807Y490366D01*
X89820Y490430D01*
X89838Y490492D01*
X89859Y490553D01*
X89883Y490613D01*
X89912Y490671D01*
X89944Y490728D01*
X89979Y490782D01*
X90017Y490834D01*
X90059Y490884D01*
X90103Y490931D01*
X90150Y490975D01*
X90200Y491017D01*
X90252Y491055D01*
X90306Y491090D01*
X90363Y491122D01*
X90421Y491151D01*
X90481Y491175D01*
X90542Y491196D01*
X90604Y491214D01*
X90668Y491227D01*
X90732Y491237D01*
X90796Y491243D01*
X90861Y491245D01*
X89789Y490173D02*
X89791Y490079D01*
X89797Y489985D01*
X89807Y489891D01*
X89820Y489798D01*
X89838Y489706D01*
X89859Y489614D01*
X89884Y489523D01*
X89913Y489433D01*
X89946Y489345D01*
X89982Y489258D01*
X90022Y489173D01*
X90065Y489089D01*
X90112Y489008D01*
X90162Y488928D01*
X90215Y488850D01*
X90272Y488775D01*
X90331Y488702D01*
X90394Y488632D01*
X90459Y488564D01*
X93543Y488699D02*
X93608Y488701D01*
X93672Y488707D01*
X93736Y488717D01*
X93800Y488730D01*
X93862Y488748D01*
X93923Y488769D01*
X93983Y488793D01*
X94041Y488822D01*
X94098Y488854D01*
X94152Y488889D01*
X94204Y488927D01*
X94254Y488969D01*
X94301Y489013D01*
X94345Y489060D01*
X94387Y489110D01*
X94425Y489162D01*
X94460Y489216D01*
X94492Y489273D01*
X94521Y489331D01*
X94545Y489391D01*
X94566Y489452D01*
X94584Y489514D01*
X94597Y489578D01*
X94607Y489642D01*
X94613Y489706D01*
X94615Y489771D01*
X94613Y489857D01*
X94608Y489943D01*
X94598Y490029D01*
X94585Y490114D01*
X94569Y490199D01*
X94549Y490283D01*
X94525Y490366D01*
X94498Y490448D01*
X94467Y490528D01*
X94433Y490608D01*
X94395Y490685D01*
X94354Y490761D01*
X94310Y490835D01*
X94263Y490907D01*
X94213Y490978D01*
X92605Y489235D02*
X92638Y489182D01*
X92675Y489131D01*
X92714Y489082D01*
X92756Y489035D01*
X92801Y488991D01*
X92848Y488950D01*
X92897Y488911D01*
X92949Y488875D01*
X93003Y488842D01*
X93058Y488813D01*
X93115Y488787D01*
X93174Y488764D01*
X93233Y488744D01*
X93294Y488728D01*
X93355Y488715D01*
X93418Y488706D01*
X93480Y488701D01*
X93543Y488699D01*
X91799Y490709D02*
X91766Y490762D01*
X91729Y490813D01*
X91690Y490862D01*
X91648Y490909D01*
X91603Y490953D01*
X91556Y490994D01*
X91507Y491033D01*
X91455Y491069D01*
X91401Y491102D01*
X91346Y491131D01*
X91289Y491157D01*
X91230Y491180D01*
X91171Y491200D01*
X91110Y491216D01*
X91049Y491229D01*
X90986Y491238D01*
X90924Y491243D01*
X90861Y491245D01*
X91800Y490709D02*
X92604Y489235D01*
X93543Y493868D02*
X94615Y495209D01*
X89789Y495209D01*
X89789Y496549D02*
X89789Y493868D01*
X94615Y500829D02*
X94613Y500897D01*
X94607Y500964D01*
X94598Y501031D01*
X94585Y501098D01*
X94568Y501163D01*
X94547Y501228D01*
X94523Y501291D01*
X94495Y501353D01*
X94464Y501413D01*
X94430Y501471D01*
X94392Y501527D01*
X94352Y501582D01*
X94308Y501633D01*
X94261Y501682D01*
X94212Y501729D01*
X94161Y501773D01*
X94106Y501813D01*
X94050Y501851D01*
X93992Y501885D01*
X93932Y501916D01*
X93870Y501944D01*
X93807Y501968D01*
X93742Y501989D01*
X93677Y502006D01*
X93610Y502019D01*
X93543Y502028D01*
X93476Y502034D01*
X93408Y502036D01*
X94615Y500829D02*
X94613Y500751D01*
X94607Y500673D01*
X94597Y500596D01*
X94584Y500519D01*
X94566Y500443D01*
X94545Y500368D01*
X94520Y500294D01*
X94491Y500222D01*
X94459Y500151D01*
X94423Y500082D01*
X94384Y500014D01*
X94341Y499949D01*
X94295Y499886D01*
X94246Y499825D01*
X94194Y499767D01*
X94139Y499712D01*
X94082Y499659D01*
X94022Y499610D01*
X93959Y499563D01*
X93894Y499520D01*
X93828Y499480D01*
X93759Y499443D01*
X93688Y499410D01*
X93616Y499380D01*
X93543Y499354D01*
X92470Y501634D02*
X92519Y501683D01*
X92571Y501730D01*
X92626Y501773D01*
X92683Y501814D01*
X92742Y501852D01*
X92803Y501886D01*
X92866Y501917D01*
X92930Y501945D01*
X92996Y501969D01*
X93062Y501989D01*
X93130Y502006D01*
X93199Y502019D01*
X93268Y502028D01*
X93338Y502034D01*
X93408Y502036D01*
X92470Y501633D02*
X89789Y499354D01*
X89789Y502035D01*
D10*
X362331Y544661D02*
X370967Y544661D01*
X366649Y540343D02*
X366649Y548979D01*
X420243Y544661D02*
X428879Y544661D01*
D11*
X355600Y469900D02*
X381000Y444500D01*
X386080Y457200D02*
X419100Y444500D01*
X454660Y427990D02*
X332740Y427990D01*
X454660Y427990D02*
X454660Y562610D01*
X332740Y562610D01*
X332740Y427990D01*
D12*
X318389Y490173D02*
X318391Y490238D01*
X318397Y490302D01*
X318407Y490366D01*
X318420Y490430D01*
X318438Y490492D01*
X318459Y490553D01*
X318483Y490613D01*
X318512Y490671D01*
X318544Y490728D01*
X318579Y490782D01*
X318617Y490834D01*
X318659Y490884D01*
X318703Y490931D01*
X318750Y490975D01*
X318800Y491017D01*
X318852Y491055D01*
X318906Y491090D01*
X318963Y491122D01*
X319021Y491151D01*
X319081Y491175D01*
X319142Y491196D01*
X319204Y491214D01*
X319268Y491227D01*
X319332Y491237D01*
X319396Y491243D01*
X319461Y491245D01*
X318389Y490173D02*
X318391Y490079D01*
X318397Y489985D01*
X318407Y489891D01*
X318420Y489798D01*
X318438Y489706D01*
X318459Y489614D01*
X318484Y489523D01*
X318513Y489433D01*
X318546Y489345D01*
X318582Y489258D01*
X318622Y489173D01*
X318665Y489089D01*
X318712Y489008D01*
X318762Y488928D01*
X318815Y488850D01*
X318872Y488775D01*
X318931Y488702D01*
X318994Y488632D01*
X319059Y488564D01*
X322143Y488699D02*
X322208Y488701D01*
X322272Y488707D01*
X322336Y488717D01*
X322400Y488730D01*
X322462Y488748D01*
X322523Y488769D01*
X322583Y488793D01*
X322641Y488822D01*
X322698Y488854D01*
X322752Y488889D01*
X322804Y488927D01*
X322854Y488969D01*
X322901Y489013D01*
X322945Y489060D01*
X322987Y489110D01*
X323025Y489162D01*
X323060Y489216D01*
X323092Y489273D01*
X323121Y489331D01*
X323145Y489391D01*
X323166Y489452D01*
X323184Y489514D01*
X323197Y489578D01*
X323207Y489642D01*
X323213Y489706D01*
X323215Y489771D01*
X323213Y489857D01*
X323208Y489943D01*
X323198Y490029D01*
X323185Y490114D01*
X323169Y490199D01*
X323149Y490283D01*
X323125Y490366D01*
X323098Y490448D01*
X323067Y490528D01*
X323033Y490608D01*
X322995Y490685D01*
X322954Y490761D01*
X322910Y490835D01*
X322863Y490907D01*
X322813Y490978D01*
X321205Y489235D02*
X321238Y489182D01*
X321275Y489131D01*
X321314Y489082D01*
X321356Y489035D01*
X321401Y488991D01*
X321448Y488950D01*
X321497Y488911D01*
X321549Y488875D01*
X321603Y488842D01*
X321658Y488813D01*
X321715Y488787D01*
X321774Y488764D01*
X321833Y488744D01*
X321894Y488728D01*
X321955Y488715D01*
X322018Y488706D01*
X322080Y488701D01*
X322143Y488699D01*
X320399Y490709D02*
X320366Y490762D01*
X320329Y490813D01*
X320290Y490862D01*
X320248Y490909D01*
X320203Y490953D01*
X320156Y490994D01*
X320107Y491033D01*
X320055Y491069D01*
X320001Y491102D01*
X319946Y491131D01*
X319889Y491157D01*
X319830Y491180D01*
X319771Y491200D01*
X319710Y491216D01*
X319649Y491229D01*
X319586Y491238D01*
X319524Y491243D01*
X319461Y491245D01*
X320400Y490709D02*
X321204Y489235D01*
X322143Y493868D02*
X323215Y495209D01*
X318389Y495209D01*
X318389Y496549D02*
X318389Y493868D01*
X318389Y499354D02*
X318389Y500695D01*
X318391Y500766D01*
X318397Y500838D01*
X318406Y500908D01*
X318419Y500978D01*
X318436Y501048D01*
X318457Y501116D01*
X318481Y501183D01*
X318509Y501249D01*
X318540Y501313D01*
X318575Y501376D01*
X318613Y501436D01*
X318654Y501495D01*
X318698Y501551D01*
X318745Y501605D01*
X318794Y501656D01*
X318847Y501704D01*
X318902Y501750D01*
X318959Y501792D01*
X319019Y501832D01*
X319080Y501868D01*
X319144Y501901D01*
X319209Y501930D01*
X319275Y501956D01*
X319343Y501979D01*
X319412Y501998D01*
X319482Y502013D01*
X319552Y502024D01*
X319623Y502032D01*
X319694Y502036D01*
X319766Y502036D01*
X319837Y502032D01*
X319908Y502024D01*
X319978Y502013D01*
X320048Y501998D01*
X320117Y501979D01*
X320185Y501956D01*
X320251Y501930D01*
X320316Y501901D01*
X320380Y501868D01*
X320441Y501832D01*
X320501Y501792D01*
X320558Y501750D01*
X320613Y501704D01*
X320666Y501656D01*
X320715Y501605D01*
X320762Y501551D01*
X320806Y501495D01*
X320847Y501436D01*
X320885Y501376D01*
X320920Y501313D01*
X320951Y501249D01*
X320979Y501183D01*
X321003Y501116D01*
X321024Y501048D01*
X321041Y500978D01*
X321054Y500908D01*
X321063Y500838D01*
X321069Y500766D01*
X321071Y500695D01*
X323215Y500963D02*
X323215Y499354D01*
X323215Y500963D02*
X323213Y501028D01*
X323207Y501092D01*
X323197Y501156D01*
X323184Y501220D01*
X323166Y501282D01*
X323145Y501343D01*
X323121Y501403D01*
X323092Y501461D01*
X323060Y501518D01*
X323025Y501572D01*
X322987Y501624D01*
X322945Y501674D01*
X322901Y501721D01*
X322854Y501765D01*
X322804Y501807D01*
X322752Y501845D01*
X322698Y501880D01*
X322641Y501912D01*
X322583Y501941D01*
X322523Y501965D01*
X322462Y501986D01*
X322400Y502004D01*
X322336Y502017D01*
X322272Y502027D01*
X322208Y502033D01*
X322143Y502035D01*
X322078Y502033D01*
X322014Y502027D01*
X321950Y502017D01*
X321886Y502004D01*
X321824Y501986D01*
X321763Y501965D01*
X321703Y501941D01*
X321645Y501912D01*
X321588Y501880D01*
X321534Y501845D01*
X321482Y501807D01*
X321432Y501765D01*
X321385Y501721D01*
X321341Y501674D01*
X321299Y501624D01*
X321261Y501572D01*
X321226Y501518D01*
X321194Y501461D01*
X321165Y501403D01*
X321141Y501343D01*
X321120Y501282D01*
X321102Y501220D01*
X321089Y501156D01*
X321079Y501092D01*
X321073Y501028D01*
X321071Y500963D01*
X321070Y500963D02*
X321070Y499891D01*
D10*
X590931Y544661D02*
X599567Y544661D01*
X595249Y540343D02*
X595249Y548979D01*
X648843Y544661D02*
X657479Y544661D01*
D11*
X584200Y469900D02*
X609600Y444500D01*
X614680Y457200D02*
X647700Y444500D01*
X683260Y427990D02*
X561340Y427990D01*
X683260Y427990D02*
X683260Y562610D01*
X561340Y562610D01*
X561340Y427990D01*
D12*
X546989Y490173D02*
X546991Y490238D01*
X546997Y490302D01*
X547007Y490366D01*
X547020Y490430D01*
X547038Y490492D01*
X547059Y490553D01*
X547083Y490613D01*
X547112Y490671D01*
X547144Y490728D01*
X547179Y490782D01*
X547217Y490834D01*
X547259Y490884D01*
X547303Y490931D01*
X547350Y490975D01*
X547400Y491017D01*
X547452Y491055D01*
X547506Y491090D01*
X547563Y491122D01*
X547621Y491151D01*
X547681Y491175D01*
X547742Y491196D01*
X547804Y491214D01*
X547868Y491227D01*
X547932Y491237D01*
X547996Y491243D01*
X548061Y491245D01*
X546989Y490173D02*
X546991Y490079D01*
X546997Y489985D01*
X547007Y489891D01*
X547020Y489798D01*
X547038Y489706D01*
X547059Y489614D01*
X547084Y489523D01*
X547113Y489433D01*
X547146Y489345D01*
X547182Y489258D01*
X547222Y489173D01*
X547265Y489089D01*
X547312Y489008D01*
X547362Y488928D01*
X547415Y488850D01*
X547472Y488775D01*
X547531Y488702D01*
X547594Y488632D01*
X547659Y488564D01*
X550743Y488699D02*
X550808Y488701D01*
X550872Y488707D01*
X550936Y488717D01*
X551000Y488730D01*
X551062Y488748D01*
X551123Y488769D01*
X551183Y488793D01*
X551241Y488822D01*
X551298Y488854D01*
X551352Y488889D01*
X551404Y488927D01*
X551454Y488969D01*
X551501Y489013D01*
X551545Y489060D01*
X551587Y489110D01*
X551625Y489162D01*
X551660Y489216D01*
X551692Y489273D01*
X551721Y489331D01*
X551745Y489391D01*
X551766Y489452D01*
X551784Y489514D01*
X551797Y489578D01*
X551807Y489642D01*
X551813Y489706D01*
X551815Y489771D01*
X551813Y489857D01*
X551808Y489943D01*
X551798Y490029D01*
X551785Y490114D01*
X551769Y490199D01*
X551749Y490283D01*
X551725Y490366D01*
X551698Y490448D01*
X551667Y490528D01*
X551633Y490608D01*
X551595Y490685D01*
X551554Y490761D01*
X551510Y490835D01*
X551463Y490907D01*
X551413Y490978D01*
X549805Y489235D02*
X549838Y489182D01*
X549875Y489131D01*
X549914Y489082D01*
X549956Y489035D01*
X550001Y488991D01*
X550048Y488950D01*
X550097Y488911D01*
X550149Y488875D01*
X550203Y488842D01*
X550258Y488813D01*
X550315Y488787D01*
X550374Y488764D01*
X550433Y488744D01*
X550494Y488728D01*
X550555Y488715D01*
X550618Y488706D01*
X550680Y488701D01*
X550743Y488699D01*
X548999Y490709D02*
X548966Y490762D01*
X548929Y490813D01*
X548890Y490862D01*
X548848Y490909D01*
X548803Y490953D01*
X548756Y490994D01*
X548707Y491033D01*
X548655Y491069D01*
X548601Y491102D01*
X548546Y491131D01*
X548489Y491157D01*
X548430Y491180D01*
X548371Y491200D01*
X548310Y491216D01*
X548249Y491229D01*
X548186Y491238D01*
X548124Y491243D01*
X548061Y491245D01*
X549000Y490709D02*
X549804Y489235D01*
X550743Y493868D02*
X551815Y495209D01*
X546989Y495209D01*
X546989Y496549D02*
X546989Y493868D01*
X548061Y499354D02*
X551815Y500427D01*
X548061Y499354D02*
X548061Y502035D01*
X549134Y501231D02*
X546989Y501231D01*
D10*
X806831Y544661D02*
X815467Y544661D01*
X811149Y540343D02*
X811149Y548979D01*
X864743Y544661D02*
X873379Y544661D01*
D11*
X800100Y469900D02*
X825500Y444500D01*
X830580Y457200D02*
X863600Y444500D01*
X899160Y427990D02*
X777240Y427990D01*
X899160Y427990D02*
X899160Y562610D01*
X777240Y562610D01*
X777240Y427990D01*
D12*
X762889Y490173D02*
X762891Y490238D01*
X762897Y490302D01*
X762907Y490366D01*
X762920Y490430D01*
X762938Y490492D01*
X762959Y490553D01*
X762983Y490613D01*
X763012Y490671D01*
X763044Y490728D01*
X763079Y490782D01*
X763117Y490834D01*
X763159Y490884D01*
X763203Y490931D01*
X763250Y490975D01*
X763300Y491017D01*
X763352Y491055D01*
X763406Y491090D01*
X763463Y491122D01*
X763521Y491151D01*
X763581Y491175D01*
X763642Y491196D01*
X763704Y491214D01*
X763768Y491227D01*
X763832Y491237D01*
X763896Y491243D01*
X763961Y491245D01*
X762889Y490173D02*
X762891Y490079D01*
X762897Y489985D01*
X762907Y489891D01*
X762920Y489798D01*
X762938Y489706D01*
X762959Y489614D01*
X762984Y489523D01*
X763013Y489433D01*
X763046Y489345D01*
X763082Y489258D01*
X763122Y489173D01*
X763165Y489089D01*
X763212Y489008D01*
X763262Y488928D01*
X763315Y488850D01*
X763372Y488775D01*
X763431Y488702D01*
X763494Y488632D01*
X763559Y488564D01*
X766643Y488699D02*
X766708Y488701D01*
X766772Y488707D01*
X766836Y488717D01*
X766900Y488730D01*
X766962Y488748D01*
X767023Y488769D01*
X767083Y488793D01*
X767141Y488822D01*
X767198Y488854D01*
X767252Y488889D01*
X767304Y488927D01*
X767354Y488969D01*
X767401Y489013D01*
X767445Y489060D01*
X767487Y489110D01*
X767525Y489162D01*
X767560Y489216D01*
X767592Y489273D01*
X767621Y489331D01*
X767645Y489391D01*
X767666Y489452D01*
X767684Y489514D01*
X767697Y489578D01*
X767707Y489642D01*
X767713Y489706D01*
X767715Y489771D01*
X767713Y489857D01*
X767708Y489943D01*
X767698Y490029D01*
X767685Y490114D01*
X767669Y490199D01*
X767649Y490283D01*
X767625Y490366D01*
X767598Y490448D01*
X767567Y490528D01*
X767533Y490608D01*
X767495Y490685D01*
X767454Y490761D01*
X767410Y490835D01*
X767363Y490907D01*
X767313Y490978D01*
X765705Y489235D02*
X765738Y489182D01*
X765775Y489131D01*
X765814Y489082D01*
X765856Y489035D01*
X765901Y488991D01*
X765948Y488950D01*
X765997Y488911D01*
X766049Y488875D01*
X766103Y488842D01*
X766158Y488813D01*
X766215Y488787D01*
X766274Y488764D01*
X766333Y488744D01*
X766394Y488728D01*
X766455Y488715D01*
X766518Y488706D01*
X766580Y488701D01*
X766643Y488699D01*
X764899Y490709D02*
X764866Y490762D01*
X764829Y490813D01*
X764790Y490862D01*
X764748Y490909D01*
X764703Y490953D01*
X764656Y490994D01*
X764607Y491033D01*
X764555Y491069D01*
X764501Y491102D01*
X764446Y491131D01*
X764389Y491157D01*
X764330Y491180D01*
X764271Y491200D01*
X764210Y491216D01*
X764149Y491229D01*
X764086Y491238D01*
X764024Y491243D01*
X763961Y491245D01*
X764900Y490709D02*
X765704Y489235D01*
X766643Y493868D02*
X767715Y495209D01*
X762889Y495209D01*
X762889Y496549D02*
X762889Y493868D01*
X762889Y499354D02*
X762889Y500963D01*
X762891Y501028D01*
X762897Y501092D01*
X762907Y501156D01*
X762920Y501220D01*
X762938Y501282D01*
X762959Y501343D01*
X762983Y501403D01*
X763012Y501461D01*
X763044Y501518D01*
X763079Y501572D01*
X763117Y501624D01*
X763159Y501674D01*
X763203Y501721D01*
X763250Y501765D01*
X763300Y501807D01*
X763352Y501845D01*
X763406Y501880D01*
X763463Y501912D01*
X763521Y501941D01*
X763581Y501965D01*
X763642Y501986D01*
X763704Y502004D01*
X763768Y502017D01*
X763832Y502027D01*
X763896Y502033D01*
X763961Y502035D01*
X764498Y502035D01*
X764563Y502033D01*
X764627Y502027D01*
X764691Y502017D01*
X764755Y502004D01*
X764817Y501986D01*
X764878Y501965D01*
X764938Y501941D01*
X764996Y501912D01*
X765053Y501880D01*
X765107Y501845D01*
X765159Y501807D01*
X765209Y501765D01*
X765256Y501721D01*
X765300Y501674D01*
X765342Y501624D01*
X765380Y501572D01*
X765415Y501518D01*
X765447Y501461D01*
X765476Y501403D01*
X765500Y501343D01*
X765521Y501282D01*
X765539Y501220D01*
X765552Y501156D01*
X765562Y501092D01*
X765568Y501028D01*
X765570Y500963D01*
X765570Y499354D01*
X767715Y499354D01*
X767715Y502035D01*
D10*
X806831Y163661D02*
X815467Y163661D01*
X811149Y159343D02*
X811149Y167979D01*
X864743Y163661D02*
X873379Y163661D01*
D11*
X800100Y88900D02*
X825500Y63500D01*
X830580Y76200D02*
X863600Y63500D01*
X899160Y46990D02*
X777240Y46990D01*
X899160Y46990D02*
X899160Y181610D01*
X777240Y181610D01*
X777240Y46990D01*
D12*
X762889Y109173D02*
X762891Y109238D01*
X762897Y109302D01*
X762907Y109366D01*
X762920Y109430D01*
X762938Y109492D01*
X762959Y109553D01*
X762983Y109613D01*
X763012Y109671D01*
X763044Y109728D01*
X763079Y109782D01*
X763117Y109834D01*
X763159Y109884D01*
X763203Y109931D01*
X763250Y109975D01*
X763300Y110017D01*
X763352Y110055D01*
X763406Y110090D01*
X763463Y110122D01*
X763521Y110151D01*
X763581Y110175D01*
X763642Y110196D01*
X763704Y110214D01*
X763768Y110227D01*
X763832Y110237D01*
X763896Y110243D01*
X763961Y110245D01*
X762889Y109173D02*
X762891Y109079D01*
X762897Y108985D01*
X762907Y108891D01*
X762920Y108798D01*
X762938Y108706D01*
X762959Y108614D01*
X762984Y108523D01*
X763013Y108433D01*
X763046Y108345D01*
X763082Y108258D01*
X763122Y108173D01*
X763165Y108089D01*
X763212Y108008D01*
X763262Y107928D01*
X763315Y107850D01*
X763372Y107775D01*
X763431Y107702D01*
X763494Y107632D01*
X763559Y107564D01*
X766643Y107699D02*
X766708Y107701D01*
X766772Y107707D01*
X766836Y107717D01*
X766900Y107730D01*
X766962Y107748D01*
X767023Y107769D01*
X767083Y107793D01*
X767141Y107822D01*
X767198Y107854D01*
X767252Y107889D01*
X767304Y107927D01*
X767354Y107969D01*
X767401Y108013D01*
X767445Y108060D01*
X767487Y108110D01*
X767525Y108162D01*
X767560Y108216D01*
X767592Y108273D01*
X767621Y108331D01*
X767645Y108391D01*
X767666Y108452D01*
X767684Y108514D01*
X767697Y108578D01*
X767707Y108642D01*
X767713Y108706D01*
X767715Y108771D01*
X767713Y108857D01*
X767708Y108943D01*
X767698Y109029D01*
X767685Y109114D01*
X767669Y109199D01*
X767649Y109283D01*
X767625Y109366D01*
X767598Y109448D01*
X767567Y109528D01*
X767533Y109608D01*
X767495Y109685D01*
X767454Y109761D01*
X767410Y109835D01*
X767363Y109907D01*
X767313Y109978D01*
X765705Y108235D02*
X765738Y108182D01*
X765775Y108131D01*
X765814Y108082D01*
X765856Y108035D01*
X765901Y107991D01*
X765948Y107950D01*
X765997Y107911D01*
X766049Y107875D01*
X766103Y107842D01*
X766158Y107813D01*
X766215Y107787D01*
X766274Y107764D01*
X766333Y107744D01*
X766394Y107728D01*
X766455Y107715D01*
X766518Y107706D01*
X766580Y107701D01*
X766643Y107699D01*
X764899Y109709D02*
X764866Y109762D01*
X764829Y109813D01*
X764790Y109862D01*
X764748Y109909D01*
X764703Y109953D01*
X764656Y109994D01*
X764607Y110033D01*
X764555Y110069D01*
X764501Y110102D01*
X764446Y110131D01*
X764389Y110157D01*
X764330Y110180D01*
X764271Y110200D01*
X764210Y110216D01*
X764149Y110229D01*
X764086Y110238D01*
X764024Y110243D01*
X763961Y110245D01*
X764900Y109709D02*
X765704Y108235D01*
X766643Y112868D02*
X767715Y114209D01*
X762889Y114209D01*
X762889Y115549D02*
X762889Y112868D01*
X767179Y118354D02*
X767715Y118354D01*
X767715Y121035D01*
X762889Y119695D01*
D10*
X142367Y163661D02*
X133731Y163661D01*
X138049Y159343D02*
X138049Y167979D01*
X191643Y163661D02*
X200279Y163661D01*
D11*
X127000Y88900D02*
X152400Y63500D01*
X157480Y76200D02*
X190500Y63500D01*
X226060Y46990D02*
X104140Y46990D01*
X226060Y46990D02*
X226060Y181610D01*
X104140Y181610D01*
X104140Y46990D01*
D12*
X89789Y109173D02*
X89791Y109238D01*
X89797Y109302D01*
X89807Y109366D01*
X89820Y109430D01*
X89838Y109492D01*
X89859Y109553D01*
X89883Y109613D01*
X89912Y109671D01*
X89944Y109728D01*
X89979Y109782D01*
X90017Y109834D01*
X90059Y109884D01*
X90103Y109931D01*
X90150Y109975D01*
X90200Y110017D01*
X90252Y110055D01*
X90306Y110090D01*
X90363Y110122D01*
X90421Y110151D01*
X90481Y110175D01*
X90542Y110196D01*
X90604Y110214D01*
X90668Y110227D01*
X90732Y110237D01*
X90796Y110243D01*
X90861Y110245D01*
X89789Y109173D02*
X89791Y109079D01*
X89797Y108985D01*
X89807Y108891D01*
X89820Y108798D01*
X89838Y108706D01*
X89859Y108614D01*
X89884Y108523D01*
X89913Y108433D01*
X89946Y108345D01*
X89982Y108258D01*
X90022Y108173D01*
X90065Y108089D01*
X90112Y108008D01*
X90162Y107928D01*
X90215Y107850D01*
X90272Y107775D01*
X90331Y107702D01*
X90394Y107632D01*
X90459Y107564D01*
X93543Y107699D02*
X93608Y107701D01*
X93672Y107707D01*
X93736Y107717D01*
X93800Y107730D01*
X93862Y107748D01*
X93923Y107769D01*
X93983Y107793D01*
X94041Y107822D01*
X94098Y107854D01*
X94152Y107889D01*
X94204Y107927D01*
X94254Y107969D01*
X94301Y108013D01*
X94345Y108060D01*
X94387Y108110D01*
X94425Y108162D01*
X94460Y108216D01*
X94492Y108273D01*
X94521Y108331D01*
X94545Y108391D01*
X94566Y108452D01*
X94584Y108514D01*
X94597Y108578D01*
X94607Y108642D01*
X94613Y108706D01*
X94615Y108771D01*
X94613Y108857D01*
X94608Y108943D01*
X94598Y109029D01*
X94585Y109114D01*
X94569Y109199D01*
X94549Y109283D01*
X94525Y109366D01*
X94498Y109448D01*
X94467Y109528D01*
X94433Y109608D01*
X94395Y109685D01*
X94354Y109761D01*
X94310Y109835D01*
X94263Y109907D01*
X94213Y109978D01*
X92605Y108235D02*
X92638Y108182D01*
X92675Y108131D01*
X92714Y108082D01*
X92756Y108035D01*
X92801Y107991D01*
X92848Y107950D01*
X92897Y107911D01*
X92949Y107875D01*
X93003Y107842D01*
X93058Y107813D01*
X93115Y107787D01*
X93174Y107764D01*
X93233Y107744D01*
X93294Y107728D01*
X93355Y107715D01*
X93418Y107706D01*
X93480Y107701D01*
X93543Y107699D01*
X91799Y109709D02*
X91766Y109762D01*
X91729Y109813D01*
X91690Y109862D01*
X91648Y109909D01*
X91603Y109953D01*
X91556Y109994D01*
X91507Y110033D01*
X91455Y110069D01*
X91401Y110102D01*
X91346Y110131D01*
X91289Y110157D01*
X91230Y110180D01*
X91171Y110200D01*
X91110Y110216D01*
X91049Y110229D01*
X90986Y110238D01*
X90924Y110243D01*
X90861Y110245D01*
X91800Y109709D02*
X92604Y108235D01*
X93543Y112868D02*
X94615Y114209D01*
X89789Y114209D01*
X89789Y115549D02*
X89789Y112868D01*
X91130Y118354D02*
X91201Y118356D01*
X91273Y118362D01*
X91343Y118371D01*
X91413Y118384D01*
X91483Y118401D01*
X91551Y118422D01*
X91618Y118446D01*
X91684Y118474D01*
X91748Y118505D01*
X91811Y118540D01*
X91871Y118578D01*
X91930Y118619D01*
X91986Y118663D01*
X92040Y118710D01*
X92091Y118759D01*
X92139Y118812D01*
X92185Y118867D01*
X92227Y118924D01*
X92267Y118984D01*
X92303Y119045D01*
X92336Y119109D01*
X92365Y119174D01*
X92391Y119240D01*
X92414Y119308D01*
X92433Y119377D01*
X92448Y119447D01*
X92459Y119517D01*
X92467Y119588D01*
X92471Y119659D01*
X92471Y119731D01*
X92467Y119802D01*
X92459Y119873D01*
X92448Y119943D01*
X92433Y120013D01*
X92414Y120082D01*
X92391Y120150D01*
X92365Y120216D01*
X92336Y120281D01*
X92303Y120345D01*
X92267Y120406D01*
X92227Y120466D01*
X92185Y120523D01*
X92139Y120578D01*
X92091Y120631D01*
X92040Y120680D01*
X91986Y120727D01*
X91930Y120771D01*
X91871Y120812D01*
X91811Y120850D01*
X91748Y120885D01*
X91684Y120916D01*
X91618Y120944D01*
X91551Y120968D01*
X91483Y120989D01*
X91413Y121006D01*
X91343Y121019D01*
X91273Y121028D01*
X91201Y121034D01*
X91130Y121036D01*
X91059Y121034D01*
X90987Y121028D01*
X90917Y121019D01*
X90847Y121006D01*
X90777Y120989D01*
X90709Y120968D01*
X90642Y120944D01*
X90576Y120916D01*
X90512Y120885D01*
X90449Y120850D01*
X90389Y120812D01*
X90330Y120771D01*
X90274Y120727D01*
X90220Y120680D01*
X90169Y120631D01*
X90121Y120578D01*
X90075Y120523D01*
X90033Y120466D01*
X89993Y120406D01*
X89957Y120345D01*
X89924Y120281D01*
X89895Y120216D01*
X89869Y120150D01*
X89846Y120082D01*
X89827Y120013D01*
X89812Y119943D01*
X89801Y119873D01*
X89793Y119802D01*
X89789Y119731D01*
X89789Y119659D01*
X89793Y119588D01*
X89801Y119517D01*
X89812Y119447D01*
X89827Y119377D01*
X89846Y119308D01*
X89869Y119240D01*
X89895Y119174D01*
X89924Y119109D01*
X89957Y119045D01*
X89993Y118984D01*
X90033Y118924D01*
X90075Y118867D01*
X90121Y118812D01*
X90169Y118759D01*
X90220Y118710D01*
X90274Y118663D01*
X90330Y118619D01*
X90389Y118578D01*
X90449Y118540D01*
X90512Y118505D01*
X90576Y118474D01*
X90642Y118446D01*
X90709Y118422D01*
X90777Y118401D01*
X90847Y118384D01*
X90917Y118371D01*
X90987Y118362D01*
X91059Y118356D01*
X91130Y118354D01*
X93543Y118623D02*
X93608Y118625D01*
X93672Y118631D01*
X93736Y118641D01*
X93800Y118654D01*
X93862Y118672D01*
X93923Y118693D01*
X93983Y118717D01*
X94041Y118746D01*
X94098Y118778D01*
X94152Y118813D01*
X94204Y118851D01*
X94254Y118893D01*
X94301Y118937D01*
X94345Y118984D01*
X94387Y119034D01*
X94425Y119086D01*
X94460Y119140D01*
X94492Y119197D01*
X94521Y119255D01*
X94545Y119315D01*
X94566Y119376D01*
X94584Y119438D01*
X94597Y119502D01*
X94607Y119566D01*
X94613Y119630D01*
X94615Y119695D01*
X94613Y119760D01*
X94607Y119824D01*
X94597Y119888D01*
X94584Y119952D01*
X94566Y120014D01*
X94545Y120075D01*
X94521Y120135D01*
X94492Y120193D01*
X94460Y120250D01*
X94425Y120304D01*
X94387Y120356D01*
X94345Y120406D01*
X94301Y120453D01*
X94254Y120497D01*
X94204Y120539D01*
X94152Y120577D01*
X94098Y120612D01*
X94041Y120644D01*
X93983Y120673D01*
X93923Y120697D01*
X93862Y120718D01*
X93800Y120736D01*
X93736Y120749D01*
X93672Y120759D01*
X93608Y120765D01*
X93543Y120767D01*
X93478Y120765D01*
X93414Y120759D01*
X93350Y120749D01*
X93286Y120736D01*
X93224Y120718D01*
X93163Y120697D01*
X93103Y120673D01*
X93045Y120644D01*
X92988Y120612D01*
X92934Y120577D01*
X92882Y120539D01*
X92832Y120497D01*
X92785Y120453D01*
X92741Y120406D01*
X92699Y120356D01*
X92661Y120304D01*
X92626Y120250D01*
X92594Y120193D01*
X92565Y120135D01*
X92541Y120075D01*
X92520Y120014D01*
X92502Y119952D01*
X92489Y119888D01*
X92479Y119824D01*
X92473Y119760D01*
X92471Y119695D01*
X92473Y119630D01*
X92479Y119566D01*
X92489Y119502D01*
X92502Y119438D01*
X92520Y119376D01*
X92541Y119315D01*
X92565Y119255D01*
X92594Y119197D01*
X92626Y119140D01*
X92661Y119086D01*
X92699Y119034D01*
X92741Y118984D01*
X92785Y118937D01*
X92832Y118893D01*
X92882Y118851D01*
X92934Y118813D01*
X92988Y118778D01*
X93045Y118746D01*
X93103Y118717D01*
X93163Y118693D01*
X93224Y118672D01*
X93286Y118654D01*
X93350Y118641D01*
X93414Y118631D01*
X93478Y118625D01*
X93543Y118623D01*
D10*
X806831Y354161D02*
X815467Y354161D01*
X811149Y349843D02*
X811149Y358479D01*
X864743Y354161D02*
X873379Y354161D01*
D11*
X800100Y279400D02*
X825500Y254000D01*
X830580Y266700D02*
X863600Y254000D01*
X899160Y237490D02*
X777240Y237490D01*
X899160Y237490D02*
X899160Y372110D01*
X777240Y372110D01*
X777240Y237490D01*
D12*
X762889Y299673D02*
X762891Y299738D01*
X762897Y299802D01*
X762907Y299866D01*
X762920Y299930D01*
X762938Y299992D01*
X762959Y300053D01*
X762983Y300113D01*
X763012Y300171D01*
X763044Y300228D01*
X763079Y300282D01*
X763117Y300334D01*
X763159Y300384D01*
X763203Y300431D01*
X763250Y300475D01*
X763300Y300517D01*
X763352Y300555D01*
X763406Y300590D01*
X763463Y300622D01*
X763521Y300651D01*
X763581Y300675D01*
X763642Y300696D01*
X763704Y300714D01*
X763768Y300727D01*
X763832Y300737D01*
X763896Y300743D01*
X763961Y300745D01*
X762889Y299673D02*
X762891Y299579D01*
X762897Y299485D01*
X762907Y299391D01*
X762920Y299298D01*
X762938Y299206D01*
X762959Y299114D01*
X762984Y299023D01*
X763013Y298933D01*
X763046Y298845D01*
X763082Y298758D01*
X763122Y298673D01*
X763165Y298589D01*
X763212Y298508D01*
X763262Y298428D01*
X763315Y298350D01*
X763372Y298275D01*
X763431Y298202D01*
X763494Y298132D01*
X763559Y298064D01*
X766643Y298199D02*
X766708Y298201D01*
X766772Y298207D01*
X766836Y298217D01*
X766900Y298230D01*
X766962Y298248D01*
X767023Y298269D01*
X767083Y298293D01*
X767141Y298322D01*
X767198Y298354D01*
X767252Y298389D01*
X767304Y298427D01*
X767354Y298469D01*
X767401Y298513D01*
X767445Y298560D01*
X767487Y298610D01*
X767525Y298662D01*
X767560Y298716D01*
X767592Y298773D01*
X767621Y298831D01*
X767645Y298891D01*
X767666Y298952D01*
X767684Y299014D01*
X767697Y299078D01*
X767707Y299142D01*
X767713Y299206D01*
X767715Y299271D01*
X767713Y299357D01*
X767708Y299443D01*
X767698Y299529D01*
X767685Y299614D01*
X767669Y299699D01*
X767649Y299783D01*
X767625Y299866D01*
X767598Y299948D01*
X767567Y300028D01*
X767533Y300108D01*
X767495Y300185D01*
X767454Y300261D01*
X767410Y300335D01*
X767363Y300407D01*
X767313Y300478D01*
X765705Y298735D02*
X765738Y298682D01*
X765775Y298631D01*
X765814Y298582D01*
X765856Y298535D01*
X765901Y298491D01*
X765948Y298450D01*
X765997Y298411D01*
X766049Y298375D01*
X766103Y298342D01*
X766158Y298313D01*
X766215Y298287D01*
X766274Y298264D01*
X766333Y298244D01*
X766394Y298228D01*
X766455Y298215D01*
X766518Y298206D01*
X766580Y298201D01*
X766643Y298199D01*
X764899Y300209D02*
X764866Y300262D01*
X764829Y300313D01*
X764790Y300362D01*
X764748Y300409D01*
X764703Y300453D01*
X764656Y300494D01*
X764607Y300533D01*
X764555Y300569D01*
X764501Y300602D01*
X764446Y300631D01*
X764389Y300657D01*
X764330Y300680D01*
X764271Y300700D01*
X764210Y300716D01*
X764149Y300729D01*
X764086Y300738D01*
X764024Y300743D01*
X763961Y300745D01*
X764900Y300209D02*
X765704Y298735D01*
X766643Y303368D02*
X767715Y304709D01*
X762889Y304709D01*
X762889Y306049D02*
X762889Y303368D01*
X765034Y309927D02*
X765034Y311535D01*
X765034Y309927D02*
X765036Y309862D01*
X765042Y309798D01*
X765052Y309734D01*
X765065Y309670D01*
X765083Y309608D01*
X765104Y309547D01*
X765128Y309487D01*
X765157Y309429D01*
X765189Y309372D01*
X765224Y309318D01*
X765262Y309266D01*
X765304Y309216D01*
X765348Y309169D01*
X765395Y309125D01*
X765445Y309083D01*
X765497Y309045D01*
X765551Y309010D01*
X765608Y308978D01*
X765666Y308949D01*
X765726Y308925D01*
X765787Y308904D01*
X765849Y308886D01*
X765913Y308873D01*
X765977Y308863D01*
X766041Y308857D01*
X766106Y308855D01*
X766106Y308854D02*
X766374Y308854D01*
X766445Y308856D01*
X766517Y308862D01*
X766587Y308871D01*
X766657Y308884D01*
X766727Y308901D01*
X766795Y308922D01*
X766862Y308946D01*
X766928Y308974D01*
X766992Y309005D01*
X767055Y309040D01*
X767115Y309078D01*
X767174Y309119D01*
X767230Y309163D01*
X767284Y309210D01*
X767335Y309259D01*
X767383Y309312D01*
X767429Y309367D01*
X767471Y309424D01*
X767511Y309484D01*
X767547Y309545D01*
X767580Y309609D01*
X767609Y309674D01*
X767635Y309740D01*
X767658Y309808D01*
X767677Y309877D01*
X767692Y309947D01*
X767703Y310017D01*
X767711Y310088D01*
X767715Y310159D01*
X767715Y310231D01*
X767711Y310302D01*
X767703Y310373D01*
X767692Y310443D01*
X767677Y310513D01*
X767658Y310582D01*
X767635Y310650D01*
X767609Y310716D01*
X767580Y310781D01*
X767547Y310845D01*
X767511Y310906D01*
X767471Y310966D01*
X767429Y311023D01*
X767383Y311078D01*
X767335Y311131D01*
X767284Y311180D01*
X767230Y311227D01*
X767174Y311271D01*
X767115Y311312D01*
X767055Y311350D01*
X766992Y311385D01*
X766928Y311416D01*
X766862Y311444D01*
X766795Y311468D01*
X766727Y311489D01*
X766657Y311506D01*
X766587Y311519D01*
X766517Y311528D01*
X766445Y311534D01*
X766374Y311536D01*
X766374Y311535D02*
X765034Y311535D01*
X765034Y311536D02*
X764943Y311534D01*
X764852Y311528D01*
X764762Y311519D01*
X764671Y311505D01*
X764582Y311488D01*
X764494Y311467D01*
X764406Y311442D01*
X764319Y311413D01*
X764234Y311381D01*
X764150Y311346D01*
X764068Y311306D01*
X763988Y311264D01*
X763909Y311218D01*
X763833Y311168D01*
X763759Y311116D01*
X763686Y311060D01*
X763617Y311001D01*
X763550Y310940D01*
X763485Y310875D01*
X763424Y310808D01*
X763365Y310739D01*
X763309Y310666D01*
X763257Y310592D01*
X763207Y310516D01*
X763161Y310437D01*
X763119Y310357D01*
X763079Y310275D01*
X763044Y310191D01*
X763012Y310106D01*
X762983Y310019D01*
X762958Y309931D01*
X762937Y309843D01*
X762920Y309754D01*
X762906Y309663D01*
X762897Y309573D01*
X762891Y309482D01*
X762889Y309391D01*
D10*
X806831Y735161D02*
X815467Y735161D01*
X811149Y730843D02*
X811149Y739479D01*
X864743Y735161D02*
X873379Y735161D01*
D11*
X800100Y660400D02*
X825500Y635000D01*
X830580Y647700D02*
X863600Y635000D01*
X899160Y618490D02*
X777240Y618490D01*
X899160Y618490D02*
X899160Y753110D01*
X777240Y753110D01*
X777240Y618490D01*
D12*
X762889Y683416D02*
X762891Y683481D01*
X762897Y683545D01*
X762907Y683609D01*
X762920Y683673D01*
X762938Y683735D01*
X762959Y683796D01*
X762983Y683856D01*
X763012Y683914D01*
X763044Y683971D01*
X763079Y684025D01*
X763117Y684077D01*
X763159Y684127D01*
X763203Y684174D01*
X763250Y684218D01*
X763300Y684260D01*
X763352Y684298D01*
X763406Y684333D01*
X763463Y684365D01*
X763521Y684394D01*
X763581Y684418D01*
X763642Y684439D01*
X763704Y684457D01*
X763768Y684470D01*
X763832Y684480D01*
X763896Y684486D01*
X763961Y684488D01*
X762889Y683416D02*
X762891Y683322D01*
X762897Y683228D01*
X762907Y683134D01*
X762920Y683041D01*
X762938Y682949D01*
X762959Y682857D01*
X762984Y682766D01*
X763013Y682676D01*
X763046Y682588D01*
X763082Y682501D01*
X763122Y682416D01*
X763165Y682332D01*
X763212Y682251D01*
X763262Y682171D01*
X763315Y682093D01*
X763372Y682018D01*
X763431Y681945D01*
X763494Y681875D01*
X763559Y681807D01*
X766643Y681942D02*
X766708Y681944D01*
X766772Y681950D01*
X766836Y681960D01*
X766900Y681973D01*
X766962Y681991D01*
X767023Y682012D01*
X767083Y682036D01*
X767141Y682065D01*
X767198Y682097D01*
X767252Y682132D01*
X767304Y682170D01*
X767354Y682212D01*
X767401Y682256D01*
X767445Y682303D01*
X767487Y682353D01*
X767525Y682405D01*
X767560Y682459D01*
X767592Y682516D01*
X767621Y682574D01*
X767645Y682634D01*
X767666Y682695D01*
X767684Y682757D01*
X767697Y682821D01*
X767707Y682885D01*
X767713Y682949D01*
X767715Y683014D01*
X767713Y683100D01*
X767708Y683186D01*
X767698Y683272D01*
X767685Y683357D01*
X767669Y683442D01*
X767649Y683526D01*
X767625Y683609D01*
X767598Y683691D01*
X767567Y683771D01*
X767533Y683851D01*
X767495Y683928D01*
X767454Y684004D01*
X767410Y684078D01*
X767363Y684150D01*
X767313Y684221D01*
X765705Y682478D02*
X765738Y682425D01*
X765775Y682374D01*
X765814Y682325D01*
X765856Y682278D01*
X765901Y682234D01*
X765948Y682193D01*
X765997Y682154D01*
X766049Y682118D01*
X766103Y682085D01*
X766158Y682056D01*
X766215Y682030D01*
X766274Y682007D01*
X766333Y681987D01*
X766394Y681971D01*
X766455Y681958D01*
X766518Y681949D01*
X766580Y681944D01*
X766643Y681942D01*
X764899Y683953D02*
X764866Y684006D01*
X764829Y684057D01*
X764790Y684106D01*
X764748Y684153D01*
X764703Y684197D01*
X764656Y684238D01*
X764607Y684277D01*
X764555Y684313D01*
X764501Y684346D01*
X764446Y684375D01*
X764389Y684401D01*
X764330Y684424D01*
X764271Y684444D01*
X764210Y684460D01*
X764149Y684473D01*
X764086Y684482D01*
X764024Y684487D01*
X763961Y684489D01*
X764900Y683953D02*
X765704Y682478D01*
X767715Y688586D02*
X767713Y688654D01*
X767707Y688721D01*
X767698Y688788D01*
X767685Y688855D01*
X767668Y688920D01*
X767647Y688985D01*
X767623Y689048D01*
X767595Y689110D01*
X767564Y689170D01*
X767530Y689228D01*
X767492Y689284D01*
X767452Y689339D01*
X767408Y689390D01*
X767361Y689439D01*
X767312Y689486D01*
X767261Y689530D01*
X767206Y689570D01*
X767150Y689608D01*
X767092Y689642D01*
X767032Y689673D01*
X766970Y689701D01*
X766907Y689725D01*
X766842Y689746D01*
X766777Y689763D01*
X766710Y689776D01*
X766643Y689785D01*
X766576Y689791D01*
X766508Y689793D01*
X767715Y688586D02*
X767713Y688508D01*
X767707Y688430D01*
X767697Y688353D01*
X767684Y688276D01*
X767666Y688200D01*
X767645Y688125D01*
X767620Y688051D01*
X767591Y687979D01*
X767559Y687908D01*
X767523Y687839D01*
X767484Y687771D01*
X767441Y687706D01*
X767395Y687643D01*
X767346Y687582D01*
X767294Y687524D01*
X767239Y687469D01*
X767182Y687416D01*
X767122Y687367D01*
X767059Y687320D01*
X766994Y687277D01*
X766928Y687237D01*
X766859Y687200D01*
X766788Y687167D01*
X766716Y687137D01*
X766643Y687111D01*
X765570Y689390D02*
X765619Y689439D01*
X765671Y689486D01*
X765726Y689529D01*
X765783Y689570D01*
X765842Y689608D01*
X765903Y689642D01*
X765966Y689673D01*
X766030Y689701D01*
X766096Y689725D01*
X766162Y689745D01*
X766230Y689762D01*
X766299Y689775D01*
X766368Y689784D01*
X766438Y689790D01*
X766508Y689792D01*
X765570Y689390D02*
X762889Y687111D01*
X762889Y689792D01*
D10*
X142367Y354161D02*
X133731Y354161D01*
X138049Y349843D02*
X138049Y358479D01*
X191643Y354161D02*
X200279Y354161D01*
D11*
X127000Y279400D02*
X152400Y254000D01*
X157480Y266700D02*
X190500Y254000D01*
X226060Y237490D02*
X104140Y237490D01*
X226060Y237490D02*
X226060Y372110D01*
X104140Y372110D01*
X104140Y237490D01*
D12*
X89789Y299673D02*
X89791Y299738D01*
X89797Y299802D01*
X89807Y299866D01*
X89820Y299930D01*
X89838Y299992D01*
X89859Y300053D01*
X89883Y300113D01*
X89912Y300171D01*
X89944Y300228D01*
X89979Y300282D01*
X90017Y300334D01*
X90059Y300384D01*
X90103Y300431D01*
X90150Y300475D01*
X90200Y300517D01*
X90252Y300555D01*
X90306Y300590D01*
X90363Y300622D01*
X90421Y300651D01*
X90481Y300675D01*
X90542Y300696D01*
X90604Y300714D01*
X90668Y300727D01*
X90732Y300737D01*
X90796Y300743D01*
X90861Y300745D01*
X89789Y299673D02*
X89791Y299579D01*
X89797Y299485D01*
X89807Y299391D01*
X89820Y299298D01*
X89838Y299206D01*
X89859Y299114D01*
X89884Y299023D01*
X89913Y298933D01*
X89946Y298845D01*
X89982Y298758D01*
X90022Y298673D01*
X90065Y298589D01*
X90112Y298508D01*
X90162Y298428D01*
X90215Y298350D01*
X90272Y298275D01*
X90331Y298202D01*
X90394Y298132D01*
X90459Y298064D01*
X93543Y298199D02*
X93608Y298201D01*
X93672Y298207D01*
X93736Y298217D01*
X93800Y298230D01*
X93862Y298248D01*
X93923Y298269D01*
X93983Y298293D01*
X94041Y298322D01*
X94098Y298354D01*
X94152Y298389D01*
X94204Y298427D01*
X94254Y298469D01*
X94301Y298513D01*
X94345Y298560D01*
X94387Y298610D01*
X94425Y298662D01*
X94460Y298716D01*
X94492Y298773D01*
X94521Y298831D01*
X94545Y298891D01*
X94566Y298952D01*
X94584Y299014D01*
X94597Y299078D01*
X94607Y299142D01*
X94613Y299206D01*
X94615Y299271D01*
X94613Y299357D01*
X94608Y299443D01*
X94598Y299529D01*
X94585Y299614D01*
X94569Y299699D01*
X94549Y299783D01*
X94525Y299866D01*
X94498Y299948D01*
X94467Y300028D01*
X94433Y300108D01*
X94395Y300185D01*
X94354Y300261D01*
X94310Y300335D01*
X94263Y300407D01*
X94213Y300478D01*
X92605Y298735D02*
X92638Y298682D01*
X92675Y298631D01*
X92714Y298582D01*
X92756Y298535D01*
X92801Y298491D01*
X92848Y298450D01*
X92897Y298411D01*
X92949Y298375D01*
X93003Y298342D01*
X93058Y298313D01*
X93115Y298287D01*
X93174Y298264D01*
X93233Y298244D01*
X93294Y298228D01*
X93355Y298215D01*
X93418Y298206D01*
X93480Y298201D01*
X93543Y298199D01*
X91799Y300209D02*
X91766Y300262D01*
X91729Y300313D01*
X91690Y300362D01*
X91648Y300409D01*
X91603Y300453D01*
X91556Y300494D01*
X91507Y300533D01*
X91455Y300569D01*
X91401Y300602D01*
X91346Y300631D01*
X91289Y300657D01*
X91230Y300680D01*
X91171Y300700D01*
X91110Y300716D01*
X91049Y300729D01*
X90986Y300738D01*
X90924Y300743D01*
X90861Y300745D01*
X91800Y300209D02*
X92604Y298735D01*
X94615Y304843D02*
X94613Y304911D01*
X94607Y304978D01*
X94598Y305045D01*
X94585Y305112D01*
X94568Y305177D01*
X94547Y305242D01*
X94523Y305305D01*
X94495Y305367D01*
X94464Y305427D01*
X94430Y305485D01*
X94392Y305541D01*
X94352Y305596D01*
X94308Y305647D01*
X94261Y305696D01*
X94212Y305743D01*
X94161Y305787D01*
X94106Y305827D01*
X94050Y305865D01*
X93992Y305899D01*
X93932Y305930D01*
X93870Y305958D01*
X93807Y305982D01*
X93742Y306003D01*
X93677Y306020D01*
X93610Y306033D01*
X93543Y306042D01*
X93476Y306048D01*
X93408Y306050D01*
X94615Y304843D02*
X94613Y304765D01*
X94607Y304687D01*
X94597Y304610D01*
X94584Y304533D01*
X94566Y304457D01*
X94545Y304382D01*
X94520Y304308D01*
X94491Y304236D01*
X94459Y304165D01*
X94423Y304096D01*
X94384Y304028D01*
X94341Y303963D01*
X94295Y303900D01*
X94246Y303839D01*
X94194Y303781D01*
X94139Y303726D01*
X94082Y303673D01*
X94022Y303624D01*
X93959Y303577D01*
X93894Y303534D01*
X93828Y303494D01*
X93759Y303457D01*
X93688Y303424D01*
X93616Y303394D01*
X93543Y303368D01*
X92470Y305647D02*
X92519Y305696D01*
X92571Y305743D01*
X92626Y305786D01*
X92683Y305827D01*
X92742Y305865D01*
X92803Y305899D01*
X92866Y305930D01*
X92930Y305958D01*
X92996Y305982D01*
X93062Y306002D01*
X93130Y306019D01*
X93199Y306032D01*
X93268Y306041D01*
X93338Y306047D01*
X93408Y306049D01*
X92470Y305647D02*
X89789Y303368D01*
X89789Y306049D01*
X92202Y308854D02*
X92322Y308856D01*
X92442Y308861D01*
X92562Y308870D01*
X92682Y308883D01*
X92801Y308899D01*
X92920Y308919D01*
X93038Y308943D01*
X93155Y308970D01*
X93271Y309000D01*
X93386Y309034D01*
X93501Y309072D01*
X93614Y309113D01*
X93725Y309157D01*
X93836Y309205D01*
X93945Y309256D01*
X93945Y309257D02*
X94002Y309278D01*
X94058Y309304D01*
X94113Y309332D01*
X94165Y309364D01*
X94216Y309400D01*
X94264Y309438D01*
X94310Y309479D01*
X94353Y309523D01*
X94393Y309569D01*
X94430Y309618D01*
X94464Y309670D01*
X94495Y309723D01*
X94523Y309778D01*
X94547Y309834D01*
X94568Y309892D01*
X94585Y309951D01*
X94598Y310011D01*
X94607Y310072D01*
X94613Y310134D01*
X94615Y310195D01*
X94613Y310256D01*
X94607Y310318D01*
X94598Y310379D01*
X94585Y310439D01*
X94568Y310498D01*
X94547Y310556D01*
X94523Y310612D01*
X94495Y310667D01*
X94464Y310720D01*
X94430Y310772D01*
X94393Y310821D01*
X94353Y310867D01*
X94310Y310911D01*
X94264Y310952D01*
X94216Y310990D01*
X94165Y311026D01*
X94113Y311058D01*
X94058Y311086D01*
X94002Y311112D01*
X93945Y311133D01*
X93836Y311184D01*
X93725Y311232D01*
X93614Y311276D01*
X93501Y311317D01*
X93386Y311355D01*
X93271Y311389D01*
X93155Y311419D01*
X93038Y311446D01*
X92920Y311470D01*
X92801Y311490D01*
X92682Y311506D01*
X92562Y311519D01*
X92442Y311528D01*
X92322Y311533D01*
X92202Y311535D01*
X92202Y308855D02*
X92082Y308857D01*
X91962Y308862D01*
X91842Y308871D01*
X91722Y308884D01*
X91603Y308900D01*
X91484Y308920D01*
X91366Y308944D01*
X91249Y308971D01*
X91133Y309001D01*
X91018Y309035D01*
X90903Y309073D01*
X90790Y309114D01*
X90679Y309158D01*
X90568Y309206D01*
X90459Y309257D01*
X90402Y309278D01*
X90346Y309304D01*
X90291Y309332D01*
X90239Y309364D01*
X90188Y309400D01*
X90140Y309438D01*
X90094Y309479D01*
X90051Y309523D01*
X90011Y309569D01*
X89974Y309618D01*
X89940Y309670D01*
X89909Y309723D01*
X89881Y309778D01*
X89857Y309834D01*
X89836Y309892D01*
X89819Y309951D01*
X89806Y310011D01*
X89797Y310072D01*
X89791Y310134D01*
X89789Y310195D01*
X90459Y311133D02*
X90568Y311184D01*
X90679Y311232D01*
X90790Y311276D01*
X90903Y311317D01*
X91018Y311355D01*
X91133Y311389D01*
X91249Y311419D01*
X91366Y311446D01*
X91484Y311470D01*
X91603Y311490D01*
X91722Y311506D01*
X91842Y311519D01*
X91962Y311528D01*
X92082Y311533D01*
X92202Y311535D01*
X90459Y311133D02*
X90402Y311112D01*
X90346Y311086D01*
X90291Y311058D01*
X90239Y311026D01*
X90188Y310990D01*
X90140Y310952D01*
X90094Y310911D01*
X90051Y310867D01*
X90011Y310820D01*
X89974Y310772D01*
X89940Y310720D01*
X89909Y310667D01*
X89881Y310612D01*
X89857Y310556D01*
X89836Y310498D01*
X89819Y310439D01*
X89806Y310379D01*
X89797Y310318D01*
X89791Y310256D01*
X89789Y310195D01*
X90861Y309122D02*
X93543Y311267D01*
D10*
X590931Y925661D02*
X599567Y925661D01*
X595249Y921343D02*
X595249Y929979D01*
X648843Y925661D02*
X657479Y925661D01*
D11*
X584200Y850900D02*
X609600Y825500D01*
X614680Y838200D02*
X647700Y825500D01*
X683260Y808990D02*
X561340Y808990D01*
X683260Y808990D02*
X683260Y943610D01*
X561340Y943610D01*
X561340Y808990D01*
D12*
X546989Y873916D02*
X546991Y873981D01*
X546997Y874045D01*
X547007Y874109D01*
X547020Y874173D01*
X547038Y874235D01*
X547059Y874296D01*
X547083Y874356D01*
X547112Y874414D01*
X547144Y874471D01*
X547179Y874525D01*
X547217Y874577D01*
X547259Y874627D01*
X547303Y874674D01*
X547350Y874718D01*
X547400Y874760D01*
X547452Y874798D01*
X547506Y874833D01*
X547563Y874865D01*
X547621Y874894D01*
X547681Y874918D01*
X547742Y874939D01*
X547804Y874957D01*
X547868Y874970D01*
X547932Y874980D01*
X547996Y874986D01*
X548061Y874988D01*
X546989Y873916D02*
X546991Y873822D01*
X546997Y873728D01*
X547007Y873634D01*
X547020Y873541D01*
X547038Y873449D01*
X547059Y873357D01*
X547084Y873266D01*
X547113Y873176D01*
X547146Y873088D01*
X547182Y873001D01*
X547222Y872916D01*
X547265Y872832D01*
X547312Y872751D01*
X547362Y872671D01*
X547415Y872593D01*
X547472Y872518D01*
X547531Y872445D01*
X547594Y872375D01*
X547659Y872307D01*
X550743Y872442D02*
X550808Y872444D01*
X550872Y872450D01*
X550936Y872460D01*
X551000Y872473D01*
X551062Y872491D01*
X551123Y872512D01*
X551183Y872536D01*
X551241Y872565D01*
X551298Y872597D01*
X551352Y872632D01*
X551404Y872670D01*
X551454Y872712D01*
X551501Y872756D01*
X551545Y872803D01*
X551587Y872853D01*
X551625Y872905D01*
X551660Y872959D01*
X551692Y873016D01*
X551721Y873074D01*
X551745Y873134D01*
X551766Y873195D01*
X551784Y873257D01*
X551797Y873321D01*
X551807Y873385D01*
X551813Y873449D01*
X551815Y873514D01*
X551813Y873600D01*
X551808Y873686D01*
X551798Y873772D01*
X551785Y873857D01*
X551769Y873942D01*
X551749Y874026D01*
X551725Y874109D01*
X551698Y874191D01*
X551667Y874271D01*
X551633Y874351D01*
X551595Y874428D01*
X551554Y874504D01*
X551510Y874578D01*
X551463Y874650D01*
X551413Y874721D01*
X549805Y872978D02*
X549838Y872925D01*
X549875Y872874D01*
X549914Y872825D01*
X549956Y872778D01*
X550001Y872734D01*
X550048Y872693D01*
X550097Y872654D01*
X550149Y872618D01*
X550203Y872585D01*
X550258Y872556D01*
X550315Y872530D01*
X550374Y872507D01*
X550433Y872487D01*
X550494Y872471D01*
X550555Y872458D01*
X550618Y872449D01*
X550680Y872444D01*
X550743Y872442D01*
X548999Y874453D02*
X548966Y874506D01*
X548929Y874557D01*
X548890Y874606D01*
X548848Y874653D01*
X548803Y874697D01*
X548756Y874738D01*
X548707Y874777D01*
X548655Y874813D01*
X548601Y874846D01*
X548546Y874875D01*
X548489Y874901D01*
X548430Y874924D01*
X548371Y874944D01*
X548310Y874960D01*
X548249Y874973D01*
X548186Y874982D01*
X548124Y874987D01*
X548061Y874989D01*
X549000Y874453D02*
X549804Y872978D01*
X546989Y877611D02*
X546989Y878952D01*
X546991Y879023D01*
X546997Y879095D01*
X547006Y879165D01*
X547019Y879235D01*
X547036Y879305D01*
X547057Y879373D01*
X547081Y879440D01*
X547109Y879506D01*
X547140Y879570D01*
X547175Y879633D01*
X547213Y879693D01*
X547254Y879752D01*
X547298Y879808D01*
X547345Y879862D01*
X547394Y879913D01*
X547447Y879961D01*
X547502Y880007D01*
X547559Y880049D01*
X547619Y880089D01*
X547680Y880125D01*
X547744Y880158D01*
X547809Y880187D01*
X547875Y880213D01*
X547943Y880236D01*
X548012Y880255D01*
X548082Y880270D01*
X548152Y880281D01*
X548223Y880289D01*
X548294Y880293D01*
X548366Y880293D01*
X548437Y880289D01*
X548508Y880281D01*
X548578Y880270D01*
X548648Y880255D01*
X548717Y880236D01*
X548785Y880213D01*
X548851Y880187D01*
X548916Y880158D01*
X548980Y880125D01*
X549041Y880089D01*
X549101Y880049D01*
X549158Y880007D01*
X549213Y879961D01*
X549266Y879913D01*
X549315Y879862D01*
X549362Y879808D01*
X549406Y879752D01*
X549447Y879693D01*
X549485Y879633D01*
X549520Y879570D01*
X549551Y879506D01*
X549579Y879440D01*
X549603Y879373D01*
X549624Y879305D01*
X549641Y879235D01*
X549654Y879165D01*
X549663Y879095D01*
X549669Y879023D01*
X549671Y878952D01*
X551815Y879220D02*
X551815Y877611D01*
X551815Y879220D02*
X551813Y879285D01*
X551807Y879349D01*
X551797Y879413D01*
X551784Y879477D01*
X551766Y879539D01*
X551745Y879600D01*
X551721Y879660D01*
X551692Y879718D01*
X551660Y879775D01*
X551625Y879829D01*
X551587Y879881D01*
X551545Y879931D01*
X551501Y879978D01*
X551454Y880022D01*
X551404Y880064D01*
X551352Y880102D01*
X551298Y880137D01*
X551241Y880169D01*
X551183Y880198D01*
X551123Y880222D01*
X551062Y880243D01*
X551000Y880261D01*
X550936Y880274D01*
X550872Y880284D01*
X550808Y880290D01*
X550743Y880292D01*
X550678Y880290D01*
X550614Y880284D01*
X550550Y880274D01*
X550486Y880261D01*
X550424Y880243D01*
X550363Y880222D01*
X550303Y880198D01*
X550245Y880169D01*
X550188Y880137D01*
X550134Y880102D01*
X550082Y880064D01*
X550032Y880022D01*
X549985Y879978D01*
X549941Y879931D01*
X549899Y879881D01*
X549861Y879829D01*
X549826Y879775D01*
X549794Y879718D01*
X549765Y879660D01*
X549741Y879600D01*
X549720Y879539D01*
X549702Y879477D01*
X549689Y879413D01*
X549679Y879349D01*
X549673Y879285D01*
X549671Y879220D01*
X549670Y879220D02*
X549670Y878147D01*
D10*
X590931Y735161D02*
X599567Y735161D01*
X595249Y730843D02*
X595249Y739479D01*
X648843Y735161D02*
X657479Y735161D01*
D11*
X584200Y660400D02*
X609600Y635000D01*
X614680Y647700D02*
X647700Y635000D01*
X683260Y618490D02*
X561340Y618490D01*
X683260Y618490D02*
X683260Y753110D01*
X561340Y753110D01*
X561340Y618490D01*
D12*
X546989Y683416D02*
X546991Y683481D01*
X546997Y683545D01*
X547007Y683609D01*
X547020Y683673D01*
X547038Y683735D01*
X547059Y683796D01*
X547083Y683856D01*
X547112Y683914D01*
X547144Y683971D01*
X547179Y684025D01*
X547217Y684077D01*
X547259Y684127D01*
X547303Y684174D01*
X547350Y684218D01*
X547400Y684260D01*
X547452Y684298D01*
X547506Y684333D01*
X547563Y684365D01*
X547621Y684394D01*
X547681Y684418D01*
X547742Y684439D01*
X547804Y684457D01*
X547868Y684470D01*
X547932Y684480D01*
X547996Y684486D01*
X548061Y684488D01*
X546989Y683416D02*
X546991Y683322D01*
X546997Y683228D01*
X547007Y683134D01*
X547020Y683041D01*
X547038Y682949D01*
X547059Y682857D01*
X547084Y682766D01*
X547113Y682676D01*
X547146Y682588D01*
X547182Y682501D01*
X547222Y682416D01*
X547265Y682332D01*
X547312Y682251D01*
X547362Y682171D01*
X547415Y682093D01*
X547472Y682018D01*
X547531Y681945D01*
X547594Y681875D01*
X547659Y681807D01*
X550743Y681942D02*
X550808Y681944D01*
X550872Y681950D01*
X550936Y681960D01*
X551000Y681973D01*
X551062Y681991D01*
X551123Y682012D01*
X551183Y682036D01*
X551241Y682065D01*
X551298Y682097D01*
X551352Y682132D01*
X551404Y682170D01*
X551454Y682212D01*
X551501Y682256D01*
X551545Y682303D01*
X551587Y682353D01*
X551625Y682405D01*
X551660Y682459D01*
X551692Y682516D01*
X551721Y682574D01*
X551745Y682634D01*
X551766Y682695D01*
X551784Y682757D01*
X551797Y682821D01*
X551807Y682885D01*
X551813Y682949D01*
X551815Y683014D01*
X551813Y683100D01*
X551808Y683186D01*
X551798Y683272D01*
X551785Y683357D01*
X551769Y683442D01*
X551749Y683526D01*
X551725Y683609D01*
X551698Y683691D01*
X551667Y683771D01*
X551633Y683851D01*
X551595Y683928D01*
X551554Y684004D01*
X551510Y684078D01*
X551463Y684150D01*
X551413Y684221D01*
X549805Y682478D02*
X549838Y682425D01*
X549875Y682374D01*
X549914Y682325D01*
X549956Y682278D01*
X550001Y682234D01*
X550048Y682193D01*
X550097Y682154D01*
X550149Y682118D01*
X550203Y682085D01*
X550258Y682056D01*
X550315Y682030D01*
X550374Y682007D01*
X550433Y681987D01*
X550494Y681971D01*
X550555Y681958D01*
X550618Y681949D01*
X550680Y681944D01*
X550743Y681942D01*
X548999Y683953D02*
X548966Y684006D01*
X548929Y684057D01*
X548890Y684106D01*
X548848Y684153D01*
X548803Y684197D01*
X548756Y684238D01*
X548707Y684277D01*
X548655Y684313D01*
X548601Y684346D01*
X548546Y684375D01*
X548489Y684401D01*
X548430Y684424D01*
X548371Y684444D01*
X548310Y684460D01*
X548249Y684473D01*
X548186Y684482D01*
X548124Y684487D01*
X548061Y684489D01*
X549000Y683953D02*
X549804Y682478D01*
X548061Y687111D02*
X551815Y688184D01*
X548061Y687111D02*
X548061Y689792D01*
X549134Y688988D02*
X546989Y688988D01*
D10*
X370967Y925661D02*
X362331Y925661D01*
X366649Y921343D02*
X366649Y929979D01*
X420243Y925661D02*
X428879Y925661D01*
D11*
X355600Y850900D02*
X381000Y825500D01*
X386080Y838200D02*
X419100Y825500D01*
X454660Y808990D02*
X332740Y808990D01*
X454660Y808990D02*
X454660Y943610D01*
X332740Y943610D01*
X332740Y808990D01*
D12*
X318389Y873916D02*
X318391Y873981D01*
X318397Y874045D01*
X318407Y874109D01*
X318420Y874173D01*
X318438Y874235D01*
X318459Y874296D01*
X318483Y874356D01*
X318512Y874414D01*
X318544Y874471D01*
X318579Y874525D01*
X318617Y874577D01*
X318659Y874627D01*
X318703Y874674D01*
X318750Y874718D01*
X318800Y874760D01*
X318852Y874798D01*
X318906Y874833D01*
X318963Y874865D01*
X319021Y874894D01*
X319081Y874918D01*
X319142Y874939D01*
X319204Y874957D01*
X319268Y874970D01*
X319332Y874980D01*
X319396Y874986D01*
X319461Y874988D01*
X318389Y873916D02*
X318391Y873822D01*
X318397Y873728D01*
X318407Y873634D01*
X318420Y873541D01*
X318438Y873449D01*
X318459Y873357D01*
X318484Y873266D01*
X318513Y873176D01*
X318546Y873088D01*
X318582Y873001D01*
X318622Y872916D01*
X318665Y872832D01*
X318712Y872751D01*
X318762Y872671D01*
X318815Y872593D01*
X318872Y872518D01*
X318931Y872445D01*
X318994Y872375D01*
X319059Y872307D01*
X322143Y872442D02*
X322208Y872444D01*
X322272Y872450D01*
X322336Y872460D01*
X322400Y872473D01*
X322462Y872491D01*
X322523Y872512D01*
X322583Y872536D01*
X322641Y872565D01*
X322698Y872597D01*
X322752Y872632D01*
X322804Y872670D01*
X322854Y872712D01*
X322901Y872756D01*
X322945Y872803D01*
X322987Y872853D01*
X323025Y872905D01*
X323060Y872959D01*
X323092Y873016D01*
X323121Y873074D01*
X323145Y873134D01*
X323166Y873195D01*
X323184Y873257D01*
X323197Y873321D01*
X323207Y873385D01*
X323213Y873449D01*
X323215Y873514D01*
X323213Y873600D01*
X323208Y873686D01*
X323198Y873772D01*
X323185Y873857D01*
X323169Y873942D01*
X323149Y874026D01*
X323125Y874109D01*
X323098Y874191D01*
X323067Y874271D01*
X323033Y874351D01*
X322995Y874428D01*
X322954Y874504D01*
X322910Y874578D01*
X322863Y874650D01*
X322813Y874721D01*
X321205Y872978D02*
X321238Y872925D01*
X321275Y872874D01*
X321314Y872825D01*
X321356Y872778D01*
X321401Y872734D01*
X321448Y872693D01*
X321497Y872654D01*
X321549Y872618D01*
X321603Y872585D01*
X321658Y872556D01*
X321715Y872530D01*
X321774Y872507D01*
X321833Y872487D01*
X321894Y872471D01*
X321955Y872458D01*
X322018Y872449D01*
X322080Y872444D01*
X322143Y872442D01*
X320399Y874453D02*
X320366Y874506D01*
X320329Y874557D01*
X320290Y874606D01*
X320248Y874653D01*
X320203Y874697D01*
X320156Y874738D01*
X320107Y874777D01*
X320055Y874813D01*
X320001Y874846D01*
X319946Y874875D01*
X319889Y874901D01*
X319830Y874924D01*
X319771Y874944D01*
X319710Y874960D01*
X319649Y874973D01*
X319586Y874982D01*
X319524Y874987D01*
X319461Y874989D01*
X320400Y874453D02*
X321204Y872978D01*
X318389Y877611D02*
X318389Y879220D01*
X318391Y879285D01*
X318397Y879349D01*
X318407Y879413D01*
X318420Y879477D01*
X318438Y879539D01*
X318459Y879600D01*
X318483Y879660D01*
X318512Y879718D01*
X318544Y879775D01*
X318579Y879829D01*
X318617Y879881D01*
X318659Y879931D01*
X318703Y879978D01*
X318750Y880022D01*
X318800Y880064D01*
X318852Y880102D01*
X318906Y880137D01*
X318963Y880169D01*
X319021Y880198D01*
X319081Y880222D01*
X319142Y880243D01*
X319204Y880261D01*
X319268Y880274D01*
X319332Y880284D01*
X319396Y880290D01*
X319461Y880292D01*
X319998Y880292D01*
X320063Y880290D01*
X320127Y880284D01*
X320191Y880274D01*
X320255Y880261D01*
X320317Y880243D01*
X320378Y880222D01*
X320438Y880198D01*
X320496Y880169D01*
X320553Y880137D01*
X320607Y880102D01*
X320659Y880064D01*
X320709Y880022D01*
X320756Y879978D01*
X320800Y879931D01*
X320842Y879881D01*
X320880Y879829D01*
X320915Y879775D01*
X320947Y879718D01*
X320976Y879660D01*
X321000Y879600D01*
X321021Y879539D01*
X321039Y879477D01*
X321052Y879413D01*
X321062Y879349D01*
X321068Y879285D01*
X321070Y879220D01*
X321070Y877611D01*
X323215Y877611D01*
X323215Y880292D01*
D10*
X362331Y735161D02*
X370967Y735161D01*
X366649Y730843D02*
X366649Y739479D01*
X420243Y735161D02*
X428879Y735161D01*
D11*
X355600Y660400D02*
X381000Y635000D01*
X386080Y647700D02*
X419100Y635000D01*
X454660Y618490D02*
X332740Y618490D01*
X454660Y618490D02*
X454660Y753110D01*
X332740Y753110D01*
X332740Y618490D01*
D12*
X318389Y683416D02*
X318391Y683481D01*
X318397Y683545D01*
X318407Y683609D01*
X318420Y683673D01*
X318438Y683735D01*
X318459Y683796D01*
X318483Y683856D01*
X318512Y683914D01*
X318544Y683971D01*
X318579Y684025D01*
X318617Y684077D01*
X318659Y684127D01*
X318703Y684174D01*
X318750Y684218D01*
X318800Y684260D01*
X318852Y684298D01*
X318906Y684333D01*
X318963Y684365D01*
X319021Y684394D01*
X319081Y684418D01*
X319142Y684439D01*
X319204Y684457D01*
X319268Y684470D01*
X319332Y684480D01*
X319396Y684486D01*
X319461Y684488D01*
X318389Y683416D02*
X318391Y683322D01*
X318397Y683228D01*
X318407Y683134D01*
X318420Y683041D01*
X318438Y682949D01*
X318459Y682857D01*
X318484Y682766D01*
X318513Y682676D01*
X318546Y682588D01*
X318582Y682501D01*
X318622Y682416D01*
X318665Y682332D01*
X318712Y682251D01*
X318762Y682171D01*
X318815Y682093D01*
X318872Y682018D01*
X318931Y681945D01*
X318994Y681875D01*
X319059Y681807D01*
X322143Y681942D02*
X322208Y681944D01*
X322272Y681950D01*
X322336Y681960D01*
X322400Y681973D01*
X322462Y681991D01*
X322523Y682012D01*
X322583Y682036D01*
X322641Y682065D01*
X322698Y682097D01*
X322752Y682132D01*
X322804Y682170D01*
X322854Y682212D01*
X322901Y682256D01*
X322945Y682303D01*
X322987Y682353D01*
X323025Y682405D01*
X323060Y682459D01*
X323092Y682516D01*
X323121Y682574D01*
X323145Y682634D01*
X323166Y682695D01*
X323184Y682757D01*
X323197Y682821D01*
X323207Y682885D01*
X323213Y682949D01*
X323215Y683014D01*
X323213Y683100D01*
X323208Y683186D01*
X323198Y683272D01*
X323185Y683357D01*
X323169Y683442D01*
X323149Y683526D01*
X323125Y683609D01*
X323098Y683691D01*
X323067Y683771D01*
X323033Y683851D01*
X322995Y683928D01*
X322954Y684004D01*
X322910Y684078D01*
X322863Y684150D01*
X322813Y684221D01*
X321205Y682478D02*
X321238Y682425D01*
X321275Y682374D01*
X321314Y682325D01*
X321356Y682278D01*
X321401Y682234D01*
X321448Y682193D01*
X321497Y682154D01*
X321549Y682118D01*
X321603Y682085D01*
X321658Y682056D01*
X321715Y682030D01*
X321774Y682007D01*
X321833Y681987D01*
X321894Y681971D01*
X321955Y681958D01*
X322018Y681949D01*
X322080Y681944D01*
X322143Y681942D01*
X320399Y683953D02*
X320366Y684006D01*
X320329Y684057D01*
X320290Y684106D01*
X320248Y684153D01*
X320203Y684197D01*
X320156Y684238D01*
X320107Y684277D01*
X320055Y684313D01*
X320001Y684346D01*
X319946Y684375D01*
X319889Y684401D01*
X319830Y684424D01*
X319771Y684444D01*
X319710Y684460D01*
X319649Y684473D01*
X319586Y684482D01*
X319524Y684487D01*
X319461Y684489D01*
X320400Y683953D02*
X321204Y682478D01*
X321070Y687111D02*
X321070Y688720D01*
X321068Y688785D01*
X321062Y688849D01*
X321052Y688913D01*
X321039Y688977D01*
X321021Y689039D01*
X321000Y689100D01*
X320976Y689160D01*
X320947Y689218D01*
X320915Y689275D01*
X320880Y689329D01*
X320842Y689381D01*
X320800Y689431D01*
X320756Y689478D01*
X320709Y689522D01*
X320659Y689564D01*
X320607Y689602D01*
X320553Y689637D01*
X320496Y689669D01*
X320438Y689698D01*
X320378Y689722D01*
X320317Y689743D01*
X320255Y689761D01*
X320191Y689774D01*
X320127Y689784D01*
X320063Y689790D01*
X319998Y689792D01*
X319730Y689792D01*
X319730Y689793D02*
X319659Y689791D01*
X319587Y689785D01*
X319517Y689776D01*
X319447Y689763D01*
X319377Y689746D01*
X319309Y689725D01*
X319242Y689701D01*
X319176Y689673D01*
X319112Y689642D01*
X319049Y689607D01*
X318989Y689569D01*
X318930Y689528D01*
X318874Y689484D01*
X318820Y689437D01*
X318769Y689388D01*
X318721Y689335D01*
X318675Y689280D01*
X318633Y689223D01*
X318593Y689163D01*
X318557Y689102D01*
X318524Y689038D01*
X318495Y688973D01*
X318469Y688907D01*
X318446Y688839D01*
X318427Y688770D01*
X318412Y688700D01*
X318401Y688630D01*
X318393Y688559D01*
X318389Y688488D01*
X318389Y688416D01*
X318393Y688345D01*
X318401Y688274D01*
X318412Y688204D01*
X318427Y688134D01*
X318446Y688065D01*
X318469Y687997D01*
X318495Y687931D01*
X318524Y687866D01*
X318557Y687802D01*
X318593Y687741D01*
X318633Y687681D01*
X318675Y687624D01*
X318721Y687569D01*
X318769Y687516D01*
X318820Y687467D01*
X318874Y687420D01*
X318930Y687376D01*
X318989Y687335D01*
X319049Y687297D01*
X319112Y687262D01*
X319176Y687231D01*
X319242Y687203D01*
X319309Y687179D01*
X319377Y687158D01*
X319447Y687141D01*
X319517Y687128D01*
X319587Y687119D01*
X319659Y687113D01*
X319730Y687111D01*
X321070Y687111D01*
X321161Y687113D01*
X321252Y687119D01*
X321342Y687128D01*
X321433Y687142D01*
X321522Y687159D01*
X321610Y687180D01*
X321698Y687205D01*
X321785Y687234D01*
X321870Y687266D01*
X321954Y687301D01*
X322036Y687341D01*
X322116Y687383D01*
X322195Y687429D01*
X322271Y687479D01*
X322345Y687531D01*
X322418Y687587D01*
X322487Y687646D01*
X322554Y687707D01*
X322619Y687772D01*
X322680Y687839D01*
X322739Y687908D01*
X322795Y687980D01*
X322847Y688055D01*
X322897Y688131D01*
X322943Y688210D01*
X322985Y688290D01*
X323025Y688372D01*
X323060Y688456D01*
X323092Y688541D01*
X323121Y688628D01*
X323146Y688715D01*
X323167Y688804D01*
X323184Y688893D01*
X323198Y688984D01*
X323207Y689074D01*
X323213Y689165D01*
X323215Y689256D01*
D10*
X142367Y925661D02*
X133731Y925661D01*
X138049Y921343D02*
X138049Y929979D01*
X191643Y925661D02*
X200279Y925661D01*
D11*
X127000Y850900D02*
X152400Y825500D01*
X157480Y838200D02*
X190500Y825500D01*
X226060Y808990D02*
X104140Y808990D01*
X226060Y808990D02*
X226060Y943610D01*
X104140Y943610D01*
X104140Y808990D01*
D12*
X89789Y873916D02*
X89791Y873981D01*
X89797Y874045D01*
X89807Y874109D01*
X89820Y874173D01*
X89838Y874235D01*
X89859Y874296D01*
X89883Y874356D01*
X89912Y874414D01*
X89944Y874471D01*
X89979Y874525D01*
X90017Y874577D01*
X90059Y874627D01*
X90103Y874674D01*
X90150Y874718D01*
X90200Y874760D01*
X90252Y874798D01*
X90306Y874833D01*
X90363Y874865D01*
X90421Y874894D01*
X90481Y874918D01*
X90542Y874939D01*
X90604Y874957D01*
X90668Y874970D01*
X90732Y874980D01*
X90796Y874986D01*
X90861Y874988D01*
X89789Y873916D02*
X89791Y873822D01*
X89797Y873728D01*
X89807Y873634D01*
X89820Y873541D01*
X89838Y873449D01*
X89859Y873357D01*
X89884Y873266D01*
X89913Y873176D01*
X89946Y873088D01*
X89982Y873001D01*
X90022Y872916D01*
X90065Y872832D01*
X90112Y872751D01*
X90162Y872671D01*
X90215Y872593D01*
X90272Y872518D01*
X90331Y872445D01*
X90394Y872375D01*
X90459Y872307D01*
X93543Y872442D02*
X93608Y872444D01*
X93672Y872450D01*
X93736Y872460D01*
X93800Y872473D01*
X93862Y872491D01*
X93923Y872512D01*
X93983Y872536D01*
X94041Y872565D01*
X94098Y872597D01*
X94152Y872632D01*
X94204Y872670D01*
X94254Y872712D01*
X94301Y872756D01*
X94345Y872803D01*
X94387Y872853D01*
X94425Y872905D01*
X94460Y872959D01*
X94492Y873016D01*
X94521Y873074D01*
X94545Y873134D01*
X94566Y873195D01*
X94584Y873257D01*
X94597Y873321D01*
X94607Y873385D01*
X94613Y873449D01*
X94615Y873514D01*
X94613Y873600D01*
X94608Y873686D01*
X94598Y873772D01*
X94585Y873857D01*
X94569Y873942D01*
X94549Y874026D01*
X94525Y874109D01*
X94498Y874191D01*
X94467Y874271D01*
X94433Y874351D01*
X94395Y874428D01*
X94354Y874504D01*
X94310Y874578D01*
X94263Y874650D01*
X94213Y874721D01*
X92605Y872978D02*
X92638Y872925D01*
X92675Y872874D01*
X92714Y872825D01*
X92756Y872778D01*
X92801Y872734D01*
X92848Y872693D01*
X92897Y872654D01*
X92949Y872618D01*
X93003Y872585D01*
X93058Y872556D01*
X93115Y872530D01*
X93174Y872507D01*
X93233Y872487D01*
X93294Y872471D01*
X93355Y872458D01*
X93418Y872449D01*
X93480Y872444D01*
X93543Y872442D01*
X91799Y874453D02*
X91766Y874506D01*
X91729Y874557D01*
X91690Y874606D01*
X91648Y874653D01*
X91603Y874697D01*
X91556Y874738D01*
X91507Y874777D01*
X91455Y874813D01*
X91401Y874846D01*
X91346Y874875D01*
X91289Y874901D01*
X91230Y874924D01*
X91171Y874944D01*
X91110Y874960D01*
X91049Y874973D01*
X90986Y874982D01*
X90924Y874987D01*
X90861Y874989D01*
X91800Y874453D02*
X92604Y872978D01*
X94079Y877611D02*
X94615Y877611D01*
X94615Y880292D01*
X89789Y878952D01*
D10*
X133731Y735161D02*
X142367Y735161D01*
X138049Y730843D02*
X138049Y739479D01*
X191643Y735161D02*
X200279Y735161D01*
D11*
X127000Y660400D02*
X152400Y635000D01*
X157480Y647700D02*
X190500Y635000D01*
X226060Y618490D02*
X104140Y618490D01*
X226060Y618490D02*
X226060Y753110D01*
X104140Y753110D01*
X104140Y618490D01*
D12*
X89789Y683416D02*
X89791Y683481D01*
X89797Y683545D01*
X89807Y683609D01*
X89820Y683673D01*
X89838Y683735D01*
X89859Y683796D01*
X89883Y683856D01*
X89912Y683914D01*
X89944Y683971D01*
X89979Y684025D01*
X90017Y684077D01*
X90059Y684127D01*
X90103Y684174D01*
X90150Y684218D01*
X90200Y684260D01*
X90252Y684298D01*
X90306Y684333D01*
X90363Y684365D01*
X90421Y684394D01*
X90481Y684418D01*
X90542Y684439D01*
X90604Y684457D01*
X90668Y684470D01*
X90732Y684480D01*
X90796Y684486D01*
X90861Y684488D01*
X89789Y683416D02*
X89791Y683322D01*
X89797Y683228D01*
X89807Y683134D01*
X89820Y683041D01*
X89838Y682949D01*
X89859Y682857D01*
X89884Y682766D01*
X89913Y682676D01*
X89946Y682588D01*
X89982Y682501D01*
X90022Y682416D01*
X90065Y682332D01*
X90112Y682251D01*
X90162Y682171D01*
X90215Y682093D01*
X90272Y682018D01*
X90331Y681945D01*
X90394Y681875D01*
X90459Y681807D01*
X93543Y681942D02*
X93608Y681944D01*
X93672Y681950D01*
X93736Y681960D01*
X93800Y681973D01*
X93862Y681991D01*
X93923Y682012D01*
X93983Y682036D01*
X94041Y682065D01*
X94098Y682097D01*
X94152Y682132D01*
X94204Y682170D01*
X94254Y682212D01*
X94301Y682256D01*
X94345Y682303D01*
X94387Y682353D01*
X94425Y682405D01*
X94460Y682459D01*
X94492Y682516D01*
X94521Y682574D01*
X94545Y682634D01*
X94566Y682695D01*
X94584Y682757D01*
X94597Y682821D01*
X94607Y682885D01*
X94613Y682949D01*
X94615Y683014D01*
X94613Y683100D01*
X94608Y683186D01*
X94598Y683272D01*
X94585Y683357D01*
X94569Y683442D01*
X94549Y683526D01*
X94525Y683609D01*
X94498Y683691D01*
X94467Y683771D01*
X94433Y683851D01*
X94395Y683928D01*
X94354Y684004D01*
X94310Y684078D01*
X94263Y684150D01*
X94213Y684221D01*
X92605Y682478D02*
X92638Y682425D01*
X92675Y682374D01*
X92714Y682325D01*
X92756Y682278D01*
X92801Y682234D01*
X92848Y682193D01*
X92897Y682154D01*
X92949Y682118D01*
X93003Y682085D01*
X93058Y682056D01*
X93115Y682030D01*
X93174Y682007D01*
X93233Y681987D01*
X93294Y681971D01*
X93355Y681958D01*
X93418Y681949D01*
X93480Y681944D01*
X93543Y681942D01*
X91799Y683953D02*
X91766Y684006D01*
X91729Y684057D01*
X91690Y684106D01*
X91648Y684153D01*
X91603Y684197D01*
X91556Y684238D01*
X91507Y684277D01*
X91455Y684313D01*
X91401Y684346D01*
X91346Y684375D01*
X91289Y684401D01*
X91230Y684424D01*
X91171Y684444D01*
X91110Y684460D01*
X91049Y684473D01*
X90986Y684482D01*
X90924Y684487D01*
X90861Y684489D01*
X91800Y683953D02*
X92604Y682478D01*
X91130Y687111D02*
X91201Y687113D01*
X91273Y687119D01*
X91343Y687128D01*
X91413Y687141D01*
X91483Y687158D01*
X91551Y687179D01*
X91618Y687203D01*
X91684Y687231D01*
X91748Y687262D01*
X91811Y687297D01*
X91871Y687335D01*
X91930Y687376D01*
X91986Y687420D01*
X92040Y687467D01*
X92091Y687516D01*
X92139Y687569D01*
X92185Y687624D01*
X92227Y687681D01*
X92267Y687741D01*
X92303Y687802D01*
X92336Y687866D01*
X92365Y687931D01*
X92391Y687997D01*
X92414Y688065D01*
X92433Y688134D01*
X92448Y688204D01*
X92459Y688274D01*
X92467Y688345D01*
X92471Y688416D01*
X92471Y688488D01*
X92467Y688559D01*
X92459Y688630D01*
X92448Y688700D01*
X92433Y688770D01*
X92414Y688839D01*
X92391Y688907D01*
X92365Y688973D01*
X92336Y689038D01*
X92303Y689102D01*
X92267Y689163D01*
X92227Y689223D01*
X92185Y689280D01*
X92139Y689335D01*
X92091Y689388D01*
X92040Y689437D01*
X91986Y689484D01*
X91930Y689528D01*
X91871Y689569D01*
X91811Y689607D01*
X91748Y689642D01*
X91684Y689673D01*
X91618Y689701D01*
X91551Y689725D01*
X91483Y689746D01*
X91413Y689763D01*
X91343Y689776D01*
X91273Y689785D01*
X91201Y689791D01*
X91130Y689793D01*
X91059Y689791D01*
X90987Y689785D01*
X90917Y689776D01*
X90847Y689763D01*
X90777Y689746D01*
X90709Y689725D01*
X90642Y689701D01*
X90576Y689673D01*
X90512Y689642D01*
X90449Y689607D01*
X90389Y689569D01*
X90330Y689528D01*
X90274Y689484D01*
X90220Y689437D01*
X90169Y689388D01*
X90121Y689335D01*
X90075Y689280D01*
X90033Y689223D01*
X89993Y689163D01*
X89957Y689102D01*
X89924Y689038D01*
X89895Y688973D01*
X89869Y688907D01*
X89846Y688839D01*
X89827Y688770D01*
X89812Y688700D01*
X89801Y688630D01*
X89793Y688559D01*
X89789Y688488D01*
X89789Y688416D01*
X89793Y688345D01*
X89801Y688274D01*
X89812Y688204D01*
X89827Y688134D01*
X89846Y688065D01*
X89869Y687997D01*
X89895Y687931D01*
X89924Y687866D01*
X89957Y687802D01*
X89993Y687741D01*
X90033Y687681D01*
X90075Y687624D01*
X90121Y687569D01*
X90169Y687516D01*
X90220Y687467D01*
X90274Y687420D01*
X90330Y687376D01*
X90389Y687335D01*
X90449Y687297D01*
X90512Y687262D01*
X90576Y687231D01*
X90642Y687203D01*
X90709Y687179D01*
X90777Y687158D01*
X90847Y687141D01*
X90917Y687128D01*
X90987Y687119D01*
X91059Y687113D01*
X91130Y687111D01*
X93543Y687380D02*
X93608Y687382D01*
X93672Y687388D01*
X93736Y687398D01*
X93800Y687411D01*
X93862Y687429D01*
X93923Y687450D01*
X93983Y687474D01*
X94041Y687503D01*
X94098Y687535D01*
X94152Y687570D01*
X94204Y687608D01*
X94254Y687650D01*
X94301Y687694D01*
X94345Y687741D01*
X94387Y687791D01*
X94425Y687843D01*
X94460Y687897D01*
X94492Y687954D01*
X94521Y688012D01*
X94545Y688072D01*
X94566Y688133D01*
X94584Y688195D01*
X94597Y688259D01*
X94607Y688323D01*
X94613Y688387D01*
X94615Y688452D01*
X94613Y688517D01*
X94607Y688581D01*
X94597Y688645D01*
X94584Y688709D01*
X94566Y688771D01*
X94545Y688832D01*
X94521Y688892D01*
X94492Y688950D01*
X94460Y689007D01*
X94425Y689061D01*
X94387Y689113D01*
X94345Y689163D01*
X94301Y689210D01*
X94254Y689254D01*
X94204Y689296D01*
X94152Y689334D01*
X94098Y689369D01*
X94041Y689401D01*
X93983Y689430D01*
X93923Y689454D01*
X93862Y689475D01*
X93800Y689493D01*
X93736Y689506D01*
X93672Y689516D01*
X93608Y689522D01*
X93543Y689524D01*
X93478Y689522D01*
X93414Y689516D01*
X93350Y689506D01*
X93286Y689493D01*
X93224Y689475D01*
X93163Y689454D01*
X93103Y689430D01*
X93045Y689401D01*
X92988Y689369D01*
X92934Y689334D01*
X92882Y689296D01*
X92832Y689254D01*
X92785Y689210D01*
X92741Y689163D01*
X92699Y689113D01*
X92661Y689061D01*
X92626Y689007D01*
X92594Y688950D01*
X92565Y688892D01*
X92541Y688832D01*
X92520Y688771D01*
X92502Y688709D01*
X92489Y688645D01*
X92479Y688581D01*
X92473Y688517D01*
X92471Y688452D01*
X92473Y688387D01*
X92479Y688323D01*
X92489Y688259D01*
X92502Y688195D01*
X92520Y688133D01*
X92541Y688072D01*
X92565Y688012D01*
X92594Y687954D01*
X92626Y687897D01*
X92661Y687843D01*
X92699Y687791D01*
X92741Y687741D01*
X92785Y687694D01*
X92832Y687650D01*
X92882Y687608D01*
X92934Y687570D01*
X92988Y687535D01*
X93045Y687503D01*
X93103Y687474D01*
X93163Y687450D01*
X93224Y687429D01*
X93286Y687411D01*
X93350Y687398D01*
X93414Y687388D01*
X93478Y687382D01*
X93543Y687380D01*
M02*
