G04 EAGLE Gerber RS-274X export*
G75*
%MOMM*%
%FSLAX34Y34*%
%LPD*%
%INSilkscreen Top*%
%IPPOS*%
%AMOC8*
5,1,8,0,0,1.08239X$1,22.5*%
G01*
%ADD10C,0.152400*%
%ADD11C,0.127000*%
%ADD12C,0.203200*%


D10*
X765810Y509270D02*
X778510Y509270D01*
X784860Y502920D01*
X784860Y490220D01*
X778510Y483870D01*
X759460Y490220D02*
X759460Y502920D01*
X765810Y509270D01*
X759460Y490220D02*
X765810Y483870D01*
X778510Y483870D01*
X784860Y502920D02*
X791210Y509270D01*
X803910Y509270D01*
X810260Y502920D01*
X810260Y490220D01*
X803910Y483870D01*
X791210Y483870D01*
X784860Y490220D01*
D11*
X763143Y518033D02*
X763143Y526923D01*
X763143Y518033D02*
X763141Y517933D01*
X763135Y517834D01*
X763125Y517734D01*
X763112Y517636D01*
X763094Y517537D01*
X763073Y517440D01*
X763048Y517344D01*
X763019Y517248D01*
X762986Y517154D01*
X762950Y517061D01*
X762910Y516970D01*
X762866Y516880D01*
X762819Y516792D01*
X762769Y516706D01*
X762715Y516622D01*
X762658Y516540D01*
X762598Y516461D01*
X762534Y516383D01*
X762468Y516309D01*
X762399Y516237D01*
X762327Y516168D01*
X762253Y516102D01*
X762175Y516038D01*
X762096Y515978D01*
X762014Y515921D01*
X761930Y515867D01*
X761844Y515817D01*
X761756Y515770D01*
X761666Y515726D01*
X761575Y515686D01*
X761482Y515650D01*
X761388Y515617D01*
X761292Y515588D01*
X761196Y515563D01*
X761099Y515542D01*
X761000Y515524D01*
X760902Y515511D01*
X760802Y515501D01*
X760703Y515495D01*
X760603Y515493D01*
X759333Y515493D01*
X769123Y515493D02*
X769123Y526923D01*
X772298Y526923D01*
X772409Y526921D01*
X772519Y526915D01*
X772630Y526906D01*
X772740Y526892D01*
X772849Y526875D01*
X772958Y526854D01*
X773066Y526829D01*
X773173Y526800D01*
X773279Y526768D01*
X773384Y526732D01*
X773487Y526692D01*
X773589Y526649D01*
X773690Y526602D01*
X773789Y526551D01*
X773886Y526498D01*
X773980Y526441D01*
X774073Y526380D01*
X774164Y526317D01*
X774253Y526250D01*
X774339Y526180D01*
X774422Y526107D01*
X774504Y526032D01*
X774582Y525954D01*
X774657Y525872D01*
X774730Y525789D01*
X774800Y525703D01*
X774867Y525614D01*
X774930Y525523D01*
X774991Y525430D01*
X775048Y525335D01*
X775101Y525239D01*
X775152Y525140D01*
X775199Y525039D01*
X775242Y524937D01*
X775282Y524834D01*
X775318Y524729D01*
X775350Y524623D01*
X775379Y524516D01*
X775404Y524408D01*
X775425Y524299D01*
X775442Y524190D01*
X775456Y524080D01*
X775465Y523969D01*
X775471Y523859D01*
X775473Y523748D01*
X775471Y523637D01*
X775465Y523527D01*
X775456Y523416D01*
X775442Y523306D01*
X775425Y523197D01*
X775404Y523088D01*
X775379Y522980D01*
X775350Y522873D01*
X775318Y522767D01*
X775282Y522662D01*
X775242Y522559D01*
X775199Y522457D01*
X775152Y522356D01*
X775101Y522257D01*
X775048Y522160D01*
X774991Y522066D01*
X774930Y521973D01*
X774867Y521882D01*
X774800Y521793D01*
X774730Y521707D01*
X774657Y521624D01*
X774582Y521542D01*
X774504Y521464D01*
X774422Y521389D01*
X774339Y521316D01*
X774253Y521246D01*
X774164Y521179D01*
X774073Y521116D01*
X773980Y521055D01*
X773886Y520998D01*
X773789Y520945D01*
X773690Y520894D01*
X773589Y520847D01*
X773487Y520804D01*
X773384Y520764D01*
X773279Y520728D01*
X773173Y520696D01*
X773066Y520667D01*
X772958Y520642D01*
X772849Y520621D01*
X772740Y520604D01*
X772630Y520590D01*
X772519Y520581D01*
X772409Y520575D01*
X772298Y520573D01*
X769123Y520573D01*
X779982Y524383D02*
X783157Y526923D01*
X783157Y515493D01*
X779982Y515493D02*
X786332Y515493D01*
D10*
X332740Y702310D02*
X320040Y702310D01*
X332740Y702310D02*
X339090Y695960D01*
X339090Y683260D01*
X332740Y676910D01*
X313690Y683260D02*
X313690Y695960D01*
X320040Y702310D01*
X313690Y683260D02*
X320040Y676910D01*
X332740Y676910D01*
X339090Y695960D02*
X345440Y702310D01*
X358140Y702310D01*
X364490Y695960D01*
X364490Y683260D01*
X358140Y676910D01*
X345440Y676910D01*
X339090Y683260D01*
D11*
X317373Y711073D02*
X317373Y719963D01*
X317373Y711073D02*
X317371Y710973D01*
X317365Y710874D01*
X317355Y710774D01*
X317342Y710676D01*
X317324Y710577D01*
X317303Y710480D01*
X317278Y710384D01*
X317249Y710288D01*
X317216Y710194D01*
X317180Y710101D01*
X317140Y710010D01*
X317096Y709920D01*
X317049Y709832D01*
X316999Y709746D01*
X316945Y709662D01*
X316888Y709580D01*
X316828Y709501D01*
X316764Y709423D01*
X316698Y709349D01*
X316629Y709277D01*
X316557Y709208D01*
X316483Y709142D01*
X316405Y709078D01*
X316326Y709018D01*
X316244Y708961D01*
X316160Y708907D01*
X316074Y708857D01*
X315986Y708810D01*
X315896Y708766D01*
X315805Y708726D01*
X315712Y708690D01*
X315618Y708657D01*
X315522Y708628D01*
X315426Y708603D01*
X315329Y708582D01*
X315230Y708564D01*
X315132Y708551D01*
X315032Y708541D01*
X314933Y708535D01*
X314833Y708533D01*
X313563Y708533D01*
X323353Y708533D02*
X323353Y719963D01*
X326528Y719963D01*
X326639Y719961D01*
X326749Y719955D01*
X326860Y719946D01*
X326970Y719932D01*
X327079Y719915D01*
X327188Y719894D01*
X327296Y719869D01*
X327403Y719840D01*
X327509Y719808D01*
X327614Y719772D01*
X327717Y719732D01*
X327819Y719689D01*
X327920Y719642D01*
X328019Y719591D01*
X328116Y719538D01*
X328210Y719481D01*
X328303Y719420D01*
X328394Y719357D01*
X328483Y719290D01*
X328569Y719220D01*
X328652Y719147D01*
X328734Y719072D01*
X328812Y718994D01*
X328887Y718912D01*
X328960Y718829D01*
X329030Y718743D01*
X329097Y718654D01*
X329160Y718563D01*
X329221Y718470D01*
X329278Y718375D01*
X329331Y718279D01*
X329382Y718180D01*
X329429Y718079D01*
X329472Y717977D01*
X329512Y717874D01*
X329548Y717769D01*
X329580Y717663D01*
X329609Y717556D01*
X329634Y717448D01*
X329655Y717339D01*
X329672Y717230D01*
X329686Y717120D01*
X329695Y717009D01*
X329701Y716899D01*
X329703Y716788D01*
X329701Y716677D01*
X329695Y716567D01*
X329686Y716456D01*
X329672Y716346D01*
X329655Y716237D01*
X329634Y716128D01*
X329609Y716020D01*
X329580Y715913D01*
X329548Y715807D01*
X329512Y715702D01*
X329472Y715599D01*
X329429Y715497D01*
X329382Y715396D01*
X329331Y715297D01*
X329278Y715201D01*
X329221Y715106D01*
X329160Y715013D01*
X329097Y714922D01*
X329030Y714833D01*
X328960Y714747D01*
X328887Y714664D01*
X328812Y714582D01*
X328734Y714504D01*
X328652Y714429D01*
X328569Y714356D01*
X328483Y714286D01*
X328394Y714219D01*
X328303Y714156D01*
X328210Y714095D01*
X328116Y714038D01*
X328019Y713985D01*
X327920Y713934D01*
X327819Y713887D01*
X327717Y713844D01*
X327614Y713804D01*
X327509Y713768D01*
X327403Y713736D01*
X327296Y713707D01*
X327188Y713682D01*
X327079Y713661D01*
X326970Y713644D01*
X326860Y713630D01*
X326749Y713621D01*
X326639Y713615D01*
X326528Y713613D01*
X323353Y713613D01*
X334212Y717423D02*
X337387Y719963D01*
X337387Y708533D01*
X334212Y708533D02*
X340562Y708533D01*
X345642Y714248D02*
X345645Y714473D01*
X345653Y714698D01*
X345666Y714922D01*
X345685Y715146D01*
X345709Y715370D01*
X345738Y715593D01*
X345773Y715815D01*
X345813Y716036D01*
X345859Y716256D01*
X345909Y716475D01*
X345965Y716693D01*
X346026Y716910D01*
X346092Y717125D01*
X346163Y717338D01*
X346240Y717549D01*
X346321Y717759D01*
X346407Y717967D01*
X346498Y718172D01*
X346594Y718375D01*
X346594Y718376D02*
X346626Y718464D01*
X346662Y718551D01*
X346701Y718637D01*
X346744Y718721D01*
X346790Y718803D01*
X346839Y718883D01*
X346891Y718961D01*
X346947Y719037D01*
X347005Y719111D01*
X347067Y719182D01*
X347131Y719251D01*
X347198Y719317D01*
X347267Y719380D01*
X347339Y719441D01*
X347413Y719499D01*
X347490Y719553D01*
X347568Y719605D01*
X347649Y719653D01*
X347731Y719698D01*
X347816Y719740D01*
X347902Y719778D01*
X347989Y719813D01*
X348077Y719845D01*
X348167Y719872D01*
X348258Y719897D01*
X348350Y719917D01*
X348442Y719934D01*
X348536Y719947D01*
X348629Y719956D01*
X348723Y719962D01*
X348817Y719964D01*
X348911Y719962D01*
X349005Y719956D01*
X349098Y719947D01*
X349192Y719934D01*
X349284Y719917D01*
X349376Y719897D01*
X349467Y719872D01*
X349557Y719845D01*
X349645Y719813D01*
X349732Y719778D01*
X349818Y719740D01*
X349903Y719698D01*
X349985Y719653D01*
X350066Y719605D01*
X350144Y719553D01*
X350221Y719499D01*
X350295Y719441D01*
X350367Y719380D01*
X350436Y719317D01*
X350503Y719251D01*
X350567Y719182D01*
X350629Y719111D01*
X350687Y719037D01*
X350743Y718961D01*
X350795Y718883D01*
X350844Y718803D01*
X350890Y718721D01*
X350933Y718637D01*
X350972Y718551D01*
X351008Y718464D01*
X351040Y718376D01*
X351040Y718375D02*
X351136Y718172D01*
X351227Y717967D01*
X351313Y717759D01*
X351394Y717549D01*
X351471Y717338D01*
X351542Y717125D01*
X351608Y716910D01*
X351669Y716693D01*
X351725Y716475D01*
X351775Y716256D01*
X351821Y716036D01*
X351861Y715815D01*
X351896Y715593D01*
X351925Y715370D01*
X351949Y715146D01*
X351968Y714922D01*
X351981Y714698D01*
X351989Y714473D01*
X351992Y714248D01*
X345642Y714248D02*
X345645Y714023D01*
X345653Y713798D01*
X345666Y713574D01*
X345685Y713350D01*
X345709Y713126D01*
X345738Y712903D01*
X345773Y712681D01*
X345813Y712460D01*
X345859Y712240D01*
X345909Y712021D01*
X345965Y711803D01*
X346026Y711586D01*
X346092Y711371D01*
X346163Y711158D01*
X346240Y710947D01*
X346321Y710737D01*
X346407Y710529D01*
X346498Y710324D01*
X346594Y710121D01*
X346626Y710033D01*
X346662Y709946D01*
X346701Y709860D01*
X346744Y709776D01*
X346790Y709694D01*
X346839Y709614D01*
X346891Y709536D01*
X346947Y709460D01*
X347005Y709386D01*
X347067Y709315D01*
X347131Y709246D01*
X347198Y709180D01*
X347267Y709117D01*
X347339Y709056D01*
X347413Y708998D01*
X347490Y708944D01*
X347568Y708892D01*
X347649Y708844D01*
X347731Y708799D01*
X347816Y708757D01*
X347902Y708719D01*
X347989Y708684D01*
X348077Y708652D01*
X348167Y708625D01*
X348258Y708600D01*
X348350Y708580D01*
X348442Y708563D01*
X348536Y708550D01*
X348629Y708541D01*
X348723Y708535D01*
X348817Y708533D01*
X351040Y710121D02*
X351136Y710324D01*
X351227Y710529D01*
X351313Y710737D01*
X351394Y710947D01*
X351471Y711158D01*
X351542Y711371D01*
X351608Y711586D01*
X351669Y711803D01*
X351725Y712021D01*
X351775Y712240D01*
X351821Y712460D01*
X351861Y712681D01*
X351896Y712903D01*
X351925Y713126D01*
X351949Y713350D01*
X351968Y713574D01*
X351981Y713798D01*
X351989Y714023D01*
X351992Y714248D01*
X351040Y710121D02*
X351008Y710033D01*
X350972Y709946D01*
X350933Y709860D01*
X350890Y709776D01*
X350844Y709694D01*
X350795Y709614D01*
X350743Y709536D01*
X350687Y709460D01*
X350629Y709386D01*
X350567Y709315D01*
X350503Y709246D01*
X350436Y709180D01*
X350367Y709117D01*
X350295Y709056D01*
X350221Y708998D01*
X350144Y708944D01*
X350066Y708892D01*
X349985Y708844D01*
X349903Y708799D01*
X349818Y708757D01*
X349732Y708719D01*
X349645Y708684D01*
X349557Y708652D01*
X349467Y708625D01*
X349376Y708600D01*
X349284Y708580D01*
X349192Y708563D01*
X349098Y708550D01*
X349005Y708541D01*
X348911Y708535D01*
X348817Y708533D01*
X346277Y711073D02*
X351357Y717423D01*
D10*
X332740Y891540D02*
X320040Y891540D01*
X332740Y891540D02*
X339090Y885190D01*
X339090Y872490D01*
X332740Y866140D01*
X313690Y872490D02*
X313690Y885190D01*
X320040Y891540D01*
X313690Y872490D02*
X320040Y866140D01*
X332740Y866140D01*
X339090Y885190D02*
X345440Y891540D01*
X358140Y891540D01*
X364490Y885190D01*
X364490Y872490D01*
X358140Y866140D01*
X345440Y866140D01*
X339090Y872490D01*
D11*
X317373Y900303D02*
X317373Y909193D01*
X317373Y900303D02*
X317371Y900203D01*
X317365Y900104D01*
X317355Y900004D01*
X317342Y899906D01*
X317324Y899807D01*
X317303Y899710D01*
X317278Y899614D01*
X317249Y899518D01*
X317216Y899424D01*
X317180Y899331D01*
X317140Y899240D01*
X317096Y899150D01*
X317049Y899062D01*
X316999Y898976D01*
X316945Y898892D01*
X316888Y898810D01*
X316828Y898731D01*
X316764Y898653D01*
X316698Y898579D01*
X316629Y898507D01*
X316557Y898438D01*
X316483Y898372D01*
X316405Y898308D01*
X316326Y898248D01*
X316244Y898191D01*
X316160Y898137D01*
X316074Y898087D01*
X315986Y898040D01*
X315896Y897996D01*
X315805Y897956D01*
X315712Y897920D01*
X315618Y897887D01*
X315522Y897858D01*
X315426Y897833D01*
X315329Y897812D01*
X315230Y897794D01*
X315132Y897781D01*
X315032Y897771D01*
X314933Y897765D01*
X314833Y897763D01*
X313563Y897763D01*
X323353Y897763D02*
X323353Y909193D01*
X326528Y909193D01*
X326639Y909191D01*
X326749Y909185D01*
X326860Y909176D01*
X326970Y909162D01*
X327079Y909145D01*
X327188Y909124D01*
X327296Y909099D01*
X327403Y909070D01*
X327509Y909038D01*
X327614Y909002D01*
X327717Y908962D01*
X327819Y908919D01*
X327920Y908872D01*
X328019Y908821D01*
X328116Y908768D01*
X328210Y908711D01*
X328303Y908650D01*
X328394Y908587D01*
X328483Y908520D01*
X328569Y908450D01*
X328652Y908377D01*
X328734Y908302D01*
X328812Y908224D01*
X328887Y908142D01*
X328960Y908059D01*
X329030Y907973D01*
X329097Y907884D01*
X329160Y907793D01*
X329221Y907700D01*
X329278Y907605D01*
X329331Y907509D01*
X329382Y907410D01*
X329429Y907309D01*
X329472Y907207D01*
X329512Y907104D01*
X329548Y906999D01*
X329580Y906893D01*
X329609Y906786D01*
X329634Y906678D01*
X329655Y906569D01*
X329672Y906460D01*
X329686Y906350D01*
X329695Y906239D01*
X329701Y906129D01*
X329703Y906018D01*
X329701Y905907D01*
X329695Y905797D01*
X329686Y905686D01*
X329672Y905576D01*
X329655Y905467D01*
X329634Y905358D01*
X329609Y905250D01*
X329580Y905143D01*
X329548Y905037D01*
X329512Y904932D01*
X329472Y904829D01*
X329429Y904727D01*
X329382Y904626D01*
X329331Y904527D01*
X329278Y904431D01*
X329221Y904336D01*
X329160Y904243D01*
X329097Y904152D01*
X329030Y904063D01*
X328960Y903977D01*
X328887Y903894D01*
X328812Y903812D01*
X328734Y903734D01*
X328652Y903659D01*
X328569Y903586D01*
X328483Y903516D01*
X328394Y903449D01*
X328303Y903386D01*
X328210Y903325D01*
X328116Y903268D01*
X328019Y903215D01*
X327920Y903164D01*
X327819Y903117D01*
X327717Y903074D01*
X327614Y903034D01*
X327509Y902998D01*
X327403Y902966D01*
X327296Y902937D01*
X327188Y902912D01*
X327079Y902891D01*
X326970Y902874D01*
X326860Y902860D01*
X326749Y902851D01*
X326639Y902845D01*
X326528Y902843D01*
X323353Y902843D01*
X334212Y906653D02*
X337387Y909193D01*
X337387Y897763D01*
X334212Y897763D02*
X340562Y897763D01*
X345642Y906653D02*
X348817Y909193D01*
X348817Y897763D01*
X345642Y897763D02*
X351992Y897763D01*
D10*
X102870Y892810D02*
X90170Y892810D01*
X102870Y892810D02*
X109220Y886460D01*
X109220Y873760D01*
X102870Y867410D01*
X83820Y873760D02*
X83820Y886460D01*
X90170Y892810D01*
X83820Y873760D02*
X90170Y867410D01*
X102870Y867410D01*
X109220Y886460D02*
X115570Y892810D01*
X128270Y892810D01*
X134620Y886460D01*
X134620Y873760D01*
X128270Y867410D01*
X115570Y867410D01*
X109220Y873760D01*
D11*
X87503Y901573D02*
X87503Y910463D01*
X87503Y901573D02*
X87501Y901473D01*
X87495Y901374D01*
X87485Y901274D01*
X87472Y901176D01*
X87454Y901077D01*
X87433Y900980D01*
X87408Y900884D01*
X87379Y900788D01*
X87346Y900694D01*
X87310Y900601D01*
X87270Y900510D01*
X87226Y900420D01*
X87179Y900332D01*
X87129Y900246D01*
X87075Y900162D01*
X87018Y900080D01*
X86958Y900001D01*
X86894Y899923D01*
X86828Y899849D01*
X86759Y899777D01*
X86687Y899708D01*
X86613Y899642D01*
X86535Y899578D01*
X86456Y899518D01*
X86374Y899461D01*
X86290Y899407D01*
X86204Y899357D01*
X86116Y899310D01*
X86026Y899266D01*
X85935Y899226D01*
X85842Y899190D01*
X85748Y899157D01*
X85652Y899128D01*
X85556Y899103D01*
X85459Y899082D01*
X85360Y899064D01*
X85262Y899051D01*
X85162Y899041D01*
X85063Y899035D01*
X84963Y899033D01*
X83693Y899033D01*
X93483Y899033D02*
X93483Y910463D01*
X96658Y910463D01*
X96769Y910461D01*
X96879Y910455D01*
X96990Y910446D01*
X97100Y910432D01*
X97209Y910415D01*
X97318Y910394D01*
X97426Y910369D01*
X97533Y910340D01*
X97639Y910308D01*
X97744Y910272D01*
X97847Y910232D01*
X97949Y910189D01*
X98050Y910142D01*
X98149Y910091D01*
X98246Y910038D01*
X98340Y909981D01*
X98433Y909920D01*
X98524Y909857D01*
X98613Y909790D01*
X98699Y909720D01*
X98782Y909647D01*
X98864Y909572D01*
X98942Y909494D01*
X99017Y909412D01*
X99090Y909329D01*
X99160Y909243D01*
X99227Y909154D01*
X99290Y909063D01*
X99351Y908970D01*
X99408Y908875D01*
X99461Y908779D01*
X99512Y908680D01*
X99559Y908579D01*
X99602Y908477D01*
X99642Y908374D01*
X99678Y908269D01*
X99710Y908163D01*
X99739Y908056D01*
X99764Y907948D01*
X99785Y907839D01*
X99802Y907730D01*
X99816Y907620D01*
X99825Y907509D01*
X99831Y907399D01*
X99833Y907288D01*
X99831Y907177D01*
X99825Y907067D01*
X99816Y906956D01*
X99802Y906846D01*
X99785Y906737D01*
X99764Y906628D01*
X99739Y906520D01*
X99710Y906413D01*
X99678Y906307D01*
X99642Y906202D01*
X99602Y906099D01*
X99559Y905997D01*
X99512Y905896D01*
X99461Y905797D01*
X99408Y905701D01*
X99351Y905606D01*
X99290Y905513D01*
X99227Y905422D01*
X99160Y905333D01*
X99090Y905247D01*
X99017Y905164D01*
X98942Y905082D01*
X98864Y905004D01*
X98782Y904929D01*
X98699Y904856D01*
X98613Y904786D01*
X98524Y904719D01*
X98433Y904656D01*
X98340Y904595D01*
X98245Y904538D01*
X98149Y904485D01*
X98050Y904434D01*
X97949Y904387D01*
X97847Y904344D01*
X97744Y904304D01*
X97639Y904268D01*
X97533Y904236D01*
X97426Y904207D01*
X97318Y904182D01*
X97209Y904161D01*
X97100Y904144D01*
X96990Y904130D01*
X96879Y904121D01*
X96769Y904115D01*
X96658Y904113D01*
X93483Y904113D01*
X104342Y907923D02*
X107517Y910463D01*
X107517Y899033D01*
X104342Y899033D02*
X110692Y899033D01*
X122122Y907606D02*
X122120Y907710D01*
X122114Y907815D01*
X122105Y907919D01*
X122092Y908022D01*
X122074Y908125D01*
X122054Y908227D01*
X122029Y908329D01*
X122001Y908429D01*
X121969Y908529D01*
X121933Y908627D01*
X121894Y908724D01*
X121852Y908819D01*
X121806Y908913D01*
X121756Y909005D01*
X121704Y909095D01*
X121648Y909183D01*
X121588Y909269D01*
X121526Y909353D01*
X121461Y909434D01*
X121393Y909513D01*
X121321Y909590D01*
X121248Y909663D01*
X121171Y909735D01*
X121092Y909803D01*
X121011Y909868D01*
X120927Y909930D01*
X120841Y909990D01*
X120753Y910046D01*
X120663Y910098D01*
X120571Y910148D01*
X120477Y910194D01*
X120382Y910236D01*
X120285Y910275D01*
X120187Y910311D01*
X120087Y910343D01*
X119987Y910371D01*
X119885Y910396D01*
X119783Y910416D01*
X119680Y910434D01*
X119577Y910447D01*
X119473Y910456D01*
X119368Y910462D01*
X119264Y910464D01*
X119264Y910463D02*
X119146Y910461D01*
X119027Y910455D01*
X118909Y910446D01*
X118792Y910433D01*
X118675Y910415D01*
X118558Y910395D01*
X118442Y910370D01*
X118327Y910342D01*
X118214Y910309D01*
X118101Y910274D01*
X117989Y910234D01*
X117879Y910192D01*
X117770Y910145D01*
X117662Y910095D01*
X117557Y910042D01*
X117453Y909985D01*
X117351Y909925D01*
X117251Y909862D01*
X117153Y909795D01*
X117057Y909726D01*
X116964Y909653D01*
X116873Y909577D01*
X116784Y909499D01*
X116698Y909417D01*
X116615Y909333D01*
X116534Y909247D01*
X116457Y909157D01*
X116382Y909066D01*
X116310Y908972D01*
X116241Y908875D01*
X116176Y908777D01*
X116113Y908676D01*
X116054Y908573D01*
X115998Y908469D01*
X115946Y908363D01*
X115897Y908255D01*
X115852Y908146D01*
X115810Y908035D01*
X115772Y907923D01*
X121170Y905384D02*
X121246Y905459D01*
X121321Y905538D01*
X121392Y905619D01*
X121461Y905703D01*
X121526Y905789D01*
X121588Y905877D01*
X121648Y905967D01*
X121704Y906059D01*
X121757Y906154D01*
X121806Y906250D01*
X121852Y906348D01*
X121895Y906447D01*
X121934Y906548D01*
X121969Y906650D01*
X122001Y906753D01*
X122029Y906857D01*
X122054Y906962D01*
X122075Y907069D01*
X122092Y907175D01*
X122105Y907282D01*
X122114Y907390D01*
X122120Y907498D01*
X122122Y907606D01*
X121169Y905383D02*
X115772Y899033D01*
X122122Y899033D01*
D10*
X102870Y703580D02*
X90170Y703580D01*
X102870Y703580D02*
X109220Y697230D01*
X109220Y684530D01*
X102870Y678180D01*
X83820Y684530D02*
X83820Y697230D01*
X90170Y703580D01*
X83820Y684530D02*
X90170Y678180D01*
X102870Y678180D01*
X109220Y697230D02*
X115570Y703580D01*
X128270Y703580D01*
X134620Y697230D01*
X134620Y684530D01*
X128270Y678180D01*
X115570Y678180D01*
X109220Y684530D01*
D11*
X87503Y712343D02*
X87503Y721233D01*
X87503Y712343D02*
X87501Y712243D01*
X87495Y712144D01*
X87485Y712044D01*
X87472Y711946D01*
X87454Y711847D01*
X87433Y711750D01*
X87408Y711654D01*
X87379Y711558D01*
X87346Y711464D01*
X87310Y711371D01*
X87270Y711280D01*
X87226Y711190D01*
X87179Y711102D01*
X87129Y711016D01*
X87075Y710932D01*
X87018Y710850D01*
X86958Y710771D01*
X86894Y710693D01*
X86828Y710619D01*
X86759Y710547D01*
X86687Y710478D01*
X86613Y710412D01*
X86535Y710348D01*
X86456Y710288D01*
X86374Y710231D01*
X86290Y710177D01*
X86204Y710127D01*
X86116Y710080D01*
X86026Y710036D01*
X85935Y709996D01*
X85842Y709960D01*
X85748Y709927D01*
X85652Y709898D01*
X85556Y709873D01*
X85459Y709852D01*
X85360Y709834D01*
X85262Y709821D01*
X85162Y709811D01*
X85063Y709805D01*
X84963Y709803D01*
X83693Y709803D01*
X93483Y709803D02*
X93483Y721233D01*
X96658Y721233D01*
X96769Y721231D01*
X96879Y721225D01*
X96990Y721216D01*
X97100Y721202D01*
X97209Y721185D01*
X97318Y721164D01*
X97426Y721139D01*
X97533Y721110D01*
X97639Y721078D01*
X97744Y721042D01*
X97847Y721002D01*
X97949Y720959D01*
X98050Y720912D01*
X98149Y720861D01*
X98246Y720808D01*
X98340Y720751D01*
X98433Y720690D01*
X98524Y720627D01*
X98613Y720560D01*
X98699Y720490D01*
X98782Y720417D01*
X98864Y720342D01*
X98942Y720264D01*
X99017Y720182D01*
X99090Y720099D01*
X99160Y720013D01*
X99227Y719924D01*
X99290Y719833D01*
X99351Y719740D01*
X99408Y719645D01*
X99461Y719549D01*
X99512Y719450D01*
X99559Y719349D01*
X99602Y719247D01*
X99642Y719144D01*
X99678Y719039D01*
X99710Y718933D01*
X99739Y718826D01*
X99764Y718718D01*
X99785Y718609D01*
X99802Y718500D01*
X99816Y718390D01*
X99825Y718279D01*
X99831Y718169D01*
X99833Y718058D01*
X99831Y717947D01*
X99825Y717837D01*
X99816Y717726D01*
X99802Y717616D01*
X99785Y717507D01*
X99764Y717398D01*
X99739Y717290D01*
X99710Y717183D01*
X99678Y717077D01*
X99642Y716972D01*
X99602Y716869D01*
X99559Y716767D01*
X99512Y716666D01*
X99461Y716567D01*
X99408Y716471D01*
X99351Y716376D01*
X99290Y716283D01*
X99227Y716192D01*
X99160Y716103D01*
X99090Y716017D01*
X99017Y715934D01*
X98942Y715852D01*
X98864Y715774D01*
X98782Y715699D01*
X98699Y715626D01*
X98613Y715556D01*
X98524Y715489D01*
X98433Y715426D01*
X98340Y715365D01*
X98245Y715308D01*
X98149Y715255D01*
X98050Y715204D01*
X97949Y715157D01*
X97847Y715114D01*
X97744Y715074D01*
X97639Y715038D01*
X97533Y715006D01*
X97426Y714977D01*
X97318Y714952D01*
X97209Y714931D01*
X97100Y714914D01*
X96990Y714900D01*
X96879Y714891D01*
X96769Y714885D01*
X96658Y714883D01*
X93483Y714883D01*
X104342Y718693D02*
X107517Y721233D01*
X107517Y709803D01*
X104342Y709803D02*
X110692Y709803D01*
X115772Y709803D02*
X118947Y709803D01*
X119058Y709805D01*
X119168Y709811D01*
X119279Y709820D01*
X119389Y709834D01*
X119498Y709851D01*
X119607Y709872D01*
X119715Y709897D01*
X119822Y709926D01*
X119928Y709958D01*
X120033Y709994D01*
X120136Y710034D01*
X120238Y710077D01*
X120339Y710124D01*
X120438Y710175D01*
X120534Y710228D01*
X120629Y710285D01*
X120722Y710346D01*
X120813Y710409D01*
X120902Y710476D01*
X120988Y710546D01*
X121071Y710619D01*
X121153Y710694D01*
X121231Y710772D01*
X121306Y710854D01*
X121379Y710937D01*
X121449Y711023D01*
X121516Y711112D01*
X121579Y711203D01*
X121640Y711296D01*
X121697Y711391D01*
X121750Y711487D01*
X121801Y711586D01*
X121848Y711687D01*
X121891Y711789D01*
X121931Y711892D01*
X121967Y711997D01*
X121999Y712103D01*
X122028Y712210D01*
X122053Y712318D01*
X122074Y712427D01*
X122091Y712536D01*
X122105Y712646D01*
X122114Y712757D01*
X122120Y712867D01*
X122122Y712978D01*
X122120Y713089D01*
X122114Y713199D01*
X122105Y713310D01*
X122091Y713420D01*
X122074Y713529D01*
X122053Y713638D01*
X122028Y713746D01*
X121999Y713853D01*
X121967Y713959D01*
X121931Y714064D01*
X121891Y714167D01*
X121848Y714269D01*
X121801Y714370D01*
X121750Y714469D01*
X121697Y714565D01*
X121640Y714660D01*
X121579Y714753D01*
X121516Y714844D01*
X121449Y714933D01*
X121379Y715019D01*
X121306Y715102D01*
X121231Y715184D01*
X121153Y715262D01*
X121071Y715337D01*
X120988Y715410D01*
X120902Y715480D01*
X120813Y715547D01*
X120722Y715610D01*
X120629Y715671D01*
X120535Y715728D01*
X120438Y715781D01*
X120339Y715832D01*
X120238Y715879D01*
X120136Y715922D01*
X120033Y715962D01*
X119928Y715998D01*
X119822Y716030D01*
X119715Y716059D01*
X119607Y716084D01*
X119498Y716105D01*
X119389Y716122D01*
X119279Y716136D01*
X119168Y716145D01*
X119058Y716151D01*
X118947Y716153D01*
X119582Y721233D02*
X115772Y721233D01*
X119582Y721233D02*
X119682Y721231D01*
X119781Y721225D01*
X119881Y721215D01*
X119979Y721202D01*
X120078Y721184D01*
X120175Y721163D01*
X120271Y721138D01*
X120367Y721109D01*
X120461Y721076D01*
X120554Y721040D01*
X120645Y721000D01*
X120735Y720956D01*
X120823Y720909D01*
X120909Y720859D01*
X120993Y720805D01*
X121075Y720748D01*
X121154Y720688D01*
X121232Y720624D01*
X121306Y720558D01*
X121378Y720489D01*
X121447Y720417D01*
X121513Y720343D01*
X121577Y720265D01*
X121637Y720186D01*
X121694Y720104D01*
X121748Y720020D01*
X121798Y719934D01*
X121845Y719846D01*
X121889Y719756D01*
X121929Y719665D01*
X121965Y719572D01*
X121998Y719478D01*
X122027Y719382D01*
X122052Y719286D01*
X122073Y719189D01*
X122091Y719090D01*
X122104Y718992D01*
X122114Y718892D01*
X122120Y718793D01*
X122122Y718693D01*
X122120Y718593D01*
X122114Y718494D01*
X122104Y718394D01*
X122091Y718296D01*
X122073Y718197D01*
X122052Y718100D01*
X122027Y718004D01*
X121998Y717908D01*
X121965Y717814D01*
X121929Y717721D01*
X121889Y717630D01*
X121845Y717540D01*
X121798Y717452D01*
X121748Y717366D01*
X121694Y717282D01*
X121637Y717200D01*
X121577Y717121D01*
X121513Y717043D01*
X121447Y716969D01*
X121378Y716897D01*
X121306Y716828D01*
X121232Y716762D01*
X121154Y716698D01*
X121075Y716638D01*
X120993Y716581D01*
X120909Y716527D01*
X120823Y716477D01*
X120735Y716430D01*
X120645Y716386D01*
X120554Y716346D01*
X120461Y716310D01*
X120367Y716277D01*
X120271Y716248D01*
X120175Y716223D01*
X120078Y716202D01*
X119979Y716184D01*
X119881Y716171D01*
X119781Y716161D01*
X119682Y716155D01*
X119582Y716153D01*
X117042Y716153D01*
D10*
X105410Y511810D02*
X92710Y511810D01*
X105410Y511810D02*
X111760Y505460D01*
X111760Y492760D01*
X105410Y486410D01*
X86360Y492760D02*
X86360Y505460D01*
X92710Y511810D01*
X86360Y492760D02*
X92710Y486410D01*
X105410Y486410D01*
X111760Y505460D02*
X118110Y511810D01*
X130810Y511810D01*
X137160Y505460D01*
X137160Y492760D01*
X130810Y486410D01*
X118110Y486410D01*
X111760Y492760D01*
D11*
X90043Y520573D02*
X90043Y529463D01*
X90043Y520573D02*
X90041Y520473D01*
X90035Y520374D01*
X90025Y520274D01*
X90012Y520176D01*
X89994Y520077D01*
X89973Y519980D01*
X89948Y519884D01*
X89919Y519788D01*
X89886Y519694D01*
X89850Y519601D01*
X89810Y519510D01*
X89766Y519420D01*
X89719Y519332D01*
X89669Y519246D01*
X89615Y519162D01*
X89558Y519080D01*
X89498Y519001D01*
X89434Y518923D01*
X89368Y518849D01*
X89299Y518777D01*
X89227Y518708D01*
X89153Y518642D01*
X89075Y518578D01*
X88996Y518518D01*
X88914Y518461D01*
X88830Y518407D01*
X88744Y518357D01*
X88656Y518310D01*
X88566Y518266D01*
X88475Y518226D01*
X88382Y518190D01*
X88288Y518157D01*
X88192Y518128D01*
X88096Y518103D01*
X87999Y518082D01*
X87900Y518064D01*
X87802Y518051D01*
X87702Y518041D01*
X87603Y518035D01*
X87503Y518033D01*
X86233Y518033D01*
X96023Y518033D02*
X96023Y529463D01*
X99198Y529463D01*
X99309Y529461D01*
X99419Y529455D01*
X99530Y529446D01*
X99640Y529432D01*
X99749Y529415D01*
X99858Y529394D01*
X99966Y529369D01*
X100073Y529340D01*
X100179Y529308D01*
X100284Y529272D01*
X100387Y529232D01*
X100489Y529189D01*
X100590Y529142D01*
X100689Y529091D01*
X100786Y529038D01*
X100880Y528981D01*
X100973Y528920D01*
X101064Y528857D01*
X101153Y528790D01*
X101239Y528720D01*
X101322Y528647D01*
X101404Y528572D01*
X101482Y528494D01*
X101557Y528412D01*
X101630Y528329D01*
X101700Y528243D01*
X101767Y528154D01*
X101830Y528063D01*
X101891Y527970D01*
X101948Y527875D01*
X102001Y527779D01*
X102052Y527680D01*
X102099Y527579D01*
X102142Y527477D01*
X102182Y527374D01*
X102218Y527269D01*
X102250Y527163D01*
X102279Y527056D01*
X102304Y526948D01*
X102325Y526839D01*
X102342Y526730D01*
X102356Y526620D01*
X102365Y526509D01*
X102371Y526399D01*
X102373Y526288D01*
X102371Y526177D01*
X102365Y526067D01*
X102356Y525956D01*
X102342Y525846D01*
X102325Y525737D01*
X102304Y525628D01*
X102279Y525520D01*
X102250Y525413D01*
X102218Y525307D01*
X102182Y525202D01*
X102142Y525099D01*
X102099Y524997D01*
X102052Y524896D01*
X102001Y524797D01*
X101948Y524701D01*
X101891Y524606D01*
X101830Y524513D01*
X101767Y524422D01*
X101700Y524333D01*
X101630Y524247D01*
X101557Y524164D01*
X101482Y524082D01*
X101404Y524004D01*
X101322Y523929D01*
X101239Y523856D01*
X101153Y523786D01*
X101064Y523719D01*
X100973Y523656D01*
X100880Y523595D01*
X100785Y523538D01*
X100689Y523485D01*
X100590Y523434D01*
X100489Y523387D01*
X100387Y523344D01*
X100284Y523304D01*
X100179Y523268D01*
X100073Y523236D01*
X99966Y523207D01*
X99858Y523182D01*
X99749Y523161D01*
X99640Y523144D01*
X99530Y523130D01*
X99419Y523121D01*
X99309Y523115D01*
X99198Y523113D01*
X96023Y523113D01*
X106882Y526923D02*
X110057Y529463D01*
X110057Y518033D01*
X106882Y518033D02*
X113232Y518033D01*
X118312Y520573D02*
X120852Y529463D01*
X118312Y520573D02*
X124662Y520573D01*
X122757Y523113D02*
X122757Y518033D01*
D10*
X104140Y321310D02*
X91440Y321310D01*
X104140Y321310D02*
X110490Y314960D01*
X110490Y302260D01*
X104140Y295910D01*
X85090Y302260D02*
X85090Y314960D01*
X91440Y321310D01*
X85090Y302260D02*
X91440Y295910D01*
X104140Y295910D01*
X110490Y314960D02*
X116840Y321310D01*
X129540Y321310D01*
X135890Y314960D01*
X135890Y302260D01*
X129540Y295910D01*
X116840Y295910D01*
X110490Y302260D01*
D11*
X88773Y330073D02*
X88773Y338963D01*
X88773Y330073D02*
X88771Y329973D01*
X88765Y329874D01*
X88755Y329774D01*
X88742Y329676D01*
X88724Y329577D01*
X88703Y329480D01*
X88678Y329384D01*
X88649Y329288D01*
X88616Y329194D01*
X88580Y329101D01*
X88540Y329010D01*
X88496Y328920D01*
X88449Y328832D01*
X88399Y328746D01*
X88345Y328662D01*
X88288Y328580D01*
X88228Y328501D01*
X88164Y328423D01*
X88098Y328349D01*
X88029Y328277D01*
X87957Y328208D01*
X87883Y328142D01*
X87805Y328078D01*
X87726Y328018D01*
X87644Y327961D01*
X87560Y327907D01*
X87474Y327857D01*
X87386Y327810D01*
X87296Y327766D01*
X87205Y327726D01*
X87112Y327690D01*
X87018Y327657D01*
X86922Y327628D01*
X86826Y327603D01*
X86729Y327582D01*
X86630Y327564D01*
X86532Y327551D01*
X86432Y327541D01*
X86333Y327535D01*
X86233Y327533D01*
X84963Y327533D01*
X94753Y327533D02*
X94753Y338963D01*
X97928Y338963D01*
X98039Y338961D01*
X98149Y338955D01*
X98260Y338946D01*
X98370Y338932D01*
X98479Y338915D01*
X98588Y338894D01*
X98696Y338869D01*
X98803Y338840D01*
X98909Y338808D01*
X99014Y338772D01*
X99117Y338732D01*
X99219Y338689D01*
X99320Y338642D01*
X99419Y338591D01*
X99516Y338538D01*
X99610Y338481D01*
X99703Y338420D01*
X99794Y338357D01*
X99883Y338290D01*
X99969Y338220D01*
X100052Y338147D01*
X100134Y338072D01*
X100212Y337994D01*
X100287Y337912D01*
X100360Y337829D01*
X100430Y337743D01*
X100497Y337654D01*
X100560Y337563D01*
X100621Y337470D01*
X100678Y337375D01*
X100731Y337279D01*
X100782Y337180D01*
X100829Y337079D01*
X100872Y336977D01*
X100912Y336874D01*
X100948Y336769D01*
X100980Y336663D01*
X101009Y336556D01*
X101034Y336448D01*
X101055Y336339D01*
X101072Y336230D01*
X101086Y336120D01*
X101095Y336009D01*
X101101Y335899D01*
X101103Y335788D01*
X101101Y335677D01*
X101095Y335567D01*
X101086Y335456D01*
X101072Y335346D01*
X101055Y335237D01*
X101034Y335128D01*
X101009Y335020D01*
X100980Y334913D01*
X100948Y334807D01*
X100912Y334702D01*
X100872Y334599D01*
X100829Y334497D01*
X100782Y334396D01*
X100731Y334297D01*
X100678Y334200D01*
X100621Y334106D01*
X100560Y334013D01*
X100497Y333922D01*
X100430Y333833D01*
X100360Y333747D01*
X100287Y333664D01*
X100212Y333582D01*
X100134Y333504D01*
X100052Y333429D01*
X99969Y333356D01*
X99883Y333286D01*
X99794Y333219D01*
X99703Y333156D01*
X99610Y333095D01*
X99515Y333038D01*
X99419Y332985D01*
X99320Y332934D01*
X99219Y332887D01*
X99117Y332844D01*
X99014Y332804D01*
X98909Y332768D01*
X98803Y332736D01*
X98696Y332707D01*
X98588Y332682D01*
X98479Y332661D01*
X98370Y332644D01*
X98260Y332630D01*
X98149Y332621D01*
X98039Y332615D01*
X97928Y332613D01*
X94753Y332613D01*
X105612Y336423D02*
X108787Y338963D01*
X108787Y327533D01*
X105612Y327533D02*
X111962Y327533D01*
X117042Y330708D02*
X117044Y330819D01*
X117050Y330929D01*
X117059Y331040D01*
X117073Y331150D01*
X117090Y331259D01*
X117111Y331368D01*
X117136Y331476D01*
X117165Y331583D01*
X117197Y331689D01*
X117233Y331794D01*
X117273Y331897D01*
X117316Y331999D01*
X117363Y332100D01*
X117414Y332199D01*
X117467Y332296D01*
X117524Y332390D01*
X117585Y332483D01*
X117648Y332574D01*
X117715Y332663D01*
X117785Y332749D01*
X117858Y332832D01*
X117933Y332914D01*
X118011Y332992D01*
X118093Y333067D01*
X118176Y333140D01*
X118262Y333210D01*
X118351Y333277D01*
X118442Y333340D01*
X118535Y333401D01*
X118630Y333458D01*
X118726Y333511D01*
X118825Y333562D01*
X118926Y333609D01*
X119028Y333652D01*
X119131Y333692D01*
X119236Y333728D01*
X119342Y333760D01*
X119449Y333789D01*
X119557Y333814D01*
X119666Y333835D01*
X119775Y333852D01*
X119885Y333866D01*
X119996Y333875D01*
X120106Y333881D01*
X120217Y333883D01*
X120328Y333881D01*
X120438Y333875D01*
X120549Y333866D01*
X120659Y333852D01*
X120768Y333835D01*
X120877Y333814D01*
X120985Y333789D01*
X121092Y333760D01*
X121198Y333728D01*
X121303Y333692D01*
X121406Y333652D01*
X121508Y333609D01*
X121609Y333562D01*
X121708Y333511D01*
X121805Y333458D01*
X121899Y333401D01*
X121992Y333340D01*
X122083Y333277D01*
X122172Y333210D01*
X122258Y333140D01*
X122341Y333067D01*
X122423Y332992D01*
X122501Y332914D01*
X122576Y332832D01*
X122649Y332749D01*
X122719Y332663D01*
X122786Y332574D01*
X122849Y332483D01*
X122910Y332390D01*
X122967Y332296D01*
X123020Y332199D01*
X123071Y332100D01*
X123118Y331999D01*
X123161Y331897D01*
X123201Y331794D01*
X123237Y331689D01*
X123269Y331583D01*
X123298Y331476D01*
X123323Y331368D01*
X123344Y331259D01*
X123361Y331150D01*
X123375Y331040D01*
X123384Y330929D01*
X123390Y330819D01*
X123392Y330708D01*
X123390Y330597D01*
X123384Y330487D01*
X123375Y330376D01*
X123361Y330266D01*
X123344Y330157D01*
X123323Y330048D01*
X123298Y329940D01*
X123269Y329833D01*
X123237Y329727D01*
X123201Y329622D01*
X123161Y329519D01*
X123118Y329417D01*
X123071Y329316D01*
X123020Y329217D01*
X122967Y329120D01*
X122910Y329026D01*
X122849Y328933D01*
X122786Y328842D01*
X122719Y328753D01*
X122649Y328667D01*
X122576Y328584D01*
X122501Y328502D01*
X122423Y328424D01*
X122341Y328349D01*
X122258Y328276D01*
X122172Y328206D01*
X122083Y328139D01*
X121992Y328076D01*
X121899Y328015D01*
X121804Y327958D01*
X121708Y327905D01*
X121609Y327854D01*
X121508Y327807D01*
X121406Y327764D01*
X121303Y327724D01*
X121198Y327688D01*
X121092Y327656D01*
X120985Y327627D01*
X120877Y327602D01*
X120768Y327581D01*
X120659Y327564D01*
X120549Y327550D01*
X120438Y327541D01*
X120328Y327535D01*
X120217Y327533D01*
X120106Y327535D01*
X119996Y327541D01*
X119885Y327550D01*
X119775Y327564D01*
X119666Y327581D01*
X119557Y327602D01*
X119449Y327627D01*
X119342Y327656D01*
X119236Y327688D01*
X119131Y327724D01*
X119028Y327764D01*
X118926Y327807D01*
X118825Y327854D01*
X118726Y327905D01*
X118630Y327958D01*
X118535Y328015D01*
X118442Y328076D01*
X118351Y328139D01*
X118262Y328206D01*
X118176Y328276D01*
X118093Y328349D01*
X118011Y328424D01*
X117933Y328502D01*
X117858Y328584D01*
X117785Y328667D01*
X117715Y328753D01*
X117648Y328842D01*
X117585Y328933D01*
X117524Y329026D01*
X117467Y329121D01*
X117414Y329217D01*
X117363Y329316D01*
X117316Y329417D01*
X117273Y329519D01*
X117233Y329622D01*
X117197Y329727D01*
X117165Y329833D01*
X117136Y329940D01*
X117111Y330048D01*
X117090Y330157D01*
X117073Y330266D01*
X117059Y330376D01*
X117050Y330487D01*
X117044Y330597D01*
X117042Y330708D01*
X117677Y336423D02*
X117679Y336523D01*
X117685Y336622D01*
X117695Y336722D01*
X117708Y336820D01*
X117726Y336919D01*
X117747Y337016D01*
X117772Y337112D01*
X117801Y337208D01*
X117834Y337302D01*
X117870Y337395D01*
X117910Y337486D01*
X117954Y337576D01*
X118001Y337664D01*
X118051Y337750D01*
X118105Y337834D01*
X118162Y337916D01*
X118222Y337995D01*
X118286Y338073D01*
X118352Y338147D01*
X118421Y338219D01*
X118493Y338288D01*
X118567Y338354D01*
X118645Y338418D01*
X118724Y338478D01*
X118806Y338535D01*
X118890Y338589D01*
X118976Y338639D01*
X119064Y338686D01*
X119154Y338730D01*
X119245Y338770D01*
X119338Y338806D01*
X119432Y338839D01*
X119528Y338868D01*
X119624Y338893D01*
X119721Y338914D01*
X119820Y338932D01*
X119918Y338945D01*
X120018Y338955D01*
X120117Y338961D01*
X120217Y338963D01*
X120317Y338961D01*
X120416Y338955D01*
X120516Y338945D01*
X120614Y338932D01*
X120713Y338914D01*
X120810Y338893D01*
X120906Y338868D01*
X121002Y338839D01*
X121096Y338806D01*
X121189Y338770D01*
X121280Y338730D01*
X121370Y338686D01*
X121458Y338639D01*
X121544Y338589D01*
X121628Y338535D01*
X121710Y338478D01*
X121789Y338418D01*
X121867Y338354D01*
X121941Y338288D01*
X122013Y338219D01*
X122082Y338147D01*
X122148Y338073D01*
X122212Y337995D01*
X122272Y337916D01*
X122329Y337834D01*
X122383Y337750D01*
X122433Y337664D01*
X122480Y337576D01*
X122524Y337486D01*
X122564Y337395D01*
X122600Y337302D01*
X122633Y337208D01*
X122662Y337112D01*
X122687Y337016D01*
X122708Y336919D01*
X122726Y336820D01*
X122739Y336722D01*
X122749Y336622D01*
X122755Y336523D01*
X122757Y336423D01*
X122755Y336323D01*
X122749Y336224D01*
X122739Y336124D01*
X122726Y336026D01*
X122708Y335927D01*
X122687Y335830D01*
X122662Y335734D01*
X122633Y335638D01*
X122600Y335544D01*
X122564Y335451D01*
X122524Y335360D01*
X122480Y335270D01*
X122433Y335182D01*
X122383Y335096D01*
X122329Y335012D01*
X122272Y334930D01*
X122212Y334851D01*
X122148Y334773D01*
X122082Y334699D01*
X122013Y334627D01*
X121941Y334558D01*
X121867Y334492D01*
X121789Y334428D01*
X121710Y334368D01*
X121628Y334311D01*
X121544Y334257D01*
X121458Y334207D01*
X121370Y334160D01*
X121280Y334116D01*
X121189Y334076D01*
X121096Y334040D01*
X121002Y334007D01*
X120906Y333978D01*
X120810Y333953D01*
X120713Y333932D01*
X120614Y333914D01*
X120516Y333901D01*
X120416Y333891D01*
X120317Y333885D01*
X120217Y333883D01*
X120117Y333885D01*
X120018Y333891D01*
X119918Y333901D01*
X119820Y333914D01*
X119721Y333932D01*
X119624Y333953D01*
X119528Y333978D01*
X119432Y334007D01*
X119338Y334040D01*
X119245Y334076D01*
X119154Y334116D01*
X119064Y334160D01*
X118976Y334207D01*
X118890Y334257D01*
X118806Y334311D01*
X118724Y334368D01*
X118645Y334428D01*
X118567Y334492D01*
X118493Y334558D01*
X118421Y334627D01*
X118352Y334699D01*
X118286Y334773D01*
X118222Y334851D01*
X118162Y334930D01*
X118105Y335012D01*
X118051Y335096D01*
X118001Y335182D01*
X117954Y335270D01*
X117910Y335360D01*
X117870Y335451D01*
X117834Y335544D01*
X117801Y335638D01*
X117772Y335734D01*
X117747Y335830D01*
X117726Y335927D01*
X117708Y336026D01*
X117695Y336124D01*
X117685Y336224D01*
X117679Y336323D01*
X117677Y336423D01*
D10*
X102870Y129540D02*
X90170Y129540D01*
X102870Y129540D02*
X109220Y123190D01*
X109220Y110490D01*
X102870Y104140D01*
X83820Y110490D02*
X83820Y123190D01*
X90170Y129540D01*
X83820Y110490D02*
X90170Y104140D01*
X102870Y104140D01*
X109220Y123190D02*
X115570Y129540D01*
X128270Y129540D01*
X134620Y123190D01*
X134620Y110490D01*
X128270Y104140D01*
X115570Y104140D01*
X109220Y110490D01*
D11*
X87503Y138303D02*
X87503Y147193D01*
X87503Y138303D02*
X87501Y138203D01*
X87495Y138104D01*
X87485Y138004D01*
X87472Y137906D01*
X87454Y137807D01*
X87433Y137710D01*
X87408Y137614D01*
X87379Y137518D01*
X87346Y137424D01*
X87310Y137331D01*
X87270Y137240D01*
X87226Y137150D01*
X87179Y137062D01*
X87129Y136976D01*
X87075Y136892D01*
X87018Y136810D01*
X86958Y136731D01*
X86894Y136653D01*
X86828Y136579D01*
X86759Y136507D01*
X86687Y136438D01*
X86613Y136372D01*
X86535Y136308D01*
X86456Y136248D01*
X86374Y136191D01*
X86290Y136137D01*
X86204Y136087D01*
X86116Y136040D01*
X86026Y135996D01*
X85935Y135956D01*
X85842Y135920D01*
X85748Y135887D01*
X85652Y135858D01*
X85556Y135833D01*
X85459Y135812D01*
X85360Y135794D01*
X85262Y135781D01*
X85162Y135771D01*
X85063Y135765D01*
X84963Y135763D01*
X83693Y135763D01*
X93483Y135763D02*
X93483Y147193D01*
X96658Y147193D01*
X96769Y147191D01*
X96879Y147185D01*
X96990Y147176D01*
X97100Y147162D01*
X97209Y147145D01*
X97318Y147124D01*
X97426Y147099D01*
X97533Y147070D01*
X97639Y147038D01*
X97744Y147002D01*
X97847Y146962D01*
X97949Y146919D01*
X98050Y146872D01*
X98149Y146821D01*
X98246Y146768D01*
X98340Y146711D01*
X98433Y146650D01*
X98524Y146587D01*
X98613Y146520D01*
X98699Y146450D01*
X98782Y146377D01*
X98864Y146302D01*
X98942Y146224D01*
X99017Y146142D01*
X99090Y146059D01*
X99160Y145973D01*
X99227Y145884D01*
X99290Y145793D01*
X99351Y145700D01*
X99408Y145605D01*
X99461Y145509D01*
X99512Y145410D01*
X99559Y145309D01*
X99602Y145207D01*
X99642Y145104D01*
X99678Y144999D01*
X99710Y144893D01*
X99739Y144786D01*
X99764Y144678D01*
X99785Y144569D01*
X99802Y144460D01*
X99816Y144350D01*
X99825Y144239D01*
X99831Y144129D01*
X99833Y144018D01*
X99831Y143907D01*
X99825Y143797D01*
X99816Y143686D01*
X99802Y143576D01*
X99785Y143467D01*
X99764Y143358D01*
X99739Y143250D01*
X99710Y143143D01*
X99678Y143037D01*
X99642Y142932D01*
X99602Y142829D01*
X99559Y142727D01*
X99512Y142626D01*
X99461Y142527D01*
X99408Y142430D01*
X99351Y142336D01*
X99290Y142243D01*
X99227Y142152D01*
X99160Y142063D01*
X99090Y141977D01*
X99017Y141894D01*
X98942Y141812D01*
X98864Y141734D01*
X98782Y141659D01*
X98699Y141586D01*
X98613Y141516D01*
X98524Y141449D01*
X98433Y141386D01*
X98340Y141325D01*
X98245Y141268D01*
X98149Y141215D01*
X98050Y141164D01*
X97949Y141117D01*
X97847Y141074D01*
X97744Y141034D01*
X97639Y140998D01*
X97533Y140966D01*
X97426Y140937D01*
X97318Y140912D01*
X97209Y140891D01*
X97100Y140874D01*
X96990Y140860D01*
X96879Y140851D01*
X96769Y140845D01*
X96658Y140843D01*
X93483Y140843D01*
X104342Y144653D02*
X107517Y147193D01*
X107517Y135763D01*
X104342Y135763D02*
X110692Y135763D01*
X118312Y140843D02*
X122122Y140843D01*
X118312Y140843D02*
X118212Y140845D01*
X118113Y140851D01*
X118013Y140861D01*
X117915Y140874D01*
X117816Y140892D01*
X117719Y140913D01*
X117623Y140938D01*
X117527Y140967D01*
X117433Y141000D01*
X117340Y141036D01*
X117249Y141076D01*
X117159Y141120D01*
X117071Y141167D01*
X116985Y141217D01*
X116901Y141271D01*
X116819Y141328D01*
X116740Y141388D01*
X116662Y141452D01*
X116588Y141518D01*
X116516Y141587D01*
X116447Y141659D01*
X116381Y141733D01*
X116317Y141811D01*
X116257Y141890D01*
X116200Y141972D01*
X116146Y142056D01*
X116096Y142142D01*
X116049Y142230D01*
X116005Y142320D01*
X115965Y142411D01*
X115929Y142504D01*
X115896Y142598D01*
X115867Y142694D01*
X115842Y142790D01*
X115821Y142887D01*
X115803Y142986D01*
X115790Y143084D01*
X115780Y143184D01*
X115774Y143283D01*
X115772Y143383D01*
X115772Y144018D01*
X115774Y144129D01*
X115780Y144239D01*
X115789Y144350D01*
X115803Y144460D01*
X115820Y144569D01*
X115841Y144678D01*
X115866Y144786D01*
X115895Y144893D01*
X115927Y144999D01*
X115963Y145104D01*
X116003Y145207D01*
X116046Y145309D01*
X116093Y145410D01*
X116144Y145509D01*
X116197Y145606D01*
X116254Y145700D01*
X116315Y145793D01*
X116378Y145884D01*
X116445Y145973D01*
X116515Y146059D01*
X116588Y146142D01*
X116663Y146224D01*
X116741Y146302D01*
X116823Y146377D01*
X116906Y146450D01*
X116992Y146520D01*
X117081Y146587D01*
X117172Y146650D01*
X117265Y146711D01*
X117360Y146768D01*
X117456Y146821D01*
X117555Y146872D01*
X117656Y146919D01*
X117758Y146962D01*
X117861Y147002D01*
X117966Y147038D01*
X118072Y147070D01*
X118179Y147099D01*
X118287Y147124D01*
X118396Y147145D01*
X118505Y147162D01*
X118615Y147176D01*
X118726Y147185D01*
X118836Y147191D01*
X118947Y147193D01*
X119058Y147191D01*
X119168Y147185D01*
X119279Y147176D01*
X119389Y147162D01*
X119498Y147145D01*
X119607Y147124D01*
X119715Y147099D01*
X119822Y147070D01*
X119928Y147038D01*
X120033Y147002D01*
X120136Y146962D01*
X120238Y146919D01*
X120339Y146872D01*
X120438Y146821D01*
X120535Y146768D01*
X120629Y146711D01*
X120722Y146650D01*
X120813Y146587D01*
X120902Y146520D01*
X120988Y146450D01*
X121071Y146377D01*
X121153Y146302D01*
X121231Y146224D01*
X121306Y146142D01*
X121379Y146059D01*
X121449Y145973D01*
X121516Y145884D01*
X121579Y145793D01*
X121640Y145700D01*
X121697Y145606D01*
X121750Y145509D01*
X121801Y145410D01*
X121848Y145309D01*
X121891Y145207D01*
X121931Y145104D01*
X121967Y144999D01*
X121999Y144893D01*
X122028Y144786D01*
X122053Y144678D01*
X122074Y144569D01*
X122091Y144460D01*
X122105Y144350D01*
X122114Y144239D01*
X122120Y144129D01*
X122122Y144018D01*
X122122Y140843D01*
X122120Y140703D01*
X122114Y140563D01*
X122105Y140423D01*
X122091Y140284D01*
X122074Y140145D01*
X122053Y140007D01*
X122028Y139869D01*
X121999Y139732D01*
X121967Y139596D01*
X121930Y139461D01*
X121890Y139327D01*
X121847Y139194D01*
X121799Y139062D01*
X121749Y138931D01*
X121694Y138802D01*
X121636Y138675D01*
X121575Y138549D01*
X121510Y138425D01*
X121441Y138303D01*
X121370Y138183D01*
X121295Y138065D01*
X121217Y137948D01*
X121135Y137834D01*
X121051Y137723D01*
X120963Y137614D01*
X120873Y137507D01*
X120779Y137402D01*
X120683Y137301D01*
X120584Y137202D01*
X120483Y137106D01*
X120378Y137012D01*
X120271Y136922D01*
X120162Y136834D01*
X120051Y136750D01*
X119937Y136668D01*
X119820Y136590D01*
X119702Y136515D01*
X119582Y136444D01*
X119460Y136375D01*
X119336Y136310D01*
X119210Y136249D01*
X119083Y136191D01*
X118954Y136136D01*
X118823Y136086D01*
X118691Y136038D01*
X118558Y135995D01*
X118424Y135955D01*
X118289Y135918D01*
X118153Y135886D01*
X118016Y135857D01*
X117878Y135832D01*
X117740Y135811D01*
X117601Y135794D01*
X117462Y135780D01*
X117322Y135771D01*
X117182Y135765D01*
X117042Y135763D01*
D10*
X763270Y699770D02*
X775970Y699770D01*
X782320Y693420D01*
X782320Y680720D01*
X775970Y674370D01*
X756920Y680720D02*
X756920Y693420D01*
X763270Y699770D01*
X756920Y680720D02*
X763270Y674370D01*
X775970Y674370D01*
X782320Y693420D02*
X788670Y699770D01*
X801370Y699770D01*
X807720Y693420D01*
X807720Y680720D01*
X801370Y674370D01*
X788670Y674370D01*
X782320Y680720D01*
D11*
X760603Y708533D02*
X760603Y717423D01*
X760603Y708533D02*
X760601Y708433D01*
X760595Y708334D01*
X760585Y708234D01*
X760572Y708136D01*
X760554Y708037D01*
X760533Y707940D01*
X760508Y707844D01*
X760479Y707748D01*
X760446Y707654D01*
X760410Y707561D01*
X760370Y707470D01*
X760326Y707380D01*
X760279Y707292D01*
X760229Y707206D01*
X760175Y707122D01*
X760118Y707040D01*
X760058Y706961D01*
X759994Y706883D01*
X759928Y706809D01*
X759859Y706737D01*
X759787Y706668D01*
X759713Y706602D01*
X759635Y706538D01*
X759556Y706478D01*
X759474Y706421D01*
X759390Y706367D01*
X759304Y706317D01*
X759216Y706270D01*
X759126Y706226D01*
X759035Y706186D01*
X758942Y706150D01*
X758848Y706117D01*
X758752Y706088D01*
X758656Y706063D01*
X758559Y706042D01*
X758460Y706024D01*
X758362Y706011D01*
X758262Y706001D01*
X758163Y705995D01*
X758063Y705993D01*
X756793Y705993D01*
X766583Y705993D02*
X766583Y717423D01*
X769758Y717423D01*
X769869Y717421D01*
X769979Y717415D01*
X770090Y717406D01*
X770200Y717392D01*
X770309Y717375D01*
X770418Y717354D01*
X770526Y717329D01*
X770633Y717300D01*
X770739Y717268D01*
X770844Y717232D01*
X770947Y717192D01*
X771049Y717149D01*
X771150Y717102D01*
X771249Y717051D01*
X771346Y716998D01*
X771440Y716941D01*
X771533Y716880D01*
X771624Y716817D01*
X771713Y716750D01*
X771799Y716680D01*
X771882Y716607D01*
X771964Y716532D01*
X772042Y716454D01*
X772117Y716372D01*
X772190Y716289D01*
X772260Y716203D01*
X772327Y716114D01*
X772390Y716023D01*
X772451Y715930D01*
X772508Y715835D01*
X772561Y715739D01*
X772612Y715640D01*
X772659Y715539D01*
X772702Y715437D01*
X772742Y715334D01*
X772778Y715229D01*
X772810Y715123D01*
X772839Y715016D01*
X772864Y714908D01*
X772885Y714799D01*
X772902Y714690D01*
X772916Y714580D01*
X772925Y714469D01*
X772931Y714359D01*
X772933Y714248D01*
X772931Y714137D01*
X772925Y714027D01*
X772916Y713916D01*
X772902Y713806D01*
X772885Y713697D01*
X772864Y713588D01*
X772839Y713480D01*
X772810Y713373D01*
X772778Y713267D01*
X772742Y713162D01*
X772702Y713059D01*
X772659Y712957D01*
X772612Y712856D01*
X772561Y712757D01*
X772508Y712661D01*
X772451Y712566D01*
X772390Y712473D01*
X772327Y712382D01*
X772260Y712293D01*
X772190Y712207D01*
X772117Y712124D01*
X772042Y712042D01*
X771964Y711964D01*
X771882Y711889D01*
X771799Y711816D01*
X771713Y711746D01*
X771624Y711679D01*
X771533Y711616D01*
X771440Y711555D01*
X771346Y711498D01*
X771249Y711445D01*
X771150Y711394D01*
X771049Y711347D01*
X770947Y711304D01*
X770844Y711264D01*
X770739Y711228D01*
X770633Y711196D01*
X770526Y711167D01*
X770418Y711142D01*
X770309Y711121D01*
X770200Y711104D01*
X770090Y711090D01*
X769979Y711081D01*
X769869Y711075D01*
X769758Y711073D01*
X766583Y711073D01*
X780934Y717424D02*
X781038Y717422D01*
X781143Y717416D01*
X781247Y717407D01*
X781350Y717394D01*
X781453Y717376D01*
X781555Y717356D01*
X781657Y717331D01*
X781757Y717303D01*
X781857Y717271D01*
X781955Y717235D01*
X782052Y717196D01*
X782147Y717154D01*
X782241Y717108D01*
X782333Y717058D01*
X782423Y717006D01*
X782511Y716950D01*
X782597Y716890D01*
X782681Y716828D01*
X782762Y716763D01*
X782841Y716695D01*
X782918Y716623D01*
X782991Y716550D01*
X783063Y716473D01*
X783131Y716394D01*
X783196Y716313D01*
X783258Y716229D01*
X783318Y716143D01*
X783374Y716055D01*
X783426Y715965D01*
X783476Y715873D01*
X783522Y715779D01*
X783564Y715684D01*
X783603Y715587D01*
X783639Y715489D01*
X783671Y715389D01*
X783699Y715289D01*
X783724Y715187D01*
X783744Y715085D01*
X783762Y714982D01*
X783775Y714879D01*
X783784Y714775D01*
X783790Y714670D01*
X783792Y714566D01*
X780934Y717423D02*
X780816Y717421D01*
X780697Y717415D01*
X780579Y717406D01*
X780462Y717393D01*
X780345Y717375D01*
X780228Y717355D01*
X780112Y717330D01*
X779997Y717302D01*
X779884Y717269D01*
X779771Y717234D01*
X779659Y717194D01*
X779549Y717152D01*
X779440Y717105D01*
X779332Y717055D01*
X779227Y717002D01*
X779123Y716945D01*
X779021Y716885D01*
X778921Y716822D01*
X778823Y716755D01*
X778727Y716686D01*
X778634Y716613D01*
X778543Y716537D01*
X778454Y716459D01*
X778368Y716377D01*
X778285Y716293D01*
X778204Y716207D01*
X778127Y716117D01*
X778052Y716026D01*
X777980Y715932D01*
X777911Y715835D01*
X777846Y715737D01*
X777783Y715636D01*
X777724Y715533D01*
X777668Y715429D01*
X777616Y715323D01*
X777567Y715215D01*
X777522Y715106D01*
X777480Y714995D01*
X777442Y714883D01*
X782840Y712344D02*
X782916Y712419D01*
X782991Y712498D01*
X783062Y712579D01*
X783131Y712663D01*
X783196Y712749D01*
X783258Y712837D01*
X783318Y712927D01*
X783374Y713019D01*
X783427Y713114D01*
X783476Y713210D01*
X783522Y713308D01*
X783565Y713407D01*
X783604Y713508D01*
X783639Y713610D01*
X783671Y713713D01*
X783699Y713817D01*
X783724Y713922D01*
X783745Y714029D01*
X783762Y714135D01*
X783775Y714242D01*
X783784Y714350D01*
X783790Y714458D01*
X783792Y714566D01*
X782839Y712343D02*
X777442Y705993D01*
X783792Y705993D01*
D10*
X777240Y889000D02*
X764540Y889000D01*
X777240Y889000D02*
X783590Y882650D01*
X783590Y869950D01*
X777240Y863600D01*
X758190Y869950D02*
X758190Y882650D01*
X764540Y889000D01*
X758190Y869950D02*
X764540Y863600D01*
X777240Y863600D01*
X783590Y882650D02*
X789940Y889000D01*
X802640Y889000D01*
X808990Y882650D01*
X808990Y869950D01*
X802640Y863600D01*
X789940Y863600D01*
X783590Y869950D01*
D11*
X761873Y897763D02*
X761873Y906653D01*
X761873Y897763D02*
X761871Y897663D01*
X761865Y897564D01*
X761855Y897464D01*
X761842Y897366D01*
X761824Y897267D01*
X761803Y897170D01*
X761778Y897074D01*
X761749Y896978D01*
X761716Y896884D01*
X761680Y896791D01*
X761640Y896700D01*
X761596Y896610D01*
X761549Y896522D01*
X761499Y896436D01*
X761445Y896352D01*
X761388Y896270D01*
X761328Y896191D01*
X761264Y896113D01*
X761198Y896039D01*
X761129Y895967D01*
X761057Y895898D01*
X760983Y895832D01*
X760905Y895768D01*
X760826Y895708D01*
X760744Y895651D01*
X760660Y895597D01*
X760574Y895547D01*
X760486Y895500D01*
X760396Y895456D01*
X760305Y895416D01*
X760212Y895380D01*
X760118Y895347D01*
X760022Y895318D01*
X759926Y895293D01*
X759829Y895272D01*
X759730Y895254D01*
X759632Y895241D01*
X759532Y895231D01*
X759433Y895225D01*
X759333Y895223D01*
X758063Y895223D01*
X767853Y895223D02*
X767853Y906653D01*
X771028Y906653D01*
X771139Y906651D01*
X771249Y906645D01*
X771360Y906636D01*
X771470Y906622D01*
X771579Y906605D01*
X771688Y906584D01*
X771796Y906559D01*
X771903Y906530D01*
X772009Y906498D01*
X772114Y906462D01*
X772217Y906422D01*
X772319Y906379D01*
X772420Y906332D01*
X772519Y906281D01*
X772616Y906228D01*
X772710Y906171D01*
X772803Y906110D01*
X772894Y906047D01*
X772983Y905980D01*
X773069Y905910D01*
X773152Y905837D01*
X773234Y905762D01*
X773312Y905684D01*
X773387Y905602D01*
X773460Y905519D01*
X773530Y905433D01*
X773597Y905344D01*
X773660Y905253D01*
X773721Y905160D01*
X773778Y905065D01*
X773831Y904969D01*
X773882Y904870D01*
X773929Y904769D01*
X773972Y904667D01*
X774012Y904564D01*
X774048Y904459D01*
X774080Y904353D01*
X774109Y904246D01*
X774134Y904138D01*
X774155Y904029D01*
X774172Y903920D01*
X774186Y903810D01*
X774195Y903699D01*
X774201Y903589D01*
X774203Y903478D01*
X774201Y903367D01*
X774195Y903257D01*
X774186Y903146D01*
X774172Y903036D01*
X774155Y902927D01*
X774134Y902818D01*
X774109Y902710D01*
X774080Y902603D01*
X774048Y902497D01*
X774012Y902392D01*
X773972Y902289D01*
X773929Y902187D01*
X773882Y902086D01*
X773831Y901987D01*
X773778Y901891D01*
X773721Y901796D01*
X773660Y901703D01*
X773597Y901612D01*
X773530Y901523D01*
X773460Y901437D01*
X773387Y901354D01*
X773312Y901272D01*
X773234Y901194D01*
X773152Y901119D01*
X773069Y901046D01*
X772983Y900976D01*
X772894Y900909D01*
X772803Y900846D01*
X772710Y900785D01*
X772616Y900728D01*
X772519Y900675D01*
X772420Y900624D01*
X772319Y900577D01*
X772217Y900534D01*
X772114Y900494D01*
X772009Y900458D01*
X771903Y900426D01*
X771796Y900397D01*
X771688Y900372D01*
X771579Y900351D01*
X771470Y900334D01*
X771360Y900320D01*
X771249Y900311D01*
X771139Y900305D01*
X771028Y900303D01*
X767853Y900303D01*
X778712Y895223D02*
X781887Y895223D01*
X781998Y895225D01*
X782108Y895231D01*
X782219Y895240D01*
X782329Y895254D01*
X782438Y895271D01*
X782547Y895292D01*
X782655Y895317D01*
X782762Y895346D01*
X782868Y895378D01*
X782973Y895414D01*
X783076Y895454D01*
X783178Y895497D01*
X783279Y895544D01*
X783378Y895595D01*
X783475Y895648D01*
X783569Y895705D01*
X783662Y895766D01*
X783753Y895829D01*
X783842Y895896D01*
X783928Y895966D01*
X784011Y896039D01*
X784093Y896114D01*
X784171Y896192D01*
X784246Y896274D01*
X784319Y896357D01*
X784389Y896443D01*
X784456Y896532D01*
X784519Y896623D01*
X784580Y896716D01*
X784637Y896811D01*
X784690Y896907D01*
X784741Y897006D01*
X784788Y897107D01*
X784831Y897209D01*
X784871Y897312D01*
X784907Y897417D01*
X784939Y897523D01*
X784968Y897630D01*
X784993Y897738D01*
X785014Y897847D01*
X785031Y897956D01*
X785045Y898066D01*
X785054Y898177D01*
X785060Y898287D01*
X785062Y898398D01*
X785060Y898509D01*
X785054Y898619D01*
X785045Y898730D01*
X785031Y898840D01*
X785014Y898949D01*
X784993Y899058D01*
X784968Y899166D01*
X784939Y899273D01*
X784907Y899379D01*
X784871Y899484D01*
X784831Y899587D01*
X784788Y899689D01*
X784741Y899790D01*
X784690Y899889D01*
X784637Y899985D01*
X784580Y900080D01*
X784519Y900173D01*
X784456Y900264D01*
X784389Y900353D01*
X784319Y900439D01*
X784246Y900522D01*
X784171Y900604D01*
X784093Y900682D01*
X784011Y900757D01*
X783928Y900830D01*
X783842Y900900D01*
X783753Y900967D01*
X783662Y901030D01*
X783569Y901091D01*
X783475Y901148D01*
X783378Y901201D01*
X783279Y901252D01*
X783178Y901299D01*
X783076Y901342D01*
X782973Y901382D01*
X782868Y901418D01*
X782762Y901450D01*
X782655Y901479D01*
X782547Y901504D01*
X782438Y901525D01*
X782329Y901542D01*
X782219Y901556D01*
X782108Y901565D01*
X781998Y901571D01*
X781887Y901573D01*
X782522Y906653D02*
X778712Y906653D01*
X782522Y906653D02*
X782622Y906651D01*
X782721Y906645D01*
X782821Y906635D01*
X782919Y906622D01*
X783018Y906604D01*
X783115Y906583D01*
X783211Y906558D01*
X783307Y906529D01*
X783401Y906496D01*
X783494Y906460D01*
X783585Y906420D01*
X783675Y906376D01*
X783763Y906329D01*
X783849Y906279D01*
X783933Y906225D01*
X784015Y906168D01*
X784094Y906108D01*
X784172Y906044D01*
X784246Y905978D01*
X784318Y905909D01*
X784387Y905837D01*
X784453Y905763D01*
X784517Y905685D01*
X784577Y905606D01*
X784634Y905524D01*
X784688Y905440D01*
X784738Y905354D01*
X784785Y905266D01*
X784829Y905176D01*
X784869Y905085D01*
X784905Y904992D01*
X784938Y904898D01*
X784967Y904802D01*
X784992Y904706D01*
X785013Y904609D01*
X785031Y904510D01*
X785044Y904412D01*
X785054Y904312D01*
X785060Y904213D01*
X785062Y904113D01*
X785060Y904013D01*
X785054Y903914D01*
X785044Y903814D01*
X785031Y903716D01*
X785013Y903617D01*
X784992Y903520D01*
X784967Y903424D01*
X784938Y903328D01*
X784905Y903234D01*
X784869Y903141D01*
X784829Y903050D01*
X784785Y902960D01*
X784738Y902872D01*
X784688Y902786D01*
X784634Y902702D01*
X784577Y902620D01*
X784517Y902541D01*
X784453Y902463D01*
X784387Y902389D01*
X784318Y902317D01*
X784246Y902248D01*
X784172Y902182D01*
X784094Y902118D01*
X784015Y902058D01*
X783933Y902001D01*
X783849Y901947D01*
X783763Y901897D01*
X783675Y901850D01*
X783585Y901806D01*
X783494Y901766D01*
X783401Y901730D01*
X783307Y901697D01*
X783211Y901668D01*
X783115Y901643D01*
X783018Y901622D01*
X782919Y901604D01*
X782821Y901591D01*
X782721Y901581D01*
X782622Y901575D01*
X782522Y901573D01*
X779982Y901573D01*
D10*
X777240Y130810D02*
X764540Y130810D01*
X777240Y130810D02*
X783590Y124460D01*
X783590Y111760D01*
X777240Y105410D01*
X758190Y111760D02*
X758190Y124460D01*
X764540Y130810D01*
X758190Y111760D02*
X764540Y105410D01*
X777240Y105410D01*
X783590Y124460D02*
X789940Y130810D01*
X802640Y130810D01*
X808990Y124460D01*
X808990Y111760D01*
X802640Y105410D01*
X789940Y105410D01*
X783590Y111760D01*
D11*
X761873Y139573D02*
X761873Y148463D01*
X761873Y139573D02*
X761871Y139473D01*
X761865Y139374D01*
X761855Y139274D01*
X761842Y139176D01*
X761824Y139077D01*
X761803Y138980D01*
X761778Y138884D01*
X761749Y138788D01*
X761716Y138694D01*
X761680Y138601D01*
X761640Y138510D01*
X761596Y138420D01*
X761549Y138332D01*
X761499Y138246D01*
X761445Y138162D01*
X761388Y138080D01*
X761328Y138001D01*
X761264Y137923D01*
X761198Y137849D01*
X761129Y137777D01*
X761057Y137708D01*
X760983Y137642D01*
X760905Y137578D01*
X760826Y137518D01*
X760744Y137461D01*
X760660Y137407D01*
X760574Y137357D01*
X760486Y137310D01*
X760396Y137266D01*
X760305Y137226D01*
X760212Y137190D01*
X760118Y137157D01*
X760022Y137128D01*
X759926Y137103D01*
X759829Y137082D01*
X759730Y137064D01*
X759632Y137051D01*
X759532Y137041D01*
X759433Y137035D01*
X759333Y137033D01*
X758063Y137033D01*
X767853Y137033D02*
X767853Y148463D01*
X771028Y148463D01*
X771139Y148461D01*
X771249Y148455D01*
X771360Y148446D01*
X771470Y148432D01*
X771579Y148415D01*
X771688Y148394D01*
X771796Y148369D01*
X771903Y148340D01*
X772009Y148308D01*
X772114Y148272D01*
X772217Y148232D01*
X772319Y148189D01*
X772420Y148142D01*
X772519Y148091D01*
X772616Y148038D01*
X772710Y147981D01*
X772803Y147920D01*
X772894Y147857D01*
X772983Y147790D01*
X773069Y147720D01*
X773152Y147647D01*
X773234Y147572D01*
X773312Y147494D01*
X773387Y147412D01*
X773460Y147329D01*
X773530Y147243D01*
X773597Y147154D01*
X773660Y147063D01*
X773721Y146970D01*
X773778Y146875D01*
X773831Y146779D01*
X773882Y146680D01*
X773929Y146579D01*
X773972Y146477D01*
X774012Y146374D01*
X774048Y146269D01*
X774080Y146163D01*
X774109Y146056D01*
X774134Y145948D01*
X774155Y145839D01*
X774172Y145730D01*
X774186Y145620D01*
X774195Y145509D01*
X774201Y145399D01*
X774203Y145288D01*
X774201Y145177D01*
X774195Y145067D01*
X774186Y144956D01*
X774172Y144846D01*
X774155Y144737D01*
X774134Y144628D01*
X774109Y144520D01*
X774080Y144413D01*
X774048Y144307D01*
X774012Y144202D01*
X773972Y144099D01*
X773929Y143997D01*
X773882Y143896D01*
X773831Y143797D01*
X773778Y143700D01*
X773721Y143606D01*
X773660Y143513D01*
X773597Y143422D01*
X773530Y143333D01*
X773460Y143247D01*
X773387Y143164D01*
X773312Y143082D01*
X773234Y143004D01*
X773152Y142929D01*
X773069Y142856D01*
X772983Y142786D01*
X772894Y142719D01*
X772803Y142656D01*
X772710Y142595D01*
X772616Y142538D01*
X772519Y142485D01*
X772420Y142434D01*
X772319Y142387D01*
X772217Y142344D01*
X772114Y142304D01*
X772009Y142268D01*
X771903Y142236D01*
X771796Y142207D01*
X771688Y142182D01*
X771579Y142161D01*
X771470Y142144D01*
X771360Y142130D01*
X771249Y142121D01*
X771139Y142115D01*
X771028Y142113D01*
X767853Y142113D01*
X778712Y139573D02*
X781252Y148463D01*
X778712Y139573D02*
X785062Y139573D01*
X783157Y142113D02*
X783157Y137033D01*
D10*
X775970Y318770D02*
X763270Y318770D01*
X775970Y318770D02*
X782320Y312420D01*
X782320Y299720D01*
X775970Y293370D01*
X756920Y299720D02*
X756920Y312420D01*
X763270Y318770D01*
X756920Y299720D02*
X763270Y293370D01*
X775970Y293370D01*
X782320Y312420D02*
X788670Y318770D01*
X801370Y318770D01*
X807720Y312420D01*
X807720Y299720D01*
X801370Y293370D01*
X788670Y293370D01*
X782320Y299720D01*
D11*
X760603Y327533D02*
X760603Y336423D01*
X760603Y327533D02*
X760601Y327433D01*
X760595Y327334D01*
X760585Y327234D01*
X760572Y327136D01*
X760554Y327037D01*
X760533Y326940D01*
X760508Y326844D01*
X760479Y326748D01*
X760446Y326654D01*
X760410Y326561D01*
X760370Y326470D01*
X760326Y326380D01*
X760279Y326292D01*
X760229Y326206D01*
X760175Y326122D01*
X760118Y326040D01*
X760058Y325961D01*
X759994Y325883D01*
X759928Y325809D01*
X759859Y325737D01*
X759787Y325668D01*
X759713Y325602D01*
X759635Y325538D01*
X759556Y325478D01*
X759474Y325421D01*
X759390Y325367D01*
X759304Y325317D01*
X759216Y325270D01*
X759126Y325226D01*
X759035Y325186D01*
X758942Y325150D01*
X758848Y325117D01*
X758752Y325088D01*
X758656Y325063D01*
X758559Y325042D01*
X758460Y325024D01*
X758362Y325011D01*
X758262Y325001D01*
X758163Y324995D01*
X758063Y324993D01*
X756793Y324993D01*
X766583Y324993D02*
X766583Y336423D01*
X769758Y336423D01*
X769869Y336421D01*
X769979Y336415D01*
X770090Y336406D01*
X770200Y336392D01*
X770309Y336375D01*
X770418Y336354D01*
X770526Y336329D01*
X770633Y336300D01*
X770739Y336268D01*
X770844Y336232D01*
X770947Y336192D01*
X771049Y336149D01*
X771150Y336102D01*
X771249Y336051D01*
X771346Y335998D01*
X771440Y335941D01*
X771533Y335880D01*
X771624Y335817D01*
X771713Y335750D01*
X771799Y335680D01*
X771882Y335607D01*
X771964Y335532D01*
X772042Y335454D01*
X772117Y335372D01*
X772190Y335289D01*
X772260Y335203D01*
X772327Y335114D01*
X772390Y335023D01*
X772451Y334930D01*
X772508Y334835D01*
X772561Y334739D01*
X772612Y334640D01*
X772659Y334539D01*
X772702Y334437D01*
X772742Y334334D01*
X772778Y334229D01*
X772810Y334123D01*
X772839Y334016D01*
X772864Y333908D01*
X772885Y333799D01*
X772902Y333690D01*
X772916Y333580D01*
X772925Y333469D01*
X772931Y333359D01*
X772933Y333248D01*
X772931Y333137D01*
X772925Y333027D01*
X772916Y332916D01*
X772902Y332806D01*
X772885Y332697D01*
X772864Y332588D01*
X772839Y332480D01*
X772810Y332373D01*
X772778Y332267D01*
X772742Y332162D01*
X772702Y332059D01*
X772659Y331957D01*
X772612Y331856D01*
X772561Y331757D01*
X772508Y331660D01*
X772451Y331566D01*
X772390Y331473D01*
X772327Y331382D01*
X772260Y331293D01*
X772190Y331207D01*
X772117Y331124D01*
X772042Y331042D01*
X771964Y330964D01*
X771882Y330889D01*
X771799Y330816D01*
X771713Y330746D01*
X771624Y330679D01*
X771533Y330616D01*
X771440Y330555D01*
X771346Y330498D01*
X771249Y330445D01*
X771150Y330394D01*
X771049Y330347D01*
X770947Y330304D01*
X770844Y330264D01*
X770739Y330228D01*
X770633Y330196D01*
X770526Y330167D01*
X770418Y330142D01*
X770309Y330121D01*
X770200Y330104D01*
X770090Y330090D01*
X769979Y330081D01*
X769869Y330075D01*
X769758Y330073D01*
X766583Y330073D01*
X777442Y324993D02*
X781252Y324993D01*
X781352Y324995D01*
X781451Y325001D01*
X781551Y325011D01*
X781649Y325024D01*
X781748Y325042D01*
X781845Y325063D01*
X781941Y325088D01*
X782037Y325117D01*
X782131Y325150D01*
X782224Y325186D01*
X782315Y325226D01*
X782405Y325270D01*
X782493Y325317D01*
X782579Y325367D01*
X782663Y325421D01*
X782745Y325478D01*
X782824Y325538D01*
X782902Y325602D01*
X782976Y325668D01*
X783048Y325737D01*
X783117Y325809D01*
X783183Y325883D01*
X783247Y325961D01*
X783307Y326040D01*
X783364Y326122D01*
X783418Y326206D01*
X783468Y326292D01*
X783515Y326380D01*
X783559Y326470D01*
X783599Y326561D01*
X783635Y326654D01*
X783668Y326748D01*
X783697Y326844D01*
X783722Y326940D01*
X783743Y327037D01*
X783761Y327136D01*
X783774Y327234D01*
X783784Y327334D01*
X783790Y327433D01*
X783792Y327533D01*
X783792Y328803D01*
X783790Y328903D01*
X783784Y329002D01*
X783774Y329102D01*
X783761Y329200D01*
X783743Y329299D01*
X783722Y329396D01*
X783697Y329492D01*
X783668Y329588D01*
X783635Y329682D01*
X783599Y329775D01*
X783559Y329866D01*
X783515Y329956D01*
X783468Y330044D01*
X783418Y330130D01*
X783364Y330214D01*
X783307Y330296D01*
X783247Y330375D01*
X783183Y330453D01*
X783117Y330527D01*
X783048Y330599D01*
X782976Y330668D01*
X782902Y330734D01*
X782824Y330798D01*
X782745Y330858D01*
X782663Y330915D01*
X782579Y330969D01*
X782493Y331019D01*
X782405Y331066D01*
X782315Y331110D01*
X782224Y331150D01*
X782131Y331186D01*
X782037Y331219D01*
X781941Y331248D01*
X781845Y331273D01*
X781748Y331294D01*
X781649Y331312D01*
X781551Y331325D01*
X781451Y331335D01*
X781352Y331341D01*
X781252Y331343D01*
X777442Y331343D01*
X777442Y336423D01*
X783792Y336423D01*
D10*
X558800Y890270D02*
X546100Y890270D01*
X558800Y890270D02*
X565150Y883920D01*
X565150Y871220D01*
X558800Y864870D01*
X539750Y871220D02*
X539750Y883920D01*
X546100Y890270D01*
X539750Y871220D02*
X546100Y864870D01*
X558800Y864870D01*
X565150Y883920D02*
X571500Y890270D01*
X584200Y890270D01*
X590550Y883920D01*
X590550Y871220D01*
X584200Y864870D01*
X571500Y864870D01*
X565150Y871220D01*
D11*
X543433Y899033D02*
X543433Y907923D01*
X543433Y899033D02*
X543431Y898933D01*
X543425Y898834D01*
X543415Y898734D01*
X543402Y898636D01*
X543384Y898537D01*
X543363Y898440D01*
X543338Y898344D01*
X543309Y898248D01*
X543276Y898154D01*
X543240Y898061D01*
X543200Y897970D01*
X543156Y897880D01*
X543109Y897792D01*
X543059Y897706D01*
X543005Y897622D01*
X542948Y897540D01*
X542888Y897461D01*
X542824Y897383D01*
X542758Y897309D01*
X542689Y897237D01*
X542617Y897168D01*
X542543Y897102D01*
X542465Y897038D01*
X542386Y896978D01*
X542304Y896921D01*
X542220Y896867D01*
X542134Y896817D01*
X542046Y896770D01*
X541956Y896726D01*
X541865Y896686D01*
X541772Y896650D01*
X541678Y896617D01*
X541582Y896588D01*
X541486Y896563D01*
X541389Y896542D01*
X541290Y896524D01*
X541192Y896511D01*
X541092Y896501D01*
X540993Y896495D01*
X540893Y896493D01*
X539623Y896493D01*
X549413Y896493D02*
X549413Y907923D01*
X552588Y907923D01*
X552699Y907921D01*
X552809Y907915D01*
X552920Y907906D01*
X553030Y907892D01*
X553139Y907875D01*
X553248Y907854D01*
X553356Y907829D01*
X553463Y907800D01*
X553569Y907768D01*
X553674Y907732D01*
X553777Y907692D01*
X553879Y907649D01*
X553980Y907602D01*
X554079Y907551D01*
X554176Y907498D01*
X554270Y907441D01*
X554363Y907380D01*
X554454Y907317D01*
X554543Y907250D01*
X554629Y907180D01*
X554712Y907107D01*
X554794Y907032D01*
X554872Y906954D01*
X554947Y906872D01*
X555020Y906789D01*
X555090Y906703D01*
X555157Y906614D01*
X555220Y906523D01*
X555281Y906430D01*
X555338Y906335D01*
X555391Y906239D01*
X555442Y906140D01*
X555489Y906039D01*
X555532Y905937D01*
X555572Y905834D01*
X555608Y905729D01*
X555640Y905623D01*
X555669Y905516D01*
X555694Y905408D01*
X555715Y905299D01*
X555732Y905190D01*
X555746Y905080D01*
X555755Y904969D01*
X555761Y904859D01*
X555763Y904748D01*
X555761Y904637D01*
X555755Y904527D01*
X555746Y904416D01*
X555732Y904306D01*
X555715Y904197D01*
X555694Y904088D01*
X555669Y903980D01*
X555640Y903873D01*
X555608Y903767D01*
X555572Y903662D01*
X555532Y903559D01*
X555489Y903457D01*
X555442Y903356D01*
X555391Y903257D01*
X555338Y903161D01*
X555281Y903066D01*
X555220Y902973D01*
X555157Y902882D01*
X555090Y902793D01*
X555020Y902707D01*
X554947Y902624D01*
X554872Y902542D01*
X554794Y902464D01*
X554712Y902389D01*
X554629Y902316D01*
X554543Y902246D01*
X554454Y902179D01*
X554363Y902116D01*
X554270Y902055D01*
X554176Y901998D01*
X554079Y901945D01*
X553980Y901894D01*
X553879Y901847D01*
X553777Y901804D01*
X553674Y901764D01*
X553569Y901728D01*
X553463Y901696D01*
X553356Y901667D01*
X553248Y901642D01*
X553139Y901621D01*
X553030Y901604D01*
X552920Y901590D01*
X552809Y901581D01*
X552699Y901575D01*
X552588Y901573D01*
X549413Y901573D01*
X560272Y902843D02*
X564082Y902843D01*
X564182Y902841D01*
X564281Y902835D01*
X564381Y902825D01*
X564479Y902812D01*
X564578Y902794D01*
X564675Y902773D01*
X564771Y902748D01*
X564867Y902719D01*
X564961Y902686D01*
X565054Y902650D01*
X565145Y902610D01*
X565235Y902566D01*
X565323Y902519D01*
X565409Y902469D01*
X565493Y902415D01*
X565575Y902358D01*
X565654Y902298D01*
X565732Y902234D01*
X565806Y902168D01*
X565878Y902099D01*
X565947Y902027D01*
X566013Y901953D01*
X566077Y901875D01*
X566137Y901796D01*
X566194Y901714D01*
X566248Y901630D01*
X566298Y901544D01*
X566345Y901456D01*
X566389Y901366D01*
X566429Y901275D01*
X566465Y901182D01*
X566498Y901088D01*
X566527Y900992D01*
X566552Y900896D01*
X566573Y900799D01*
X566591Y900700D01*
X566604Y900602D01*
X566614Y900502D01*
X566620Y900403D01*
X566622Y900303D01*
X566622Y899668D01*
X566620Y899557D01*
X566614Y899447D01*
X566605Y899336D01*
X566591Y899226D01*
X566574Y899117D01*
X566553Y899008D01*
X566528Y898900D01*
X566499Y898793D01*
X566467Y898687D01*
X566431Y898582D01*
X566391Y898479D01*
X566348Y898377D01*
X566301Y898276D01*
X566250Y898177D01*
X566197Y898081D01*
X566140Y897986D01*
X566079Y897893D01*
X566016Y897802D01*
X565949Y897713D01*
X565879Y897627D01*
X565806Y897544D01*
X565731Y897462D01*
X565653Y897384D01*
X565571Y897309D01*
X565488Y897236D01*
X565402Y897166D01*
X565313Y897099D01*
X565222Y897036D01*
X565129Y896975D01*
X565035Y896918D01*
X564938Y896865D01*
X564839Y896814D01*
X564738Y896767D01*
X564636Y896724D01*
X564533Y896684D01*
X564428Y896648D01*
X564322Y896616D01*
X564215Y896587D01*
X564107Y896562D01*
X563998Y896541D01*
X563889Y896524D01*
X563779Y896510D01*
X563668Y896501D01*
X563558Y896495D01*
X563447Y896493D01*
X563336Y896495D01*
X563226Y896501D01*
X563115Y896510D01*
X563005Y896524D01*
X562896Y896541D01*
X562787Y896562D01*
X562679Y896587D01*
X562572Y896616D01*
X562466Y896648D01*
X562361Y896684D01*
X562258Y896724D01*
X562156Y896767D01*
X562055Y896814D01*
X561956Y896865D01*
X561860Y896918D01*
X561765Y896975D01*
X561672Y897036D01*
X561581Y897099D01*
X561492Y897166D01*
X561406Y897236D01*
X561323Y897309D01*
X561241Y897384D01*
X561163Y897462D01*
X561088Y897544D01*
X561015Y897627D01*
X560945Y897713D01*
X560878Y897802D01*
X560815Y897893D01*
X560754Y897986D01*
X560697Y898081D01*
X560644Y898177D01*
X560593Y898276D01*
X560546Y898377D01*
X560503Y898479D01*
X560463Y898582D01*
X560427Y898687D01*
X560395Y898793D01*
X560366Y898900D01*
X560341Y899008D01*
X560320Y899117D01*
X560303Y899226D01*
X560289Y899336D01*
X560280Y899447D01*
X560274Y899557D01*
X560272Y899668D01*
X560272Y902843D01*
X560274Y902983D01*
X560280Y903123D01*
X560289Y903263D01*
X560303Y903402D01*
X560320Y903541D01*
X560341Y903679D01*
X560366Y903817D01*
X560395Y903954D01*
X560427Y904090D01*
X560464Y904225D01*
X560504Y904359D01*
X560547Y904492D01*
X560595Y904624D01*
X560645Y904755D01*
X560700Y904884D01*
X560758Y905011D01*
X560819Y905137D01*
X560884Y905261D01*
X560953Y905383D01*
X561024Y905503D01*
X561099Y905621D01*
X561177Y905738D01*
X561259Y905852D01*
X561343Y905963D01*
X561431Y906072D01*
X561521Y906179D01*
X561615Y906284D01*
X561711Y906385D01*
X561810Y906484D01*
X561911Y906580D01*
X562016Y906674D01*
X562123Y906764D01*
X562232Y906852D01*
X562343Y906936D01*
X562457Y907018D01*
X562574Y907096D01*
X562692Y907171D01*
X562812Y907242D01*
X562934Y907311D01*
X563058Y907376D01*
X563184Y907437D01*
X563311Y907495D01*
X563440Y907550D01*
X563571Y907600D01*
X563703Y907648D01*
X563836Y907691D01*
X563970Y907731D01*
X564105Y907768D01*
X564241Y907800D01*
X564378Y907829D01*
X564516Y907854D01*
X564654Y907875D01*
X564793Y907892D01*
X564932Y907906D01*
X565072Y907915D01*
X565212Y907921D01*
X565352Y907923D01*
D10*
X561340Y701040D02*
X548640Y701040D01*
X561340Y701040D02*
X567690Y694690D01*
X567690Y681990D01*
X561340Y675640D01*
X542290Y681990D02*
X542290Y694690D01*
X548640Y701040D01*
X542290Y681990D02*
X548640Y675640D01*
X561340Y675640D01*
X567690Y694690D02*
X574040Y701040D01*
X586740Y701040D01*
X593090Y694690D01*
X593090Y681990D01*
X586740Y675640D01*
X574040Y675640D01*
X567690Y681990D01*
D11*
X545973Y709803D02*
X545973Y718693D01*
X545973Y709803D02*
X545971Y709703D01*
X545965Y709604D01*
X545955Y709504D01*
X545942Y709406D01*
X545924Y709307D01*
X545903Y709210D01*
X545878Y709114D01*
X545849Y709018D01*
X545816Y708924D01*
X545780Y708831D01*
X545740Y708740D01*
X545696Y708650D01*
X545649Y708562D01*
X545599Y708476D01*
X545545Y708392D01*
X545488Y708310D01*
X545428Y708231D01*
X545364Y708153D01*
X545298Y708079D01*
X545229Y708007D01*
X545157Y707938D01*
X545083Y707872D01*
X545005Y707808D01*
X544926Y707748D01*
X544844Y707691D01*
X544760Y707637D01*
X544674Y707587D01*
X544586Y707540D01*
X544496Y707496D01*
X544405Y707456D01*
X544312Y707420D01*
X544218Y707387D01*
X544122Y707358D01*
X544026Y707333D01*
X543929Y707312D01*
X543830Y707294D01*
X543732Y707281D01*
X543632Y707271D01*
X543533Y707265D01*
X543433Y707263D01*
X542163Y707263D01*
X551953Y707263D02*
X551953Y718693D01*
X555128Y718693D01*
X555239Y718691D01*
X555349Y718685D01*
X555460Y718676D01*
X555570Y718662D01*
X555679Y718645D01*
X555788Y718624D01*
X555896Y718599D01*
X556003Y718570D01*
X556109Y718538D01*
X556214Y718502D01*
X556317Y718462D01*
X556419Y718419D01*
X556520Y718372D01*
X556619Y718321D01*
X556716Y718268D01*
X556810Y718211D01*
X556903Y718150D01*
X556994Y718087D01*
X557083Y718020D01*
X557169Y717950D01*
X557252Y717877D01*
X557334Y717802D01*
X557412Y717724D01*
X557487Y717642D01*
X557560Y717559D01*
X557630Y717473D01*
X557697Y717384D01*
X557760Y717293D01*
X557821Y717200D01*
X557878Y717105D01*
X557931Y717009D01*
X557982Y716910D01*
X558029Y716809D01*
X558072Y716707D01*
X558112Y716604D01*
X558148Y716499D01*
X558180Y716393D01*
X558209Y716286D01*
X558234Y716178D01*
X558255Y716069D01*
X558272Y715960D01*
X558286Y715850D01*
X558295Y715739D01*
X558301Y715629D01*
X558303Y715518D01*
X558301Y715407D01*
X558295Y715297D01*
X558286Y715186D01*
X558272Y715076D01*
X558255Y714967D01*
X558234Y714858D01*
X558209Y714750D01*
X558180Y714643D01*
X558148Y714537D01*
X558112Y714432D01*
X558072Y714329D01*
X558029Y714227D01*
X557982Y714126D01*
X557931Y714027D01*
X557878Y713931D01*
X557821Y713836D01*
X557760Y713743D01*
X557697Y713652D01*
X557630Y713563D01*
X557560Y713477D01*
X557487Y713394D01*
X557412Y713312D01*
X557334Y713234D01*
X557252Y713159D01*
X557169Y713086D01*
X557083Y713016D01*
X556994Y712949D01*
X556903Y712886D01*
X556810Y712825D01*
X556716Y712768D01*
X556619Y712715D01*
X556520Y712664D01*
X556419Y712617D01*
X556317Y712574D01*
X556214Y712534D01*
X556109Y712498D01*
X556003Y712466D01*
X555896Y712437D01*
X555788Y712412D01*
X555679Y712391D01*
X555570Y712374D01*
X555460Y712360D01*
X555349Y712351D01*
X555239Y712345D01*
X555128Y712343D01*
X551953Y712343D01*
X562812Y717423D02*
X562812Y718693D01*
X569162Y718693D01*
X565987Y707263D01*
D10*
X563880Y506730D02*
X551180Y506730D01*
X563880Y506730D02*
X570230Y500380D01*
X570230Y487680D01*
X563880Y481330D01*
X544830Y487680D02*
X544830Y500380D01*
X551180Y506730D01*
X544830Y487680D02*
X551180Y481330D01*
X563880Y481330D01*
X570230Y500380D02*
X576580Y506730D01*
X589280Y506730D01*
X595630Y500380D01*
X595630Y487680D01*
X589280Y481330D01*
X576580Y481330D01*
X570230Y487680D01*
D11*
X548513Y515493D02*
X548513Y524383D01*
X548513Y515493D02*
X548511Y515393D01*
X548505Y515294D01*
X548495Y515194D01*
X548482Y515096D01*
X548464Y514997D01*
X548443Y514900D01*
X548418Y514804D01*
X548389Y514708D01*
X548356Y514614D01*
X548320Y514521D01*
X548280Y514430D01*
X548236Y514340D01*
X548189Y514252D01*
X548139Y514166D01*
X548085Y514082D01*
X548028Y514000D01*
X547968Y513921D01*
X547904Y513843D01*
X547838Y513769D01*
X547769Y513697D01*
X547697Y513628D01*
X547623Y513562D01*
X547545Y513498D01*
X547466Y513438D01*
X547384Y513381D01*
X547300Y513327D01*
X547214Y513277D01*
X547126Y513230D01*
X547036Y513186D01*
X546945Y513146D01*
X546852Y513110D01*
X546758Y513077D01*
X546662Y513048D01*
X546566Y513023D01*
X546469Y513002D01*
X546370Y512984D01*
X546272Y512971D01*
X546172Y512961D01*
X546073Y512955D01*
X545973Y512953D01*
X544703Y512953D01*
X554493Y512953D02*
X554493Y524383D01*
X557668Y524383D01*
X557779Y524381D01*
X557889Y524375D01*
X558000Y524366D01*
X558110Y524352D01*
X558219Y524335D01*
X558328Y524314D01*
X558436Y524289D01*
X558543Y524260D01*
X558649Y524228D01*
X558754Y524192D01*
X558857Y524152D01*
X558959Y524109D01*
X559060Y524062D01*
X559159Y524011D01*
X559256Y523958D01*
X559350Y523901D01*
X559443Y523840D01*
X559534Y523777D01*
X559623Y523710D01*
X559709Y523640D01*
X559792Y523567D01*
X559874Y523492D01*
X559952Y523414D01*
X560027Y523332D01*
X560100Y523249D01*
X560170Y523163D01*
X560237Y523074D01*
X560300Y522983D01*
X560361Y522890D01*
X560418Y522795D01*
X560471Y522699D01*
X560522Y522600D01*
X560569Y522499D01*
X560612Y522397D01*
X560652Y522294D01*
X560688Y522189D01*
X560720Y522083D01*
X560749Y521976D01*
X560774Y521868D01*
X560795Y521759D01*
X560812Y521650D01*
X560826Y521540D01*
X560835Y521429D01*
X560841Y521319D01*
X560843Y521208D01*
X560841Y521097D01*
X560835Y520987D01*
X560826Y520876D01*
X560812Y520766D01*
X560795Y520657D01*
X560774Y520548D01*
X560749Y520440D01*
X560720Y520333D01*
X560688Y520227D01*
X560652Y520122D01*
X560612Y520019D01*
X560569Y519917D01*
X560522Y519816D01*
X560471Y519717D01*
X560418Y519620D01*
X560361Y519526D01*
X560300Y519433D01*
X560237Y519342D01*
X560170Y519253D01*
X560100Y519167D01*
X560027Y519084D01*
X559952Y519002D01*
X559874Y518924D01*
X559792Y518849D01*
X559709Y518776D01*
X559623Y518706D01*
X559534Y518639D01*
X559443Y518576D01*
X559350Y518515D01*
X559256Y518458D01*
X559159Y518405D01*
X559060Y518354D01*
X558959Y518307D01*
X558857Y518264D01*
X558754Y518224D01*
X558649Y518188D01*
X558543Y518156D01*
X558436Y518127D01*
X558328Y518102D01*
X558219Y518081D01*
X558110Y518064D01*
X558000Y518050D01*
X557889Y518041D01*
X557779Y518035D01*
X557668Y518033D01*
X554493Y518033D01*
X565352Y516128D02*
X565354Y516239D01*
X565360Y516349D01*
X565369Y516460D01*
X565383Y516570D01*
X565400Y516679D01*
X565421Y516788D01*
X565446Y516896D01*
X565475Y517003D01*
X565507Y517109D01*
X565543Y517214D01*
X565583Y517317D01*
X565626Y517419D01*
X565673Y517520D01*
X565724Y517619D01*
X565777Y517716D01*
X565834Y517810D01*
X565895Y517903D01*
X565958Y517994D01*
X566025Y518083D01*
X566095Y518169D01*
X566168Y518252D01*
X566243Y518334D01*
X566321Y518412D01*
X566403Y518487D01*
X566486Y518560D01*
X566572Y518630D01*
X566661Y518697D01*
X566752Y518760D01*
X566845Y518821D01*
X566940Y518878D01*
X567036Y518931D01*
X567135Y518982D01*
X567236Y519029D01*
X567338Y519072D01*
X567441Y519112D01*
X567546Y519148D01*
X567652Y519180D01*
X567759Y519209D01*
X567867Y519234D01*
X567976Y519255D01*
X568085Y519272D01*
X568195Y519286D01*
X568306Y519295D01*
X568416Y519301D01*
X568527Y519303D01*
X568638Y519301D01*
X568748Y519295D01*
X568859Y519286D01*
X568969Y519272D01*
X569078Y519255D01*
X569187Y519234D01*
X569295Y519209D01*
X569402Y519180D01*
X569508Y519148D01*
X569613Y519112D01*
X569716Y519072D01*
X569818Y519029D01*
X569919Y518982D01*
X570018Y518931D01*
X570115Y518878D01*
X570209Y518821D01*
X570302Y518760D01*
X570393Y518697D01*
X570482Y518630D01*
X570568Y518560D01*
X570651Y518487D01*
X570733Y518412D01*
X570811Y518334D01*
X570886Y518252D01*
X570959Y518169D01*
X571029Y518083D01*
X571096Y517994D01*
X571159Y517903D01*
X571220Y517810D01*
X571277Y517716D01*
X571330Y517619D01*
X571381Y517520D01*
X571428Y517419D01*
X571471Y517317D01*
X571511Y517214D01*
X571547Y517109D01*
X571579Y517003D01*
X571608Y516896D01*
X571633Y516788D01*
X571654Y516679D01*
X571671Y516570D01*
X571685Y516460D01*
X571694Y516349D01*
X571700Y516239D01*
X571702Y516128D01*
X571700Y516017D01*
X571694Y515907D01*
X571685Y515796D01*
X571671Y515686D01*
X571654Y515577D01*
X571633Y515468D01*
X571608Y515360D01*
X571579Y515253D01*
X571547Y515147D01*
X571511Y515042D01*
X571471Y514939D01*
X571428Y514837D01*
X571381Y514736D01*
X571330Y514637D01*
X571277Y514540D01*
X571220Y514446D01*
X571159Y514353D01*
X571096Y514262D01*
X571029Y514173D01*
X570959Y514087D01*
X570886Y514004D01*
X570811Y513922D01*
X570733Y513844D01*
X570651Y513769D01*
X570568Y513696D01*
X570482Y513626D01*
X570393Y513559D01*
X570302Y513496D01*
X570209Y513435D01*
X570115Y513378D01*
X570018Y513325D01*
X569919Y513274D01*
X569818Y513227D01*
X569716Y513184D01*
X569613Y513144D01*
X569508Y513108D01*
X569402Y513076D01*
X569295Y513047D01*
X569187Y513022D01*
X569078Y513001D01*
X568969Y512984D01*
X568859Y512970D01*
X568748Y512961D01*
X568638Y512955D01*
X568527Y512953D01*
X568416Y512955D01*
X568306Y512961D01*
X568195Y512970D01*
X568085Y512984D01*
X567976Y513001D01*
X567867Y513022D01*
X567759Y513047D01*
X567652Y513076D01*
X567546Y513108D01*
X567441Y513144D01*
X567338Y513184D01*
X567236Y513227D01*
X567135Y513274D01*
X567036Y513325D01*
X566940Y513378D01*
X566845Y513435D01*
X566752Y513496D01*
X566661Y513559D01*
X566572Y513626D01*
X566486Y513696D01*
X566403Y513769D01*
X566321Y513844D01*
X566243Y513922D01*
X566168Y514004D01*
X566095Y514087D01*
X566025Y514173D01*
X565958Y514262D01*
X565895Y514353D01*
X565834Y514446D01*
X565777Y514541D01*
X565724Y514637D01*
X565673Y514736D01*
X565626Y514837D01*
X565583Y514939D01*
X565543Y515042D01*
X565507Y515147D01*
X565475Y515253D01*
X565446Y515360D01*
X565421Y515468D01*
X565400Y515577D01*
X565383Y515686D01*
X565369Y515796D01*
X565360Y515907D01*
X565354Y516017D01*
X565352Y516128D01*
X565987Y521843D02*
X565989Y521943D01*
X565995Y522042D01*
X566005Y522142D01*
X566018Y522240D01*
X566036Y522339D01*
X566057Y522436D01*
X566082Y522532D01*
X566111Y522628D01*
X566144Y522722D01*
X566180Y522815D01*
X566220Y522906D01*
X566264Y522996D01*
X566311Y523084D01*
X566361Y523170D01*
X566415Y523254D01*
X566472Y523336D01*
X566532Y523415D01*
X566596Y523493D01*
X566662Y523567D01*
X566731Y523639D01*
X566803Y523708D01*
X566877Y523774D01*
X566955Y523838D01*
X567034Y523898D01*
X567116Y523955D01*
X567200Y524009D01*
X567286Y524059D01*
X567374Y524106D01*
X567464Y524150D01*
X567555Y524190D01*
X567648Y524226D01*
X567742Y524259D01*
X567838Y524288D01*
X567934Y524313D01*
X568031Y524334D01*
X568130Y524352D01*
X568228Y524365D01*
X568328Y524375D01*
X568427Y524381D01*
X568527Y524383D01*
X568627Y524381D01*
X568726Y524375D01*
X568826Y524365D01*
X568924Y524352D01*
X569023Y524334D01*
X569120Y524313D01*
X569216Y524288D01*
X569312Y524259D01*
X569406Y524226D01*
X569499Y524190D01*
X569590Y524150D01*
X569680Y524106D01*
X569768Y524059D01*
X569854Y524009D01*
X569938Y523955D01*
X570020Y523898D01*
X570099Y523838D01*
X570177Y523774D01*
X570251Y523708D01*
X570323Y523639D01*
X570392Y523567D01*
X570458Y523493D01*
X570522Y523415D01*
X570582Y523336D01*
X570639Y523254D01*
X570693Y523170D01*
X570743Y523084D01*
X570790Y522996D01*
X570834Y522906D01*
X570874Y522815D01*
X570910Y522722D01*
X570943Y522628D01*
X570972Y522532D01*
X570997Y522436D01*
X571018Y522339D01*
X571036Y522240D01*
X571049Y522142D01*
X571059Y522042D01*
X571065Y521943D01*
X571067Y521843D01*
X571065Y521743D01*
X571059Y521644D01*
X571049Y521544D01*
X571036Y521446D01*
X571018Y521347D01*
X570997Y521250D01*
X570972Y521154D01*
X570943Y521058D01*
X570910Y520964D01*
X570874Y520871D01*
X570834Y520780D01*
X570790Y520690D01*
X570743Y520602D01*
X570693Y520516D01*
X570639Y520432D01*
X570582Y520350D01*
X570522Y520271D01*
X570458Y520193D01*
X570392Y520119D01*
X570323Y520047D01*
X570251Y519978D01*
X570177Y519912D01*
X570099Y519848D01*
X570020Y519788D01*
X569938Y519731D01*
X569854Y519677D01*
X569768Y519627D01*
X569680Y519580D01*
X569590Y519536D01*
X569499Y519496D01*
X569406Y519460D01*
X569312Y519427D01*
X569216Y519398D01*
X569120Y519373D01*
X569023Y519352D01*
X568924Y519334D01*
X568826Y519321D01*
X568726Y519311D01*
X568627Y519305D01*
X568527Y519303D01*
X568427Y519305D01*
X568328Y519311D01*
X568228Y519321D01*
X568130Y519334D01*
X568031Y519352D01*
X567934Y519373D01*
X567838Y519398D01*
X567742Y519427D01*
X567648Y519460D01*
X567555Y519496D01*
X567464Y519536D01*
X567374Y519580D01*
X567286Y519627D01*
X567200Y519677D01*
X567116Y519731D01*
X567034Y519788D01*
X566955Y519848D01*
X566877Y519912D01*
X566803Y519978D01*
X566731Y520047D01*
X566662Y520119D01*
X566596Y520193D01*
X566532Y520271D01*
X566472Y520350D01*
X566415Y520432D01*
X566361Y520516D01*
X566311Y520602D01*
X566264Y520690D01*
X566220Y520780D01*
X566180Y520871D01*
X566144Y520964D01*
X566111Y521058D01*
X566082Y521154D01*
X566057Y521250D01*
X566036Y521347D01*
X566018Y521446D01*
X566005Y521544D01*
X565995Y521644D01*
X565989Y521743D01*
X565987Y521843D01*
D10*
X335280Y509270D02*
X322580Y509270D01*
X335280Y509270D02*
X341630Y502920D01*
X341630Y490220D01*
X335280Y483870D01*
X316230Y490220D02*
X316230Y502920D01*
X322580Y509270D01*
X316230Y490220D02*
X322580Y483870D01*
X335280Y483870D01*
X341630Y502920D02*
X347980Y509270D01*
X360680Y509270D01*
X367030Y502920D01*
X367030Y490220D01*
X360680Y483870D01*
X347980Y483870D01*
X341630Y490220D01*
D11*
X319913Y518033D02*
X319913Y526923D01*
X319913Y518033D02*
X319911Y517933D01*
X319905Y517834D01*
X319895Y517734D01*
X319882Y517636D01*
X319864Y517537D01*
X319843Y517440D01*
X319818Y517344D01*
X319789Y517248D01*
X319756Y517154D01*
X319720Y517061D01*
X319680Y516970D01*
X319636Y516880D01*
X319589Y516792D01*
X319539Y516706D01*
X319485Y516622D01*
X319428Y516540D01*
X319368Y516461D01*
X319304Y516383D01*
X319238Y516309D01*
X319169Y516237D01*
X319097Y516168D01*
X319023Y516102D01*
X318945Y516038D01*
X318866Y515978D01*
X318784Y515921D01*
X318700Y515867D01*
X318614Y515817D01*
X318526Y515770D01*
X318436Y515726D01*
X318345Y515686D01*
X318252Y515650D01*
X318158Y515617D01*
X318062Y515588D01*
X317966Y515563D01*
X317869Y515542D01*
X317770Y515524D01*
X317672Y515511D01*
X317572Y515501D01*
X317473Y515495D01*
X317373Y515493D01*
X316103Y515493D01*
X325893Y515493D02*
X325893Y526923D01*
X329068Y526923D01*
X329179Y526921D01*
X329289Y526915D01*
X329400Y526906D01*
X329510Y526892D01*
X329619Y526875D01*
X329728Y526854D01*
X329836Y526829D01*
X329943Y526800D01*
X330049Y526768D01*
X330154Y526732D01*
X330257Y526692D01*
X330359Y526649D01*
X330460Y526602D01*
X330559Y526551D01*
X330656Y526498D01*
X330750Y526441D01*
X330843Y526380D01*
X330934Y526317D01*
X331023Y526250D01*
X331109Y526180D01*
X331192Y526107D01*
X331274Y526032D01*
X331352Y525954D01*
X331427Y525872D01*
X331500Y525789D01*
X331570Y525703D01*
X331637Y525614D01*
X331700Y525523D01*
X331761Y525430D01*
X331818Y525335D01*
X331871Y525239D01*
X331922Y525140D01*
X331969Y525039D01*
X332012Y524937D01*
X332052Y524834D01*
X332088Y524729D01*
X332120Y524623D01*
X332149Y524516D01*
X332174Y524408D01*
X332195Y524299D01*
X332212Y524190D01*
X332226Y524080D01*
X332235Y523969D01*
X332241Y523859D01*
X332243Y523748D01*
X332241Y523637D01*
X332235Y523527D01*
X332226Y523416D01*
X332212Y523306D01*
X332195Y523197D01*
X332174Y523088D01*
X332149Y522980D01*
X332120Y522873D01*
X332088Y522767D01*
X332052Y522662D01*
X332012Y522559D01*
X331969Y522457D01*
X331922Y522356D01*
X331871Y522257D01*
X331818Y522160D01*
X331761Y522066D01*
X331700Y521973D01*
X331637Y521882D01*
X331570Y521793D01*
X331500Y521707D01*
X331427Y521624D01*
X331352Y521542D01*
X331274Y521464D01*
X331192Y521389D01*
X331109Y521316D01*
X331023Y521246D01*
X330934Y521179D01*
X330843Y521116D01*
X330750Y521055D01*
X330656Y520998D01*
X330559Y520945D01*
X330460Y520894D01*
X330359Y520847D01*
X330257Y520804D01*
X330154Y520764D01*
X330049Y520728D01*
X329943Y520696D01*
X329836Y520667D01*
X329728Y520642D01*
X329619Y520621D01*
X329510Y520604D01*
X329400Y520590D01*
X329289Y520581D01*
X329179Y520575D01*
X329068Y520573D01*
X325893Y520573D01*
X339292Y520573D02*
X343102Y520573D01*
X339292Y520573D02*
X339192Y520575D01*
X339093Y520581D01*
X338993Y520591D01*
X338895Y520604D01*
X338796Y520622D01*
X338699Y520643D01*
X338603Y520668D01*
X338507Y520697D01*
X338413Y520730D01*
X338320Y520766D01*
X338229Y520806D01*
X338139Y520850D01*
X338051Y520897D01*
X337965Y520947D01*
X337881Y521001D01*
X337799Y521058D01*
X337720Y521118D01*
X337642Y521182D01*
X337568Y521248D01*
X337496Y521317D01*
X337427Y521389D01*
X337361Y521463D01*
X337297Y521541D01*
X337237Y521620D01*
X337180Y521702D01*
X337126Y521786D01*
X337076Y521872D01*
X337029Y521960D01*
X336985Y522050D01*
X336945Y522141D01*
X336909Y522234D01*
X336876Y522328D01*
X336847Y522424D01*
X336822Y522520D01*
X336801Y522617D01*
X336783Y522716D01*
X336770Y522814D01*
X336760Y522914D01*
X336754Y523013D01*
X336752Y523113D01*
X336752Y523748D01*
X336754Y523859D01*
X336760Y523969D01*
X336769Y524080D01*
X336783Y524190D01*
X336800Y524299D01*
X336821Y524408D01*
X336846Y524516D01*
X336875Y524623D01*
X336907Y524729D01*
X336943Y524834D01*
X336983Y524937D01*
X337026Y525039D01*
X337073Y525140D01*
X337124Y525239D01*
X337177Y525336D01*
X337234Y525430D01*
X337295Y525523D01*
X337358Y525614D01*
X337425Y525703D01*
X337495Y525789D01*
X337568Y525872D01*
X337643Y525954D01*
X337721Y526032D01*
X337803Y526107D01*
X337886Y526180D01*
X337972Y526250D01*
X338061Y526317D01*
X338152Y526380D01*
X338245Y526441D01*
X338340Y526498D01*
X338436Y526551D01*
X338535Y526602D01*
X338636Y526649D01*
X338738Y526692D01*
X338841Y526732D01*
X338946Y526768D01*
X339052Y526800D01*
X339159Y526829D01*
X339267Y526854D01*
X339376Y526875D01*
X339485Y526892D01*
X339595Y526906D01*
X339706Y526915D01*
X339816Y526921D01*
X339927Y526923D01*
X340038Y526921D01*
X340148Y526915D01*
X340259Y526906D01*
X340369Y526892D01*
X340478Y526875D01*
X340587Y526854D01*
X340695Y526829D01*
X340802Y526800D01*
X340908Y526768D01*
X341013Y526732D01*
X341116Y526692D01*
X341218Y526649D01*
X341319Y526602D01*
X341418Y526551D01*
X341515Y526498D01*
X341609Y526441D01*
X341702Y526380D01*
X341793Y526317D01*
X341882Y526250D01*
X341968Y526180D01*
X342051Y526107D01*
X342133Y526032D01*
X342211Y525954D01*
X342286Y525872D01*
X342359Y525789D01*
X342429Y525703D01*
X342496Y525614D01*
X342559Y525523D01*
X342620Y525430D01*
X342677Y525336D01*
X342730Y525239D01*
X342781Y525140D01*
X342828Y525039D01*
X342871Y524937D01*
X342911Y524834D01*
X342947Y524729D01*
X342979Y524623D01*
X343008Y524516D01*
X343033Y524408D01*
X343054Y524299D01*
X343071Y524190D01*
X343085Y524080D01*
X343094Y523969D01*
X343100Y523859D01*
X343102Y523748D01*
X343102Y520573D01*
X343100Y520433D01*
X343094Y520293D01*
X343085Y520153D01*
X343071Y520014D01*
X343054Y519875D01*
X343033Y519737D01*
X343008Y519599D01*
X342979Y519462D01*
X342947Y519326D01*
X342910Y519191D01*
X342870Y519057D01*
X342827Y518924D01*
X342779Y518792D01*
X342729Y518661D01*
X342674Y518532D01*
X342616Y518405D01*
X342555Y518279D01*
X342490Y518155D01*
X342421Y518033D01*
X342350Y517913D01*
X342275Y517795D01*
X342197Y517678D01*
X342115Y517564D01*
X342031Y517453D01*
X341943Y517344D01*
X341853Y517237D01*
X341759Y517132D01*
X341663Y517031D01*
X341564Y516932D01*
X341463Y516836D01*
X341358Y516742D01*
X341251Y516652D01*
X341142Y516564D01*
X341031Y516480D01*
X340917Y516398D01*
X340800Y516320D01*
X340682Y516245D01*
X340562Y516174D01*
X340440Y516105D01*
X340316Y516040D01*
X340190Y515979D01*
X340063Y515921D01*
X339934Y515866D01*
X339803Y515816D01*
X339671Y515768D01*
X339538Y515725D01*
X339404Y515685D01*
X339269Y515648D01*
X339133Y515616D01*
X338996Y515587D01*
X338858Y515562D01*
X338720Y515541D01*
X338581Y515524D01*
X338442Y515510D01*
X338302Y515501D01*
X338162Y515495D01*
X338022Y515493D01*
D12*
X750570Y407670D02*
X801370Y407670D01*
X801370Y400050D01*
X801370Y392430D01*
X750570Y392430D01*
X750570Y400050D01*
X750570Y407670D01*
X801370Y400050D02*
X803910Y400050D01*
X750570Y400050D02*
X748030Y400050D01*
D11*
X771918Y408305D02*
X771918Y413131D01*
X773259Y413131D01*
X773330Y413129D01*
X773402Y413123D01*
X773472Y413114D01*
X773542Y413101D01*
X773612Y413084D01*
X773680Y413063D01*
X773747Y413039D01*
X773813Y413011D01*
X773877Y412980D01*
X773940Y412945D01*
X774000Y412907D01*
X774059Y412866D01*
X774115Y412822D01*
X774169Y412775D01*
X774220Y412726D01*
X774268Y412673D01*
X774314Y412618D01*
X774356Y412561D01*
X774396Y412501D01*
X774432Y412440D01*
X774465Y412376D01*
X774494Y412311D01*
X774520Y412245D01*
X774543Y412177D01*
X774562Y412108D01*
X774577Y412038D01*
X774588Y411968D01*
X774596Y411897D01*
X774600Y411826D01*
X774600Y411754D01*
X774596Y411683D01*
X774588Y411612D01*
X774577Y411542D01*
X774562Y411472D01*
X774543Y411403D01*
X774520Y411335D01*
X774494Y411269D01*
X774465Y411204D01*
X774432Y411140D01*
X774396Y411079D01*
X774356Y411019D01*
X774314Y410962D01*
X774268Y410907D01*
X774220Y410854D01*
X774169Y410805D01*
X774115Y410758D01*
X774059Y410714D01*
X774000Y410673D01*
X773940Y410635D01*
X773877Y410600D01*
X773813Y410569D01*
X773747Y410541D01*
X773680Y410517D01*
X773612Y410496D01*
X773542Y410479D01*
X773472Y410466D01*
X773402Y410457D01*
X773330Y410451D01*
X773259Y410449D01*
X773259Y410450D02*
X771918Y410450D01*
X773527Y410450D02*
X774599Y408305D01*
X777341Y412059D02*
X778681Y413131D01*
X778681Y408305D01*
X777341Y408305D02*
X780022Y408305D01*
D12*
X800100Y217170D02*
X749300Y217170D01*
X800100Y217170D02*
X800100Y209550D01*
X800100Y201930D01*
X749300Y201930D01*
X749300Y209550D01*
X749300Y217170D01*
X800100Y209550D02*
X802640Y209550D01*
X749300Y209550D02*
X746760Y209550D01*
D11*
X770648Y217805D02*
X770648Y222631D01*
X771989Y222631D01*
X772060Y222629D01*
X772132Y222623D01*
X772202Y222614D01*
X772272Y222601D01*
X772342Y222584D01*
X772410Y222563D01*
X772477Y222539D01*
X772543Y222511D01*
X772607Y222480D01*
X772670Y222445D01*
X772730Y222407D01*
X772789Y222366D01*
X772845Y222322D01*
X772899Y222275D01*
X772950Y222226D01*
X772998Y222173D01*
X773044Y222118D01*
X773086Y222061D01*
X773126Y222001D01*
X773162Y221940D01*
X773195Y221876D01*
X773224Y221811D01*
X773250Y221745D01*
X773273Y221677D01*
X773292Y221608D01*
X773307Y221538D01*
X773318Y221468D01*
X773326Y221397D01*
X773330Y221326D01*
X773330Y221254D01*
X773326Y221183D01*
X773318Y221112D01*
X773307Y221042D01*
X773292Y220972D01*
X773273Y220903D01*
X773250Y220835D01*
X773224Y220769D01*
X773195Y220704D01*
X773162Y220640D01*
X773126Y220579D01*
X773086Y220519D01*
X773044Y220462D01*
X772998Y220407D01*
X772950Y220354D01*
X772899Y220305D01*
X772845Y220258D01*
X772789Y220214D01*
X772730Y220173D01*
X772670Y220135D01*
X772607Y220100D01*
X772543Y220069D01*
X772477Y220041D01*
X772410Y220017D01*
X772342Y219996D01*
X772272Y219979D01*
X772202Y219966D01*
X772132Y219957D01*
X772060Y219951D01*
X771989Y219949D01*
X771989Y219950D02*
X770648Y219950D01*
X772257Y219950D02*
X773329Y217805D01*
X777545Y222631D02*
X777613Y222629D01*
X777680Y222623D01*
X777747Y222614D01*
X777814Y222601D01*
X777879Y222584D01*
X777944Y222563D01*
X778007Y222539D01*
X778069Y222511D01*
X778129Y222480D01*
X778187Y222446D01*
X778243Y222408D01*
X778298Y222368D01*
X778349Y222324D01*
X778398Y222277D01*
X778445Y222228D01*
X778489Y222177D01*
X778529Y222122D01*
X778567Y222066D01*
X778601Y222008D01*
X778632Y221948D01*
X778660Y221886D01*
X778684Y221823D01*
X778705Y221758D01*
X778722Y221693D01*
X778735Y221626D01*
X778744Y221559D01*
X778750Y221492D01*
X778752Y221424D01*
X777545Y222631D02*
X777467Y222629D01*
X777389Y222623D01*
X777312Y222613D01*
X777235Y222600D01*
X777159Y222582D01*
X777084Y222561D01*
X777010Y222536D01*
X776938Y222507D01*
X776867Y222475D01*
X776798Y222439D01*
X776730Y222400D01*
X776665Y222357D01*
X776602Y222311D01*
X776541Y222262D01*
X776483Y222210D01*
X776428Y222155D01*
X776375Y222098D01*
X776326Y222038D01*
X776279Y221975D01*
X776236Y221911D01*
X776196Y221844D01*
X776159Y221775D01*
X776126Y221704D01*
X776096Y221632D01*
X776070Y221559D01*
X778350Y220486D02*
X778399Y220535D01*
X778446Y220587D01*
X778489Y220642D01*
X778530Y220699D01*
X778568Y220758D01*
X778602Y220819D01*
X778633Y220882D01*
X778661Y220946D01*
X778685Y221012D01*
X778705Y221078D01*
X778722Y221146D01*
X778735Y221215D01*
X778744Y221284D01*
X778750Y221354D01*
X778752Y221424D01*
X778350Y220486D02*
X776071Y217805D01*
X778752Y217805D01*
D12*
X800100Y598170D02*
X749300Y598170D01*
X800100Y598170D02*
X800100Y590550D01*
X800100Y582930D01*
X749300Y582930D01*
X749300Y590550D01*
X749300Y598170D01*
X800100Y590550D02*
X802640Y590550D01*
X749300Y590550D02*
X746760Y590550D01*
D11*
X770648Y598805D02*
X770648Y603631D01*
X771989Y603631D01*
X772060Y603629D01*
X772132Y603623D01*
X772202Y603614D01*
X772272Y603601D01*
X772342Y603584D01*
X772410Y603563D01*
X772477Y603539D01*
X772543Y603511D01*
X772607Y603480D01*
X772670Y603445D01*
X772730Y603407D01*
X772789Y603366D01*
X772845Y603322D01*
X772899Y603275D01*
X772950Y603226D01*
X772998Y603173D01*
X773044Y603118D01*
X773086Y603061D01*
X773126Y603001D01*
X773162Y602940D01*
X773195Y602876D01*
X773224Y602811D01*
X773250Y602745D01*
X773273Y602677D01*
X773292Y602608D01*
X773307Y602538D01*
X773318Y602468D01*
X773326Y602397D01*
X773330Y602326D01*
X773330Y602254D01*
X773326Y602183D01*
X773318Y602112D01*
X773307Y602042D01*
X773292Y601972D01*
X773273Y601903D01*
X773250Y601835D01*
X773224Y601769D01*
X773195Y601704D01*
X773162Y601640D01*
X773126Y601579D01*
X773086Y601519D01*
X773044Y601462D01*
X772998Y601407D01*
X772950Y601354D01*
X772899Y601305D01*
X772845Y601258D01*
X772789Y601214D01*
X772730Y601173D01*
X772670Y601135D01*
X772607Y601100D01*
X772543Y601069D01*
X772477Y601041D01*
X772410Y601017D01*
X772342Y600996D01*
X772272Y600979D01*
X772202Y600966D01*
X772132Y600957D01*
X772060Y600951D01*
X771989Y600949D01*
X771989Y600950D02*
X770648Y600950D01*
X772257Y600950D02*
X773329Y598805D01*
X776071Y598805D02*
X777411Y598805D01*
X777482Y598807D01*
X777554Y598813D01*
X777624Y598822D01*
X777694Y598835D01*
X777764Y598852D01*
X777832Y598873D01*
X777899Y598897D01*
X777965Y598925D01*
X778029Y598956D01*
X778092Y598991D01*
X778152Y599029D01*
X778211Y599070D01*
X778267Y599114D01*
X778321Y599161D01*
X778372Y599210D01*
X778420Y599263D01*
X778466Y599318D01*
X778508Y599375D01*
X778548Y599435D01*
X778584Y599496D01*
X778617Y599560D01*
X778646Y599625D01*
X778672Y599691D01*
X778695Y599759D01*
X778714Y599828D01*
X778729Y599898D01*
X778740Y599968D01*
X778748Y600039D01*
X778752Y600110D01*
X778752Y600182D01*
X778748Y600253D01*
X778740Y600324D01*
X778729Y600394D01*
X778714Y600464D01*
X778695Y600533D01*
X778672Y600601D01*
X778646Y600667D01*
X778617Y600732D01*
X778584Y600796D01*
X778548Y600857D01*
X778508Y600917D01*
X778466Y600974D01*
X778420Y601029D01*
X778372Y601082D01*
X778321Y601131D01*
X778267Y601178D01*
X778211Y601222D01*
X778152Y601263D01*
X778092Y601301D01*
X778029Y601336D01*
X777965Y601367D01*
X777899Y601395D01*
X777832Y601419D01*
X777764Y601440D01*
X777694Y601457D01*
X777624Y601470D01*
X777554Y601479D01*
X777482Y601485D01*
X777411Y601487D01*
X777679Y603631D02*
X776071Y603631D01*
X777679Y603631D02*
X777744Y603629D01*
X777808Y603623D01*
X777872Y603613D01*
X777936Y603600D01*
X777998Y603582D01*
X778059Y603561D01*
X778119Y603537D01*
X778177Y603508D01*
X778234Y603476D01*
X778288Y603441D01*
X778340Y603403D01*
X778390Y603361D01*
X778437Y603317D01*
X778481Y603270D01*
X778523Y603220D01*
X778561Y603168D01*
X778596Y603114D01*
X778628Y603057D01*
X778657Y602999D01*
X778681Y602939D01*
X778702Y602878D01*
X778720Y602816D01*
X778733Y602752D01*
X778743Y602688D01*
X778749Y602624D01*
X778751Y602559D01*
X778749Y602494D01*
X778743Y602430D01*
X778733Y602366D01*
X778720Y602302D01*
X778702Y602240D01*
X778681Y602179D01*
X778657Y602119D01*
X778628Y602061D01*
X778596Y602004D01*
X778561Y601950D01*
X778523Y601898D01*
X778481Y601848D01*
X778437Y601801D01*
X778390Y601757D01*
X778340Y601715D01*
X778288Y601677D01*
X778234Y601642D01*
X778177Y601610D01*
X778119Y601581D01*
X778059Y601557D01*
X777998Y601536D01*
X777936Y601518D01*
X777872Y601505D01*
X777808Y601495D01*
X777744Y601489D01*
X777679Y601487D01*
X777679Y601486D02*
X776607Y601486D01*
D12*
X800100Y787400D02*
X749300Y787400D01*
X800100Y787400D02*
X800100Y779780D01*
X800100Y772160D01*
X749300Y772160D01*
X749300Y779780D01*
X749300Y787400D01*
X800100Y779780D02*
X802640Y779780D01*
X749300Y779780D02*
X746760Y779780D01*
D11*
X770648Y788035D02*
X770648Y792861D01*
X771989Y792861D01*
X772060Y792859D01*
X772132Y792853D01*
X772202Y792844D01*
X772272Y792831D01*
X772342Y792814D01*
X772410Y792793D01*
X772477Y792769D01*
X772543Y792741D01*
X772607Y792710D01*
X772670Y792675D01*
X772730Y792637D01*
X772789Y792596D01*
X772845Y792552D01*
X772899Y792505D01*
X772950Y792456D01*
X772998Y792403D01*
X773044Y792348D01*
X773086Y792291D01*
X773126Y792231D01*
X773162Y792170D01*
X773195Y792106D01*
X773224Y792041D01*
X773250Y791975D01*
X773273Y791907D01*
X773292Y791838D01*
X773307Y791768D01*
X773318Y791698D01*
X773326Y791627D01*
X773330Y791556D01*
X773330Y791484D01*
X773326Y791413D01*
X773318Y791342D01*
X773307Y791272D01*
X773292Y791202D01*
X773273Y791133D01*
X773250Y791065D01*
X773224Y790999D01*
X773195Y790934D01*
X773162Y790870D01*
X773126Y790809D01*
X773086Y790749D01*
X773044Y790692D01*
X772998Y790637D01*
X772950Y790584D01*
X772899Y790535D01*
X772845Y790488D01*
X772789Y790444D01*
X772730Y790403D01*
X772670Y790365D01*
X772607Y790330D01*
X772543Y790299D01*
X772477Y790271D01*
X772410Y790247D01*
X772342Y790226D01*
X772272Y790209D01*
X772202Y790196D01*
X772132Y790187D01*
X772060Y790181D01*
X771989Y790179D01*
X771989Y790180D02*
X770648Y790180D01*
X772257Y790180D02*
X773329Y788035D01*
X776071Y789107D02*
X777143Y792861D01*
X776071Y789107D02*
X778752Y789107D01*
X777948Y790180D02*
X777948Y788035D01*
D12*
X798830Y974090D02*
X748030Y974090D01*
X798830Y974090D02*
X798830Y966470D01*
X798830Y958850D01*
X748030Y958850D01*
X748030Y966470D01*
X748030Y974090D01*
X798830Y966470D02*
X801370Y966470D01*
X748030Y966470D02*
X745490Y966470D01*
D11*
X769378Y974725D02*
X769378Y979551D01*
X770719Y979551D01*
X770790Y979549D01*
X770862Y979543D01*
X770932Y979534D01*
X771002Y979521D01*
X771072Y979504D01*
X771140Y979483D01*
X771207Y979459D01*
X771273Y979431D01*
X771337Y979400D01*
X771400Y979365D01*
X771460Y979327D01*
X771519Y979286D01*
X771575Y979242D01*
X771629Y979195D01*
X771680Y979146D01*
X771728Y979093D01*
X771774Y979038D01*
X771816Y978981D01*
X771856Y978921D01*
X771892Y978860D01*
X771925Y978796D01*
X771954Y978731D01*
X771980Y978665D01*
X772003Y978597D01*
X772022Y978528D01*
X772037Y978458D01*
X772048Y978388D01*
X772056Y978317D01*
X772060Y978246D01*
X772060Y978174D01*
X772056Y978103D01*
X772048Y978032D01*
X772037Y977962D01*
X772022Y977892D01*
X772003Y977823D01*
X771980Y977755D01*
X771954Y977689D01*
X771925Y977624D01*
X771892Y977560D01*
X771856Y977499D01*
X771816Y977439D01*
X771774Y977382D01*
X771728Y977327D01*
X771680Y977274D01*
X771629Y977225D01*
X771575Y977178D01*
X771519Y977134D01*
X771460Y977093D01*
X771400Y977055D01*
X771337Y977020D01*
X771273Y976989D01*
X771207Y976961D01*
X771140Y976937D01*
X771072Y976916D01*
X771002Y976899D01*
X770932Y976886D01*
X770862Y976877D01*
X770790Y976871D01*
X770719Y976869D01*
X770719Y976870D02*
X769378Y976870D01*
X770987Y976870D02*
X772059Y974725D01*
X774801Y974725D02*
X776409Y974725D01*
X776474Y974727D01*
X776538Y974733D01*
X776602Y974743D01*
X776666Y974756D01*
X776728Y974774D01*
X776789Y974795D01*
X776849Y974819D01*
X776907Y974848D01*
X776964Y974880D01*
X777018Y974915D01*
X777070Y974953D01*
X777120Y974995D01*
X777167Y975039D01*
X777211Y975086D01*
X777253Y975136D01*
X777291Y975188D01*
X777326Y975242D01*
X777358Y975299D01*
X777387Y975357D01*
X777411Y975417D01*
X777432Y975478D01*
X777450Y975540D01*
X777463Y975604D01*
X777473Y975668D01*
X777479Y975732D01*
X777481Y975797D01*
X777482Y975797D02*
X777482Y976334D01*
X777481Y976334D02*
X777479Y976399D01*
X777473Y976463D01*
X777463Y976527D01*
X777450Y976591D01*
X777432Y976653D01*
X777411Y976714D01*
X777387Y976774D01*
X777358Y976832D01*
X777326Y976889D01*
X777291Y976943D01*
X777253Y976995D01*
X777211Y977045D01*
X777167Y977092D01*
X777120Y977136D01*
X777070Y977178D01*
X777018Y977216D01*
X776964Y977251D01*
X776907Y977283D01*
X776849Y977312D01*
X776789Y977336D01*
X776728Y977357D01*
X776666Y977375D01*
X776602Y977388D01*
X776538Y977398D01*
X776474Y977404D01*
X776409Y977406D01*
X774801Y977406D01*
X774801Y979551D01*
X777482Y979551D01*
D10*
X419100Y260350D02*
X419100Y247650D01*
X412750Y241300D01*
X400050Y241300D02*
X393700Y247650D01*
X412750Y241300D02*
X419100Y234950D01*
X419100Y222250D01*
X412750Y215900D01*
X400050Y215900D02*
X393700Y222250D01*
X393700Y234950D01*
X400050Y241300D01*
X400050Y266700D02*
X412750Y266700D01*
X419100Y260350D01*
X400050Y266700D02*
X393700Y260350D01*
X393700Y247650D01*
X412750Y215900D02*
X419100Y209550D01*
X419100Y196850D01*
X412750Y190500D01*
X400050Y190500D02*
X393700Y196850D01*
X393700Y209550D01*
X400050Y215900D01*
X419100Y184150D02*
X419100Y171450D01*
X412750Y165100D01*
X400050Y165100D02*
X393700Y171450D01*
X412750Y165100D02*
X419100Y158750D01*
X419100Y146050D01*
X412750Y139700D01*
X400050Y139700D02*
X393700Y146050D01*
X393700Y158750D01*
X400050Y165100D01*
X419100Y184150D02*
X412750Y190500D01*
X400050Y190500D02*
X393700Y184150D01*
X393700Y171450D01*
X412750Y139700D02*
X419100Y133350D01*
X419100Y120650D01*
X412750Y114300D01*
X400050Y114300D02*
X393700Y120650D01*
X393700Y133350D01*
X400050Y139700D01*
X400050Y114300D02*
X412750Y114300D01*
D11*
X380365Y253365D02*
X377825Y256540D01*
X389255Y256540D01*
X389255Y253365D02*
X389255Y259715D01*
X428625Y130175D02*
X428625Y126365D01*
X428625Y130175D02*
X428627Y130275D01*
X428633Y130374D01*
X428643Y130474D01*
X428656Y130572D01*
X428674Y130671D01*
X428695Y130768D01*
X428720Y130864D01*
X428749Y130960D01*
X428782Y131054D01*
X428818Y131147D01*
X428858Y131238D01*
X428902Y131328D01*
X428949Y131416D01*
X428999Y131502D01*
X429053Y131586D01*
X429110Y131668D01*
X429170Y131747D01*
X429234Y131825D01*
X429300Y131899D01*
X429369Y131971D01*
X429441Y132040D01*
X429515Y132106D01*
X429593Y132170D01*
X429672Y132230D01*
X429754Y132287D01*
X429838Y132341D01*
X429924Y132391D01*
X430012Y132438D01*
X430102Y132482D01*
X430193Y132522D01*
X430286Y132558D01*
X430380Y132591D01*
X430476Y132620D01*
X430572Y132645D01*
X430669Y132666D01*
X430768Y132684D01*
X430866Y132697D01*
X430966Y132707D01*
X431065Y132713D01*
X431165Y132715D01*
X431800Y132715D01*
X431911Y132713D01*
X432021Y132707D01*
X432132Y132698D01*
X432242Y132684D01*
X432351Y132667D01*
X432460Y132646D01*
X432568Y132621D01*
X432675Y132592D01*
X432781Y132560D01*
X432886Y132524D01*
X432989Y132484D01*
X433091Y132441D01*
X433192Y132394D01*
X433291Y132343D01*
X433388Y132290D01*
X433482Y132233D01*
X433575Y132172D01*
X433666Y132109D01*
X433755Y132042D01*
X433841Y131972D01*
X433924Y131899D01*
X434006Y131824D01*
X434084Y131746D01*
X434159Y131664D01*
X434232Y131581D01*
X434302Y131495D01*
X434369Y131406D01*
X434432Y131315D01*
X434493Y131222D01*
X434550Y131127D01*
X434603Y131031D01*
X434654Y130932D01*
X434701Y130831D01*
X434744Y130729D01*
X434784Y130626D01*
X434820Y130521D01*
X434852Y130415D01*
X434881Y130308D01*
X434906Y130200D01*
X434927Y130091D01*
X434944Y129982D01*
X434958Y129872D01*
X434967Y129761D01*
X434973Y129651D01*
X434975Y129540D01*
X434973Y129429D01*
X434967Y129319D01*
X434958Y129208D01*
X434944Y129098D01*
X434927Y128989D01*
X434906Y128880D01*
X434881Y128772D01*
X434852Y128665D01*
X434820Y128559D01*
X434784Y128454D01*
X434744Y128351D01*
X434701Y128249D01*
X434654Y128148D01*
X434603Y128049D01*
X434550Y127952D01*
X434493Y127858D01*
X434432Y127765D01*
X434369Y127674D01*
X434302Y127585D01*
X434232Y127499D01*
X434159Y127416D01*
X434084Y127334D01*
X434006Y127256D01*
X433924Y127181D01*
X433841Y127108D01*
X433755Y127038D01*
X433666Y126971D01*
X433575Y126908D01*
X433482Y126847D01*
X433388Y126790D01*
X433291Y126737D01*
X433192Y126686D01*
X433091Y126639D01*
X432989Y126596D01*
X432886Y126556D01*
X432781Y126520D01*
X432675Y126488D01*
X432568Y126459D01*
X432460Y126434D01*
X432351Y126413D01*
X432242Y126396D01*
X432132Y126382D01*
X432021Y126373D01*
X431911Y126367D01*
X431800Y126365D01*
X428625Y126365D01*
X428485Y126367D01*
X428345Y126373D01*
X428205Y126382D01*
X428066Y126396D01*
X427927Y126413D01*
X427789Y126434D01*
X427651Y126459D01*
X427514Y126488D01*
X427378Y126520D01*
X427243Y126557D01*
X427109Y126597D01*
X426976Y126640D01*
X426844Y126688D01*
X426713Y126738D01*
X426584Y126793D01*
X426457Y126851D01*
X426331Y126912D01*
X426207Y126977D01*
X426085Y127046D01*
X425965Y127117D01*
X425847Y127192D01*
X425730Y127270D01*
X425616Y127352D01*
X425505Y127436D01*
X425396Y127524D01*
X425289Y127614D01*
X425184Y127708D01*
X425083Y127804D01*
X424984Y127903D01*
X424888Y128004D01*
X424794Y128109D01*
X424704Y128216D01*
X424616Y128325D01*
X424532Y128436D01*
X424450Y128550D01*
X424372Y128667D01*
X424297Y128785D01*
X424226Y128905D01*
X424157Y129027D01*
X424092Y129151D01*
X424031Y129277D01*
X423973Y129404D01*
X423918Y129533D01*
X423868Y129664D01*
X423820Y129796D01*
X423777Y129929D01*
X423737Y130063D01*
X423700Y130198D01*
X423668Y130334D01*
X423639Y130471D01*
X423614Y130609D01*
X423593Y130747D01*
X423576Y130886D01*
X423562Y131025D01*
X423553Y131165D01*
X423547Y131305D01*
X423545Y131445D01*
X434975Y241046D02*
X434973Y241146D01*
X434967Y241245D01*
X434957Y241345D01*
X434944Y241443D01*
X434926Y241542D01*
X434905Y241639D01*
X434880Y241735D01*
X434851Y241831D01*
X434818Y241925D01*
X434782Y242018D01*
X434742Y242109D01*
X434698Y242199D01*
X434651Y242287D01*
X434601Y242373D01*
X434547Y242457D01*
X434490Y242539D01*
X434430Y242618D01*
X434366Y242696D01*
X434300Y242770D01*
X434231Y242842D01*
X434159Y242911D01*
X434085Y242977D01*
X434007Y243041D01*
X433928Y243101D01*
X433846Y243158D01*
X433762Y243212D01*
X433676Y243262D01*
X433588Y243309D01*
X433498Y243353D01*
X433407Y243393D01*
X433314Y243429D01*
X433220Y243462D01*
X433124Y243491D01*
X433028Y243516D01*
X432931Y243537D01*
X432832Y243555D01*
X432734Y243568D01*
X432634Y243578D01*
X432535Y243584D01*
X432435Y243586D01*
X434975Y241046D02*
X434973Y240905D01*
X434968Y240764D01*
X434958Y240623D01*
X434945Y240482D01*
X434929Y240342D01*
X434908Y240202D01*
X434884Y240063D01*
X434856Y239924D01*
X434825Y239787D01*
X434790Y239650D01*
X434752Y239514D01*
X434710Y239379D01*
X434664Y239246D01*
X434615Y239113D01*
X434562Y238982D01*
X434506Y238853D01*
X434447Y238724D01*
X434384Y238598D01*
X434318Y238473D01*
X434249Y238350D01*
X434176Y238229D01*
X434100Y238110D01*
X434021Y237992D01*
X433940Y237877D01*
X433855Y237765D01*
X433767Y237654D01*
X433676Y237546D01*
X433583Y237440D01*
X433486Y237337D01*
X433387Y237236D01*
X426085Y237554D02*
X425985Y237556D01*
X425886Y237562D01*
X425786Y237572D01*
X425688Y237585D01*
X425589Y237603D01*
X425492Y237624D01*
X425396Y237649D01*
X425300Y237678D01*
X425206Y237711D01*
X425113Y237747D01*
X425022Y237787D01*
X424932Y237831D01*
X424844Y237878D01*
X424758Y237928D01*
X424674Y237982D01*
X424592Y238039D01*
X424513Y238099D01*
X424435Y238163D01*
X424361Y238229D01*
X424289Y238298D01*
X424220Y238370D01*
X424154Y238444D01*
X424090Y238522D01*
X424030Y238601D01*
X423973Y238683D01*
X423919Y238767D01*
X423869Y238853D01*
X423822Y238941D01*
X423778Y239031D01*
X423738Y239122D01*
X423702Y239215D01*
X423669Y239309D01*
X423640Y239405D01*
X423615Y239501D01*
X423594Y239598D01*
X423576Y239697D01*
X423563Y239795D01*
X423553Y239895D01*
X423547Y239994D01*
X423545Y240094D01*
X423547Y240227D01*
X423552Y240360D01*
X423562Y240493D01*
X423575Y240626D01*
X423592Y240758D01*
X423612Y240890D01*
X423636Y241021D01*
X423664Y241151D01*
X423695Y241281D01*
X423730Y241409D01*
X423769Y241537D01*
X423811Y241663D01*
X423857Y241788D01*
X423906Y241912D01*
X423958Y242035D01*
X424014Y242156D01*
X424074Y242275D01*
X424136Y242393D01*
X424202Y242508D01*
X424271Y242622D01*
X424344Y242734D01*
X424419Y242844D01*
X424498Y242952D01*
X428308Y238823D02*
X428256Y238739D01*
X428201Y238656D01*
X428142Y238576D01*
X428081Y238498D01*
X428017Y238423D01*
X427949Y238350D01*
X427879Y238279D01*
X427807Y238212D01*
X427732Y238147D01*
X427654Y238085D01*
X427574Y238026D01*
X427492Y237970D01*
X427408Y237918D01*
X427322Y237869D01*
X427234Y237823D01*
X427144Y237780D01*
X427053Y237741D01*
X426960Y237706D01*
X426866Y237674D01*
X426771Y237646D01*
X426675Y237621D01*
X426578Y237601D01*
X426480Y237583D01*
X426382Y237570D01*
X426283Y237561D01*
X426184Y237555D01*
X426085Y237553D01*
X430212Y242316D02*
X430264Y242400D01*
X430319Y242483D01*
X430378Y242563D01*
X430439Y242641D01*
X430503Y242716D01*
X430571Y242789D01*
X430641Y242860D01*
X430713Y242927D01*
X430788Y242992D01*
X430866Y243054D01*
X430946Y243113D01*
X431028Y243169D01*
X431112Y243221D01*
X431198Y243270D01*
X431286Y243316D01*
X431376Y243359D01*
X431467Y243398D01*
X431560Y243433D01*
X431654Y243465D01*
X431749Y243493D01*
X431845Y243518D01*
X431942Y243538D01*
X432040Y243556D01*
X432138Y243569D01*
X432237Y243578D01*
X432336Y243584D01*
X432435Y243586D01*
X430213Y242316D02*
X428308Y238824D01*
X423545Y247650D02*
X434975Y251460D01*
X423545Y255270D01*
X426085Y259715D02*
X423545Y262890D01*
X434975Y262890D01*
X434975Y259715D02*
X434975Y266065D01*
D10*
X596900Y260350D02*
X596900Y247650D01*
X590550Y241300D01*
X577850Y241300D02*
X571500Y247650D01*
X590550Y241300D02*
X596900Y234950D01*
X596900Y222250D01*
X590550Y215900D01*
X577850Y215900D02*
X571500Y222250D01*
X571500Y234950D01*
X577850Y241300D01*
X577850Y266700D02*
X590550Y266700D01*
X596900Y260350D01*
X577850Y266700D02*
X571500Y260350D01*
X571500Y247650D01*
X590550Y215900D02*
X596900Y209550D01*
X596900Y196850D01*
X590550Y190500D01*
X577850Y190500D02*
X571500Y196850D01*
X571500Y209550D01*
X577850Y215900D01*
X596900Y184150D02*
X596900Y171450D01*
X590550Y165100D01*
X577850Y165100D02*
X571500Y171450D01*
X590550Y165100D02*
X596900Y158750D01*
X596900Y146050D01*
X590550Y139700D01*
X577850Y139700D02*
X571500Y146050D01*
X571500Y158750D01*
X577850Y165100D01*
X596900Y184150D02*
X590550Y190500D01*
X577850Y190500D02*
X571500Y184150D01*
X571500Y171450D01*
X590550Y139700D02*
X596900Y133350D01*
X596900Y120650D01*
X590550Y114300D01*
X577850Y114300D02*
X571500Y120650D01*
X571500Y133350D01*
X577850Y139700D01*
X596900Y107950D02*
X596900Y95250D01*
X590550Y88900D01*
X577850Y88900D01*
X571500Y95250D01*
X590550Y114300D02*
X596900Y107950D01*
X577850Y114300D02*
X571500Y107950D01*
X571500Y95250D01*
D11*
X558165Y253365D02*
X555625Y256540D01*
X567055Y256540D01*
X567055Y253365D02*
X567055Y259715D01*
X601345Y98425D02*
X602615Y98425D01*
X601345Y98425D02*
X601345Y104775D01*
X612775Y101600D01*
X612775Y152146D02*
X612773Y152246D01*
X612767Y152345D01*
X612757Y152445D01*
X612744Y152543D01*
X612726Y152642D01*
X612705Y152739D01*
X612680Y152835D01*
X612651Y152931D01*
X612618Y153025D01*
X612582Y153118D01*
X612542Y153209D01*
X612498Y153299D01*
X612451Y153387D01*
X612401Y153473D01*
X612347Y153557D01*
X612290Y153639D01*
X612230Y153718D01*
X612166Y153796D01*
X612100Y153870D01*
X612031Y153942D01*
X611959Y154011D01*
X611885Y154077D01*
X611807Y154141D01*
X611728Y154201D01*
X611646Y154258D01*
X611562Y154312D01*
X611476Y154362D01*
X611388Y154409D01*
X611298Y154453D01*
X611207Y154493D01*
X611114Y154529D01*
X611020Y154562D01*
X610924Y154591D01*
X610828Y154616D01*
X610731Y154637D01*
X610632Y154655D01*
X610534Y154668D01*
X610434Y154678D01*
X610335Y154684D01*
X610235Y154686D01*
X612775Y152146D02*
X612773Y152005D01*
X612768Y151864D01*
X612758Y151723D01*
X612745Y151582D01*
X612729Y151442D01*
X612708Y151302D01*
X612684Y151163D01*
X612656Y151024D01*
X612625Y150887D01*
X612590Y150750D01*
X612552Y150614D01*
X612510Y150479D01*
X612464Y150346D01*
X612415Y150213D01*
X612362Y150082D01*
X612306Y149953D01*
X612247Y149824D01*
X612184Y149698D01*
X612118Y149573D01*
X612049Y149450D01*
X611976Y149329D01*
X611900Y149210D01*
X611821Y149092D01*
X611740Y148977D01*
X611655Y148865D01*
X611567Y148754D01*
X611476Y148646D01*
X611383Y148540D01*
X611286Y148437D01*
X611187Y148336D01*
X603885Y148654D02*
X603785Y148656D01*
X603686Y148662D01*
X603586Y148672D01*
X603488Y148685D01*
X603389Y148703D01*
X603292Y148724D01*
X603196Y148749D01*
X603100Y148778D01*
X603006Y148811D01*
X602913Y148847D01*
X602822Y148887D01*
X602732Y148931D01*
X602644Y148978D01*
X602558Y149028D01*
X602474Y149082D01*
X602392Y149139D01*
X602313Y149199D01*
X602235Y149263D01*
X602161Y149329D01*
X602089Y149398D01*
X602020Y149470D01*
X601954Y149544D01*
X601890Y149622D01*
X601830Y149701D01*
X601773Y149783D01*
X601719Y149867D01*
X601669Y149953D01*
X601622Y150041D01*
X601578Y150131D01*
X601538Y150222D01*
X601502Y150315D01*
X601469Y150409D01*
X601440Y150505D01*
X601415Y150601D01*
X601394Y150698D01*
X601376Y150797D01*
X601363Y150895D01*
X601353Y150995D01*
X601347Y151094D01*
X601345Y151194D01*
X601347Y151327D01*
X601352Y151460D01*
X601362Y151593D01*
X601375Y151726D01*
X601392Y151858D01*
X601412Y151990D01*
X601436Y152121D01*
X601464Y152251D01*
X601495Y152381D01*
X601530Y152509D01*
X601569Y152637D01*
X601611Y152763D01*
X601657Y152888D01*
X601706Y153012D01*
X601758Y153135D01*
X601814Y153256D01*
X601874Y153375D01*
X601936Y153493D01*
X602002Y153608D01*
X602071Y153722D01*
X602144Y153834D01*
X602219Y153944D01*
X602298Y154052D01*
X606108Y149923D02*
X606056Y149839D01*
X606001Y149756D01*
X605942Y149676D01*
X605881Y149598D01*
X605817Y149523D01*
X605749Y149450D01*
X605679Y149379D01*
X605607Y149312D01*
X605532Y149247D01*
X605454Y149185D01*
X605374Y149126D01*
X605292Y149070D01*
X605208Y149018D01*
X605122Y148969D01*
X605034Y148923D01*
X604944Y148880D01*
X604853Y148841D01*
X604760Y148806D01*
X604666Y148774D01*
X604571Y148746D01*
X604475Y148721D01*
X604378Y148701D01*
X604280Y148683D01*
X604182Y148670D01*
X604083Y148661D01*
X603984Y148655D01*
X603885Y148653D01*
X608012Y153416D02*
X608064Y153500D01*
X608119Y153583D01*
X608178Y153663D01*
X608239Y153741D01*
X608303Y153816D01*
X608371Y153889D01*
X608441Y153960D01*
X608513Y154027D01*
X608588Y154092D01*
X608666Y154154D01*
X608746Y154213D01*
X608828Y154269D01*
X608912Y154321D01*
X608998Y154370D01*
X609086Y154416D01*
X609176Y154459D01*
X609267Y154498D01*
X609360Y154533D01*
X609454Y154565D01*
X609549Y154593D01*
X609645Y154618D01*
X609742Y154638D01*
X609840Y154656D01*
X609938Y154669D01*
X610037Y154678D01*
X610136Y154684D01*
X610235Y154686D01*
X608013Y153416D02*
X606108Y149924D01*
X601345Y158750D02*
X612775Y162560D01*
X601345Y166370D01*
X601345Y174308D02*
X601347Y174412D01*
X601353Y174517D01*
X601362Y174621D01*
X601375Y174724D01*
X601393Y174827D01*
X601413Y174929D01*
X601438Y175031D01*
X601466Y175131D01*
X601498Y175231D01*
X601534Y175329D01*
X601573Y175426D01*
X601615Y175521D01*
X601661Y175615D01*
X601711Y175707D01*
X601763Y175797D01*
X601819Y175885D01*
X601879Y175971D01*
X601941Y176055D01*
X602006Y176136D01*
X602074Y176215D01*
X602146Y176292D01*
X602219Y176365D01*
X602296Y176437D01*
X602375Y176505D01*
X602456Y176570D01*
X602540Y176632D01*
X602626Y176692D01*
X602714Y176748D01*
X602804Y176800D01*
X602896Y176850D01*
X602990Y176896D01*
X603085Y176938D01*
X603182Y176977D01*
X603280Y177013D01*
X603380Y177045D01*
X603480Y177073D01*
X603582Y177098D01*
X603684Y177118D01*
X603787Y177136D01*
X603890Y177149D01*
X603994Y177158D01*
X604099Y177164D01*
X604203Y177166D01*
X601345Y174308D02*
X601347Y174190D01*
X601353Y174071D01*
X601362Y173953D01*
X601375Y173836D01*
X601393Y173719D01*
X601413Y173602D01*
X601438Y173486D01*
X601466Y173371D01*
X601499Y173258D01*
X601534Y173145D01*
X601574Y173033D01*
X601616Y172923D01*
X601663Y172814D01*
X601713Y172706D01*
X601766Y172601D01*
X601823Y172497D01*
X601883Y172395D01*
X601946Y172295D01*
X602013Y172197D01*
X602082Y172101D01*
X602155Y172008D01*
X602231Y171917D01*
X602309Y171828D01*
X602391Y171742D01*
X602475Y171659D01*
X602561Y171578D01*
X602651Y171501D01*
X602742Y171426D01*
X602836Y171354D01*
X602933Y171285D01*
X603031Y171220D01*
X603132Y171157D01*
X603235Y171098D01*
X603339Y171042D01*
X603445Y170990D01*
X603553Y170941D01*
X603662Y170896D01*
X603773Y170854D01*
X603885Y170816D01*
X606425Y176213D02*
X606350Y176289D01*
X606271Y176364D01*
X606190Y176435D01*
X606106Y176504D01*
X606020Y176569D01*
X605932Y176631D01*
X605842Y176691D01*
X605750Y176747D01*
X605655Y176800D01*
X605559Y176849D01*
X605461Y176895D01*
X605362Y176938D01*
X605261Y176977D01*
X605159Y177012D01*
X605056Y177044D01*
X604952Y177072D01*
X604847Y177097D01*
X604740Y177118D01*
X604634Y177135D01*
X604527Y177148D01*
X604419Y177157D01*
X604311Y177163D01*
X604203Y177165D01*
X606425Y176213D02*
X612775Y170815D01*
X612775Y177165D01*
D12*
X610870Y584200D02*
X560070Y584200D01*
X560070Y591820D01*
X560070Y599440D01*
X610870Y599440D01*
X610870Y591820D01*
X610870Y584200D01*
X560070Y591820D02*
X557530Y591820D01*
X610870Y591820D02*
X613410Y591820D01*
D11*
X581418Y581025D02*
X581418Y576199D01*
X581418Y581025D02*
X582759Y581025D01*
X582830Y581023D01*
X582902Y581017D01*
X582972Y581008D01*
X583042Y580995D01*
X583112Y580978D01*
X583180Y580957D01*
X583247Y580933D01*
X583313Y580905D01*
X583377Y580874D01*
X583440Y580839D01*
X583500Y580801D01*
X583559Y580760D01*
X583615Y580716D01*
X583669Y580669D01*
X583720Y580620D01*
X583768Y580567D01*
X583814Y580512D01*
X583856Y580455D01*
X583896Y580395D01*
X583932Y580334D01*
X583965Y580270D01*
X583994Y580205D01*
X584020Y580139D01*
X584043Y580071D01*
X584062Y580002D01*
X584077Y579932D01*
X584088Y579862D01*
X584096Y579791D01*
X584100Y579720D01*
X584100Y579648D01*
X584096Y579577D01*
X584088Y579506D01*
X584077Y579436D01*
X584062Y579366D01*
X584043Y579297D01*
X584020Y579229D01*
X583994Y579163D01*
X583965Y579098D01*
X583932Y579034D01*
X583896Y578973D01*
X583856Y578913D01*
X583814Y578856D01*
X583768Y578801D01*
X583720Y578748D01*
X583669Y578699D01*
X583615Y578652D01*
X583559Y578608D01*
X583500Y578567D01*
X583440Y578529D01*
X583377Y578494D01*
X583313Y578463D01*
X583247Y578435D01*
X583180Y578411D01*
X583112Y578390D01*
X583042Y578373D01*
X582972Y578360D01*
X582902Y578351D01*
X582830Y578345D01*
X582759Y578343D01*
X582759Y578344D02*
X581418Y578344D01*
X583027Y578344D02*
X584099Y576199D01*
X586841Y578880D02*
X588449Y578880D01*
X588514Y578878D01*
X588578Y578872D01*
X588642Y578862D01*
X588706Y578849D01*
X588768Y578831D01*
X588829Y578810D01*
X588889Y578786D01*
X588947Y578757D01*
X589004Y578725D01*
X589058Y578690D01*
X589110Y578652D01*
X589160Y578610D01*
X589207Y578566D01*
X589251Y578519D01*
X589293Y578469D01*
X589331Y578417D01*
X589366Y578363D01*
X589398Y578306D01*
X589427Y578248D01*
X589451Y578188D01*
X589472Y578127D01*
X589490Y578065D01*
X589503Y578001D01*
X589513Y577937D01*
X589519Y577873D01*
X589521Y577808D01*
X589522Y577808D02*
X589522Y577540D01*
X589520Y577469D01*
X589514Y577397D01*
X589505Y577327D01*
X589492Y577257D01*
X589475Y577187D01*
X589454Y577119D01*
X589430Y577052D01*
X589402Y576986D01*
X589371Y576922D01*
X589336Y576859D01*
X589298Y576799D01*
X589257Y576740D01*
X589213Y576684D01*
X589166Y576630D01*
X589117Y576579D01*
X589064Y576531D01*
X589009Y576485D01*
X588952Y576443D01*
X588892Y576403D01*
X588831Y576367D01*
X588767Y576334D01*
X588702Y576305D01*
X588636Y576279D01*
X588568Y576256D01*
X588499Y576237D01*
X588429Y576222D01*
X588359Y576211D01*
X588288Y576203D01*
X588217Y576199D01*
X588145Y576199D01*
X588074Y576203D01*
X588003Y576211D01*
X587933Y576222D01*
X587863Y576237D01*
X587794Y576256D01*
X587726Y576279D01*
X587660Y576305D01*
X587595Y576334D01*
X587531Y576367D01*
X587470Y576403D01*
X587410Y576443D01*
X587353Y576485D01*
X587298Y576531D01*
X587245Y576579D01*
X587196Y576630D01*
X587149Y576684D01*
X587105Y576740D01*
X587064Y576799D01*
X587026Y576859D01*
X586991Y576922D01*
X586960Y576986D01*
X586932Y577052D01*
X586908Y577119D01*
X586887Y577187D01*
X586870Y577257D01*
X586857Y577327D01*
X586848Y577397D01*
X586842Y577469D01*
X586840Y577540D01*
X586841Y577540D02*
X586841Y578880D01*
X586843Y578971D01*
X586849Y579062D01*
X586858Y579152D01*
X586872Y579243D01*
X586889Y579332D01*
X586910Y579420D01*
X586935Y579508D01*
X586964Y579595D01*
X586996Y579680D01*
X587031Y579764D01*
X587071Y579846D01*
X587113Y579926D01*
X587159Y580005D01*
X587209Y580081D01*
X587261Y580155D01*
X587317Y580228D01*
X587376Y580297D01*
X587437Y580364D01*
X587502Y580429D01*
X587569Y580490D01*
X587638Y580549D01*
X587710Y580605D01*
X587785Y580657D01*
X587861Y580707D01*
X587940Y580753D01*
X588020Y580795D01*
X588102Y580835D01*
X588186Y580870D01*
X588271Y580902D01*
X588358Y580931D01*
X588445Y580956D01*
X588534Y580977D01*
X588623Y580994D01*
X588714Y581008D01*
X588804Y581017D01*
X588895Y581023D01*
X588986Y581025D01*
D12*
X598170Y774700D02*
X547370Y774700D01*
X547370Y782320D01*
X547370Y789940D01*
X598170Y789940D01*
X598170Y782320D01*
X598170Y774700D01*
X547370Y782320D02*
X544830Y782320D01*
X598170Y782320D02*
X600710Y782320D01*
D11*
X568718Y771525D02*
X568718Y766699D01*
X568718Y771525D02*
X570059Y771525D01*
X570130Y771523D01*
X570202Y771517D01*
X570272Y771508D01*
X570342Y771495D01*
X570412Y771478D01*
X570480Y771457D01*
X570547Y771433D01*
X570613Y771405D01*
X570677Y771374D01*
X570740Y771339D01*
X570800Y771301D01*
X570859Y771260D01*
X570915Y771216D01*
X570969Y771169D01*
X571020Y771120D01*
X571068Y771067D01*
X571114Y771012D01*
X571156Y770955D01*
X571196Y770895D01*
X571232Y770834D01*
X571265Y770770D01*
X571294Y770705D01*
X571320Y770639D01*
X571343Y770571D01*
X571362Y770502D01*
X571377Y770432D01*
X571388Y770362D01*
X571396Y770291D01*
X571400Y770220D01*
X571400Y770148D01*
X571396Y770077D01*
X571388Y770006D01*
X571377Y769936D01*
X571362Y769866D01*
X571343Y769797D01*
X571320Y769729D01*
X571294Y769663D01*
X571265Y769598D01*
X571232Y769534D01*
X571196Y769473D01*
X571156Y769413D01*
X571114Y769356D01*
X571068Y769301D01*
X571020Y769248D01*
X570969Y769199D01*
X570915Y769152D01*
X570859Y769108D01*
X570800Y769067D01*
X570740Y769029D01*
X570677Y768994D01*
X570613Y768963D01*
X570547Y768935D01*
X570480Y768911D01*
X570412Y768890D01*
X570342Y768873D01*
X570272Y768860D01*
X570202Y768851D01*
X570130Y768845D01*
X570059Y768843D01*
X570059Y768844D02*
X568718Y768844D01*
X570327Y768844D02*
X571399Y766699D01*
X574141Y770989D02*
X574141Y771525D01*
X576822Y771525D01*
X575481Y766699D01*
D12*
X598170Y958850D02*
X547370Y958850D01*
X547370Y966470D01*
X547370Y974090D01*
X598170Y974090D01*
X598170Y966470D01*
X598170Y958850D01*
X547370Y966470D02*
X544830Y966470D01*
X598170Y966470D02*
X600710Y966470D01*
D11*
X568718Y955675D02*
X568718Y950849D01*
X568718Y955675D02*
X570059Y955675D01*
X570130Y955673D01*
X570202Y955667D01*
X570272Y955658D01*
X570342Y955645D01*
X570412Y955628D01*
X570480Y955607D01*
X570547Y955583D01*
X570613Y955555D01*
X570677Y955524D01*
X570740Y955489D01*
X570800Y955451D01*
X570859Y955410D01*
X570915Y955366D01*
X570969Y955319D01*
X571020Y955270D01*
X571068Y955217D01*
X571114Y955162D01*
X571156Y955105D01*
X571196Y955045D01*
X571232Y954984D01*
X571265Y954920D01*
X571294Y954855D01*
X571320Y954789D01*
X571343Y954721D01*
X571362Y954652D01*
X571377Y954582D01*
X571388Y954512D01*
X571396Y954441D01*
X571400Y954370D01*
X571400Y954298D01*
X571396Y954227D01*
X571388Y954156D01*
X571377Y954086D01*
X571362Y954016D01*
X571343Y953947D01*
X571320Y953879D01*
X571294Y953813D01*
X571265Y953748D01*
X571232Y953684D01*
X571196Y953623D01*
X571156Y953563D01*
X571114Y953506D01*
X571068Y953451D01*
X571020Y953398D01*
X570969Y953349D01*
X570915Y953302D01*
X570859Y953258D01*
X570800Y953217D01*
X570740Y953179D01*
X570677Y953144D01*
X570613Y953113D01*
X570547Y953085D01*
X570480Y953061D01*
X570412Y953040D01*
X570342Y953023D01*
X570272Y953010D01*
X570202Y953001D01*
X570130Y952995D01*
X570059Y952993D01*
X570059Y952994D02*
X568718Y952994D01*
X570327Y952994D02*
X571399Y950849D01*
X574140Y952190D02*
X574142Y952261D01*
X574148Y952333D01*
X574157Y952403D01*
X574170Y952473D01*
X574187Y952543D01*
X574208Y952611D01*
X574232Y952678D01*
X574260Y952744D01*
X574291Y952808D01*
X574326Y952871D01*
X574364Y952931D01*
X574405Y952990D01*
X574449Y953046D01*
X574496Y953100D01*
X574545Y953151D01*
X574598Y953199D01*
X574653Y953245D01*
X574710Y953287D01*
X574770Y953327D01*
X574831Y953363D01*
X574895Y953396D01*
X574960Y953425D01*
X575026Y953451D01*
X575094Y953474D01*
X575163Y953493D01*
X575233Y953508D01*
X575303Y953519D01*
X575374Y953527D01*
X575445Y953531D01*
X575517Y953531D01*
X575588Y953527D01*
X575659Y953519D01*
X575729Y953508D01*
X575799Y953493D01*
X575868Y953474D01*
X575936Y953451D01*
X576002Y953425D01*
X576067Y953396D01*
X576131Y953363D01*
X576192Y953327D01*
X576252Y953287D01*
X576309Y953245D01*
X576364Y953199D01*
X576417Y953151D01*
X576466Y953100D01*
X576513Y953046D01*
X576557Y952990D01*
X576598Y952931D01*
X576636Y952871D01*
X576671Y952808D01*
X576702Y952744D01*
X576730Y952678D01*
X576754Y952611D01*
X576775Y952543D01*
X576792Y952473D01*
X576805Y952403D01*
X576814Y952333D01*
X576820Y952261D01*
X576822Y952190D01*
X576820Y952119D01*
X576814Y952047D01*
X576805Y951977D01*
X576792Y951907D01*
X576775Y951837D01*
X576754Y951769D01*
X576730Y951702D01*
X576702Y951636D01*
X576671Y951572D01*
X576636Y951509D01*
X576598Y951449D01*
X576557Y951390D01*
X576513Y951334D01*
X576466Y951280D01*
X576417Y951229D01*
X576364Y951181D01*
X576309Y951135D01*
X576252Y951093D01*
X576192Y951053D01*
X576131Y951017D01*
X576067Y950984D01*
X576002Y950955D01*
X575936Y950929D01*
X575868Y950906D01*
X575799Y950887D01*
X575729Y950872D01*
X575659Y950861D01*
X575588Y950853D01*
X575517Y950849D01*
X575445Y950849D01*
X575374Y950853D01*
X575303Y950861D01*
X575233Y950872D01*
X575163Y950887D01*
X575094Y950906D01*
X575026Y950929D01*
X574960Y950955D01*
X574895Y950984D01*
X574831Y951017D01*
X574770Y951053D01*
X574710Y951093D01*
X574653Y951135D01*
X574598Y951181D01*
X574545Y951229D01*
X574496Y951280D01*
X574449Y951334D01*
X574405Y951390D01*
X574364Y951449D01*
X574326Y951509D01*
X574291Y951572D01*
X574260Y951636D01*
X574232Y951702D01*
X574208Y951769D01*
X574187Y951837D01*
X574170Y951907D01*
X574157Y951977D01*
X574148Y952047D01*
X574142Y952119D01*
X574140Y952190D01*
X574409Y954603D02*
X574411Y954668D01*
X574417Y954732D01*
X574427Y954796D01*
X574440Y954860D01*
X574458Y954922D01*
X574479Y954983D01*
X574503Y955043D01*
X574532Y955101D01*
X574564Y955158D01*
X574599Y955212D01*
X574637Y955264D01*
X574679Y955314D01*
X574723Y955361D01*
X574770Y955405D01*
X574820Y955447D01*
X574872Y955485D01*
X574926Y955520D01*
X574983Y955552D01*
X575041Y955581D01*
X575101Y955605D01*
X575162Y955626D01*
X575224Y955644D01*
X575288Y955657D01*
X575352Y955667D01*
X575416Y955673D01*
X575481Y955675D01*
X575546Y955673D01*
X575610Y955667D01*
X575674Y955657D01*
X575738Y955644D01*
X575800Y955626D01*
X575861Y955605D01*
X575921Y955581D01*
X575979Y955552D01*
X576036Y955520D01*
X576090Y955485D01*
X576142Y955447D01*
X576192Y955405D01*
X576239Y955361D01*
X576283Y955314D01*
X576325Y955264D01*
X576363Y955212D01*
X576398Y955158D01*
X576430Y955101D01*
X576459Y955043D01*
X576483Y954983D01*
X576504Y954922D01*
X576522Y954860D01*
X576535Y954796D01*
X576545Y954732D01*
X576551Y954668D01*
X576553Y954603D01*
X576551Y954538D01*
X576545Y954474D01*
X576535Y954410D01*
X576522Y954346D01*
X576504Y954284D01*
X576483Y954223D01*
X576459Y954163D01*
X576430Y954105D01*
X576398Y954048D01*
X576363Y953994D01*
X576325Y953942D01*
X576283Y953892D01*
X576239Y953845D01*
X576192Y953801D01*
X576142Y953759D01*
X576090Y953721D01*
X576036Y953686D01*
X575979Y953654D01*
X575921Y953625D01*
X575861Y953601D01*
X575800Y953580D01*
X575738Y953562D01*
X575674Y953549D01*
X575610Y953539D01*
X575546Y953533D01*
X575481Y953531D01*
X575416Y953533D01*
X575352Y953539D01*
X575288Y953549D01*
X575224Y953562D01*
X575162Y953580D01*
X575101Y953601D01*
X575041Y953625D01*
X574983Y953654D01*
X574926Y953686D01*
X574872Y953721D01*
X574820Y953759D01*
X574770Y953801D01*
X574723Y953845D01*
X574679Y953892D01*
X574637Y953942D01*
X574599Y953994D01*
X574564Y954048D01*
X574532Y954105D01*
X574503Y954163D01*
X574479Y954223D01*
X574458Y954284D01*
X574440Y954346D01*
X574427Y954410D01*
X574417Y954474D01*
X574411Y954538D01*
X574409Y954603D01*
D12*
X368300Y972820D02*
X317500Y972820D01*
X368300Y972820D02*
X368300Y965200D01*
X368300Y957580D01*
X317500Y957580D01*
X317500Y965200D01*
X317500Y972820D01*
X368300Y965200D02*
X370840Y965200D01*
X317500Y965200D02*
X314960Y965200D01*
D11*
X338848Y975995D02*
X338848Y980821D01*
X340189Y980821D01*
X340260Y980819D01*
X340332Y980813D01*
X340402Y980804D01*
X340472Y980791D01*
X340542Y980774D01*
X340610Y980753D01*
X340677Y980729D01*
X340743Y980701D01*
X340807Y980670D01*
X340870Y980635D01*
X340930Y980597D01*
X340989Y980556D01*
X341045Y980512D01*
X341099Y980465D01*
X341150Y980416D01*
X341198Y980363D01*
X341244Y980308D01*
X341286Y980251D01*
X341326Y980191D01*
X341362Y980130D01*
X341395Y980066D01*
X341424Y980001D01*
X341450Y979935D01*
X341473Y979867D01*
X341492Y979798D01*
X341507Y979728D01*
X341518Y979658D01*
X341526Y979587D01*
X341530Y979516D01*
X341530Y979444D01*
X341526Y979373D01*
X341518Y979302D01*
X341507Y979232D01*
X341492Y979162D01*
X341473Y979093D01*
X341450Y979025D01*
X341424Y978959D01*
X341395Y978894D01*
X341362Y978830D01*
X341326Y978769D01*
X341286Y978709D01*
X341244Y978652D01*
X341198Y978597D01*
X341150Y978544D01*
X341099Y978495D01*
X341045Y978448D01*
X340989Y978404D01*
X340930Y978363D01*
X340870Y978325D01*
X340807Y978290D01*
X340743Y978259D01*
X340677Y978231D01*
X340610Y978207D01*
X340542Y978186D01*
X340472Y978169D01*
X340402Y978156D01*
X340332Y978147D01*
X340260Y978141D01*
X340189Y978139D01*
X340189Y978140D02*
X338848Y978140D01*
X340457Y978140D02*
X341529Y975995D01*
X345343Y978140D02*
X346952Y978140D01*
X345343Y978140D02*
X345278Y978142D01*
X345214Y978148D01*
X345150Y978158D01*
X345086Y978171D01*
X345024Y978189D01*
X344963Y978210D01*
X344903Y978234D01*
X344845Y978263D01*
X344788Y978295D01*
X344734Y978330D01*
X344682Y978368D01*
X344632Y978410D01*
X344585Y978454D01*
X344541Y978501D01*
X344499Y978551D01*
X344461Y978603D01*
X344426Y978657D01*
X344394Y978714D01*
X344365Y978772D01*
X344341Y978832D01*
X344320Y978893D01*
X344302Y978955D01*
X344289Y979019D01*
X344279Y979083D01*
X344273Y979147D01*
X344271Y979212D01*
X344271Y979480D01*
X344270Y979480D02*
X344272Y979551D01*
X344278Y979623D01*
X344287Y979693D01*
X344300Y979763D01*
X344317Y979833D01*
X344338Y979901D01*
X344362Y979968D01*
X344390Y980034D01*
X344421Y980098D01*
X344456Y980161D01*
X344494Y980221D01*
X344535Y980280D01*
X344579Y980336D01*
X344626Y980390D01*
X344675Y980441D01*
X344728Y980489D01*
X344783Y980535D01*
X344840Y980577D01*
X344900Y980617D01*
X344961Y980653D01*
X345025Y980686D01*
X345090Y980715D01*
X345156Y980741D01*
X345224Y980764D01*
X345293Y980783D01*
X345363Y980798D01*
X345433Y980809D01*
X345504Y980817D01*
X345575Y980821D01*
X345647Y980821D01*
X345718Y980817D01*
X345789Y980809D01*
X345859Y980798D01*
X345929Y980783D01*
X345998Y980764D01*
X346066Y980741D01*
X346132Y980715D01*
X346197Y980686D01*
X346261Y980653D01*
X346322Y980617D01*
X346382Y980577D01*
X346439Y980535D01*
X346494Y980489D01*
X346547Y980441D01*
X346596Y980390D01*
X346643Y980336D01*
X346687Y980280D01*
X346728Y980221D01*
X346766Y980161D01*
X346801Y980098D01*
X346832Y980034D01*
X346860Y979968D01*
X346884Y979901D01*
X346905Y979833D01*
X346922Y979763D01*
X346935Y979693D01*
X346944Y979623D01*
X346950Y979551D01*
X346952Y979480D01*
X346952Y978140D01*
X346950Y978049D01*
X346944Y977958D01*
X346935Y977868D01*
X346921Y977777D01*
X346904Y977688D01*
X346883Y977600D01*
X346858Y977512D01*
X346829Y977425D01*
X346797Y977340D01*
X346762Y977256D01*
X346722Y977174D01*
X346680Y977094D01*
X346634Y977015D01*
X346584Y976939D01*
X346532Y976865D01*
X346476Y976792D01*
X346417Y976723D01*
X346356Y976656D01*
X346291Y976591D01*
X346224Y976530D01*
X346155Y976471D01*
X346082Y976415D01*
X346008Y976363D01*
X345932Y976313D01*
X345853Y976267D01*
X345773Y976225D01*
X345691Y976185D01*
X345607Y976150D01*
X345522Y976118D01*
X345435Y976089D01*
X345347Y976064D01*
X345259Y976043D01*
X345170Y976026D01*
X345079Y976012D01*
X344989Y976003D01*
X344898Y975997D01*
X344807Y975995D01*
D12*
X330200Y791210D02*
X381000Y791210D01*
X381000Y783590D01*
X381000Y775970D01*
X330200Y775970D01*
X330200Y783590D01*
X330200Y791210D01*
X381000Y783590D02*
X383540Y783590D01*
X330200Y783590D02*
X327660Y783590D01*
D11*
X348805Y794385D02*
X348805Y799211D01*
X350146Y799211D01*
X350217Y799209D01*
X350289Y799203D01*
X350359Y799194D01*
X350429Y799181D01*
X350499Y799164D01*
X350567Y799143D01*
X350634Y799119D01*
X350700Y799091D01*
X350764Y799060D01*
X350827Y799025D01*
X350887Y798987D01*
X350946Y798946D01*
X351002Y798902D01*
X351056Y798855D01*
X351107Y798806D01*
X351155Y798753D01*
X351201Y798698D01*
X351243Y798641D01*
X351283Y798581D01*
X351319Y798520D01*
X351352Y798456D01*
X351381Y798391D01*
X351407Y798325D01*
X351430Y798257D01*
X351449Y798188D01*
X351464Y798118D01*
X351475Y798048D01*
X351483Y797977D01*
X351487Y797906D01*
X351487Y797834D01*
X351483Y797763D01*
X351475Y797692D01*
X351464Y797622D01*
X351449Y797552D01*
X351430Y797483D01*
X351407Y797415D01*
X351381Y797349D01*
X351352Y797284D01*
X351319Y797220D01*
X351283Y797159D01*
X351243Y797099D01*
X351201Y797042D01*
X351155Y796987D01*
X351107Y796934D01*
X351056Y796885D01*
X351002Y796838D01*
X350946Y796794D01*
X350887Y796753D01*
X350827Y796715D01*
X350764Y796680D01*
X350700Y796649D01*
X350634Y796621D01*
X350567Y796597D01*
X350499Y796576D01*
X350429Y796559D01*
X350359Y796546D01*
X350289Y796537D01*
X350217Y796531D01*
X350146Y796529D01*
X350146Y796530D02*
X348805Y796530D01*
X350414Y796530D02*
X351486Y794385D01*
X354228Y798139D02*
X355568Y799211D01*
X355568Y794385D01*
X354228Y794385D02*
X356909Y794385D01*
X359714Y796798D02*
X359716Y796918D01*
X359721Y797038D01*
X359730Y797158D01*
X359743Y797278D01*
X359759Y797397D01*
X359779Y797516D01*
X359803Y797634D01*
X359830Y797751D01*
X359860Y797867D01*
X359894Y797982D01*
X359932Y798097D01*
X359973Y798210D01*
X360017Y798321D01*
X360065Y798432D01*
X360116Y798541D01*
X360117Y798541D02*
X360138Y798598D01*
X360164Y798654D01*
X360192Y798709D01*
X360224Y798761D01*
X360260Y798812D01*
X360298Y798860D01*
X360339Y798906D01*
X360383Y798949D01*
X360429Y798989D01*
X360478Y799026D01*
X360530Y799060D01*
X360583Y799091D01*
X360638Y799119D01*
X360694Y799143D01*
X360752Y799164D01*
X360811Y799181D01*
X360871Y799194D01*
X360932Y799203D01*
X360994Y799209D01*
X361055Y799211D01*
X361116Y799209D01*
X361178Y799203D01*
X361239Y799194D01*
X361299Y799181D01*
X361358Y799164D01*
X361416Y799143D01*
X361472Y799119D01*
X361527Y799091D01*
X361580Y799060D01*
X361632Y799026D01*
X361681Y798989D01*
X361727Y798949D01*
X361771Y798906D01*
X361812Y798860D01*
X361850Y798812D01*
X361886Y798761D01*
X361918Y798709D01*
X361946Y798654D01*
X361972Y798598D01*
X361993Y798541D01*
X362044Y798432D01*
X362092Y798321D01*
X362136Y798210D01*
X362177Y798097D01*
X362215Y797982D01*
X362249Y797867D01*
X362279Y797751D01*
X362306Y797634D01*
X362330Y797516D01*
X362350Y797397D01*
X362366Y797278D01*
X362379Y797158D01*
X362388Y797038D01*
X362393Y796918D01*
X362395Y796798D01*
X359714Y796798D02*
X359716Y796678D01*
X359721Y796558D01*
X359730Y796438D01*
X359743Y796318D01*
X359759Y796199D01*
X359779Y796080D01*
X359803Y795962D01*
X359830Y795845D01*
X359860Y795729D01*
X359894Y795614D01*
X359932Y795499D01*
X359973Y795386D01*
X360017Y795275D01*
X360065Y795164D01*
X360116Y795055D01*
X360117Y795055D02*
X360138Y794998D01*
X360164Y794942D01*
X360192Y794887D01*
X360224Y794835D01*
X360260Y794784D01*
X360298Y794736D01*
X360339Y794690D01*
X360383Y794647D01*
X360429Y794607D01*
X360478Y794570D01*
X360530Y794536D01*
X360583Y794505D01*
X360638Y794477D01*
X360694Y794453D01*
X360752Y794432D01*
X360811Y794415D01*
X360871Y794402D01*
X360932Y794393D01*
X360994Y794387D01*
X361055Y794385D01*
X361993Y795055D02*
X362044Y795164D01*
X362092Y795275D01*
X362136Y795386D01*
X362177Y795499D01*
X362215Y795614D01*
X362249Y795729D01*
X362279Y795845D01*
X362306Y795962D01*
X362330Y796080D01*
X362350Y796199D01*
X362366Y796318D01*
X362379Y796438D01*
X362388Y796558D01*
X362393Y796678D01*
X362395Y796798D01*
X361993Y795055D02*
X361972Y794998D01*
X361946Y794942D01*
X361918Y794887D01*
X361886Y794835D01*
X361850Y794784D01*
X361812Y794736D01*
X361771Y794690D01*
X361727Y794647D01*
X361680Y794607D01*
X361632Y794570D01*
X361580Y794536D01*
X361527Y794505D01*
X361472Y794477D01*
X361416Y794453D01*
X361358Y794432D01*
X361299Y794415D01*
X361239Y794402D01*
X361178Y794393D01*
X361116Y794387D01*
X361055Y794385D01*
X359982Y795457D02*
X362127Y798139D01*
D12*
X375920Y596900D02*
X325120Y596900D01*
X375920Y596900D02*
X375920Y589280D01*
X375920Y581660D01*
X325120Y581660D01*
X325120Y589280D01*
X325120Y596900D01*
X375920Y589280D02*
X378460Y589280D01*
X325120Y589280D02*
X322580Y589280D01*
D11*
X343725Y600075D02*
X343725Y604901D01*
X345066Y604901D01*
X345137Y604899D01*
X345209Y604893D01*
X345279Y604884D01*
X345349Y604871D01*
X345419Y604854D01*
X345487Y604833D01*
X345554Y604809D01*
X345620Y604781D01*
X345684Y604750D01*
X345747Y604715D01*
X345807Y604677D01*
X345866Y604636D01*
X345922Y604592D01*
X345976Y604545D01*
X346027Y604496D01*
X346075Y604443D01*
X346121Y604388D01*
X346163Y604331D01*
X346203Y604271D01*
X346239Y604210D01*
X346272Y604146D01*
X346301Y604081D01*
X346327Y604015D01*
X346350Y603947D01*
X346369Y603878D01*
X346384Y603808D01*
X346395Y603738D01*
X346403Y603667D01*
X346407Y603596D01*
X346407Y603524D01*
X346403Y603453D01*
X346395Y603382D01*
X346384Y603312D01*
X346369Y603242D01*
X346350Y603173D01*
X346327Y603105D01*
X346301Y603039D01*
X346272Y602974D01*
X346239Y602910D01*
X346203Y602849D01*
X346163Y602789D01*
X346121Y602732D01*
X346075Y602677D01*
X346027Y602624D01*
X345976Y602575D01*
X345922Y602528D01*
X345866Y602484D01*
X345807Y602443D01*
X345747Y602405D01*
X345684Y602370D01*
X345620Y602339D01*
X345554Y602311D01*
X345487Y602287D01*
X345419Y602266D01*
X345349Y602249D01*
X345279Y602236D01*
X345209Y602227D01*
X345137Y602221D01*
X345066Y602219D01*
X345066Y602220D02*
X343725Y602220D01*
X345334Y602220D02*
X346406Y600075D01*
X349148Y603829D02*
X350488Y604901D01*
X350488Y600075D01*
X349148Y600075D02*
X351829Y600075D01*
X354634Y603829D02*
X355975Y604901D01*
X355975Y600075D01*
X357315Y600075D02*
X354634Y600075D01*
D12*
X139700Y972820D02*
X88900Y972820D01*
X139700Y972820D02*
X139700Y965200D01*
X139700Y957580D01*
X88900Y957580D01*
X88900Y965200D01*
X88900Y972820D01*
X139700Y965200D02*
X142240Y965200D01*
X88900Y965200D02*
X86360Y965200D01*
D11*
X107505Y975995D02*
X107505Y980821D01*
X108846Y980821D01*
X108917Y980819D01*
X108989Y980813D01*
X109059Y980804D01*
X109129Y980791D01*
X109199Y980774D01*
X109267Y980753D01*
X109334Y980729D01*
X109400Y980701D01*
X109464Y980670D01*
X109527Y980635D01*
X109587Y980597D01*
X109646Y980556D01*
X109702Y980512D01*
X109756Y980465D01*
X109807Y980416D01*
X109855Y980363D01*
X109901Y980308D01*
X109943Y980251D01*
X109983Y980191D01*
X110019Y980130D01*
X110052Y980066D01*
X110081Y980001D01*
X110107Y979935D01*
X110130Y979867D01*
X110149Y979798D01*
X110164Y979728D01*
X110175Y979658D01*
X110183Y979587D01*
X110187Y979516D01*
X110187Y979444D01*
X110183Y979373D01*
X110175Y979302D01*
X110164Y979232D01*
X110149Y979162D01*
X110130Y979093D01*
X110107Y979025D01*
X110081Y978959D01*
X110052Y978894D01*
X110019Y978830D01*
X109983Y978769D01*
X109943Y978709D01*
X109901Y978652D01*
X109855Y978597D01*
X109807Y978544D01*
X109756Y978495D01*
X109702Y978448D01*
X109646Y978404D01*
X109587Y978363D01*
X109527Y978325D01*
X109464Y978290D01*
X109400Y978259D01*
X109334Y978231D01*
X109267Y978207D01*
X109199Y978186D01*
X109129Y978169D01*
X109059Y978156D01*
X108989Y978147D01*
X108917Y978141D01*
X108846Y978139D01*
X108846Y978140D02*
X107505Y978140D01*
X109114Y978140D02*
X110186Y975995D01*
X112928Y979749D02*
X114268Y980821D01*
X114268Y975995D01*
X112928Y975995D02*
X115609Y975995D01*
X119889Y980821D02*
X119957Y980819D01*
X120024Y980813D01*
X120091Y980804D01*
X120158Y980791D01*
X120223Y980774D01*
X120288Y980753D01*
X120351Y980729D01*
X120413Y980701D01*
X120473Y980670D01*
X120531Y980636D01*
X120587Y980598D01*
X120642Y980558D01*
X120693Y980514D01*
X120742Y980467D01*
X120789Y980418D01*
X120833Y980367D01*
X120873Y980312D01*
X120911Y980256D01*
X120945Y980198D01*
X120976Y980138D01*
X121004Y980076D01*
X121028Y980013D01*
X121049Y979948D01*
X121066Y979883D01*
X121079Y979816D01*
X121088Y979749D01*
X121094Y979682D01*
X121096Y979614D01*
X119889Y980821D02*
X119811Y980819D01*
X119733Y980813D01*
X119656Y980803D01*
X119579Y980790D01*
X119503Y980772D01*
X119428Y980751D01*
X119354Y980726D01*
X119282Y980697D01*
X119211Y980665D01*
X119142Y980629D01*
X119074Y980590D01*
X119009Y980547D01*
X118946Y980501D01*
X118885Y980452D01*
X118827Y980400D01*
X118772Y980345D01*
X118719Y980288D01*
X118670Y980228D01*
X118623Y980165D01*
X118580Y980101D01*
X118540Y980034D01*
X118503Y979965D01*
X118470Y979894D01*
X118440Y979822D01*
X118414Y979749D01*
X120693Y978676D02*
X120742Y978725D01*
X120789Y978777D01*
X120832Y978832D01*
X120873Y978889D01*
X120911Y978948D01*
X120945Y979009D01*
X120976Y979072D01*
X121004Y979136D01*
X121028Y979202D01*
X121048Y979268D01*
X121065Y979336D01*
X121078Y979405D01*
X121087Y979474D01*
X121093Y979544D01*
X121095Y979614D01*
X120693Y978676D02*
X118414Y975995D01*
X121095Y975995D01*
D12*
X139700Y787400D02*
X88900Y787400D01*
X139700Y787400D02*
X139700Y779780D01*
X139700Y772160D01*
X88900Y772160D01*
X88900Y779780D01*
X88900Y787400D01*
X139700Y779780D02*
X142240Y779780D01*
X88900Y779780D02*
X86360Y779780D01*
D11*
X107505Y790575D02*
X107505Y795401D01*
X108846Y795401D01*
X108917Y795399D01*
X108989Y795393D01*
X109059Y795384D01*
X109129Y795371D01*
X109199Y795354D01*
X109267Y795333D01*
X109334Y795309D01*
X109400Y795281D01*
X109464Y795250D01*
X109527Y795215D01*
X109587Y795177D01*
X109646Y795136D01*
X109702Y795092D01*
X109756Y795045D01*
X109807Y794996D01*
X109855Y794943D01*
X109901Y794888D01*
X109943Y794831D01*
X109983Y794771D01*
X110019Y794710D01*
X110052Y794646D01*
X110081Y794581D01*
X110107Y794515D01*
X110130Y794447D01*
X110149Y794378D01*
X110164Y794308D01*
X110175Y794238D01*
X110183Y794167D01*
X110187Y794096D01*
X110187Y794024D01*
X110183Y793953D01*
X110175Y793882D01*
X110164Y793812D01*
X110149Y793742D01*
X110130Y793673D01*
X110107Y793605D01*
X110081Y793539D01*
X110052Y793474D01*
X110019Y793410D01*
X109983Y793349D01*
X109943Y793289D01*
X109901Y793232D01*
X109855Y793177D01*
X109807Y793124D01*
X109756Y793075D01*
X109702Y793028D01*
X109646Y792984D01*
X109587Y792943D01*
X109527Y792905D01*
X109464Y792870D01*
X109400Y792839D01*
X109334Y792811D01*
X109267Y792787D01*
X109199Y792766D01*
X109129Y792749D01*
X109059Y792736D01*
X108989Y792727D01*
X108917Y792721D01*
X108846Y792719D01*
X108846Y792720D02*
X107505Y792720D01*
X109114Y792720D02*
X110186Y790575D01*
X112928Y794329D02*
X114268Y795401D01*
X114268Y790575D01*
X112928Y790575D02*
X115609Y790575D01*
X118414Y790575D02*
X119755Y790575D01*
X119826Y790577D01*
X119898Y790583D01*
X119968Y790592D01*
X120038Y790605D01*
X120108Y790622D01*
X120176Y790643D01*
X120243Y790667D01*
X120309Y790695D01*
X120373Y790726D01*
X120436Y790761D01*
X120496Y790799D01*
X120555Y790840D01*
X120611Y790884D01*
X120665Y790931D01*
X120716Y790980D01*
X120764Y791033D01*
X120810Y791088D01*
X120852Y791145D01*
X120892Y791205D01*
X120928Y791266D01*
X120961Y791330D01*
X120990Y791395D01*
X121016Y791461D01*
X121039Y791529D01*
X121058Y791598D01*
X121073Y791668D01*
X121084Y791738D01*
X121092Y791809D01*
X121096Y791880D01*
X121096Y791952D01*
X121092Y792023D01*
X121084Y792094D01*
X121073Y792164D01*
X121058Y792234D01*
X121039Y792303D01*
X121016Y792371D01*
X120990Y792437D01*
X120961Y792502D01*
X120928Y792566D01*
X120892Y792627D01*
X120852Y792687D01*
X120810Y792744D01*
X120764Y792799D01*
X120716Y792852D01*
X120665Y792901D01*
X120611Y792948D01*
X120555Y792992D01*
X120496Y793033D01*
X120436Y793071D01*
X120373Y793106D01*
X120309Y793137D01*
X120243Y793165D01*
X120176Y793189D01*
X120108Y793210D01*
X120038Y793227D01*
X119968Y793240D01*
X119898Y793249D01*
X119826Y793255D01*
X119755Y793257D01*
X120023Y795401D02*
X118414Y795401D01*
X120023Y795401D02*
X120088Y795399D01*
X120152Y795393D01*
X120216Y795383D01*
X120280Y795370D01*
X120342Y795352D01*
X120403Y795331D01*
X120463Y795307D01*
X120521Y795278D01*
X120578Y795246D01*
X120632Y795211D01*
X120684Y795173D01*
X120734Y795131D01*
X120781Y795087D01*
X120825Y795040D01*
X120867Y794990D01*
X120905Y794938D01*
X120940Y794884D01*
X120972Y794827D01*
X121001Y794769D01*
X121025Y794709D01*
X121046Y794648D01*
X121064Y794586D01*
X121077Y794522D01*
X121087Y794458D01*
X121093Y794394D01*
X121095Y794329D01*
X121093Y794264D01*
X121087Y794200D01*
X121077Y794136D01*
X121064Y794072D01*
X121046Y794010D01*
X121025Y793949D01*
X121001Y793889D01*
X120972Y793831D01*
X120940Y793774D01*
X120905Y793720D01*
X120867Y793668D01*
X120825Y793618D01*
X120781Y793571D01*
X120734Y793527D01*
X120684Y793485D01*
X120632Y793447D01*
X120578Y793412D01*
X120521Y793380D01*
X120463Y793351D01*
X120403Y793327D01*
X120342Y793306D01*
X120280Y793288D01*
X120216Y793275D01*
X120152Y793265D01*
X120088Y793259D01*
X120023Y793257D01*
X120023Y793256D02*
X118950Y793256D01*
D12*
X138430Y600710D02*
X87630Y600710D01*
X138430Y600710D02*
X138430Y593090D01*
X138430Y585470D01*
X87630Y585470D01*
X87630Y593090D01*
X87630Y600710D01*
X138430Y593090D02*
X140970Y593090D01*
X87630Y593090D02*
X85090Y593090D01*
D11*
X106235Y603885D02*
X106235Y608711D01*
X107576Y608711D01*
X107647Y608709D01*
X107719Y608703D01*
X107789Y608694D01*
X107859Y608681D01*
X107929Y608664D01*
X107997Y608643D01*
X108064Y608619D01*
X108130Y608591D01*
X108194Y608560D01*
X108257Y608525D01*
X108317Y608487D01*
X108376Y608446D01*
X108432Y608402D01*
X108486Y608355D01*
X108537Y608306D01*
X108585Y608253D01*
X108631Y608198D01*
X108673Y608141D01*
X108713Y608081D01*
X108749Y608020D01*
X108782Y607956D01*
X108811Y607891D01*
X108837Y607825D01*
X108860Y607757D01*
X108879Y607688D01*
X108894Y607618D01*
X108905Y607548D01*
X108913Y607477D01*
X108917Y607406D01*
X108917Y607334D01*
X108913Y607263D01*
X108905Y607192D01*
X108894Y607122D01*
X108879Y607052D01*
X108860Y606983D01*
X108837Y606915D01*
X108811Y606849D01*
X108782Y606784D01*
X108749Y606720D01*
X108713Y606659D01*
X108673Y606599D01*
X108631Y606542D01*
X108585Y606487D01*
X108537Y606434D01*
X108486Y606385D01*
X108432Y606338D01*
X108376Y606294D01*
X108317Y606253D01*
X108257Y606215D01*
X108194Y606180D01*
X108130Y606149D01*
X108064Y606121D01*
X107997Y606097D01*
X107929Y606076D01*
X107859Y606059D01*
X107789Y606046D01*
X107719Y606037D01*
X107647Y606031D01*
X107576Y606029D01*
X107576Y606030D02*
X106235Y606030D01*
X107844Y606030D02*
X108916Y603885D01*
X111658Y607639D02*
X112998Y608711D01*
X112998Y603885D01*
X111658Y603885D02*
X114339Y603885D01*
X117144Y604957D02*
X118216Y608711D01*
X117144Y604957D02*
X119825Y604957D01*
X119021Y606030D02*
X119021Y603885D01*
D12*
X138430Y408940D02*
X87630Y408940D01*
X138430Y408940D02*
X138430Y401320D01*
X138430Y393700D01*
X87630Y393700D01*
X87630Y401320D01*
X87630Y408940D01*
X138430Y401320D02*
X140970Y401320D01*
X87630Y401320D02*
X85090Y401320D01*
D11*
X106235Y412115D02*
X106235Y416941D01*
X107576Y416941D01*
X107647Y416939D01*
X107719Y416933D01*
X107789Y416924D01*
X107859Y416911D01*
X107929Y416894D01*
X107997Y416873D01*
X108064Y416849D01*
X108130Y416821D01*
X108194Y416790D01*
X108257Y416755D01*
X108317Y416717D01*
X108376Y416676D01*
X108432Y416632D01*
X108486Y416585D01*
X108537Y416536D01*
X108585Y416483D01*
X108631Y416428D01*
X108673Y416371D01*
X108713Y416311D01*
X108749Y416250D01*
X108782Y416186D01*
X108811Y416121D01*
X108837Y416055D01*
X108860Y415987D01*
X108879Y415918D01*
X108894Y415848D01*
X108905Y415778D01*
X108913Y415707D01*
X108917Y415636D01*
X108917Y415564D01*
X108913Y415493D01*
X108905Y415422D01*
X108894Y415352D01*
X108879Y415282D01*
X108860Y415213D01*
X108837Y415145D01*
X108811Y415079D01*
X108782Y415014D01*
X108749Y414950D01*
X108713Y414889D01*
X108673Y414829D01*
X108631Y414772D01*
X108585Y414717D01*
X108537Y414664D01*
X108486Y414615D01*
X108432Y414568D01*
X108376Y414524D01*
X108317Y414483D01*
X108257Y414445D01*
X108194Y414410D01*
X108130Y414379D01*
X108064Y414351D01*
X107997Y414327D01*
X107929Y414306D01*
X107859Y414289D01*
X107789Y414276D01*
X107719Y414267D01*
X107647Y414261D01*
X107576Y414259D01*
X107576Y414260D02*
X106235Y414260D01*
X107844Y414260D02*
X108916Y412115D01*
X111658Y415869D02*
X112998Y416941D01*
X112998Y412115D01*
X111658Y412115D02*
X114339Y412115D01*
X117144Y412115D02*
X118753Y412115D01*
X118818Y412117D01*
X118882Y412123D01*
X118946Y412133D01*
X119010Y412146D01*
X119072Y412164D01*
X119133Y412185D01*
X119193Y412209D01*
X119251Y412238D01*
X119308Y412270D01*
X119362Y412305D01*
X119414Y412343D01*
X119464Y412385D01*
X119511Y412429D01*
X119555Y412476D01*
X119597Y412526D01*
X119635Y412578D01*
X119670Y412632D01*
X119702Y412689D01*
X119731Y412747D01*
X119755Y412807D01*
X119776Y412868D01*
X119794Y412930D01*
X119807Y412994D01*
X119817Y413058D01*
X119823Y413122D01*
X119825Y413187D01*
X119825Y413724D01*
X119823Y413789D01*
X119817Y413853D01*
X119807Y413917D01*
X119794Y413981D01*
X119776Y414043D01*
X119755Y414104D01*
X119731Y414164D01*
X119702Y414222D01*
X119670Y414279D01*
X119635Y414333D01*
X119597Y414385D01*
X119555Y414435D01*
X119511Y414482D01*
X119464Y414526D01*
X119414Y414568D01*
X119362Y414606D01*
X119308Y414641D01*
X119251Y414673D01*
X119193Y414702D01*
X119133Y414726D01*
X119072Y414747D01*
X119010Y414765D01*
X118946Y414778D01*
X118882Y414788D01*
X118818Y414794D01*
X118753Y414796D01*
X117144Y414796D01*
X117144Y416941D01*
X119825Y416941D01*
D12*
X119380Y212090D02*
X170180Y212090D01*
X170180Y204470D01*
X170180Y196850D01*
X119380Y196850D01*
X119380Y204470D01*
X119380Y212090D01*
X170180Y204470D02*
X172720Y204470D01*
X119380Y204470D02*
X116840Y204470D01*
D11*
X137985Y215265D02*
X137985Y220091D01*
X139326Y220091D01*
X139397Y220089D01*
X139469Y220083D01*
X139539Y220074D01*
X139609Y220061D01*
X139679Y220044D01*
X139747Y220023D01*
X139814Y219999D01*
X139880Y219971D01*
X139944Y219940D01*
X140007Y219905D01*
X140067Y219867D01*
X140126Y219826D01*
X140182Y219782D01*
X140236Y219735D01*
X140287Y219686D01*
X140335Y219633D01*
X140381Y219578D01*
X140423Y219521D01*
X140463Y219461D01*
X140499Y219400D01*
X140532Y219336D01*
X140561Y219271D01*
X140587Y219205D01*
X140610Y219137D01*
X140629Y219068D01*
X140644Y218998D01*
X140655Y218928D01*
X140663Y218857D01*
X140667Y218786D01*
X140667Y218714D01*
X140663Y218643D01*
X140655Y218572D01*
X140644Y218502D01*
X140629Y218432D01*
X140610Y218363D01*
X140587Y218295D01*
X140561Y218229D01*
X140532Y218164D01*
X140499Y218100D01*
X140463Y218039D01*
X140423Y217979D01*
X140381Y217922D01*
X140335Y217867D01*
X140287Y217814D01*
X140236Y217765D01*
X140182Y217718D01*
X140126Y217674D01*
X140067Y217633D01*
X140007Y217595D01*
X139944Y217560D01*
X139880Y217529D01*
X139814Y217501D01*
X139747Y217477D01*
X139679Y217456D01*
X139609Y217439D01*
X139539Y217426D01*
X139469Y217417D01*
X139397Y217411D01*
X139326Y217409D01*
X139326Y217410D02*
X137985Y217410D01*
X139594Y217410D02*
X140666Y215265D01*
X143408Y219019D02*
X144748Y220091D01*
X144748Y215265D01*
X143408Y215265D02*
X146089Y215265D01*
X148894Y217946D02*
X150503Y217946D01*
X150568Y217944D01*
X150632Y217938D01*
X150696Y217928D01*
X150760Y217915D01*
X150822Y217897D01*
X150883Y217876D01*
X150943Y217852D01*
X151001Y217823D01*
X151058Y217791D01*
X151112Y217756D01*
X151164Y217718D01*
X151214Y217676D01*
X151261Y217632D01*
X151305Y217585D01*
X151347Y217535D01*
X151385Y217483D01*
X151420Y217429D01*
X151452Y217372D01*
X151481Y217314D01*
X151505Y217254D01*
X151526Y217193D01*
X151544Y217131D01*
X151557Y217067D01*
X151567Y217003D01*
X151573Y216939D01*
X151575Y216874D01*
X151575Y216606D01*
X151576Y216606D02*
X151574Y216535D01*
X151568Y216463D01*
X151559Y216393D01*
X151546Y216323D01*
X151529Y216253D01*
X151508Y216185D01*
X151484Y216118D01*
X151456Y216052D01*
X151425Y215988D01*
X151390Y215925D01*
X151352Y215865D01*
X151311Y215806D01*
X151267Y215750D01*
X151220Y215696D01*
X151171Y215645D01*
X151118Y215597D01*
X151063Y215551D01*
X151006Y215509D01*
X150946Y215469D01*
X150885Y215433D01*
X150821Y215400D01*
X150756Y215371D01*
X150690Y215345D01*
X150622Y215322D01*
X150553Y215303D01*
X150483Y215288D01*
X150413Y215277D01*
X150342Y215269D01*
X150271Y215265D01*
X150199Y215265D01*
X150128Y215269D01*
X150057Y215277D01*
X149987Y215288D01*
X149917Y215303D01*
X149848Y215322D01*
X149780Y215345D01*
X149714Y215371D01*
X149649Y215400D01*
X149585Y215433D01*
X149524Y215469D01*
X149464Y215509D01*
X149407Y215551D01*
X149352Y215597D01*
X149299Y215645D01*
X149250Y215696D01*
X149203Y215750D01*
X149159Y215806D01*
X149118Y215865D01*
X149080Y215925D01*
X149045Y215988D01*
X149014Y216052D01*
X148986Y216118D01*
X148962Y216185D01*
X148941Y216253D01*
X148924Y216323D01*
X148911Y216393D01*
X148902Y216463D01*
X148896Y216535D01*
X148894Y216606D01*
X148894Y217946D01*
X148896Y218037D01*
X148902Y218128D01*
X148911Y218218D01*
X148925Y218309D01*
X148942Y218398D01*
X148963Y218486D01*
X148988Y218574D01*
X149017Y218661D01*
X149049Y218746D01*
X149084Y218830D01*
X149124Y218912D01*
X149166Y218992D01*
X149212Y219071D01*
X149262Y219147D01*
X149314Y219221D01*
X149370Y219294D01*
X149429Y219363D01*
X149490Y219430D01*
X149555Y219495D01*
X149622Y219556D01*
X149691Y219615D01*
X149763Y219671D01*
X149838Y219723D01*
X149914Y219773D01*
X149993Y219819D01*
X150073Y219861D01*
X150155Y219901D01*
X150239Y219936D01*
X150324Y219968D01*
X150411Y219997D01*
X150498Y220022D01*
X150587Y220043D01*
X150676Y220060D01*
X150767Y220074D01*
X150857Y220083D01*
X150948Y220089D01*
X151039Y220091D01*
M02*
