G04 EAGLE Gerber RS-274X export*
G75*
%MOMM*%
%FSLAX34Y34*%
%LPD*%
%INSilkscreen Bottom*%
%IPPOS*%
%AMOC8*
5,1,8,0,0,1.08239X$1,22.5*%
G01*
%ADD10C,0.228600*%
%ADD11C,0.203200*%
%ADD12C,0.127000*%


D10*
X1107567Y989161D02*
X1098931Y989161D01*
X1103249Y984843D02*
X1103249Y993479D01*
X1156843Y989161D02*
X1165479Y989161D01*
D11*
X1092200Y914400D02*
X1117600Y889000D01*
X1122680Y901700D02*
X1155700Y889000D01*
X1191260Y872490D02*
X1069340Y872490D01*
X1191260Y872490D02*
X1191260Y1007110D01*
X1069340Y1007110D01*
X1069340Y872490D01*
D12*
X1054989Y937416D02*
X1054991Y937481D01*
X1054997Y937545D01*
X1055007Y937609D01*
X1055020Y937673D01*
X1055038Y937735D01*
X1055059Y937796D01*
X1055083Y937856D01*
X1055112Y937914D01*
X1055144Y937971D01*
X1055179Y938025D01*
X1055217Y938077D01*
X1055259Y938127D01*
X1055303Y938174D01*
X1055350Y938218D01*
X1055400Y938260D01*
X1055452Y938298D01*
X1055506Y938333D01*
X1055563Y938365D01*
X1055621Y938394D01*
X1055681Y938418D01*
X1055742Y938439D01*
X1055804Y938457D01*
X1055868Y938470D01*
X1055932Y938480D01*
X1055996Y938486D01*
X1056061Y938488D01*
X1054989Y937416D02*
X1054991Y937322D01*
X1054997Y937228D01*
X1055007Y937134D01*
X1055020Y937041D01*
X1055038Y936949D01*
X1055059Y936857D01*
X1055084Y936766D01*
X1055113Y936676D01*
X1055146Y936588D01*
X1055182Y936501D01*
X1055222Y936416D01*
X1055265Y936332D01*
X1055312Y936251D01*
X1055362Y936171D01*
X1055415Y936093D01*
X1055472Y936018D01*
X1055531Y935945D01*
X1055594Y935875D01*
X1055659Y935807D01*
X1058743Y935942D02*
X1058808Y935944D01*
X1058872Y935950D01*
X1058936Y935960D01*
X1059000Y935973D01*
X1059062Y935991D01*
X1059123Y936012D01*
X1059183Y936036D01*
X1059241Y936065D01*
X1059298Y936097D01*
X1059352Y936132D01*
X1059404Y936170D01*
X1059454Y936212D01*
X1059501Y936256D01*
X1059545Y936303D01*
X1059587Y936353D01*
X1059625Y936405D01*
X1059660Y936459D01*
X1059692Y936516D01*
X1059721Y936574D01*
X1059745Y936634D01*
X1059766Y936695D01*
X1059784Y936757D01*
X1059797Y936821D01*
X1059807Y936885D01*
X1059813Y936949D01*
X1059815Y937014D01*
X1059813Y937100D01*
X1059808Y937186D01*
X1059798Y937272D01*
X1059785Y937357D01*
X1059769Y937442D01*
X1059749Y937526D01*
X1059725Y937609D01*
X1059698Y937691D01*
X1059667Y937771D01*
X1059633Y937851D01*
X1059595Y937928D01*
X1059554Y938004D01*
X1059510Y938078D01*
X1059463Y938150D01*
X1059413Y938221D01*
X1057805Y936478D02*
X1057838Y936425D01*
X1057875Y936374D01*
X1057914Y936325D01*
X1057956Y936278D01*
X1058001Y936234D01*
X1058048Y936193D01*
X1058097Y936154D01*
X1058149Y936118D01*
X1058203Y936085D01*
X1058258Y936056D01*
X1058315Y936030D01*
X1058374Y936007D01*
X1058433Y935987D01*
X1058494Y935971D01*
X1058555Y935958D01*
X1058618Y935949D01*
X1058680Y935944D01*
X1058743Y935942D01*
X1056999Y937953D02*
X1056966Y938006D01*
X1056929Y938057D01*
X1056890Y938106D01*
X1056848Y938153D01*
X1056803Y938197D01*
X1056756Y938238D01*
X1056707Y938277D01*
X1056655Y938313D01*
X1056601Y938346D01*
X1056546Y938375D01*
X1056489Y938401D01*
X1056430Y938424D01*
X1056371Y938444D01*
X1056310Y938460D01*
X1056249Y938473D01*
X1056186Y938482D01*
X1056124Y938487D01*
X1056061Y938489D01*
X1057000Y937953D02*
X1057804Y936478D01*
X1058743Y941111D02*
X1059815Y942452D01*
X1054989Y942452D01*
X1054989Y943792D02*
X1054989Y941111D01*
D10*
X358267Y582761D02*
X349631Y582761D01*
X353949Y578443D02*
X353949Y587079D01*
X407543Y582761D02*
X416179Y582761D01*
D11*
X342900Y508000D02*
X368300Y482600D01*
X373380Y495300D02*
X406400Y482600D01*
X441960Y466090D02*
X320040Y466090D01*
X441960Y466090D02*
X441960Y600710D01*
X320040Y600710D01*
X320040Y466090D01*
D12*
X305689Y528273D02*
X305691Y528338D01*
X305697Y528402D01*
X305707Y528466D01*
X305720Y528530D01*
X305738Y528592D01*
X305759Y528653D01*
X305783Y528713D01*
X305812Y528771D01*
X305844Y528828D01*
X305879Y528882D01*
X305917Y528934D01*
X305959Y528984D01*
X306003Y529031D01*
X306050Y529075D01*
X306100Y529117D01*
X306152Y529155D01*
X306206Y529190D01*
X306263Y529222D01*
X306321Y529251D01*
X306381Y529275D01*
X306442Y529296D01*
X306504Y529314D01*
X306568Y529327D01*
X306632Y529337D01*
X306696Y529343D01*
X306761Y529345D01*
X305689Y528273D02*
X305691Y528179D01*
X305697Y528085D01*
X305707Y527991D01*
X305720Y527898D01*
X305738Y527806D01*
X305759Y527714D01*
X305784Y527623D01*
X305813Y527533D01*
X305846Y527445D01*
X305882Y527358D01*
X305922Y527273D01*
X305965Y527189D01*
X306012Y527108D01*
X306062Y527028D01*
X306115Y526950D01*
X306172Y526875D01*
X306231Y526802D01*
X306294Y526732D01*
X306359Y526664D01*
X309443Y526799D02*
X309508Y526801D01*
X309572Y526807D01*
X309636Y526817D01*
X309700Y526830D01*
X309762Y526848D01*
X309823Y526869D01*
X309883Y526893D01*
X309941Y526922D01*
X309998Y526954D01*
X310052Y526989D01*
X310104Y527027D01*
X310154Y527069D01*
X310201Y527113D01*
X310245Y527160D01*
X310287Y527210D01*
X310325Y527262D01*
X310360Y527316D01*
X310392Y527373D01*
X310421Y527431D01*
X310445Y527491D01*
X310466Y527552D01*
X310484Y527614D01*
X310497Y527678D01*
X310507Y527742D01*
X310513Y527806D01*
X310515Y527871D01*
X310513Y527957D01*
X310508Y528043D01*
X310498Y528129D01*
X310485Y528214D01*
X310469Y528299D01*
X310449Y528383D01*
X310425Y528466D01*
X310398Y528548D01*
X310367Y528628D01*
X310333Y528708D01*
X310295Y528785D01*
X310254Y528861D01*
X310210Y528935D01*
X310163Y529007D01*
X310113Y529078D01*
X308505Y527335D02*
X308538Y527282D01*
X308575Y527231D01*
X308614Y527182D01*
X308656Y527135D01*
X308701Y527091D01*
X308748Y527050D01*
X308797Y527011D01*
X308849Y526975D01*
X308903Y526942D01*
X308958Y526913D01*
X309015Y526887D01*
X309074Y526864D01*
X309133Y526844D01*
X309194Y526828D01*
X309255Y526815D01*
X309318Y526806D01*
X309380Y526801D01*
X309443Y526799D01*
X307699Y528809D02*
X307666Y528862D01*
X307629Y528913D01*
X307590Y528962D01*
X307548Y529009D01*
X307503Y529053D01*
X307456Y529094D01*
X307407Y529133D01*
X307355Y529169D01*
X307301Y529202D01*
X307246Y529231D01*
X307189Y529257D01*
X307130Y529280D01*
X307071Y529300D01*
X307010Y529316D01*
X306949Y529329D01*
X306886Y529338D01*
X306824Y529343D01*
X306761Y529345D01*
X307700Y528809D02*
X308504Y527335D01*
X309443Y531968D02*
X310515Y533309D01*
X305689Y533309D01*
X305689Y534649D02*
X305689Y531968D01*
X310515Y538929D02*
X310513Y538997D01*
X310507Y539064D01*
X310498Y539131D01*
X310485Y539198D01*
X310468Y539263D01*
X310447Y539328D01*
X310423Y539391D01*
X310395Y539453D01*
X310364Y539513D01*
X310330Y539571D01*
X310292Y539627D01*
X310252Y539682D01*
X310208Y539733D01*
X310161Y539782D01*
X310112Y539829D01*
X310061Y539873D01*
X310006Y539913D01*
X309950Y539951D01*
X309892Y539985D01*
X309832Y540016D01*
X309770Y540044D01*
X309707Y540068D01*
X309642Y540089D01*
X309577Y540106D01*
X309510Y540119D01*
X309443Y540128D01*
X309376Y540134D01*
X309308Y540136D01*
X310515Y538929D02*
X310513Y538851D01*
X310507Y538773D01*
X310497Y538696D01*
X310484Y538619D01*
X310466Y538543D01*
X310445Y538468D01*
X310420Y538394D01*
X310391Y538322D01*
X310359Y538251D01*
X310323Y538182D01*
X310284Y538114D01*
X310241Y538049D01*
X310195Y537986D01*
X310146Y537925D01*
X310094Y537867D01*
X310039Y537812D01*
X309982Y537759D01*
X309922Y537710D01*
X309859Y537663D01*
X309794Y537620D01*
X309728Y537580D01*
X309659Y537543D01*
X309588Y537510D01*
X309516Y537480D01*
X309443Y537454D01*
X308370Y539734D02*
X308419Y539783D01*
X308471Y539830D01*
X308526Y539873D01*
X308583Y539914D01*
X308642Y539952D01*
X308703Y539986D01*
X308766Y540017D01*
X308830Y540045D01*
X308896Y540069D01*
X308962Y540089D01*
X309030Y540106D01*
X309099Y540119D01*
X309168Y540128D01*
X309238Y540134D01*
X309308Y540136D01*
X308370Y539733D02*
X305689Y537454D01*
X305689Y540135D01*
D10*
X603631Y582761D02*
X612267Y582761D01*
X607949Y578443D02*
X607949Y587079D01*
X661543Y582761D02*
X670179Y582761D01*
D11*
X596900Y508000D02*
X622300Y482600D01*
X627380Y495300D02*
X660400Y482600D01*
X695960Y466090D02*
X574040Y466090D01*
X695960Y466090D02*
X695960Y600710D01*
X574040Y600710D01*
X574040Y466090D01*
D12*
X559689Y528273D02*
X559691Y528338D01*
X559697Y528402D01*
X559707Y528466D01*
X559720Y528530D01*
X559738Y528592D01*
X559759Y528653D01*
X559783Y528713D01*
X559812Y528771D01*
X559844Y528828D01*
X559879Y528882D01*
X559917Y528934D01*
X559959Y528984D01*
X560003Y529031D01*
X560050Y529075D01*
X560100Y529117D01*
X560152Y529155D01*
X560206Y529190D01*
X560263Y529222D01*
X560321Y529251D01*
X560381Y529275D01*
X560442Y529296D01*
X560504Y529314D01*
X560568Y529327D01*
X560632Y529337D01*
X560696Y529343D01*
X560761Y529345D01*
X559689Y528273D02*
X559691Y528179D01*
X559697Y528085D01*
X559707Y527991D01*
X559720Y527898D01*
X559738Y527806D01*
X559759Y527714D01*
X559784Y527623D01*
X559813Y527533D01*
X559846Y527445D01*
X559882Y527358D01*
X559922Y527273D01*
X559965Y527189D01*
X560012Y527108D01*
X560062Y527028D01*
X560115Y526950D01*
X560172Y526875D01*
X560231Y526802D01*
X560294Y526732D01*
X560359Y526664D01*
X563443Y526799D02*
X563508Y526801D01*
X563572Y526807D01*
X563636Y526817D01*
X563700Y526830D01*
X563762Y526848D01*
X563823Y526869D01*
X563883Y526893D01*
X563941Y526922D01*
X563998Y526954D01*
X564052Y526989D01*
X564104Y527027D01*
X564154Y527069D01*
X564201Y527113D01*
X564245Y527160D01*
X564287Y527210D01*
X564325Y527262D01*
X564360Y527316D01*
X564392Y527373D01*
X564421Y527431D01*
X564445Y527491D01*
X564466Y527552D01*
X564484Y527614D01*
X564497Y527678D01*
X564507Y527742D01*
X564513Y527806D01*
X564515Y527871D01*
X564513Y527957D01*
X564508Y528043D01*
X564498Y528129D01*
X564485Y528214D01*
X564469Y528299D01*
X564449Y528383D01*
X564425Y528466D01*
X564398Y528548D01*
X564367Y528628D01*
X564333Y528708D01*
X564295Y528785D01*
X564254Y528861D01*
X564210Y528935D01*
X564163Y529007D01*
X564113Y529078D01*
X562505Y527335D02*
X562538Y527282D01*
X562575Y527231D01*
X562614Y527182D01*
X562656Y527135D01*
X562701Y527091D01*
X562748Y527050D01*
X562797Y527011D01*
X562849Y526975D01*
X562903Y526942D01*
X562958Y526913D01*
X563015Y526887D01*
X563074Y526864D01*
X563133Y526844D01*
X563194Y526828D01*
X563255Y526815D01*
X563318Y526806D01*
X563380Y526801D01*
X563443Y526799D01*
X561699Y528809D02*
X561666Y528862D01*
X561629Y528913D01*
X561590Y528962D01*
X561548Y529009D01*
X561503Y529053D01*
X561456Y529094D01*
X561407Y529133D01*
X561355Y529169D01*
X561301Y529202D01*
X561246Y529231D01*
X561189Y529257D01*
X561130Y529280D01*
X561071Y529300D01*
X561010Y529316D01*
X560949Y529329D01*
X560886Y529338D01*
X560824Y529343D01*
X560761Y529345D01*
X561700Y528809D02*
X562504Y527335D01*
X563443Y531968D02*
X564515Y533309D01*
X559689Y533309D01*
X559689Y534649D02*
X559689Y531968D01*
X559689Y537454D02*
X559689Y538795D01*
X559691Y538866D01*
X559697Y538938D01*
X559706Y539008D01*
X559719Y539078D01*
X559736Y539148D01*
X559757Y539216D01*
X559781Y539283D01*
X559809Y539349D01*
X559840Y539413D01*
X559875Y539476D01*
X559913Y539536D01*
X559954Y539595D01*
X559998Y539651D01*
X560045Y539705D01*
X560094Y539756D01*
X560147Y539804D01*
X560202Y539850D01*
X560259Y539892D01*
X560319Y539932D01*
X560380Y539968D01*
X560444Y540001D01*
X560509Y540030D01*
X560575Y540056D01*
X560643Y540079D01*
X560712Y540098D01*
X560782Y540113D01*
X560852Y540124D01*
X560923Y540132D01*
X560994Y540136D01*
X561066Y540136D01*
X561137Y540132D01*
X561208Y540124D01*
X561278Y540113D01*
X561348Y540098D01*
X561417Y540079D01*
X561485Y540056D01*
X561551Y540030D01*
X561616Y540001D01*
X561680Y539968D01*
X561741Y539932D01*
X561801Y539892D01*
X561858Y539850D01*
X561913Y539804D01*
X561966Y539756D01*
X562015Y539705D01*
X562062Y539651D01*
X562106Y539595D01*
X562147Y539536D01*
X562185Y539476D01*
X562220Y539413D01*
X562251Y539349D01*
X562279Y539283D01*
X562303Y539216D01*
X562324Y539148D01*
X562341Y539078D01*
X562354Y539008D01*
X562363Y538938D01*
X562369Y538866D01*
X562371Y538795D01*
X564515Y539063D02*
X564515Y537454D01*
X564515Y539063D02*
X564513Y539128D01*
X564507Y539192D01*
X564497Y539256D01*
X564484Y539320D01*
X564466Y539382D01*
X564445Y539443D01*
X564421Y539503D01*
X564392Y539561D01*
X564360Y539618D01*
X564325Y539672D01*
X564287Y539724D01*
X564245Y539774D01*
X564201Y539821D01*
X564154Y539865D01*
X564104Y539907D01*
X564052Y539945D01*
X563998Y539980D01*
X563941Y540012D01*
X563883Y540041D01*
X563823Y540065D01*
X563762Y540086D01*
X563700Y540104D01*
X563636Y540117D01*
X563572Y540127D01*
X563508Y540133D01*
X563443Y540135D01*
X563378Y540133D01*
X563314Y540127D01*
X563250Y540117D01*
X563186Y540104D01*
X563124Y540086D01*
X563063Y540065D01*
X563003Y540041D01*
X562945Y540012D01*
X562888Y539980D01*
X562834Y539945D01*
X562782Y539907D01*
X562732Y539865D01*
X562685Y539821D01*
X562641Y539774D01*
X562599Y539724D01*
X562561Y539672D01*
X562526Y539618D01*
X562494Y539561D01*
X562465Y539503D01*
X562441Y539443D01*
X562420Y539382D01*
X562402Y539320D01*
X562389Y539256D01*
X562379Y539192D01*
X562373Y539128D01*
X562371Y539063D01*
X562370Y539063D02*
X562370Y537991D01*
D10*
X857631Y582761D02*
X866267Y582761D01*
X861949Y578443D02*
X861949Y587079D01*
X915543Y582761D02*
X924179Y582761D01*
D11*
X850900Y508000D02*
X876300Y482600D01*
X881380Y495300D02*
X914400Y482600D01*
X949960Y466090D02*
X828040Y466090D01*
X949960Y466090D02*
X949960Y600710D01*
X828040Y600710D01*
X828040Y466090D01*
D12*
X813689Y528273D02*
X813691Y528338D01*
X813697Y528402D01*
X813707Y528466D01*
X813720Y528530D01*
X813738Y528592D01*
X813759Y528653D01*
X813783Y528713D01*
X813812Y528771D01*
X813844Y528828D01*
X813879Y528882D01*
X813917Y528934D01*
X813959Y528984D01*
X814003Y529031D01*
X814050Y529075D01*
X814100Y529117D01*
X814152Y529155D01*
X814206Y529190D01*
X814263Y529222D01*
X814321Y529251D01*
X814381Y529275D01*
X814442Y529296D01*
X814504Y529314D01*
X814568Y529327D01*
X814632Y529337D01*
X814696Y529343D01*
X814761Y529345D01*
X813689Y528273D02*
X813691Y528179D01*
X813697Y528085D01*
X813707Y527991D01*
X813720Y527898D01*
X813738Y527806D01*
X813759Y527714D01*
X813784Y527623D01*
X813813Y527533D01*
X813846Y527445D01*
X813882Y527358D01*
X813922Y527273D01*
X813965Y527189D01*
X814012Y527108D01*
X814062Y527028D01*
X814115Y526950D01*
X814172Y526875D01*
X814231Y526802D01*
X814294Y526732D01*
X814359Y526664D01*
X817443Y526799D02*
X817508Y526801D01*
X817572Y526807D01*
X817636Y526817D01*
X817700Y526830D01*
X817762Y526848D01*
X817823Y526869D01*
X817883Y526893D01*
X817941Y526922D01*
X817998Y526954D01*
X818052Y526989D01*
X818104Y527027D01*
X818154Y527069D01*
X818201Y527113D01*
X818245Y527160D01*
X818287Y527210D01*
X818325Y527262D01*
X818360Y527316D01*
X818392Y527373D01*
X818421Y527431D01*
X818445Y527491D01*
X818466Y527552D01*
X818484Y527614D01*
X818497Y527678D01*
X818507Y527742D01*
X818513Y527806D01*
X818515Y527871D01*
X818513Y527957D01*
X818508Y528043D01*
X818498Y528129D01*
X818485Y528214D01*
X818469Y528299D01*
X818449Y528383D01*
X818425Y528466D01*
X818398Y528548D01*
X818367Y528628D01*
X818333Y528708D01*
X818295Y528785D01*
X818254Y528861D01*
X818210Y528935D01*
X818163Y529007D01*
X818113Y529078D01*
X816505Y527335D02*
X816538Y527282D01*
X816575Y527231D01*
X816614Y527182D01*
X816656Y527135D01*
X816701Y527091D01*
X816748Y527050D01*
X816797Y527011D01*
X816849Y526975D01*
X816903Y526942D01*
X816958Y526913D01*
X817015Y526887D01*
X817074Y526864D01*
X817133Y526844D01*
X817194Y526828D01*
X817255Y526815D01*
X817318Y526806D01*
X817380Y526801D01*
X817443Y526799D01*
X815699Y528809D02*
X815666Y528862D01*
X815629Y528913D01*
X815590Y528962D01*
X815548Y529009D01*
X815503Y529053D01*
X815456Y529094D01*
X815407Y529133D01*
X815355Y529169D01*
X815301Y529202D01*
X815246Y529231D01*
X815189Y529257D01*
X815130Y529280D01*
X815071Y529300D01*
X815010Y529316D01*
X814949Y529329D01*
X814886Y529338D01*
X814824Y529343D01*
X814761Y529345D01*
X815700Y528809D02*
X816504Y527335D01*
X817443Y531968D02*
X818515Y533309D01*
X813689Y533309D01*
X813689Y534649D02*
X813689Y531968D01*
X814761Y537454D02*
X818515Y538527D01*
X814761Y537454D02*
X814761Y540135D01*
X815834Y539331D02*
X813689Y539331D01*
D10*
X1098931Y582761D02*
X1107567Y582761D01*
X1103249Y578443D02*
X1103249Y587079D01*
X1156843Y582761D02*
X1165479Y582761D01*
D11*
X1092200Y508000D02*
X1117600Y482600D01*
X1122680Y495300D02*
X1155700Y482600D01*
X1191260Y466090D02*
X1069340Y466090D01*
X1191260Y466090D02*
X1191260Y600710D01*
X1069340Y600710D01*
X1069340Y466090D01*
D12*
X1054989Y528273D02*
X1054991Y528338D01*
X1054997Y528402D01*
X1055007Y528466D01*
X1055020Y528530D01*
X1055038Y528592D01*
X1055059Y528653D01*
X1055083Y528713D01*
X1055112Y528771D01*
X1055144Y528828D01*
X1055179Y528882D01*
X1055217Y528934D01*
X1055259Y528984D01*
X1055303Y529031D01*
X1055350Y529075D01*
X1055400Y529117D01*
X1055452Y529155D01*
X1055506Y529190D01*
X1055563Y529222D01*
X1055621Y529251D01*
X1055681Y529275D01*
X1055742Y529296D01*
X1055804Y529314D01*
X1055868Y529327D01*
X1055932Y529337D01*
X1055996Y529343D01*
X1056061Y529345D01*
X1054989Y528273D02*
X1054991Y528179D01*
X1054997Y528085D01*
X1055007Y527991D01*
X1055020Y527898D01*
X1055038Y527806D01*
X1055059Y527714D01*
X1055084Y527623D01*
X1055113Y527533D01*
X1055146Y527445D01*
X1055182Y527358D01*
X1055222Y527273D01*
X1055265Y527189D01*
X1055312Y527108D01*
X1055362Y527028D01*
X1055415Y526950D01*
X1055472Y526875D01*
X1055531Y526802D01*
X1055594Y526732D01*
X1055659Y526664D01*
X1058743Y526799D02*
X1058808Y526801D01*
X1058872Y526807D01*
X1058936Y526817D01*
X1059000Y526830D01*
X1059062Y526848D01*
X1059123Y526869D01*
X1059183Y526893D01*
X1059241Y526922D01*
X1059298Y526954D01*
X1059352Y526989D01*
X1059404Y527027D01*
X1059454Y527069D01*
X1059501Y527113D01*
X1059545Y527160D01*
X1059587Y527210D01*
X1059625Y527262D01*
X1059660Y527316D01*
X1059692Y527373D01*
X1059721Y527431D01*
X1059745Y527491D01*
X1059766Y527552D01*
X1059784Y527614D01*
X1059797Y527678D01*
X1059807Y527742D01*
X1059813Y527806D01*
X1059815Y527871D01*
X1059813Y527957D01*
X1059808Y528043D01*
X1059798Y528129D01*
X1059785Y528214D01*
X1059769Y528299D01*
X1059749Y528383D01*
X1059725Y528466D01*
X1059698Y528548D01*
X1059667Y528628D01*
X1059633Y528708D01*
X1059595Y528785D01*
X1059554Y528861D01*
X1059510Y528935D01*
X1059463Y529007D01*
X1059413Y529078D01*
X1057805Y527335D02*
X1057838Y527282D01*
X1057875Y527231D01*
X1057914Y527182D01*
X1057956Y527135D01*
X1058001Y527091D01*
X1058048Y527050D01*
X1058097Y527011D01*
X1058149Y526975D01*
X1058203Y526942D01*
X1058258Y526913D01*
X1058315Y526887D01*
X1058374Y526864D01*
X1058433Y526844D01*
X1058494Y526828D01*
X1058555Y526815D01*
X1058618Y526806D01*
X1058680Y526801D01*
X1058743Y526799D01*
X1056999Y528809D02*
X1056966Y528862D01*
X1056929Y528913D01*
X1056890Y528962D01*
X1056848Y529009D01*
X1056803Y529053D01*
X1056756Y529094D01*
X1056707Y529133D01*
X1056655Y529169D01*
X1056601Y529202D01*
X1056546Y529231D01*
X1056489Y529257D01*
X1056430Y529280D01*
X1056371Y529300D01*
X1056310Y529316D01*
X1056249Y529329D01*
X1056186Y529338D01*
X1056124Y529343D01*
X1056061Y529345D01*
X1057000Y528809D02*
X1057804Y527335D01*
X1058743Y531968D02*
X1059815Y533309D01*
X1054989Y533309D01*
X1054989Y534649D02*
X1054989Y531968D01*
X1054989Y537454D02*
X1054989Y539063D01*
X1054991Y539128D01*
X1054997Y539192D01*
X1055007Y539256D01*
X1055020Y539320D01*
X1055038Y539382D01*
X1055059Y539443D01*
X1055083Y539503D01*
X1055112Y539561D01*
X1055144Y539618D01*
X1055179Y539672D01*
X1055217Y539724D01*
X1055259Y539774D01*
X1055303Y539821D01*
X1055350Y539865D01*
X1055400Y539907D01*
X1055452Y539945D01*
X1055506Y539980D01*
X1055563Y540012D01*
X1055621Y540041D01*
X1055681Y540065D01*
X1055742Y540086D01*
X1055804Y540104D01*
X1055868Y540117D01*
X1055932Y540127D01*
X1055996Y540133D01*
X1056061Y540135D01*
X1056598Y540135D01*
X1056663Y540133D01*
X1056727Y540127D01*
X1056791Y540117D01*
X1056855Y540104D01*
X1056917Y540086D01*
X1056978Y540065D01*
X1057038Y540041D01*
X1057096Y540012D01*
X1057153Y539980D01*
X1057207Y539945D01*
X1057259Y539907D01*
X1057309Y539865D01*
X1057356Y539821D01*
X1057400Y539774D01*
X1057442Y539724D01*
X1057480Y539672D01*
X1057515Y539618D01*
X1057547Y539561D01*
X1057576Y539503D01*
X1057600Y539443D01*
X1057621Y539382D01*
X1057639Y539320D01*
X1057652Y539256D01*
X1057662Y539192D01*
X1057668Y539128D01*
X1057670Y539063D01*
X1057670Y537454D01*
X1059815Y537454D01*
X1059815Y540135D01*
D10*
X1098931Y176361D02*
X1107567Y176361D01*
X1103249Y172043D02*
X1103249Y180679D01*
X1156843Y176361D02*
X1165479Y176361D01*
D11*
X1092200Y101600D02*
X1117600Y76200D01*
X1122680Y88900D02*
X1155700Y76200D01*
X1191260Y59690D02*
X1069340Y59690D01*
X1191260Y59690D02*
X1191260Y194310D01*
X1069340Y194310D01*
X1069340Y59690D01*
D12*
X1054989Y121873D02*
X1054991Y121938D01*
X1054997Y122002D01*
X1055007Y122066D01*
X1055020Y122130D01*
X1055038Y122192D01*
X1055059Y122253D01*
X1055083Y122313D01*
X1055112Y122371D01*
X1055144Y122428D01*
X1055179Y122482D01*
X1055217Y122534D01*
X1055259Y122584D01*
X1055303Y122631D01*
X1055350Y122675D01*
X1055400Y122717D01*
X1055452Y122755D01*
X1055506Y122790D01*
X1055563Y122822D01*
X1055621Y122851D01*
X1055681Y122875D01*
X1055742Y122896D01*
X1055804Y122914D01*
X1055868Y122927D01*
X1055932Y122937D01*
X1055996Y122943D01*
X1056061Y122945D01*
X1054989Y121873D02*
X1054991Y121779D01*
X1054997Y121685D01*
X1055007Y121591D01*
X1055020Y121498D01*
X1055038Y121406D01*
X1055059Y121314D01*
X1055084Y121223D01*
X1055113Y121133D01*
X1055146Y121045D01*
X1055182Y120958D01*
X1055222Y120873D01*
X1055265Y120789D01*
X1055312Y120708D01*
X1055362Y120628D01*
X1055415Y120550D01*
X1055472Y120475D01*
X1055531Y120402D01*
X1055594Y120332D01*
X1055659Y120264D01*
X1058743Y120399D02*
X1058808Y120401D01*
X1058872Y120407D01*
X1058936Y120417D01*
X1059000Y120430D01*
X1059062Y120448D01*
X1059123Y120469D01*
X1059183Y120493D01*
X1059241Y120522D01*
X1059298Y120554D01*
X1059352Y120589D01*
X1059404Y120627D01*
X1059454Y120669D01*
X1059501Y120713D01*
X1059545Y120760D01*
X1059587Y120810D01*
X1059625Y120862D01*
X1059660Y120916D01*
X1059692Y120973D01*
X1059721Y121031D01*
X1059745Y121091D01*
X1059766Y121152D01*
X1059784Y121214D01*
X1059797Y121278D01*
X1059807Y121342D01*
X1059813Y121406D01*
X1059815Y121471D01*
X1059813Y121557D01*
X1059808Y121643D01*
X1059798Y121729D01*
X1059785Y121814D01*
X1059769Y121899D01*
X1059749Y121983D01*
X1059725Y122066D01*
X1059698Y122148D01*
X1059667Y122228D01*
X1059633Y122308D01*
X1059595Y122385D01*
X1059554Y122461D01*
X1059510Y122535D01*
X1059463Y122607D01*
X1059413Y122678D01*
X1057805Y120935D02*
X1057838Y120882D01*
X1057875Y120831D01*
X1057914Y120782D01*
X1057956Y120735D01*
X1058001Y120691D01*
X1058048Y120650D01*
X1058097Y120611D01*
X1058149Y120575D01*
X1058203Y120542D01*
X1058258Y120513D01*
X1058315Y120487D01*
X1058374Y120464D01*
X1058433Y120444D01*
X1058494Y120428D01*
X1058555Y120415D01*
X1058618Y120406D01*
X1058680Y120401D01*
X1058743Y120399D01*
X1056999Y122409D02*
X1056966Y122462D01*
X1056929Y122513D01*
X1056890Y122562D01*
X1056848Y122609D01*
X1056803Y122653D01*
X1056756Y122694D01*
X1056707Y122733D01*
X1056655Y122769D01*
X1056601Y122802D01*
X1056546Y122831D01*
X1056489Y122857D01*
X1056430Y122880D01*
X1056371Y122900D01*
X1056310Y122916D01*
X1056249Y122929D01*
X1056186Y122938D01*
X1056124Y122943D01*
X1056061Y122945D01*
X1057000Y122409D02*
X1057804Y120935D01*
X1058743Y125568D02*
X1059815Y126909D01*
X1054989Y126909D01*
X1054989Y128249D02*
X1054989Y125568D01*
X1059279Y131054D02*
X1059815Y131054D01*
X1059815Y133735D01*
X1054989Y132395D01*
D10*
X866267Y379561D02*
X857631Y379561D01*
X861949Y375243D02*
X861949Y383879D01*
X915543Y379561D02*
X924179Y379561D01*
D11*
X850900Y304800D02*
X876300Y279400D01*
X881380Y292100D02*
X914400Y279400D01*
X949960Y262890D02*
X828040Y262890D01*
X949960Y262890D02*
X949960Y397510D01*
X828040Y397510D01*
X828040Y262890D01*
D12*
X813689Y325073D02*
X813691Y325138D01*
X813697Y325202D01*
X813707Y325266D01*
X813720Y325330D01*
X813738Y325392D01*
X813759Y325453D01*
X813783Y325513D01*
X813812Y325571D01*
X813844Y325628D01*
X813879Y325682D01*
X813917Y325734D01*
X813959Y325784D01*
X814003Y325831D01*
X814050Y325875D01*
X814100Y325917D01*
X814152Y325955D01*
X814206Y325990D01*
X814263Y326022D01*
X814321Y326051D01*
X814381Y326075D01*
X814442Y326096D01*
X814504Y326114D01*
X814568Y326127D01*
X814632Y326137D01*
X814696Y326143D01*
X814761Y326145D01*
X813689Y325073D02*
X813691Y324979D01*
X813697Y324885D01*
X813707Y324791D01*
X813720Y324698D01*
X813738Y324606D01*
X813759Y324514D01*
X813784Y324423D01*
X813813Y324333D01*
X813846Y324245D01*
X813882Y324158D01*
X813922Y324073D01*
X813965Y323989D01*
X814012Y323908D01*
X814062Y323828D01*
X814115Y323750D01*
X814172Y323675D01*
X814231Y323602D01*
X814294Y323532D01*
X814359Y323464D01*
X817443Y323599D02*
X817508Y323601D01*
X817572Y323607D01*
X817636Y323617D01*
X817700Y323630D01*
X817762Y323648D01*
X817823Y323669D01*
X817883Y323693D01*
X817941Y323722D01*
X817998Y323754D01*
X818052Y323789D01*
X818104Y323827D01*
X818154Y323869D01*
X818201Y323913D01*
X818245Y323960D01*
X818287Y324010D01*
X818325Y324062D01*
X818360Y324116D01*
X818392Y324173D01*
X818421Y324231D01*
X818445Y324291D01*
X818466Y324352D01*
X818484Y324414D01*
X818497Y324478D01*
X818507Y324542D01*
X818513Y324606D01*
X818515Y324671D01*
X818513Y324757D01*
X818508Y324843D01*
X818498Y324929D01*
X818485Y325014D01*
X818469Y325099D01*
X818449Y325183D01*
X818425Y325266D01*
X818398Y325348D01*
X818367Y325428D01*
X818333Y325508D01*
X818295Y325585D01*
X818254Y325661D01*
X818210Y325735D01*
X818163Y325807D01*
X818113Y325878D01*
X816505Y324135D02*
X816538Y324082D01*
X816575Y324031D01*
X816614Y323982D01*
X816656Y323935D01*
X816701Y323891D01*
X816748Y323850D01*
X816797Y323811D01*
X816849Y323775D01*
X816903Y323742D01*
X816958Y323713D01*
X817015Y323687D01*
X817074Y323664D01*
X817133Y323644D01*
X817194Y323628D01*
X817255Y323615D01*
X817318Y323606D01*
X817380Y323601D01*
X817443Y323599D01*
X815699Y325609D02*
X815666Y325662D01*
X815629Y325713D01*
X815590Y325762D01*
X815548Y325809D01*
X815503Y325853D01*
X815456Y325894D01*
X815407Y325933D01*
X815355Y325969D01*
X815301Y326002D01*
X815246Y326031D01*
X815189Y326057D01*
X815130Y326080D01*
X815071Y326100D01*
X815010Y326116D01*
X814949Y326129D01*
X814886Y326138D01*
X814824Y326143D01*
X814761Y326145D01*
X815700Y325609D02*
X816504Y324135D01*
X817443Y328768D02*
X818515Y330109D01*
X813689Y330109D01*
X813689Y331449D02*
X813689Y328768D01*
X815030Y334254D02*
X815101Y334256D01*
X815173Y334262D01*
X815243Y334271D01*
X815313Y334284D01*
X815383Y334301D01*
X815451Y334322D01*
X815518Y334346D01*
X815584Y334374D01*
X815648Y334405D01*
X815711Y334440D01*
X815771Y334478D01*
X815830Y334519D01*
X815886Y334563D01*
X815940Y334610D01*
X815991Y334659D01*
X816039Y334712D01*
X816085Y334767D01*
X816127Y334824D01*
X816167Y334884D01*
X816203Y334945D01*
X816236Y335009D01*
X816265Y335074D01*
X816291Y335140D01*
X816314Y335208D01*
X816333Y335277D01*
X816348Y335347D01*
X816359Y335417D01*
X816367Y335488D01*
X816371Y335559D01*
X816371Y335631D01*
X816367Y335702D01*
X816359Y335773D01*
X816348Y335843D01*
X816333Y335913D01*
X816314Y335982D01*
X816291Y336050D01*
X816265Y336116D01*
X816236Y336181D01*
X816203Y336245D01*
X816167Y336306D01*
X816127Y336366D01*
X816085Y336423D01*
X816039Y336478D01*
X815991Y336531D01*
X815940Y336580D01*
X815886Y336627D01*
X815830Y336671D01*
X815771Y336712D01*
X815711Y336750D01*
X815648Y336785D01*
X815584Y336816D01*
X815518Y336844D01*
X815451Y336868D01*
X815383Y336889D01*
X815313Y336906D01*
X815243Y336919D01*
X815173Y336928D01*
X815101Y336934D01*
X815030Y336936D01*
X814959Y336934D01*
X814887Y336928D01*
X814817Y336919D01*
X814747Y336906D01*
X814677Y336889D01*
X814609Y336868D01*
X814542Y336844D01*
X814476Y336816D01*
X814412Y336785D01*
X814349Y336750D01*
X814289Y336712D01*
X814230Y336671D01*
X814174Y336627D01*
X814120Y336580D01*
X814069Y336531D01*
X814021Y336478D01*
X813975Y336423D01*
X813933Y336366D01*
X813893Y336306D01*
X813857Y336245D01*
X813824Y336181D01*
X813795Y336116D01*
X813769Y336050D01*
X813746Y335982D01*
X813727Y335913D01*
X813712Y335843D01*
X813701Y335773D01*
X813693Y335702D01*
X813689Y335631D01*
X813689Y335559D01*
X813693Y335488D01*
X813701Y335417D01*
X813712Y335347D01*
X813727Y335277D01*
X813746Y335208D01*
X813769Y335140D01*
X813795Y335074D01*
X813824Y335009D01*
X813857Y334945D01*
X813893Y334884D01*
X813933Y334824D01*
X813975Y334767D01*
X814021Y334712D01*
X814069Y334659D01*
X814120Y334610D01*
X814174Y334563D01*
X814230Y334519D01*
X814289Y334478D01*
X814349Y334440D01*
X814412Y334405D01*
X814476Y334374D01*
X814542Y334346D01*
X814609Y334322D01*
X814677Y334301D01*
X814747Y334284D01*
X814817Y334271D01*
X814887Y334262D01*
X814959Y334256D01*
X815030Y334254D01*
X817443Y334523D02*
X817508Y334525D01*
X817572Y334531D01*
X817636Y334541D01*
X817700Y334554D01*
X817762Y334572D01*
X817823Y334593D01*
X817883Y334617D01*
X817941Y334646D01*
X817998Y334678D01*
X818052Y334713D01*
X818104Y334751D01*
X818154Y334793D01*
X818201Y334837D01*
X818245Y334884D01*
X818287Y334934D01*
X818325Y334986D01*
X818360Y335040D01*
X818392Y335097D01*
X818421Y335155D01*
X818445Y335215D01*
X818466Y335276D01*
X818484Y335338D01*
X818497Y335402D01*
X818507Y335466D01*
X818513Y335530D01*
X818515Y335595D01*
X818513Y335660D01*
X818507Y335724D01*
X818497Y335788D01*
X818484Y335852D01*
X818466Y335914D01*
X818445Y335975D01*
X818421Y336035D01*
X818392Y336093D01*
X818360Y336150D01*
X818325Y336204D01*
X818287Y336256D01*
X818245Y336306D01*
X818201Y336353D01*
X818154Y336397D01*
X818104Y336439D01*
X818052Y336477D01*
X817998Y336512D01*
X817941Y336544D01*
X817883Y336573D01*
X817823Y336597D01*
X817762Y336618D01*
X817700Y336636D01*
X817636Y336649D01*
X817572Y336659D01*
X817508Y336665D01*
X817443Y336667D01*
X817378Y336665D01*
X817314Y336659D01*
X817250Y336649D01*
X817186Y336636D01*
X817124Y336618D01*
X817063Y336597D01*
X817003Y336573D01*
X816945Y336544D01*
X816888Y336512D01*
X816834Y336477D01*
X816782Y336439D01*
X816732Y336397D01*
X816685Y336353D01*
X816641Y336306D01*
X816599Y336256D01*
X816561Y336204D01*
X816526Y336150D01*
X816494Y336093D01*
X816465Y336035D01*
X816441Y335975D01*
X816420Y335914D01*
X816402Y335852D01*
X816389Y335788D01*
X816379Y335724D01*
X816373Y335660D01*
X816371Y335595D01*
X816373Y335530D01*
X816379Y335466D01*
X816389Y335402D01*
X816402Y335338D01*
X816420Y335276D01*
X816441Y335215D01*
X816465Y335155D01*
X816494Y335097D01*
X816526Y335040D01*
X816561Y334986D01*
X816599Y334934D01*
X816641Y334884D01*
X816685Y334837D01*
X816732Y334793D01*
X816782Y334751D01*
X816834Y334713D01*
X816888Y334678D01*
X816945Y334646D01*
X817003Y334617D01*
X817063Y334593D01*
X817124Y334572D01*
X817186Y334554D01*
X817250Y334541D01*
X817314Y334531D01*
X817378Y334525D01*
X817443Y334523D01*
D10*
X1098931Y379561D02*
X1107567Y379561D01*
X1103249Y375243D02*
X1103249Y383879D01*
X1156843Y379561D02*
X1165479Y379561D01*
D11*
X1092200Y304800D02*
X1117600Y279400D01*
X1122680Y292100D02*
X1155700Y279400D01*
X1191260Y262890D02*
X1069340Y262890D01*
X1191260Y262890D02*
X1191260Y397510D01*
X1069340Y397510D01*
X1069340Y262890D01*
D12*
X1054989Y325073D02*
X1054991Y325138D01*
X1054997Y325202D01*
X1055007Y325266D01*
X1055020Y325330D01*
X1055038Y325392D01*
X1055059Y325453D01*
X1055083Y325513D01*
X1055112Y325571D01*
X1055144Y325628D01*
X1055179Y325682D01*
X1055217Y325734D01*
X1055259Y325784D01*
X1055303Y325831D01*
X1055350Y325875D01*
X1055400Y325917D01*
X1055452Y325955D01*
X1055506Y325990D01*
X1055563Y326022D01*
X1055621Y326051D01*
X1055681Y326075D01*
X1055742Y326096D01*
X1055804Y326114D01*
X1055868Y326127D01*
X1055932Y326137D01*
X1055996Y326143D01*
X1056061Y326145D01*
X1054989Y325073D02*
X1054991Y324979D01*
X1054997Y324885D01*
X1055007Y324791D01*
X1055020Y324698D01*
X1055038Y324606D01*
X1055059Y324514D01*
X1055084Y324423D01*
X1055113Y324333D01*
X1055146Y324245D01*
X1055182Y324158D01*
X1055222Y324073D01*
X1055265Y323989D01*
X1055312Y323908D01*
X1055362Y323828D01*
X1055415Y323750D01*
X1055472Y323675D01*
X1055531Y323602D01*
X1055594Y323532D01*
X1055659Y323464D01*
X1058743Y323599D02*
X1058808Y323601D01*
X1058872Y323607D01*
X1058936Y323617D01*
X1059000Y323630D01*
X1059062Y323648D01*
X1059123Y323669D01*
X1059183Y323693D01*
X1059241Y323722D01*
X1059298Y323754D01*
X1059352Y323789D01*
X1059404Y323827D01*
X1059454Y323869D01*
X1059501Y323913D01*
X1059545Y323960D01*
X1059587Y324010D01*
X1059625Y324062D01*
X1059660Y324116D01*
X1059692Y324173D01*
X1059721Y324231D01*
X1059745Y324291D01*
X1059766Y324352D01*
X1059784Y324414D01*
X1059797Y324478D01*
X1059807Y324542D01*
X1059813Y324606D01*
X1059815Y324671D01*
X1059813Y324757D01*
X1059808Y324843D01*
X1059798Y324929D01*
X1059785Y325014D01*
X1059769Y325099D01*
X1059749Y325183D01*
X1059725Y325266D01*
X1059698Y325348D01*
X1059667Y325428D01*
X1059633Y325508D01*
X1059595Y325585D01*
X1059554Y325661D01*
X1059510Y325735D01*
X1059463Y325807D01*
X1059413Y325878D01*
X1057805Y324135D02*
X1057838Y324082D01*
X1057875Y324031D01*
X1057914Y323982D01*
X1057956Y323935D01*
X1058001Y323891D01*
X1058048Y323850D01*
X1058097Y323811D01*
X1058149Y323775D01*
X1058203Y323742D01*
X1058258Y323713D01*
X1058315Y323687D01*
X1058374Y323664D01*
X1058433Y323644D01*
X1058494Y323628D01*
X1058555Y323615D01*
X1058618Y323606D01*
X1058680Y323601D01*
X1058743Y323599D01*
X1056999Y325609D02*
X1056966Y325662D01*
X1056929Y325713D01*
X1056890Y325762D01*
X1056848Y325809D01*
X1056803Y325853D01*
X1056756Y325894D01*
X1056707Y325933D01*
X1056655Y325969D01*
X1056601Y326002D01*
X1056546Y326031D01*
X1056489Y326057D01*
X1056430Y326080D01*
X1056371Y326100D01*
X1056310Y326116D01*
X1056249Y326129D01*
X1056186Y326138D01*
X1056124Y326143D01*
X1056061Y326145D01*
X1057000Y325609D02*
X1057804Y324135D01*
X1058743Y328768D02*
X1059815Y330109D01*
X1054989Y330109D01*
X1054989Y331449D02*
X1054989Y328768D01*
X1057134Y335327D02*
X1057134Y336935D01*
X1057134Y335327D02*
X1057136Y335262D01*
X1057142Y335198D01*
X1057152Y335134D01*
X1057165Y335070D01*
X1057183Y335008D01*
X1057204Y334947D01*
X1057228Y334887D01*
X1057257Y334829D01*
X1057289Y334772D01*
X1057324Y334718D01*
X1057362Y334666D01*
X1057404Y334616D01*
X1057448Y334569D01*
X1057495Y334525D01*
X1057545Y334483D01*
X1057597Y334445D01*
X1057651Y334410D01*
X1057708Y334378D01*
X1057766Y334349D01*
X1057826Y334325D01*
X1057887Y334304D01*
X1057949Y334286D01*
X1058013Y334273D01*
X1058077Y334263D01*
X1058141Y334257D01*
X1058206Y334255D01*
X1058206Y334254D02*
X1058474Y334254D01*
X1058545Y334256D01*
X1058617Y334262D01*
X1058687Y334271D01*
X1058757Y334284D01*
X1058827Y334301D01*
X1058895Y334322D01*
X1058962Y334346D01*
X1059028Y334374D01*
X1059092Y334405D01*
X1059155Y334440D01*
X1059215Y334478D01*
X1059274Y334519D01*
X1059330Y334563D01*
X1059384Y334610D01*
X1059435Y334659D01*
X1059483Y334712D01*
X1059529Y334767D01*
X1059571Y334824D01*
X1059611Y334884D01*
X1059647Y334945D01*
X1059680Y335009D01*
X1059709Y335074D01*
X1059735Y335140D01*
X1059758Y335208D01*
X1059777Y335277D01*
X1059792Y335347D01*
X1059803Y335417D01*
X1059811Y335488D01*
X1059815Y335559D01*
X1059815Y335631D01*
X1059811Y335702D01*
X1059803Y335773D01*
X1059792Y335843D01*
X1059777Y335913D01*
X1059758Y335982D01*
X1059735Y336050D01*
X1059709Y336116D01*
X1059680Y336181D01*
X1059647Y336245D01*
X1059611Y336306D01*
X1059571Y336366D01*
X1059529Y336423D01*
X1059483Y336478D01*
X1059435Y336531D01*
X1059384Y336580D01*
X1059330Y336627D01*
X1059274Y336671D01*
X1059215Y336712D01*
X1059155Y336750D01*
X1059092Y336785D01*
X1059028Y336816D01*
X1058962Y336844D01*
X1058895Y336868D01*
X1058827Y336889D01*
X1058757Y336906D01*
X1058687Y336919D01*
X1058617Y336928D01*
X1058545Y336934D01*
X1058474Y336936D01*
X1058474Y336935D02*
X1057134Y336935D01*
X1057134Y336936D02*
X1057043Y336934D01*
X1056952Y336928D01*
X1056862Y336919D01*
X1056771Y336905D01*
X1056682Y336888D01*
X1056594Y336867D01*
X1056506Y336842D01*
X1056419Y336813D01*
X1056334Y336781D01*
X1056250Y336746D01*
X1056168Y336706D01*
X1056088Y336664D01*
X1056009Y336618D01*
X1055933Y336568D01*
X1055859Y336516D01*
X1055786Y336460D01*
X1055717Y336401D01*
X1055650Y336340D01*
X1055585Y336275D01*
X1055524Y336208D01*
X1055465Y336139D01*
X1055409Y336066D01*
X1055357Y335992D01*
X1055307Y335916D01*
X1055261Y335837D01*
X1055219Y335757D01*
X1055179Y335675D01*
X1055144Y335591D01*
X1055112Y335506D01*
X1055083Y335419D01*
X1055058Y335331D01*
X1055037Y335243D01*
X1055020Y335154D01*
X1055006Y335063D01*
X1054997Y334973D01*
X1054991Y334882D01*
X1054989Y334791D01*
D10*
X1098931Y785961D02*
X1107567Y785961D01*
X1103249Y781643D02*
X1103249Y790279D01*
X1156843Y785961D02*
X1165479Y785961D01*
D11*
X1092200Y711200D02*
X1117600Y685800D01*
X1122680Y698500D02*
X1155700Y685800D01*
X1191260Y669290D02*
X1069340Y669290D01*
X1191260Y669290D02*
X1191260Y803910D01*
X1069340Y803910D01*
X1069340Y669290D01*
D12*
X1054989Y734216D02*
X1054991Y734281D01*
X1054997Y734345D01*
X1055007Y734409D01*
X1055020Y734473D01*
X1055038Y734535D01*
X1055059Y734596D01*
X1055083Y734656D01*
X1055112Y734714D01*
X1055144Y734771D01*
X1055179Y734825D01*
X1055217Y734877D01*
X1055259Y734927D01*
X1055303Y734974D01*
X1055350Y735018D01*
X1055400Y735060D01*
X1055452Y735098D01*
X1055506Y735133D01*
X1055563Y735165D01*
X1055621Y735194D01*
X1055681Y735218D01*
X1055742Y735239D01*
X1055804Y735257D01*
X1055868Y735270D01*
X1055932Y735280D01*
X1055996Y735286D01*
X1056061Y735288D01*
X1054989Y734216D02*
X1054991Y734122D01*
X1054997Y734028D01*
X1055007Y733934D01*
X1055020Y733841D01*
X1055038Y733749D01*
X1055059Y733657D01*
X1055084Y733566D01*
X1055113Y733476D01*
X1055146Y733388D01*
X1055182Y733301D01*
X1055222Y733216D01*
X1055265Y733132D01*
X1055312Y733051D01*
X1055362Y732971D01*
X1055415Y732893D01*
X1055472Y732818D01*
X1055531Y732745D01*
X1055594Y732675D01*
X1055659Y732607D01*
X1058743Y732742D02*
X1058808Y732744D01*
X1058872Y732750D01*
X1058936Y732760D01*
X1059000Y732773D01*
X1059062Y732791D01*
X1059123Y732812D01*
X1059183Y732836D01*
X1059241Y732865D01*
X1059298Y732897D01*
X1059352Y732932D01*
X1059404Y732970D01*
X1059454Y733012D01*
X1059501Y733056D01*
X1059545Y733103D01*
X1059587Y733153D01*
X1059625Y733205D01*
X1059660Y733259D01*
X1059692Y733316D01*
X1059721Y733374D01*
X1059745Y733434D01*
X1059766Y733495D01*
X1059784Y733557D01*
X1059797Y733621D01*
X1059807Y733685D01*
X1059813Y733749D01*
X1059815Y733814D01*
X1059813Y733900D01*
X1059808Y733986D01*
X1059798Y734072D01*
X1059785Y734157D01*
X1059769Y734242D01*
X1059749Y734326D01*
X1059725Y734409D01*
X1059698Y734491D01*
X1059667Y734571D01*
X1059633Y734651D01*
X1059595Y734728D01*
X1059554Y734804D01*
X1059510Y734878D01*
X1059463Y734950D01*
X1059413Y735021D01*
X1057805Y733278D02*
X1057838Y733225D01*
X1057875Y733174D01*
X1057914Y733125D01*
X1057956Y733078D01*
X1058001Y733034D01*
X1058048Y732993D01*
X1058097Y732954D01*
X1058149Y732918D01*
X1058203Y732885D01*
X1058258Y732856D01*
X1058315Y732830D01*
X1058374Y732807D01*
X1058433Y732787D01*
X1058494Y732771D01*
X1058555Y732758D01*
X1058618Y732749D01*
X1058680Y732744D01*
X1058743Y732742D01*
X1056999Y734753D02*
X1056966Y734806D01*
X1056929Y734857D01*
X1056890Y734906D01*
X1056848Y734953D01*
X1056803Y734997D01*
X1056756Y735038D01*
X1056707Y735077D01*
X1056655Y735113D01*
X1056601Y735146D01*
X1056546Y735175D01*
X1056489Y735201D01*
X1056430Y735224D01*
X1056371Y735244D01*
X1056310Y735260D01*
X1056249Y735273D01*
X1056186Y735282D01*
X1056124Y735287D01*
X1056061Y735289D01*
X1057000Y734753D02*
X1057804Y733278D01*
X1059815Y739386D02*
X1059813Y739454D01*
X1059807Y739521D01*
X1059798Y739588D01*
X1059785Y739655D01*
X1059768Y739720D01*
X1059747Y739785D01*
X1059723Y739848D01*
X1059695Y739910D01*
X1059664Y739970D01*
X1059630Y740028D01*
X1059592Y740084D01*
X1059552Y740139D01*
X1059508Y740190D01*
X1059461Y740239D01*
X1059412Y740286D01*
X1059361Y740330D01*
X1059306Y740370D01*
X1059250Y740408D01*
X1059192Y740442D01*
X1059132Y740473D01*
X1059070Y740501D01*
X1059007Y740525D01*
X1058942Y740546D01*
X1058877Y740563D01*
X1058810Y740576D01*
X1058743Y740585D01*
X1058676Y740591D01*
X1058608Y740593D01*
X1059815Y739386D02*
X1059813Y739308D01*
X1059807Y739230D01*
X1059797Y739153D01*
X1059784Y739076D01*
X1059766Y739000D01*
X1059745Y738925D01*
X1059720Y738851D01*
X1059691Y738779D01*
X1059659Y738708D01*
X1059623Y738639D01*
X1059584Y738571D01*
X1059541Y738506D01*
X1059495Y738443D01*
X1059446Y738382D01*
X1059394Y738324D01*
X1059339Y738269D01*
X1059282Y738216D01*
X1059222Y738167D01*
X1059159Y738120D01*
X1059094Y738077D01*
X1059028Y738037D01*
X1058959Y738000D01*
X1058888Y737967D01*
X1058816Y737937D01*
X1058743Y737911D01*
X1057670Y740190D02*
X1057719Y740239D01*
X1057771Y740286D01*
X1057826Y740329D01*
X1057883Y740370D01*
X1057942Y740408D01*
X1058003Y740442D01*
X1058066Y740473D01*
X1058130Y740501D01*
X1058196Y740525D01*
X1058262Y740545D01*
X1058330Y740562D01*
X1058399Y740575D01*
X1058468Y740584D01*
X1058538Y740590D01*
X1058608Y740592D01*
X1057670Y740190D02*
X1054989Y737911D01*
X1054989Y740592D01*
D10*
X358267Y379561D02*
X349631Y379561D01*
X353949Y375243D02*
X353949Y383879D01*
X407543Y379561D02*
X416179Y379561D01*
D11*
X342900Y304800D02*
X368300Y279400D01*
X373380Y292100D02*
X406400Y279400D01*
X441960Y262890D02*
X320040Y262890D01*
X441960Y262890D02*
X441960Y397510D01*
X320040Y397510D01*
X320040Y262890D01*
D12*
X305689Y325073D02*
X305691Y325138D01*
X305697Y325202D01*
X305707Y325266D01*
X305720Y325330D01*
X305738Y325392D01*
X305759Y325453D01*
X305783Y325513D01*
X305812Y325571D01*
X305844Y325628D01*
X305879Y325682D01*
X305917Y325734D01*
X305959Y325784D01*
X306003Y325831D01*
X306050Y325875D01*
X306100Y325917D01*
X306152Y325955D01*
X306206Y325990D01*
X306263Y326022D01*
X306321Y326051D01*
X306381Y326075D01*
X306442Y326096D01*
X306504Y326114D01*
X306568Y326127D01*
X306632Y326137D01*
X306696Y326143D01*
X306761Y326145D01*
X305689Y325073D02*
X305691Y324979D01*
X305697Y324885D01*
X305707Y324791D01*
X305720Y324698D01*
X305738Y324606D01*
X305759Y324514D01*
X305784Y324423D01*
X305813Y324333D01*
X305846Y324245D01*
X305882Y324158D01*
X305922Y324073D01*
X305965Y323989D01*
X306012Y323908D01*
X306062Y323828D01*
X306115Y323750D01*
X306172Y323675D01*
X306231Y323602D01*
X306294Y323532D01*
X306359Y323464D01*
X309443Y323599D02*
X309508Y323601D01*
X309572Y323607D01*
X309636Y323617D01*
X309700Y323630D01*
X309762Y323648D01*
X309823Y323669D01*
X309883Y323693D01*
X309941Y323722D01*
X309998Y323754D01*
X310052Y323789D01*
X310104Y323827D01*
X310154Y323869D01*
X310201Y323913D01*
X310245Y323960D01*
X310287Y324010D01*
X310325Y324062D01*
X310360Y324116D01*
X310392Y324173D01*
X310421Y324231D01*
X310445Y324291D01*
X310466Y324352D01*
X310484Y324414D01*
X310497Y324478D01*
X310507Y324542D01*
X310513Y324606D01*
X310515Y324671D01*
X310513Y324757D01*
X310508Y324843D01*
X310498Y324929D01*
X310485Y325014D01*
X310469Y325099D01*
X310449Y325183D01*
X310425Y325266D01*
X310398Y325348D01*
X310367Y325428D01*
X310333Y325508D01*
X310295Y325585D01*
X310254Y325661D01*
X310210Y325735D01*
X310163Y325807D01*
X310113Y325878D01*
X308505Y324135D02*
X308538Y324082D01*
X308575Y324031D01*
X308614Y323982D01*
X308656Y323935D01*
X308701Y323891D01*
X308748Y323850D01*
X308797Y323811D01*
X308849Y323775D01*
X308903Y323742D01*
X308958Y323713D01*
X309015Y323687D01*
X309074Y323664D01*
X309133Y323644D01*
X309194Y323628D01*
X309255Y323615D01*
X309318Y323606D01*
X309380Y323601D01*
X309443Y323599D01*
X307699Y325609D02*
X307666Y325662D01*
X307629Y325713D01*
X307590Y325762D01*
X307548Y325809D01*
X307503Y325853D01*
X307456Y325894D01*
X307407Y325933D01*
X307355Y325969D01*
X307301Y326002D01*
X307246Y326031D01*
X307189Y326057D01*
X307130Y326080D01*
X307071Y326100D01*
X307010Y326116D01*
X306949Y326129D01*
X306886Y326138D01*
X306824Y326143D01*
X306761Y326145D01*
X307700Y325609D02*
X308504Y324135D01*
X310515Y330243D02*
X310513Y330311D01*
X310507Y330378D01*
X310498Y330445D01*
X310485Y330512D01*
X310468Y330577D01*
X310447Y330642D01*
X310423Y330705D01*
X310395Y330767D01*
X310364Y330827D01*
X310330Y330885D01*
X310292Y330941D01*
X310252Y330996D01*
X310208Y331047D01*
X310161Y331096D01*
X310112Y331143D01*
X310061Y331187D01*
X310006Y331227D01*
X309950Y331265D01*
X309892Y331299D01*
X309832Y331330D01*
X309770Y331358D01*
X309707Y331382D01*
X309642Y331403D01*
X309577Y331420D01*
X309510Y331433D01*
X309443Y331442D01*
X309376Y331448D01*
X309308Y331450D01*
X310515Y330243D02*
X310513Y330165D01*
X310507Y330087D01*
X310497Y330010D01*
X310484Y329933D01*
X310466Y329857D01*
X310445Y329782D01*
X310420Y329708D01*
X310391Y329636D01*
X310359Y329565D01*
X310323Y329496D01*
X310284Y329428D01*
X310241Y329363D01*
X310195Y329300D01*
X310146Y329239D01*
X310094Y329181D01*
X310039Y329126D01*
X309982Y329073D01*
X309922Y329024D01*
X309859Y328977D01*
X309794Y328934D01*
X309728Y328894D01*
X309659Y328857D01*
X309588Y328824D01*
X309516Y328794D01*
X309443Y328768D01*
X308370Y331047D02*
X308419Y331096D01*
X308471Y331143D01*
X308526Y331186D01*
X308583Y331227D01*
X308642Y331265D01*
X308703Y331299D01*
X308766Y331330D01*
X308830Y331358D01*
X308896Y331382D01*
X308962Y331402D01*
X309030Y331419D01*
X309099Y331432D01*
X309168Y331441D01*
X309238Y331447D01*
X309308Y331449D01*
X308370Y331047D02*
X305689Y328768D01*
X305689Y331449D01*
X308102Y334254D02*
X308222Y334256D01*
X308342Y334261D01*
X308462Y334270D01*
X308582Y334283D01*
X308701Y334299D01*
X308820Y334319D01*
X308938Y334343D01*
X309055Y334370D01*
X309171Y334400D01*
X309286Y334434D01*
X309401Y334472D01*
X309514Y334513D01*
X309625Y334557D01*
X309736Y334605D01*
X309845Y334656D01*
X309845Y334657D02*
X309902Y334678D01*
X309958Y334704D01*
X310013Y334732D01*
X310065Y334764D01*
X310116Y334800D01*
X310164Y334838D01*
X310210Y334879D01*
X310253Y334923D01*
X310293Y334969D01*
X310330Y335018D01*
X310364Y335070D01*
X310395Y335123D01*
X310423Y335178D01*
X310447Y335234D01*
X310468Y335292D01*
X310485Y335351D01*
X310498Y335411D01*
X310507Y335472D01*
X310513Y335534D01*
X310515Y335595D01*
X310513Y335656D01*
X310507Y335718D01*
X310498Y335779D01*
X310485Y335839D01*
X310468Y335898D01*
X310447Y335956D01*
X310423Y336012D01*
X310395Y336067D01*
X310364Y336120D01*
X310330Y336172D01*
X310293Y336221D01*
X310253Y336267D01*
X310210Y336311D01*
X310164Y336352D01*
X310116Y336390D01*
X310065Y336426D01*
X310013Y336458D01*
X309958Y336486D01*
X309902Y336512D01*
X309845Y336533D01*
X309736Y336584D01*
X309625Y336632D01*
X309514Y336676D01*
X309401Y336717D01*
X309286Y336755D01*
X309171Y336789D01*
X309055Y336819D01*
X308938Y336846D01*
X308820Y336870D01*
X308701Y336890D01*
X308582Y336906D01*
X308462Y336919D01*
X308342Y336928D01*
X308222Y336933D01*
X308102Y336935D01*
X308102Y334255D02*
X307982Y334257D01*
X307862Y334262D01*
X307742Y334271D01*
X307622Y334284D01*
X307503Y334300D01*
X307384Y334320D01*
X307266Y334344D01*
X307149Y334371D01*
X307033Y334401D01*
X306918Y334435D01*
X306803Y334473D01*
X306690Y334514D01*
X306579Y334558D01*
X306468Y334606D01*
X306359Y334657D01*
X306302Y334678D01*
X306246Y334704D01*
X306191Y334732D01*
X306139Y334764D01*
X306088Y334800D01*
X306040Y334838D01*
X305994Y334879D01*
X305951Y334923D01*
X305911Y334969D01*
X305874Y335018D01*
X305840Y335070D01*
X305809Y335123D01*
X305781Y335178D01*
X305757Y335234D01*
X305736Y335292D01*
X305719Y335351D01*
X305706Y335411D01*
X305697Y335472D01*
X305691Y335534D01*
X305689Y335595D01*
X306359Y336533D02*
X306468Y336584D01*
X306579Y336632D01*
X306690Y336676D01*
X306803Y336717D01*
X306918Y336755D01*
X307033Y336789D01*
X307149Y336819D01*
X307266Y336846D01*
X307384Y336870D01*
X307503Y336890D01*
X307622Y336906D01*
X307742Y336919D01*
X307862Y336928D01*
X307982Y336933D01*
X308102Y336935D01*
X306359Y336533D02*
X306302Y336512D01*
X306246Y336486D01*
X306191Y336458D01*
X306139Y336426D01*
X306088Y336390D01*
X306040Y336352D01*
X305994Y336311D01*
X305951Y336267D01*
X305911Y336220D01*
X305874Y336172D01*
X305840Y336120D01*
X305809Y336067D01*
X305781Y336012D01*
X305757Y335956D01*
X305736Y335898D01*
X305719Y335839D01*
X305706Y335779D01*
X305697Y335718D01*
X305691Y335656D01*
X305689Y335595D01*
X306761Y334522D02*
X309443Y336667D01*
D10*
X857631Y989161D02*
X866267Y989161D01*
X861949Y984843D02*
X861949Y993479D01*
X915543Y989161D02*
X924179Y989161D01*
D11*
X850900Y914400D02*
X876300Y889000D01*
X881380Y901700D02*
X914400Y889000D01*
X949960Y872490D02*
X828040Y872490D01*
X949960Y872490D02*
X949960Y1007110D01*
X828040Y1007110D01*
X828040Y872490D01*
D12*
X813689Y937416D02*
X813691Y937481D01*
X813697Y937545D01*
X813707Y937609D01*
X813720Y937673D01*
X813738Y937735D01*
X813759Y937796D01*
X813783Y937856D01*
X813812Y937914D01*
X813844Y937971D01*
X813879Y938025D01*
X813917Y938077D01*
X813959Y938127D01*
X814003Y938174D01*
X814050Y938218D01*
X814100Y938260D01*
X814152Y938298D01*
X814206Y938333D01*
X814263Y938365D01*
X814321Y938394D01*
X814381Y938418D01*
X814442Y938439D01*
X814504Y938457D01*
X814568Y938470D01*
X814632Y938480D01*
X814696Y938486D01*
X814761Y938488D01*
X813689Y937416D02*
X813691Y937322D01*
X813697Y937228D01*
X813707Y937134D01*
X813720Y937041D01*
X813738Y936949D01*
X813759Y936857D01*
X813784Y936766D01*
X813813Y936676D01*
X813846Y936588D01*
X813882Y936501D01*
X813922Y936416D01*
X813965Y936332D01*
X814012Y936251D01*
X814062Y936171D01*
X814115Y936093D01*
X814172Y936018D01*
X814231Y935945D01*
X814294Y935875D01*
X814359Y935807D01*
X817443Y935942D02*
X817508Y935944D01*
X817572Y935950D01*
X817636Y935960D01*
X817700Y935973D01*
X817762Y935991D01*
X817823Y936012D01*
X817883Y936036D01*
X817941Y936065D01*
X817998Y936097D01*
X818052Y936132D01*
X818104Y936170D01*
X818154Y936212D01*
X818201Y936256D01*
X818245Y936303D01*
X818287Y936353D01*
X818325Y936405D01*
X818360Y936459D01*
X818392Y936516D01*
X818421Y936574D01*
X818445Y936634D01*
X818466Y936695D01*
X818484Y936757D01*
X818497Y936821D01*
X818507Y936885D01*
X818513Y936949D01*
X818515Y937014D01*
X818513Y937100D01*
X818508Y937186D01*
X818498Y937272D01*
X818485Y937357D01*
X818469Y937442D01*
X818449Y937526D01*
X818425Y937609D01*
X818398Y937691D01*
X818367Y937771D01*
X818333Y937851D01*
X818295Y937928D01*
X818254Y938004D01*
X818210Y938078D01*
X818163Y938150D01*
X818113Y938221D01*
X816505Y936478D02*
X816538Y936425D01*
X816575Y936374D01*
X816614Y936325D01*
X816656Y936278D01*
X816701Y936234D01*
X816748Y936193D01*
X816797Y936154D01*
X816849Y936118D01*
X816903Y936085D01*
X816958Y936056D01*
X817015Y936030D01*
X817074Y936007D01*
X817133Y935987D01*
X817194Y935971D01*
X817255Y935958D01*
X817318Y935949D01*
X817380Y935944D01*
X817443Y935942D01*
X815699Y937953D02*
X815666Y938006D01*
X815629Y938057D01*
X815590Y938106D01*
X815548Y938153D01*
X815503Y938197D01*
X815456Y938238D01*
X815407Y938277D01*
X815355Y938313D01*
X815301Y938346D01*
X815246Y938375D01*
X815189Y938401D01*
X815130Y938424D01*
X815071Y938444D01*
X815010Y938460D01*
X814949Y938473D01*
X814886Y938482D01*
X814824Y938487D01*
X814761Y938489D01*
X815700Y937953D02*
X816504Y936478D01*
X813689Y941111D02*
X813689Y942452D01*
X813691Y942523D01*
X813697Y942595D01*
X813706Y942665D01*
X813719Y942735D01*
X813736Y942805D01*
X813757Y942873D01*
X813781Y942940D01*
X813809Y943006D01*
X813840Y943070D01*
X813875Y943133D01*
X813913Y943193D01*
X813954Y943252D01*
X813998Y943308D01*
X814045Y943362D01*
X814094Y943413D01*
X814147Y943461D01*
X814202Y943507D01*
X814259Y943549D01*
X814319Y943589D01*
X814380Y943625D01*
X814444Y943658D01*
X814509Y943687D01*
X814575Y943713D01*
X814643Y943736D01*
X814712Y943755D01*
X814782Y943770D01*
X814852Y943781D01*
X814923Y943789D01*
X814994Y943793D01*
X815066Y943793D01*
X815137Y943789D01*
X815208Y943781D01*
X815278Y943770D01*
X815348Y943755D01*
X815417Y943736D01*
X815485Y943713D01*
X815551Y943687D01*
X815616Y943658D01*
X815680Y943625D01*
X815741Y943589D01*
X815801Y943549D01*
X815858Y943507D01*
X815913Y943461D01*
X815966Y943413D01*
X816015Y943362D01*
X816062Y943308D01*
X816106Y943252D01*
X816147Y943193D01*
X816185Y943133D01*
X816220Y943070D01*
X816251Y943006D01*
X816279Y942940D01*
X816303Y942873D01*
X816324Y942805D01*
X816341Y942735D01*
X816354Y942665D01*
X816363Y942595D01*
X816369Y942523D01*
X816371Y942452D01*
X818515Y942720D02*
X818515Y941111D01*
X818515Y942720D02*
X818513Y942785D01*
X818507Y942849D01*
X818497Y942913D01*
X818484Y942977D01*
X818466Y943039D01*
X818445Y943100D01*
X818421Y943160D01*
X818392Y943218D01*
X818360Y943275D01*
X818325Y943329D01*
X818287Y943381D01*
X818245Y943431D01*
X818201Y943478D01*
X818154Y943522D01*
X818104Y943564D01*
X818052Y943602D01*
X817998Y943637D01*
X817941Y943669D01*
X817883Y943698D01*
X817823Y943722D01*
X817762Y943743D01*
X817700Y943761D01*
X817636Y943774D01*
X817572Y943784D01*
X817508Y943790D01*
X817443Y943792D01*
X817378Y943790D01*
X817314Y943784D01*
X817250Y943774D01*
X817186Y943761D01*
X817124Y943743D01*
X817063Y943722D01*
X817003Y943698D01*
X816945Y943669D01*
X816888Y943637D01*
X816834Y943602D01*
X816782Y943564D01*
X816732Y943522D01*
X816685Y943478D01*
X816641Y943431D01*
X816599Y943381D01*
X816561Y943329D01*
X816526Y943275D01*
X816494Y943218D01*
X816465Y943160D01*
X816441Y943100D01*
X816420Y943039D01*
X816402Y942977D01*
X816389Y942913D01*
X816379Y942849D01*
X816373Y942785D01*
X816371Y942720D01*
X816370Y942720D02*
X816370Y941647D01*
D10*
X857631Y785961D02*
X866267Y785961D01*
X861949Y781643D02*
X861949Y790279D01*
X915543Y785961D02*
X924179Y785961D01*
D11*
X850900Y711200D02*
X876300Y685800D01*
X881380Y698500D02*
X914400Y685800D01*
X949960Y669290D02*
X828040Y669290D01*
X949960Y669290D02*
X949960Y803910D01*
X828040Y803910D01*
X828040Y669290D01*
D12*
X813689Y734216D02*
X813691Y734281D01*
X813697Y734345D01*
X813707Y734409D01*
X813720Y734473D01*
X813738Y734535D01*
X813759Y734596D01*
X813783Y734656D01*
X813812Y734714D01*
X813844Y734771D01*
X813879Y734825D01*
X813917Y734877D01*
X813959Y734927D01*
X814003Y734974D01*
X814050Y735018D01*
X814100Y735060D01*
X814152Y735098D01*
X814206Y735133D01*
X814263Y735165D01*
X814321Y735194D01*
X814381Y735218D01*
X814442Y735239D01*
X814504Y735257D01*
X814568Y735270D01*
X814632Y735280D01*
X814696Y735286D01*
X814761Y735288D01*
X813689Y734216D02*
X813691Y734122D01*
X813697Y734028D01*
X813707Y733934D01*
X813720Y733841D01*
X813738Y733749D01*
X813759Y733657D01*
X813784Y733566D01*
X813813Y733476D01*
X813846Y733388D01*
X813882Y733301D01*
X813922Y733216D01*
X813965Y733132D01*
X814012Y733051D01*
X814062Y732971D01*
X814115Y732893D01*
X814172Y732818D01*
X814231Y732745D01*
X814294Y732675D01*
X814359Y732607D01*
X817443Y732742D02*
X817508Y732744D01*
X817572Y732750D01*
X817636Y732760D01*
X817700Y732773D01*
X817762Y732791D01*
X817823Y732812D01*
X817883Y732836D01*
X817941Y732865D01*
X817998Y732897D01*
X818052Y732932D01*
X818104Y732970D01*
X818154Y733012D01*
X818201Y733056D01*
X818245Y733103D01*
X818287Y733153D01*
X818325Y733205D01*
X818360Y733259D01*
X818392Y733316D01*
X818421Y733374D01*
X818445Y733434D01*
X818466Y733495D01*
X818484Y733557D01*
X818497Y733621D01*
X818507Y733685D01*
X818513Y733749D01*
X818515Y733814D01*
X818513Y733900D01*
X818508Y733986D01*
X818498Y734072D01*
X818485Y734157D01*
X818469Y734242D01*
X818449Y734326D01*
X818425Y734409D01*
X818398Y734491D01*
X818367Y734571D01*
X818333Y734651D01*
X818295Y734728D01*
X818254Y734804D01*
X818210Y734878D01*
X818163Y734950D01*
X818113Y735021D01*
X816505Y733278D02*
X816538Y733225D01*
X816575Y733174D01*
X816614Y733125D01*
X816656Y733078D01*
X816701Y733034D01*
X816748Y732993D01*
X816797Y732954D01*
X816849Y732918D01*
X816903Y732885D01*
X816958Y732856D01*
X817015Y732830D01*
X817074Y732807D01*
X817133Y732787D01*
X817194Y732771D01*
X817255Y732758D01*
X817318Y732749D01*
X817380Y732744D01*
X817443Y732742D01*
X815699Y734753D02*
X815666Y734806D01*
X815629Y734857D01*
X815590Y734906D01*
X815548Y734953D01*
X815503Y734997D01*
X815456Y735038D01*
X815407Y735077D01*
X815355Y735113D01*
X815301Y735146D01*
X815246Y735175D01*
X815189Y735201D01*
X815130Y735224D01*
X815071Y735244D01*
X815010Y735260D01*
X814949Y735273D01*
X814886Y735282D01*
X814824Y735287D01*
X814761Y735289D01*
X815700Y734753D02*
X816504Y733278D01*
X814761Y737911D02*
X818515Y738984D01*
X814761Y737911D02*
X814761Y740592D01*
X815834Y739788D02*
X813689Y739788D01*
D10*
X612267Y989161D02*
X603631Y989161D01*
X607949Y984843D02*
X607949Y993479D01*
X661543Y989161D02*
X670179Y989161D01*
D11*
X596900Y914400D02*
X622300Y889000D01*
X627380Y901700D02*
X660400Y889000D01*
X695960Y872490D02*
X574040Y872490D01*
X695960Y872490D02*
X695960Y1007110D01*
X574040Y1007110D01*
X574040Y872490D01*
D12*
X559689Y937416D02*
X559691Y937481D01*
X559697Y937545D01*
X559707Y937609D01*
X559720Y937673D01*
X559738Y937735D01*
X559759Y937796D01*
X559783Y937856D01*
X559812Y937914D01*
X559844Y937971D01*
X559879Y938025D01*
X559917Y938077D01*
X559959Y938127D01*
X560003Y938174D01*
X560050Y938218D01*
X560100Y938260D01*
X560152Y938298D01*
X560206Y938333D01*
X560263Y938365D01*
X560321Y938394D01*
X560381Y938418D01*
X560442Y938439D01*
X560504Y938457D01*
X560568Y938470D01*
X560632Y938480D01*
X560696Y938486D01*
X560761Y938488D01*
X559689Y937416D02*
X559691Y937322D01*
X559697Y937228D01*
X559707Y937134D01*
X559720Y937041D01*
X559738Y936949D01*
X559759Y936857D01*
X559784Y936766D01*
X559813Y936676D01*
X559846Y936588D01*
X559882Y936501D01*
X559922Y936416D01*
X559965Y936332D01*
X560012Y936251D01*
X560062Y936171D01*
X560115Y936093D01*
X560172Y936018D01*
X560231Y935945D01*
X560294Y935875D01*
X560359Y935807D01*
X563443Y935942D02*
X563508Y935944D01*
X563572Y935950D01*
X563636Y935960D01*
X563700Y935973D01*
X563762Y935991D01*
X563823Y936012D01*
X563883Y936036D01*
X563941Y936065D01*
X563998Y936097D01*
X564052Y936132D01*
X564104Y936170D01*
X564154Y936212D01*
X564201Y936256D01*
X564245Y936303D01*
X564287Y936353D01*
X564325Y936405D01*
X564360Y936459D01*
X564392Y936516D01*
X564421Y936574D01*
X564445Y936634D01*
X564466Y936695D01*
X564484Y936757D01*
X564497Y936821D01*
X564507Y936885D01*
X564513Y936949D01*
X564515Y937014D01*
X564513Y937100D01*
X564508Y937186D01*
X564498Y937272D01*
X564485Y937357D01*
X564469Y937442D01*
X564449Y937526D01*
X564425Y937609D01*
X564398Y937691D01*
X564367Y937771D01*
X564333Y937851D01*
X564295Y937928D01*
X564254Y938004D01*
X564210Y938078D01*
X564163Y938150D01*
X564113Y938221D01*
X562505Y936478D02*
X562538Y936425D01*
X562575Y936374D01*
X562614Y936325D01*
X562656Y936278D01*
X562701Y936234D01*
X562748Y936193D01*
X562797Y936154D01*
X562849Y936118D01*
X562903Y936085D01*
X562958Y936056D01*
X563015Y936030D01*
X563074Y936007D01*
X563133Y935987D01*
X563194Y935971D01*
X563255Y935958D01*
X563318Y935949D01*
X563380Y935944D01*
X563443Y935942D01*
X561699Y937953D02*
X561666Y938006D01*
X561629Y938057D01*
X561590Y938106D01*
X561548Y938153D01*
X561503Y938197D01*
X561456Y938238D01*
X561407Y938277D01*
X561355Y938313D01*
X561301Y938346D01*
X561246Y938375D01*
X561189Y938401D01*
X561130Y938424D01*
X561071Y938444D01*
X561010Y938460D01*
X560949Y938473D01*
X560886Y938482D01*
X560824Y938487D01*
X560761Y938489D01*
X561700Y937953D02*
X562504Y936478D01*
X559689Y941111D02*
X559689Y942720D01*
X559691Y942785D01*
X559697Y942849D01*
X559707Y942913D01*
X559720Y942977D01*
X559738Y943039D01*
X559759Y943100D01*
X559783Y943160D01*
X559812Y943218D01*
X559844Y943275D01*
X559879Y943329D01*
X559917Y943381D01*
X559959Y943431D01*
X560003Y943478D01*
X560050Y943522D01*
X560100Y943564D01*
X560152Y943602D01*
X560206Y943637D01*
X560263Y943669D01*
X560321Y943698D01*
X560381Y943722D01*
X560442Y943743D01*
X560504Y943761D01*
X560568Y943774D01*
X560632Y943784D01*
X560696Y943790D01*
X560761Y943792D01*
X561298Y943792D01*
X561363Y943790D01*
X561427Y943784D01*
X561491Y943774D01*
X561555Y943761D01*
X561617Y943743D01*
X561678Y943722D01*
X561738Y943698D01*
X561796Y943669D01*
X561853Y943637D01*
X561907Y943602D01*
X561959Y943564D01*
X562009Y943522D01*
X562056Y943478D01*
X562100Y943431D01*
X562142Y943381D01*
X562180Y943329D01*
X562215Y943275D01*
X562247Y943218D01*
X562276Y943160D01*
X562300Y943100D01*
X562321Y943039D01*
X562339Y942977D01*
X562352Y942913D01*
X562362Y942849D01*
X562368Y942785D01*
X562370Y942720D01*
X562370Y941111D01*
X564515Y941111D01*
X564515Y943792D01*
D10*
X603631Y785961D02*
X612267Y785961D01*
X607949Y781643D02*
X607949Y790279D01*
X661543Y785961D02*
X670179Y785961D01*
D11*
X596900Y711200D02*
X622300Y685800D01*
X627380Y698500D02*
X660400Y685800D01*
X695960Y669290D02*
X574040Y669290D01*
X695960Y669290D02*
X695960Y803910D01*
X574040Y803910D01*
X574040Y669290D01*
D12*
X559689Y734216D02*
X559691Y734281D01*
X559697Y734345D01*
X559707Y734409D01*
X559720Y734473D01*
X559738Y734535D01*
X559759Y734596D01*
X559783Y734656D01*
X559812Y734714D01*
X559844Y734771D01*
X559879Y734825D01*
X559917Y734877D01*
X559959Y734927D01*
X560003Y734974D01*
X560050Y735018D01*
X560100Y735060D01*
X560152Y735098D01*
X560206Y735133D01*
X560263Y735165D01*
X560321Y735194D01*
X560381Y735218D01*
X560442Y735239D01*
X560504Y735257D01*
X560568Y735270D01*
X560632Y735280D01*
X560696Y735286D01*
X560761Y735288D01*
X559689Y734216D02*
X559691Y734122D01*
X559697Y734028D01*
X559707Y733934D01*
X559720Y733841D01*
X559738Y733749D01*
X559759Y733657D01*
X559784Y733566D01*
X559813Y733476D01*
X559846Y733388D01*
X559882Y733301D01*
X559922Y733216D01*
X559965Y733132D01*
X560012Y733051D01*
X560062Y732971D01*
X560115Y732893D01*
X560172Y732818D01*
X560231Y732745D01*
X560294Y732675D01*
X560359Y732607D01*
X563443Y732742D02*
X563508Y732744D01*
X563572Y732750D01*
X563636Y732760D01*
X563700Y732773D01*
X563762Y732791D01*
X563823Y732812D01*
X563883Y732836D01*
X563941Y732865D01*
X563998Y732897D01*
X564052Y732932D01*
X564104Y732970D01*
X564154Y733012D01*
X564201Y733056D01*
X564245Y733103D01*
X564287Y733153D01*
X564325Y733205D01*
X564360Y733259D01*
X564392Y733316D01*
X564421Y733374D01*
X564445Y733434D01*
X564466Y733495D01*
X564484Y733557D01*
X564497Y733621D01*
X564507Y733685D01*
X564513Y733749D01*
X564515Y733814D01*
X564513Y733900D01*
X564508Y733986D01*
X564498Y734072D01*
X564485Y734157D01*
X564469Y734242D01*
X564449Y734326D01*
X564425Y734409D01*
X564398Y734491D01*
X564367Y734571D01*
X564333Y734651D01*
X564295Y734728D01*
X564254Y734804D01*
X564210Y734878D01*
X564163Y734950D01*
X564113Y735021D01*
X562505Y733278D02*
X562538Y733225D01*
X562575Y733174D01*
X562614Y733125D01*
X562656Y733078D01*
X562701Y733034D01*
X562748Y732993D01*
X562797Y732954D01*
X562849Y732918D01*
X562903Y732885D01*
X562958Y732856D01*
X563015Y732830D01*
X563074Y732807D01*
X563133Y732787D01*
X563194Y732771D01*
X563255Y732758D01*
X563318Y732749D01*
X563380Y732744D01*
X563443Y732742D01*
X561699Y734753D02*
X561666Y734806D01*
X561629Y734857D01*
X561590Y734906D01*
X561548Y734953D01*
X561503Y734997D01*
X561456Y735038D01*
X561407Y735077D01*
X561355Y735113D01*
X561301Y735146D01*
X561246Y735175D01*
X561189Y735201D01*
X561130Y735224D01*
X561071Y735244D01*
X561010Y735260D01*
X560949Y735273D01*
X560886Y735282D01*
X560824Y735287D01*
X560761Y735289D01*
X561700Y734753D02*
X562504Y733278D01*
X562370Y737911D02*
X562370Y739520D01*
X562368Y739585D01*
X562362Y739649D01*
X562352Y739713D01*
X562339Y739777D01*
X562321Y739839D01*
X562300Y739900D01*
X562276Y739960D01*
X562247Y740018D01*
X562215Y740075D01*
X562180Y740129D01*
X562142Y740181D01*
X562100Y740231D01*
X562056Y740278D01*
X562009Y740322D01*
X561959Y740364D01*
X561907Y740402D01*
X561853Y740437D01*
X561796Y740469D01*
X561738Y740498D01*
X561678Y740522D01*
X561617Y740543D01*
X561555Y740561D01*
X561491Y740574D01*
X561427Y740584D01*
X561363Y740590D01*
X561298Y740592D01*
X561030Y740592D01*
X561030Y740593D02*
X560959Y740591D01*
X560887Y740585D01*
X560817Y740576D01*
X560747Y740563D01*
X560677Y740546D01*
X560609Y740525D01*
X560542Y740501D01*
X560476Y740473D01*
X560412Y740442D01*
X560349Y740407D01*
X560289Y740369D01*
X560230Y740328D01*
X560174Y740284D01*
X560120Y740237D01*
X560069Y740188D01*
X560021Y740135D01*
X559975Y740080D01*
X559933Y740023D01*
X559893Y739963D01*
X559857Y739902D01*
X559824Y739838D01*
X559795Y739773D01*
X559769Y739707D01*
X559746Y739639D01*
X559727Y739570D01*
X559712Y739500D01*
X559701Y739430D01*
X559693Y739359D01*
X559689Y739288D01*
X559689Y739216D01*
X559693Y739145D01*
X559701Y739074D01*
X559712Y739004D01*
X559727Y738934D01*
X559746Y738865D01*
X559769Y738797D01*
X559795Y738731D01*
X559824Y738666D01*
X559857Y738602D01*
X559893Y738541D01*
X559933Y738481D01*
X559975Y738424D01*
X560021Y738369D01*
X560069Y738316D01*
X560120Y738267D01*
X560174Y738220D01*
X560230Y738176D01*
X560289Y738135D01*
X560349Y738097D01*
X560412Y738062D01*
X560476Y738031D01*
X560542Y738003D01*
X560609Y737979D01*
X560677Y737958D01*
X560747Y737941D01*
X560817Y737928D01*
X560887Y737919D01*
X560959Y737913D01*
X561030Y737911D01*
X562370Y737911D01*
X562461Y737913D01*
X562552Y737919D01*
X562642Y737928D01*
X562733Y737942D01*
X562822Y737959D01*
X562910Y737980D01*
X562998Y738005D01*
X563085Y738034D01*
X563170Y738066D01*
X563254Y738101D01*
X563336Y738141D01*
X563416Y738183D01*
X563495Y738229D01*
X563571Y738279D01*
X563645Y738331D01*
X563718Y738387D01*
X563787Y738446D01*
X563854Y738507D01*
X563919Y738572D01*
X563980Y738639D01*
X564039Y738708D01*
X564095Y738780D01*
X564147Y738855D01*
X564197Y738931D01*
X564243Y739010D01*
X564285Y739090D01*
X564325Y739172D01*
X564360Y739256D01*
X564392Y739341D01*
X564421Y739428D01*
X564446Y739515D01*
X564467Y739604D01*
X564484Y739693D01*
X564498Y739784D01*
X564507Y739874D01*
X564513Y739965D01*
X564515Y740056D01*
D10*
X358267Y989161D02*
X349631Y989161D01*
X353949Y984843D02*
X353949Y993479D01*
X407543Y989161D02*
X416179Y989161D01*
D11*
X342900Y914400D02*
X368300Y889000D01*
X373380Y901700D02*
X406400Y889000D01*
X441960Y872490D02*
X320040Y872490D01*
X441960Y872490D02*
X441960Y1007110D01*
X320040Y1007110D01*
X320040Y872490D01*
D12*
X305689Y937416D02*
X305691Y937481D01*
X305697Y937545D01*
X305707Y937609D01*
X305720Y937673D01*
X305738Y937735D01*
X305759Y937796D01*
X305783Y937856D01*
X305812Y937914D01*
X305844Y937971D01*
X305879Y938025D01*
X305917Y938077D01*
X305959Y938127D01*
X306003Y938174D01*
X306050Y938218D01*
X306100Y938260D01*
X306152Y938298D01*
X306206Y938333D01*
X306263Y938365D01*
X306321Y938394D01*
X306381Y938418D01*
X306442Y938439D01*
X306504Y938457D01*
X306568Y938470D01*
X306632Y938480D01*
X306696Y938486D01*
X306761Y938488D01*
X305689Y937416D02*
X305691Y937322D01*
X305697Y937228D01*
X305707Y937134D01*
X305720Y937041D01*
X305738Y936949D01*
X305759Y936857D01*
X305784Y936766D01*
X305813Y936676D01*
X305846Y936588D01*
X305882Y936501D01*
X305922Y936416D01*
X305965Y936332D01*
X306012Y936251D01*
X306062Y936171D01*
X306115Y936093D01*
X306172Y936018D01*
X306231Y935945D01*
X306294Y935875D01*
X306359Y935807D01*
X309443Y935942D02*
X309508Y935944D01*
X309572Y935950D01*
X309636Y935960D01*
X309700Y935973D01*
X309762Y935991D01*
X309823Y936012D01*
X309883Y936036D01*
X309941Y936065D01*
X309998Y936097D01*
X310052Y936132D01*
X310104Y936170D01*
X310154Y936212D01*
X310201Y936256D01*
X310245Y936303D01*
X310287Y936353D01*
X310325Y936405D01*
X310360Y936459D01*
X310392Y936516D01*
X310421Y936574D01*
X310445Y936634D01*
X310466Y936695D01*
X310484Y936757D01*
X310497Y936821D01*
X310507Y936885D01*
X310513Y936949D01*
X310515Y937014D01*
X310513Y937100D01*
X310508Y937186D01*
X310498Y937272D01*
X310485Y937357D01*
X310469Y937442D01*
X310449Y937526D01*
X310425Y937609D01*
X310398Y937691D01*
X310367Y937771D01*
X310333Y937851D01*
X310295Y937928D01*
X310254Y938004D01*
X310210Y938078D01*
X310163Y938150D01*
X310113Y938221D01*
X308505Y936478D02*
X308538Y936425D01*
X308575Y936374D01*
X308614Y936325D01*
X308656Y936278D01*
X308701Y936234D01*
X308748Y936193D01*
X308797Y936154D01*
X308849Y936118D01*
X308903Y936085D01*
X308958Y936056D01*
X309015Y936030D01*
X309074Y936007D01*
X309133Y935987D01*
X309194Y935971D01*
X309255Y935958D01*
X309318Y935949D01*
X309380Y935944D01*
X309443Y935942D01*
X307699Y937953D02*
X307666Y938006D01*
X307629Y938057D01*
X307590Y938106D01*
X307548Y938153D01*
X307503Y938197D01*
X307456Y938238D01*
X307407Y938277D01*
X307355Y938313D01*
X307301Y938346D01*
X307246Y938375D01*
X307189Y938401D01*
X307130Y938424D01*
X307071Y938444D01*
X307010Y938460D01*
X306949Y938473D01*
X306886Y938482D01*
X306824Y938487D01*
X306761Y938489D01*
X307700Y937953D02*
X308504Y936478D01*
X309979Y941111D02*
X310515Y941111D01*
X310515Y943792D01*
X305689Y942452D01*
D10*
X349631Y785961D02*
X358267Y785961D01*
X353949Y781643D02*
X353949Y790279D01*
X407543Y785961D02*
X416179Y785961D01*
D11*
X342900Y711200D02*
X368300Y685800D01*
X373380Y698500D02*
X406400Y685800D01*
X441960Y669290D02*
X320040Y669290D01*
X441960Y669290D02*
X441960Y803910D01*
X320040Y803910D01*
X320040Y669290D01*
D12*
X305689Y734216D02*
X305691Y734281D01*
X305697Y734345D01*
X305707Y734409D01*
X305720Y734473D01*
X305738Y734535D01*
X305759Y734596D01*
X305783Y734656D01*
X305812Y734714D01*
X305844Y734771D01*
X305879Y734825D01*
X305917Y734877D01*
X305959Y734927D01*
X306003Y734974D01*
X306050Y735018D01*
X306100Y735060D01*
X306152Y735098D01*
X306206Y735133D01*
X306263Y735165D01*
X306321Y735194D01*
X306381Y735218D01*
X306442Y735239D01*
X306504Y735257D01*
X306568Y735270D01*
X306632Y735280D01*
X306696Y735286D01*
X306761Y735288D01*
X305689Y734216D02*
X305691Y734122D01*
X305697Y734028D01*
X305707Y733934D01*
X305720Y733841D01*
X305738Y733749D01*
X305759Y733657D01*
X305784Y733566D01*
X305813Y733476D01*
X305846Y733388D01*
X305882Y733301D01*
X305922Y733216D01*
X305965Y733132D01*
X306012Y733051D01*
X306062Y732971D01*
X306115Y732893D01*
X306172Y732818D01*
X306231Y732745D01*
X306294Y732675D01*
X306359Y732607D01*
X309443Y732742D02*
X309508Y732744D01*
X309572Y732750D01*
X309636Y732760D01*
X309700Y732773D01*
X309762Y732791D01*
X309823Y732812D01*
X309883Y732836D01*
X309941Y732865D01*
X309998Y732897D01*
X310052Y732932D01*
X310104Y732970D01*
X310154Y733012D01*
X310201Y733056D01*
X310245Y733103D01*
X310287Y733153D01*
X310325Y733205D01*
X310360Y733259D01*
X310392Y733316D01*
X310421Y733374D01*
X310445Y733434D01*
X310466Y733495D01*
X310484Y733557D01*
X310497Y733621D01*
X310507Y733685D01*
X310513Y733749D01*
X310515Y733814D01*
X310513Y733900D01*
X310508Y733986D01*
X310498Y734072D01*
X310485Y734157D01*
X310469Y734242D01*
X310449Y734326D01*
X310425Y734409D01*
X310398Y734491D01*
X310367Y734571D01*
X310333Y734651D01*
X310295Y734728D01*
X310254Y734804D01*
X310210Y734878D01*
X310163Y734950D01*
X310113Y735021D01*
X308505Y733278D02*
X308538Y733225D01*
X308575Y733174D01*
X308614Y733125D01*
X308656Y733078D01*
X308701Y733034D01*
X308748Y732993D01*
X308797Y732954D01*
X308849Y732918D01*
X308903Y732885D01*
X308958Y732856D01*
X309015Y732830D01*
X309074Y732807D01*
X309133Y732787D01*
X309194Y732771D01*
X309255Y732758D01*
X309318Y732749D01*
X309380Y732744D01*
X309443Y732742D01*
X307699Y734753D02*
X307666Y734806D01*
X307629Y734857D01*
X307590Y734906D01*
X307548Y734953D01*
X307503Y734997D01*
X307456Y735038D01*
X307407Y735077D01*
X307355Y735113D01*
X307301Y735146D01*
X307246Y735175D01*
X307189Y735201D01*
X307130Y735224D01*
X307071Y735244D01*
X307010Y735260D01*
X306949Y735273D01*
X306886Y735282D01*
X306824Y735287D01*
X306761Y735289D01*
X307700Y734753D02*
X308504Y733278D01*
X307030Y737911D02*
X307101Y737913D01*
X307173Y737919D01*
X307243Y737928D01*
X307313Y737941D01*
X307383Y737958D01*
X307451Y737979D01*
X307518Y738003D01*
X307584Y738031D01*
X307648Y738062D01*
X307711Y738097D01*
X307771Y738135D01*
X307830Y738176D01*
X307886Y738220D01*
X307940Y738267D01*
X307991Y738316D01*
X308039Y738369D01*
X308085Y738424D01*
X308127Y738481D01*
X308167Y738541D01*
X308203Y738602D01*
X308236Y738666D01*
X308265Y738731D01*
X308291Y738797D01*
X308314Y738865D01*
X308333Y738934D01*
X308348Y739004D01*
X308359Y739074D01*
X308367Y739145D01*
X308371Y739216D01*
X308371Y739288D01*
X308367Y739359D01*
X308359Y739430D01*
X308348Y739500D01*
X308333Y739570D01*
X308314Y739639D01*
X308291Y739707D01*
X308265Y739773D01*
X308236Y739838D01*
X308203Y739902D01*
X308167Y739963D01*
X308127Y740023D01*
X308085Y740080D01*
X308039Y740135D01*
X307991Y740188D01*
X307940Y740237D01*
X307886Y740284D01*
X307830Y740328D01*
X307771Y740369D01*
X307711Y740407D01*
X307648Y740442D01*
X307584Y740473D01*
X307518Y740501D01*
X307451Y740525D01*
X307383Y740546D01*
X307313Y740563D01*
X307243Y740576D01*
X307173Y740585D01*
X307101Y740591D01*
X307030Y740593D01*
X306959Y740591D01*
X306887Y740585D01*
X306817Y740576D01*
X306747Y740563D01*
X306677Y740546D01*
X306609Y740525D01*
X306542Y740501D01*
X306476Y740473D01*
X306412Y740442D01*
X306349Y740407D01*
X306289Y740369D01*
X306230Y740328D01*
X306174Y740284D01*
X306120Y740237D01*
X306069Y740188D01*
X306021Y740135D01*
X305975Y740080D01*
X305933Y740023D01*
X305893Y739963D01*
X305857Y739902D01*
X305824Y739838D01*
X305795Y739773D01*
X305769Y739707D01*
X305746Y739639D01*
X305727Y739570D01*
X305712Y739500D01*
X305701Y739430D01*
X305693Y739359D01*
X305689Y739288D01*
X305689Y739216D01*
X305693Y739145D01*
X305701Y739074D01*
X305712Y739004D01*
X305727Y738934D01*
X305746Y738865D01*
X305769Y738797D01*
X305795Y738731D01*
X305824Y738666D01*
X305857Y738602D01*
X305893Y738541D01*
X305933Y738481D01*
X305975Y738424D01*
X306021Y738369D01*
X306069Y738316D01*
X306120Y738267D01*
X306174Y738220D01*
X306230Y738176D01*
X306289Y738135D01*
X306349Y738097D01*
X306412Y738062D01*
X306476Y738031D01*
X306542Y738003D01*
X306609Y737979D01*
X306677Y737958D01*
X306747Y737941D01*
X306817Y737928D01*
X306887Y737919D01*
X306959Y737913D01*
X307030Y737911D01*
X309443Y738180D02*
X309508Y738182D01*
X309572Y738188D01*
X309636Y738198D01*
X309700Y738211D01*
X309762Y738229D01*
X309823Y738250D01*
X309883Y738274D01*
X309941Y738303D01*
X309998Y738335D01*
X310052Y738370D01*
X310104Y738408D01*
X310154Y738450D01*
X310201Y738494D01*
X310245Y738541D01*
X310287Y738591D01*
X310325Y738643D01*
X310360Y738697D01*
X310392Y738754D01*
X310421Y738812D01*
X310445Y738872D01*
X310466Y738933D01*
X310484Y738995D01*
X310497Y739059D01*
X310507Y739123D01*
X310513Y739187D01*
X310515Y739252D01*
X310513Y739317D01*
X310507Y739381D01*
X310497Y739445D01*
X310484Y739509D01*
X310466Y739571D01*
X310445Y739632D01*
X310421Y739692D01*
X310392Y739750D01*
X310360Y739807D01*
X310325Y739861D01*
X310287Y739913D01*
X310245Y739963D01*
X310201Y740010D01*
X310154Y740054D01*
X310104Y740096D01*
X310052Y740134D01*
X309998Y740169D01*
X309941Y740201D01*
X309883Y740230D01*
X309823Y740254D01*
X309762Y740275D01*
X309700Y740293D01*
X309636Y740306D01*
X309572Y740316D01*
X309508Y740322D01*
X309443Y740324D01*
X309378Y740322D01*
X309314Y740316D01*
X309250Y740306D01*
X309186Y740293D01*
X309124Y740275D01*
X309063Y740254D01*
X309003Y740230D01*
X308945Y740201D01*
X308888Y740169D01*
X308834Y740134D01*
X308782Y740096D01*
X308732Y740054D01*
X308685Y740010D01*
X308641Y739963D01*
X308599Y739913D01*
X308561Y739861D01*
X308526Y739807D01*
X308494Y739750D01*
X308465Y739692D01*
X308441Y739632D01*
X308420Y739571D01*
X308402Y739509D01*
X308389Y739445D01*
X308379Y739381D01*
X308373Y739317D01*
X308371Y739252D01*
X308373Y739187D01*
X308379Y739123D01*
X308389Y739059D01*
X308402Y738995D01*
X308420Y738933D01*
X308441Y738872D01*
X308465Y738812D01*
X308494Y738754D01*
X308526Y738697D01*
X308561Y738643D01*
X308599Y738591D01*
X308641Y738541D01*
X308685Y738494D01*
X308732Y738450D01*
X308782Y738408D01*
X308834Y738370D01*
X308888Y738335D01*
X308945Y738303D01*
X309003Y738274D01*
X309063Y738250D01*
X309124Y738229D01*
X309186Y738211D01*
X309250Y738198D01*
X309314Y738188D01*
X309378Y738182D01*
X309443Y738180D01*
D10*
X129667Y989161D02*
X121031Y989161D01*
X125349Y984843D02*
X125349Y993479D01*
X178943Y989161D02*
X187579Y989161D01*
D11*
X114300Y914400D02*
X139700Y889000D01*
X144780Y901700D02*
X177800Y889000D01*
X213360Y872490D02*
X91440Y872490D01*
X213360Y872490D02*
X213360Y1007110D01*
X91440Y1007110D01*
X91440Y872490D01*
D12*
X77089Y937416D02*
X77091Y937481D01*
X77097Y937545D01*
X77107Y937609D01*
X77120Y937673D01*
X77138Y937735D01*
X77159Y937796D01*
X77183Y937856D01*
X77212Y937914D01*
X77244Y937971D01*
X77279Y938025D01*
X77317Y938077D01*
X77359Y938127D01*
X77403Y938174D01*
X77450Y938218D01*
X77500Y938260D01*
X77552Y938298D01*
X77606Y938333D01*
X77663Y938365D01*
X77721Y938394D01*
X77781Y938418D01*
X77842Y938439D01*
X77904Y938457D01*
X77968Y938470D01*
X78032Y938480D01*
X78096Y938486D01*
X78161Y938488D01*
X77089Y937416D02*
X77091Y937322D01*
X77097Y937228D01*
X77107Y937134D01*
X77120Y937041D01*
X77138Y936949D01*
X77159Y936857D01*
X77184Y936766D01*
X77213Y936676D01*
X77246Y936588D01*
X77282Y936501D01*
X77322Y936416D01*
X77365Y936332D01*
X77412Y936251D01*
X77462Y936171D01*
X77515Y936093D01*
X77572Y936018D01*
X77631Y935945D01*
X77694Y935875D01*
X77759Y935807D01*
X80843Y935942D02*
X80908Y935944D01*
X80972Y935950D01*
X81036Y935960D01*
X81100Y935973D01*
X81162Y935991D01*
X81223Y936012D01*
X81283Y936036D01*
X81341Y936065D01*
X81398Y936097D01*
X81452Y936132D01*
X81504Y936170D01*
X81554Y936212D01*
X81601Y936256D01*
X81645Y936303D01*
X81687Y936353D01*
X81725Y936405D01*
X81760Y936459D01*
X81792Y936516D01*
X81821Y936574D01*
X81845Y936634D01*
X81866Y936695D01*
X81884Y936757D01*
X81897Y936821D01*
X81907Y936885D01*
X81913Y936949D01*
X81915Y937014D01*
X81913Y937100D01*
X81908Y937186D01*
X81898Y937272D01*
X81885Y937357D01*
X81869Y937442D01*
X81849Y937526D01*
X81825Y937609D01*
X81798Y937691D01*
X81767Y937771D01*
X81733Y937851D01*
X81695Y937928D01*
X81654Y938004D01*
X81610Y938078D01*
X81563Y938150D01*
X81513Y938221D01*
X79905Y936478D02*
X79938Y936425D01*
X79975Y936374D01*
X80014Y936325D01*
X80056Y936278D01*
X80101Y936234D01*
X80148Y936193D01*
X80197Y936154D01*
X80249Y936118D01*
X80303Y936085D01*
X80358Y936056D01*
X80415Y936030D01*
X80474Y936007D01*
X80533Y935987D01*
X80594Y935971D01*
X80655Y935958D01*
X80718Y935949D01*
X80780Y935944D01*
X80843Y935942D01*
X79099Y937953D02*
X79066Y938006D01*
X79029Y938057D01*
X78990Y938106D01*
X78948Y938153D01*
X78903Y938197D01*
X78856Y938238D01*
X78807Y938277D01*
X78755Y938313D01*
X78701Y938346D01*
X78646Y938375D01*
X78589Y938401D01*
X78530Y938424D01*
X78471Y938444D01*
X78410Y938460D01*
X78349Y938473D01*
X78286Y938482D01*
X78224Y938487D01*
X78161Y938489D01*
X79100Y937953D02*
X79904Y936478D01*
X79234Y942184D02*
X79234Y943792D01*
X79234Y942184D02*
X79236Y942119D01*
X79242Y942055D01*
X79252Y941991D01*
X79265Y941927D01*
X79283Y941865D01*
X79304Y941804D01*
X79328Y941744D01*
X79357Y941686D01*
X79389Y941629D01*
X79424Y941575D01*
X79462Y941523D01*
X79504Y941473D01*
X79548Y941426D01*
X79595Y941382D01*
X79645Y941340D01*
X79697Y941302D01*
X79751Y941267D01*
X79808Y941235D01*
X79866Y941206D01*
X79926Y941182D01*
X79987Y941161D01*
X80049Y941143D01*
X80113Y941130D01*
X80177Y941120D01*
X80241Y941114D01*
X80306Y941112D01*
X80306Y941111D02*
X80574Y941111D01*
X80645Y941113D01*
X80717Y941119D01*
X80787Y941128D01*
X80857Y941141D01*
X80927Y941158D01*
X80995Y941179D01*
X81062Y941203D01*
X81128Y941231D01*
X81192Y941262D01*
X81255Y941297D01*
X81315Y941335D01*
X81374Y941376D01*
X81430Y941420D01*
X81484Y941467D01*
X81535Y941516D01*
X81583Y941569D01*
X81629Y941624D01*
X81671Y941681D01*
X81711Y941741D01*
X81747Y941802D01*
X81780Y941866D01*
X81809Y941931D01*
X81835Y941997D01*
X81858Y942065D01*
X81877Y942134D01*
X81892Y942204D01*
X81903Y942274D01*
X81911Y942345D01*
X81915Y942416D01*
X81915Y942488D01*
X81911Y942559D01*
X81903Y942630D01*
X81892Y942700D01*
X81877Y942770D01*
X81858Y942839D01*
X81835Y942907D01*
X81809Y942973D01*
X81780Y943038D01*
X81747Y943102D01*
X81711Y943163D01*
X81671Y943223D01*
X81629Y943280D01*
X81583Y943335D01*
X81535Y943388D01*
X81484Y943437D01*
X81430Y943484D01*
X81374Y943528D01*
X81315Y943569D01*
X81255Y943607D01*
X81192Y943642D01*
X81128Y943673D01*
X81062Y943701D01*
X80995Y943725D01*
X80927Y943746D01*
X80857Y943763D01*
X80787Y943776D01*
X80717Y943785D01*
X80645Y943791D01*
X80574Y943793D01*
X80574Y943792D02*
X79234Y943792D01*
X79143Y943790D01*
X79052Y943784D01*
X78962Y943775D01*
X78871Y943761D01*
X78782Y943744D01*
X78694Y943723D01*
X78606Y943698D01*
X78519Y943669D01*
X78434Y943637D01*
X78350Y943602D01*
X78268Y943562D01*
X78188Y943520D01*
X78109Y943474D01*
X78033Y943424D01*
X77959Y943372D01*
X77886Y943316D01*
X77817Y943257D01*
X77750Y943196D01*
X77685Y943131D01*
X77624Y943064D01*
X77565Y942995D01*
X77509Y942922D01*
X77457Y942848D01*
X77407Y942772D01*
X77361Y942693D01*
X77319Y942613D01*
X77279Y942531D01*
X77244Y942447D01*
X77212Y942362D01*
X77183Y942275D01*
X77158Y942187D01*
X77137Y942099D01*
X77120Y942010D01*
X77106Y941919D01*
X77097Y941829D01*
X77091Y941738D01*
X77089Y941647D01*
D10*
X121031Y785961D02*
X129667Y785961D01*
X125349Y781643D02*
X125349Y790279D01*
X178943Y785961D02*
X187579Y785961D01*
D11*
X114300Y711200D02*
X139700Y685800D01*
X144780Y698500D02*
X177800Y685800D01*
X213360Y669290D02*
X91440Y669290D01*
X213360Y669290D02*
X213360Y803910D01*
X91440Y803910D01*
X91440Y669290D01*
D12*
X77089Y731473D02*
X77091Y731538D01*
X77097Y731602D01*
X77107Y731666D01*
X77120Y731730D01*
X77138Y731792D01*
X77159Y731853D01*
X77183Y731913D01*
X77212Y731971D01*
X77244Y732028D01*
X77279Y732082D01*
X77317Y732134D01*
X77359Y732184D01*
X77403Y732231D01*
X77450Y732275D01*
X77500Y732317D01*
X77552Y732355D01*
X77606Y732390D01*
X77663Y732422D01*
X77721Y732451D01*
X77781Y732475D01*
X77842Y732496D01*
X77904Y732514D01*
X77968Y732527D01*
X78032Y732537D01*
X78096Y732543D01*
X78161Y732545D01*
X77089Y731473D02*
X77091Y731379D01*
X77097Y731285D01*
X77107Y731191D01*
X77120Y731098D01*
X77138Y731006D01*
X77159Y730914D01*
X77184Y730823D01*
X77213Y730733D01*
X77246Y730645D01*
X77282Y730558D01*
X77322Y730473D01*
X77365Y730389D01*
X77412Y730308D01*
X77462Y730228D01*
X77515Y730150D01*
X77572Y730075D01*
X77631Y730002D01*
X77694Y729932D01*
X77759Y729864D01*
X80843Y729999D02*
X80908Y730001D01*
X80972Y730007D01*
X81036Y730017D01*
X81100Y730030D01*
X81162Y730048D01*
X81223Y730069D01*
X81283Y730093D01*
X81341Y730122D01*
X81398Y730154D01*
X81452Y730189D01*
X81504Y730227D01*
X81554Y730269D01*
X81601Y730313D01*
X81645Y730360D01*
X81687Y730410D01*
X81725Y730462D01*
X81760Y730516D01*
X81792Y730573D01*
X81821Y730631D01*
X81845Y730691D01*
X81866Y730752D01*
X81884Y730814D01*
X81897Y730878D01*
X81907Y730942D01*
X81913Y731006D01*
X81915Y731071D01*
X81913Y731157D01*
X81908Y731243D01*
X81898Y731329D01*
X81885Y731414D01*
X81869Y731499D01*
X81849Y731583D01*
X81825Y731666D01*
X81798Y731748D01*
X81767Y731828D01*
X81733Y731908D01*
X81695Y731985D01*
X81654Y732061D01*
X81610Y732135D01*
X81563Y732207D01*
X81513Y732278D01*
X79905Y730535D02*
X79938Y730482D01*
X79975Y730431D01*
X80014Y730382D01*
X80056Y730335D01*
X80101Y730291D01*
X80148Y730250D01*
X80197Y730211D01*
X80249Y730175D01*
X80303Y730142D01*
X80358Y730113D01*
X80415Y730087D01*
X80474Y730064D01*
X80533Y730044D01*
X80594Y730028D01*
X80655Y730015D01*
X80718Y730006D01*
X80780Y730001D01*
X80843Y729999D01*
X79099Y732009D02*
X79066Y732062D01*
X79029Y732113D01*
X78990Y732162D01*
X78948Y732209D01*
X78903Y732253D01*
X78856Y732294D01*
X78807Y732333D01*
X78755Y732369D01*
X78701Y732402D01*
X78646Y732431D01*
X78589Y732457D01*
X78530Y732480D01*
X78471Y732500D01*
X78410Y732516D01*
X78349Y732529D01*
X78286Y732538D01*
X78224Y732543D01*
X78161Y732545D01*
X79100Y732009D02*
X79904Y730535D01*
X80843Y735168D02*
X81915Y736509D01*
X77089Y736509D01*
X77089Y737849D02*
X77089Y735168D01*
X79502Y740654D02*
X79622Y740656D01*
X79742Y740661D01*
X79862Y740670D01*
X79982Y740683D01*
X80101Y740699D01*
X80220Y740719D01*
X80338Y740743D01*
X80455Y740770D01*
X80571Y740800D01*
X80686Y740834D01*
X80801Y740872D01*
X80914Y740913D01*
X81025Y740957D01*
X81136Y741005D01*
X81245Y741056D01*
X81245Y741057D02*
X81302Y741078D01*
X81358Y741104D01*
X81413Y741132D01*
X81465Y741164D01*
X81516Y741200D01*
X81564Y741238D01*
X81610Y741279D01*
X81653Y741323D01*
X81693Y741369D01*
X81730Y741418D01*
X81764Y741470D01*
X81795Y741523D01*
X81823Y741578D01*
X81847Y741634D01*
X81868Y741692D01*
X81885Y741751D01*
X81898Y741811D01*
X81907Y741872D01*
X81913Y741934D01*
X81915Y741995D01*
X81913Y742056D01*
X81907Y742118D01*
X81898Y742179D01*
X81885Y742239D01*
X81868Y742298D01*
X81847Y742356D01*
X81823Y742412D01*
X81795Y742467D01*
X81764Y742520D01*
X81730Y742572D01*
X81693Y742621D01*
X81653Y742667D01*
X81610Y742711D01*
X81564Y742752D01*
X81516Y742790D01*
X81465Y742826D01*
X81413Y742858D01*
X81358Y742886D01*
X81302Y742912D01*
X81245Y742933D01*
X81136Y742984D01*
X81025Y743032D01*
X80914Y743076D01*
X80801Y743117D01*
X80686Y743155D01*
X80571Y743189D01*
X80455Y743219D01*
X80338Y743246D01*
X80220Y743270D01*
X80101Y743290D01*
X79982Y743306D01*
X79862Y743319D01*
X79742Y743328D01*
X79622Y743333D01*
X79502Y743335D01*
X79502Y740655D02*
X79382Y740657D01*
X79262Y740662D01*
X79142Y740671D01*
X79022Y740684D01*
X78903Y740700D01*
X78784Y740720D01*
X78666Y740744D01*
X78549Y740771D01*
X78433Y740801D01*
X78318Y740835D01*
X78203Y740873D01*
X78090Y740914D01*
X77979Y740958D01*
X77868Y741006D01*
X77759Y741057D01*
X77702Y741078D01*
X77646Y741104D01*
X77591Y741132D01*
X77539Y741164D01*
X77488Y741200D01*
X77440Y741238D01*
X77394Y741279D01*
X77351Y741323D01*
X77311Y741369D01*
X77274Y741418D01*
X77240Y741470D01*
X77209Y741523D01*
X77181Y741578D01*
X77157Y741634D01*
X77136Y741692D01*
X77119Y741751D01*
X77106Y741811D01*
X77097Y741872D01*
X77091Y741934D01*
X77089Y741995D01*
X77759Y742933D02*
X77868Y742984D01*
X77979Y743032D01*
X78090Y743076D01*
X78203Y743117D01*
X78318Y743155D01*
X78433Y743189D01*
X78549Y743219D01*
X78666Y743246D01*
X78784Y743270D01*
X78903Y743290D01*
X79022Y743306D01*
X79142Y743319D01*
X79262Y743328D01*
X79382Y743333D01*
X79502Y743335D01*
X77759Y742933D02*
X77702Y742912D01*
X77646Y742886D01*
X77591Y742858D01*
X77539Y742826D01*
X77488Y742790D01*
X77440Y742752D01*
X77394Y742711D01*
X77351Y742667D01*
X77311Y742620D01*
X77274Y742572D01*
X77240Y742520D01*
X77209Y742467D01*
X77181Y742412D01*
X77157Y742356D01*
X77136Y742298D01*
X77119Y742239D01*
X77106Y742179D01*
X77097Y742118D01*
X77091Y742056D01*
X77089Y741995D01*
X78161Y740922D02*
X80843Y743067D01*
D10*
X121031Y582761D02*
X129667Y582761D01*
X125349Y578443D02*
X125349Y587079D01*
X178943Y582761D02*
X187579Y582761D01*
D11*
X114300Y508000D02*
X139700Y482600D01*
X144780Y495300D02*
X177800Y482600D01*
X213360Y466090D02*
X91440Y466090D01*
X213360Y466090D02*
X213360Y600710D01*
X91440Y600710D01*
X91440Y466090D01*
D12*
X77089Y528273D02*
X77091Y528338D01*
X77097Y528402D01*
X77107Y528466D01*
X77120Y528530D01*
X77138Y528592D01*
X77159Y528653D01*
X77183Y528713D01*
X77212Y528771D01*
X77244Y528828D01*
X77279Y528882D01*
X77317Y528934D01*
X77359Y528984D01*
X77403Y529031D01*
X77450Y529075D01*
X77500Y529117D01*
X77552Y529155D01*
X77606Y529190D01*
X77663Y529222D01*
X77721Y529251D01*
X77781Y529275D01*
X77842Y529296D01*
X77904Y529314D01*
X77968Y529327D01*
X78032Y529337D01*
X78096Y529343D01*
X78161Y529345D01*
X77089Y528273D02*
X77091Y528179D01*
X77097Y528085D01*
X77107Y527991D01*
X77120Y527898D01*
X77138Y527806D01*
X77159Y527714D01*
X77184Y527623D01*
X77213Y527533D01*
X77246Y527445D01*
X77282Y527358D01*
X77322Y527273D01*
X77365Y527189D01*
X77412Y527108D01*
X77462Y527028D01*
X77515Y526950D01*
X77572Y526875D01*
X77631Y526802D01*
X77694Y526732D01*
X77759Y526664D01*
X80843Y526799D02*
X80908Y526801D01*
X80972Y526807D01*
X81036Y526817D01*
X81100Y526830D01*
X81162Y526848D01*
X81223Y526869D01*
X81283Y526893D01*
X81341Y526922D01*
X81398Y526954D01*
X81452Y526989D01*
X81504Y527027D01*
X81554Y527069D01*
X81601Y527113D01*
X81645Y527160D01*
X81687Y527210D01*
X81725Y527262D01*
X81760Y527316D01*
X81792Y527373D01*
X81821Y527431D01*
X81845Y527491D01*
X81866Y527552D01*
X81884Y527614D01*
X81897Y527678D01*
X81907Y527742D01*
X81913Y527806D01*
X81915Y527871D01*
X81913Y527957D01*
X81908Y528043D01*
X81898Y528129D01*
X81885Y528214D01*
X81869Y528299D01*
X81849Y528383D01*
X81825Y528466D01*
X81798Y528548D01*
X81767Y528628D01*
X81733Y528708D01*
X81695Y528785D01*
X81654Y528861D01*
X81610Y528935D01*
X81563Y529007D01*
X81513Y529078D01*
X79905Y527335D02*
X79938Y527282D01*
X79975Y527231D01*
X80014Y527182D01*
X80056Y527135D01*
X80101Y527091D01*
X80148Y527050D01*
X80197Y527011D01*
X80249Y526975D01*
X80303Y526942D01*
X80358Y526913D01*
X80415Y526887D01*
X80474Y526864D01*
X80533Y526844D01*
X80594Y526828D01*
X80655Y526815D01*
X80718Y526806D01*
X80780Y526801D01*
X80843Y526799D01*
X79099Y528809D02*
X79066Y528862D01*
X79029Y528913D01*
X78990Y528962D01*
X78948Y529009D01*
X78903Y529053D01*
X78856Y529094D01*
X78807Y529133D01*
X78755Y529169D01*
X78701Y529202D01*
X78646Y529231D01*
X78589Y529257D01*
X78530Y529280D01*
X78471Y529300D01*
X78410Y529316D01*
X78349Y529329D01*
X78286Y529338D01*
X78224Y529343D01*
X78161Y529345D01*
X79100Y528809D02*
X79904Y527335D01*
X80843Y531968D02*
X81915Y533309D01*
X77089Y533309D01*
X77089Y534649D02*
X77089Y531968D01*
X80843Y537454D02*
X81915Y538795D01*
X77089Y538795D01*
X77089Y540135D02*
X77089Y537454D01*
D10*
X121031Y379561D02*
X129667Y379561D01*
X125349Y375243D02*
X125349Y383879D01*
X178943Y379561D02*
X187579Y379561D01*
D11*
X114300Y304800D02*
X139700Y279400D01*
X144780Y292100D02*
X177800Y279400D01*
X213360Y262890D02*
X91440Y262890D01*
X213360Y262890D02*
X213360Y397510D01*
X91440Y397510D01*
X91440Y262890D01*
D12*
X77089Y325073D02*
X77091Y325138D01*
X77097Y325202D01*
X77107Y325266D01*
X77120Y325330D01*
X77138Y325392D01*
X77159Y325453D01*
X77183Y325513D01*
X77212Y325571D01*
X77244Y325628D01*
X77279Y325682D01*
X77317Y325734D01*
X77359Y325784D01*
X77403Y325831D01*
X77450Y325875D01*
X77500Y325917D01*
X77552Y325955D01*
X77606Y325990D01*
X77663Y326022D01*
X77721Y326051D01*
X77781Y326075D01*
X77842Y326096D01*
X77904Y326114D01*
X77968Y326127D01*
X78032Y326137D01*
X78096Y326143D01*
X78161Y326145D01*
X77089Y325073D02*
X77091Y324979D01*
X77097Y324885D01*
X77107Y324791D01*
X77120Y324698D01*
X77138Y324606D01*
X77159Y324514D01*
X77184Y324423D01*
X77213Y324333D01*
X77246Y324245D01*
X77282Y324158D01*
X77322Y324073D01*
X77365Y323989D01*
X77412Y323908D01*
X77462Y323828D01*
X77515Y323750D01*
X77572Y323675D01*
X77631Y323602D01*
X77694Y323532D01*
X77759Y323464D01*
X80843Y323599D02*
X80908Y323601D01*
X80972Y323607D01*
X81036Y323617D01*
X81100Y323630D01*
X81162Y323648D01*
X81223Y323669D01*
X81283Y323693D01*
X81341Y323722D01*
X81398Y323754D01*
X81452Y323789D01*
X81504Y323827D01*
X81554Y323869D01*
X81601Y323913D01*
X81645Y323960D01*
X81687Y324010D01*
X81725Y324062D01*
X81760Y324116D01*
X81792Y324173D01*
X81821Y324231D01*
X81845Y324291D01*
X81866Y324352D01*
X81884Y324414D01*
X81897Y324478D01*
X81907Y324542D01*
X81913Y324606D01*
X81915Y324671D01*
X81913Y324757D01*
X81908Y324843D01*
X81898Y324929D01*
X81885Y325014D01*
X81869Y325099D01*
X81849Y325183D01*
X81825Y325266D01*
X81798Y325348D01*
X81767Y325428D01*
X81733Y325508D01*
X81695Y325585D01*
X81654Y325661D01*
X81610Y325735D01*
X81563Y325807D01*
X81513Y325878D01*
X79905Y324135D02*
X79938Y324082D01*
X79975Y324031D01*
X80014Y323982D01*
X80056Y323935D01*
X80101Y323891D01*
X80148Y323850D01*
X80197Y323811D01*
X80249Y323775D01*
X80303Y323742D01*
X80358Y323713D01*
X80415Y323687D01*
X80474Y323664D01*
X80533Y323644D01*
X80594Y323628D01*
X80655Y323615D01*
X80718Y323606D01*
X80780Y323601D01*
X80843Y323599D01*
X79099Y325609D02*
X79066Y325662D01*
X79029Y325713D01*
X78990Y325762D01*
X78948Y325809D01*
X78903Y325853D01*
X78856Y325894D01*
X78807Y325933D01*
X78755Y325969D01*
X78701Y326002D01*
X78646Y326031D01*
X78589Y326057D01*
X78530Y326080D01*
X78471Y326100D01*
X78410Y326116D01*
X78349Y326129D01*
X78286Y326138D01*
X78224Y326143D01*
X78161Y326145D01*
X79100Y325609D02*
X79904Y324135D01*
X80843Y328768D02*
X81915Y330109D01*
X77089Y330109D01*
X77089Y331449D02*
X77089Y328768D01*
X79770Y334254D02*
X79770Y335863D01*
X79768Y335928D01*
X79762Y335992D01*
X79752Y336056D01*
X79739Y336120D01*
X79721Y336182D01*
X79700Y336243D01*
X79676Y336303D01*
X79647Y336361D01*
X79615Y336418D01*
X79580Y336472D01*
X79542Y336524D01*
X79500Y336574D01*
X79456Y336621D01*
X79409Y336665D01*
X79359Y336707D01*
X79307Y336745D01*
X79253Y336780D01*
X79196Y336812D01*
X79138Y336841D01*
X79078Y336865D01*
X79017Y336886D01*
X78955Y336904D01*
X78891Y336917D01*
X78827Y336927D01*
X78763Y336933D01*
X78698Y336935D01*
X78430Y336935D01*
X78430Y336936D02*
X78359Y336934D01*
X78287Y336928D01*
X78217Y336919D01*
X78147Y336906D01*
X78077Y336889D01*
X78009Y336868D01*
X77942Y336844D01*
X77876Y336816D01*
X77812Y336785D01*
X77749Y336750D01*
X77689Y336712D01*
X77630Y336671D01*
X77574Y336627D01*
X77520Y336580D01*
X77469Y336531D01*
X77421Y336478D01*
X77375Y336423D01*
X77333Y336366D01*
X77293Y336306D01*
X77257Y336245D01*
X77224Y336181D01*
X77195Y336116D01*
X77169Y336050D01*
X77146Y335982D01*
X77127Y335913D01*
X77112Y335843D01*
X77101Y335773D01*
X77093Y335702D01*
X77089Y335631D01*
X77089Y335559D01*
X77093Y335488D01*
X77101Y335417D01*
X77112Y335347D01*
X77127Y335277D01*
X77146Y335208D01*
X77169Y335140D01*
X77195Y335074D01*
X77224Y335009D01*
X77257Y334945D01*
X77293Y334884D01*
X77333Y334824D01*
X77375Y334767D01*
X77421Y334712D01*
X77469Y334659D01*
X77520Y334610D01*
X77574Y334563D01*
X77630Y334519D01*
X77689Y334478D01*
X77749Y334440D01*
X77812Y334405D01*
X77876Y334374D01*
X77942Y334346D01*
X78009Y334322D01*
X78077Y334301D01*
X78147Y334284D01*
X78217Y334271D01*
X78287Y334262D01*
X78359Y334256D01*
X78430Y334254D01*
X79770Y334254D01*
X79861Y334256D01*
X79952Y334262D01*
X80042Y334271D01*
X80133Y334285D01*
X80222Y334302D01*
X80310Y334323D01*
X80398Y334348D01*
X80485Y334377D01*
X80570Y334409D01*
X80654Y334444D01*
X80736Y334484D01*
X80816Y334526D01*
X80895Y334572D01*
X80971Y334622D01*
X81045Y334674D01*
X81118Y334730D01*
X81187Y334789D01*
X81254Y334850D01*
X81319Y334915D01*
X81380Y334982D01*
X81439Y335051D01*
X81495Y335123D01*
X81547Y335198D01*
X81597Y335274D01*
X81643Y335353D01*
X81685Y335433D01*
X81725Y335515D01*
X81760Y335599D01*
X81792Y335684D01*
X81821Y335771D01*
X81846Y335858D01*
X81867Y335947D01*
X81884Y336036D01*
X81898Y336127D01*
X81907Y336217D01*
X81913Y336308D01*
X81915Y336399D01*
D10*
X121031Y176361D02*
X129667Y176361D01*
X125349Y172043D02*
X125349Y180679D01*
X178943Y176361D02*
X187579Y176361D01*
D11*
X114300Y101600D02*
X139700Y76200D01*
X144780Y88900D02*
X177800Y76200D01*
X213360Y59690D02*
X91440Y59690D01*
X213360Y59690D02*
X213360Y194310D01*
X91440Y194310D01*
X91440Y59690D01*
D12*
X77089Y121873D02*
X77091Y121938D01*
X77097Y122002D01*
X77107Y122066D01*
X77120Y122130D01*
X77138Y122192D01*
X77159Y122253D01*
X77183Y122313D01*
X77212Y122371D01*
X77244Y122428D01*
X77279Y122482D01*
X77317Y122534D01*
X77359Y122584D01*
X77403Y122631D01*
X77450Y122675D01*
X77500Y122717D01*
X77552Y122755D01*
X77606Y122790D01*
X77663Y122822D01*
X77721Y122851D01*
X77781Y122875D01*
X77842Y122896D01*
X77904Y122914D01*
X77968Y122927D01*
X78032Y122937D01*
X78096Y122943D01*
X78161Y122945D01*
X77089Y121873D02*
X77091Y121779D01*
X77097Y121685D01*
X77107Y121591D01*
X77120Y121498D01*
X77138Y121406D01*
X77159Y121314D01*
X77184Y121223D01*
X77213Y121133D01*
X77246Y121045D01*
X77282Y120958D01*
X77322Y120873D01*
X77365Y120789D01*
X77412Y120708D01*
X77462Y120628D01*
X77515Y120550D01*
X77572Y120475D01*
X77631Y120402D01*
X77694Y120332D01*
X77759Y120264D01*
X80843Y120399D02*
X80908Y120401D01*
X80972Y120407D01*
X81036Y120417D01*
X81100Y120430D01*
X81162Y120448D01*
X81223Y120469D01*
X81283Y120493D01*
X81341Y120522D01*
X81398Y120554D01*
X81452Y120589D01*
X81504Y120627D01*
X81554Y120669D01*
X81601Y120713D01*
X81645Y120760D01*
X81687Y120810D01*
X81725Y120862D01*
X81760Y120916D01*
X81792Y120973D01*
X81821Y121031D01*
X81845Y121091D01*
X81866Y121152D01*
X81884Y121214D01*
X81897Y121278D01*
X81907Y121342D01*
X81913Y121406D01*
X81915Y121471D01*
X81913Y121557D01*
X81908Y121643D01*
X81898Y121729D01*
X81885Y121814D01*
X81869Y121899D01*
X81849Y121983D01*
X81825Y122066D01*
X81798Y122148D01*
X81767Y122228D01*
X81733Y122308D01*
X81695Y122385D01*
X81654Y122461D01*
X81610Y122535D01*
X81563Y122607D01*
X81513Y122678D01*
X79905Y120935D02*
X79938Y120882D01*
X79975Y120831D01*
X80014Y120782D01*
X80056Y120735D01*
X80101Y120691D01*
X80148Y120650D01*
X80197Y120611D01*
X80249Y120575D01*
X80303Y120542D01*
X80358Y120513D01*
X80415Y120487D01*
X80474Y120464D01*
X80533Y120444D01*
X80594Y120428D01*
X80655Y120415D01*
X80718Y120406D01*
X80780Y120401D01*
X80843Y120399D01*
X79099Y122409D02*
X79066Y122462D01*
X79029Y122513D01*
X78990Y122562D01*
X78948Y122609D01*
X78903Y122653D01*
X78856Y122694D01*
X78807Y122733D01*
X78755Y122769D01*
X78701Y122802D01*
X78646Y122831D01*
X78589Y122857D01*
X78530Y122880D01*
X78471Y122900D01*
X78410Y122916D01*
X78349Y122929D01*
X78286Y122938D01*
X78224Y122943D01*
X78161Y122945D01*
X79100Y122409D02*
X79904Y120935D01*
X81915Y127043D02*
X81913Y127111D01*
X81907Y127178D01*
X81898Y127245D01*
X81885Y127312D01*
X81868Y127377D01*
X81847Y127442D01*
X81823Y127505D01*
X81795Y127567D01*
X81764Y127627D01*
X81730Y127685D01*
X81692Y127741D01*
X81652Y127796D01*
X81608Y127847D01*
X81561Y127896D01*
X81512Y127943D01*
X81461Y127987D01*
X81406Y128027D01*
X81350Y128065D01*
X81292Y128099D01*
X81232Y128130D01*
X81170Y128158D01*
X81107Y128182D01*
X81042Y128203D01*
X80977Y128220D01*
X80910Y128233D01*
X80843Y128242D01*
X80776Y128248D01*
X80708Y128250D01*
X81915Y127043D02*
X81913Y126965D01*
X81907Y126887D01*
X81897Y126810D01*
X81884Y126733D01*
X81866Y126657D01*
X81845Y126582D01*
X81820Y126508D01*
X81791Y126436D01*
X81759Y126365D01*
X81723Y126296D01*
X81684Y126228D01*
X81641Y126163D01*
X81595Y126100D01*
X81546Y126039D01*
X81494Y125981D01*
X81439Y125926D01*
X81382Y125873D01*
X81322Y125824D01*
X81259Y125777D01*
X81194Y125734D01*
X81128Y125694D01*
X81059Y125657D01*
X80988Y125624D01*
X80916Y125594D01*
X80843Y125568D01*
X79770Y127847D02*
X79819Y127896D01*
X79871Y127943D01*
X79926Y127986D01*
X79983Y128027D01*
X80042Y128065D01*
X80103Y128099D01*
X80166Y128130D01*
X80230Y128158D01*
X80296Y128182D01*
X80362Y128202D01*
X80430Y128219D01*
X80499Y128232D01*
X80568Y128241D01*
X80638Y128247D01*
X80708Y128249D01*
X79770Y127847D02*
X77089Y125568D01*
X77089Y128249D01*
X80843Y131054D02*
X81915Y132395D01*
X77089Y132395D01*
X77089Y133735D02*
X77089Y131054D01*
M02*
