G04 EAGLE Gerber RS-274X export*
G75*
%MOMM*%
%FSLAX34Y34*%
%LPD*%
%INBottom Copper*%
%IPPOS*%
%AMOC8*
5,1,8,0,0,1.08239X$1,22.5*%
G01*
%ADD10C,1.879600*%
%ADD11C,1.651000*%
%ADD12C,1.320800*%
%ADD13C,1.524000*%
%ADD14C,1.879600*%
%ADD15C,0.508000*%


D10*
X107950Y24130D03*
X107950Y49530D03*
X107950Y74930D03*
X107950Y100330D03*
X107950Y125730D03*
X107950Y151130D03*
X107950Y176530D03*
X107950Y201930D03*
X107950Y227330D03*
X107950Y252730D03*
X107950Y278130D03*
X107950Y303530D03*
X260350Y303530D03*
X260350Y278130D03*
X260350Y252730D03*
X260350Y227330D03*
X260350Y201930D03*
X260350Y176530D03*
X260350Y151130D03*
X260350Y125730D03*
X260350Y100330D03*
X260350Y74930D03*
X260350Y49530D03*
X260350Y24130D03*
D11*
X603250Y100330D03*
X603250Y74930D03*
D12*
X508254Y49530D02*
X495046Y49530D01*
X495046Y74930D02*
X508254Y74930D01*
X508254Y201930D02*
X495046Y201930D01*
X495046Y227330D02*
X508254Y227330D01*
X508254Y100330D02*
X495046Y100330D01*
X495046Y125730D02*
X508254Y125730D01*
X508254Y176530D02*
X495046Y176530D01*
X495046Y151130D02*
X508254Y151130D01*
X571246Y227330D02*
X584454Y227330D01*
X584454Y201930D02*
X571246Y201930D01*
X571246Y176530D02*
X584454Y176530D01*
X584454Y151130D02*
X571246Y151130D01*
X571246Y125730D02*
X584454Y125730D01*
X584454Y100330D02*
X571246Y100330D01*
X571246Y74930D02*
X584454Y74930D01*
X584454Y49530D02*
X571246Y49530D01*
D13*
X39370Y201930D02*
X24130Y201930D01*
X24130Y227330D02*
X39370Y227330D01*
X39370Y252730D02*
X24130Y252730D01*
X24130Y278130D02*
X39370Y278130D01*
X39370Y303530D02*
X24130Y303530D01*
X24130Y328930D02*
X39370Y328930D01*
X443230Y87630D02*
X458470Y87630D01*
X458470Y113030D02*
X443230Y113030D01*
X443230Y138430D02*
X458470Y138430D01*
X458470Y163830D02*
X443230Y163830D01*
X443230Y189230D02*
X458470Y189230D01*
X458470Y214630D02*
X443230Y214630D01*
X443230Y240030D02*
X458470Y240030D01*
D10*
X412750Y214630D03*
X336550Y214630D03*
X412750Y189230D03*
X336550Y189230D03*
X412750Y163830D03*
X336550Y163830D03*
X412750Y138430D03*
X336550Y138430D03*
X412750Y113030D03*
X336550Y113030D03*
X412750Y87630D03*
X336550Y87630D03*
D14*
X79248Y303530D02*
X60452Y303530D01*
X60452Y278130D02*
X79248Y278130D01*
X79248Y252730D02*
X60452Y252730D01*
X60452Y227330D02*
X79248Y227330D01*
X79248Y201930D02*
X60452Y201930D01*
X60452Y176530D02*
X79248Y176530D01*
X79248Y151130D02*
X60452Y151130D01*
X60452Y125730D02*
X79248Y125730D01*
X79248Y100330D02*
X60452Y100330D01*
X60452Y74930D02*
X79248Y74930D01*
X79248Y49530D02*
X60452Y49530D01*
X60452Y24130D02*
X79248Y24130D01*
X289052Y24130D02*
X307848Y24130D01*
X307848Y49530D02*
X289052Y49530D01*
X289052Y74930D02*
X307848Y74930D01*
X307848Y100330D02*
X289052Y100330D01*
X289052Y125730D02*
X307848Y125730D01*
X307848Y151130D02*
X289052Y151130D01*
X289052Y176530D02*
X307848Y176530D01*
X307848Y201930D02*
X289052Y201930D01*
X289052Y227330D02*
X307848Y227330D01*
X307848Y252730D02*
X289052Y252730D01*
X289052Y278130D02*
X307848Y278130D01*
X307848Y303530D02*
X289052Y303530D01*
D15*
X107950Y227330D02*
X31750Y227330D01*
X31750Y252730D02*
X107950Y252730D01*
X107950Y278130D02*
X31750Y278130D01*
X31750Y303530D02*
X107950Y303530D01*
X107950Y201930D02*
X31750Y201930D01*
X577850Y100330D02*
X603250Y100330D01*
X552450Y227330D02*
X533400Y227330D01*
X552450Y227330D02*
X577850Y227330D01*
X533400Y227330D02*
X514350Y246380D01*
X457200Y246380D01*
X450850Y240030D01*
X571500Y100330D02*
X577850Y100330D01*
X571500Y100330D02*
X552450Y119380D01*
X552450Y227330D01*
X336550Y189230D02*
X336550Y163830D01*
X336550Y189230D02*
X336550Y214630D01*
X336550Y138430D02*
X336550Y113030D01*
X336550Y49530D02*
X260350Y49530D01*
X336550Y49530D02*
X336550Y87630D01*
X336550Y113030D01*
X336550Y138430D02*
X336550Y163830D01*
X107950Y328930D02*
X31750Y328930D01*
X107950Y328930D02*
X127000Y309880D01*
X127000Y182880D02*
X127000Y81280D01*
X127000Y182880D02*
X127000Y309880D01*
X127000Y182880D02*
X260350Y49530D01*
X361950Y240030D02*
X450850Y240030D01*
X361950Y240030D02*
X336550Y214630D01*
X127000Y81280D02*
X120650Y74930D01*
X69850Y74930D01*
X577850Y74930D02*
X577850Y49530D01*
X577850Y74930D02*
X603250Y74930D01*
X260350Y100330D02*
X203200Y157480D01*
X203200Y328930D01*
X234950Y360680D01*
X565150Y360680D01*
X654050Y271780D01*
X654050Y125730D01*
X603250Y74930D01*
X298450Y100330D02*
X260350Y100330D01*
X577850Y201930D02*
X584200Y201930D01*
X603250Y220980D01*
X603250Y238760D01*
X538480Y303530D01*
X260350Y303530D01*
X584200Y125730D02*
X641350Y182880D01*
X584200Y125730D02*
X577850Y125730D01*
X641350Y182880D02*
X641350Y265430D01*
X558800Y347980D01*
X241300Y347980D01*
X215900Y322580D01*
X215900Y271780D01*
X260350Y227330D01*
X298450Y227330D01*
X584200Y151130D02*
X628650Y195580D01*
X584200Y151130D02*
X577850Y151130D01*
X628650Y195580D02*
X628650Y257810D01*
X551180Y335280D01*
X247650Y335280D01*
X228600Y316230D01*
X228600Y284480D01*
X260350Y252730D01*
X298450Y252730D01*
X584200Y176530D02*
X615950Y208280D01*
X584200Y176530D02*
X577850Y176530D01*
X615950Y208280D02*
X615950Y251460D01*
X544830Y322580D01*
X254000Y322580D01*
X241300Y309880D01*
X241300Y297180D01*
X260350Y278130D01*
X298450Y278130D01*
X495300Y74930D02*
X501650Y74930D01*
X495300Y74930D02*
X457200Y113030D01*
X450850Y113030D01*
X412750Y113030D01*
X488950Y49530D02*
X501650Y49530D01*
X488950Y49530D02*
X450850Y87630D01*
X412750Y87630D01*
X495300Y125730D02*
X501650Y125730D01*
X495300Y125730D02*
X457200Y163830D01*
X450850Y163830D01*
X412750Y163830D01*
X495300Y100330D02*
X501650Y100330D01*
X495300Y100330D02*
X457200Y138430D01*
X450850Y138430D01*
X412750Y138430D01*
X495300Y151130D02*
X501650Y151130D01*
X495300Y151130D02*
X457200Y189230D01*
X450850Y189230D01*
X412750Y189230D01*
X495300Y176530D02*
X501650Y176530D01*
X495300Y176530D02*
X457200Y214630D01*
X450850Y214630D01*
X412750Y214630D01*
X19050Y176530D02*
X6350Y163830D01*
X31750Y163830D01*
X19050Y176530D01*
X438150Y49530D02*
X450850Y62230D01*
X438150Y49530D02*
X463550Y49530D01*
X450850Y62230D01*
X107950Y100330D02*
X69850Y100330D01*
X69850Y176530D02*
X107950Y176530D01*
X107950Y151130D02*
X69850Y151130D01*
X69850Y125730D02*
X107950Y125730D01*
X107950Y49530D02*
X69850Y49530D01*
X69850Y24130D02*
X107950Y24130D01*
X260350Y24130D02*
X298450Y24130D01*
X298450Y74930D02*
X260350Y74930D01*
X260350Y125730D02*
X298450Y125730D01*
X298450Y151130D02*
X260350Y151130D01*
X260350Y176530D02*
X298450Y176530D01*
X298450Y201930D02*
X260350Y201930D01*
M02*
