G04 EAGLE Gerber RS-274X export*
G75*
%MOMM*%
%FSLAX34Y34*%
%LPD*%
%INSilkscreen Bottom*%
%IPPOS*%
%AMOC8*
5,1,8,0,0,1.08239X$1,22.5*%
G01*
%ADD10C,0.127000*%
%ADD11C,0.152400*%


D10*
X188069Y-31990D02*
X186729Y-31990D01*
X186729Y-31989D02*
X186658Y-31991D01*
X186586Y-31997D01*
X186516Y-32006D01*
X186446Y-32019D01*
X186376Y-32036D01*
X186308Y-32057D01*
X186241Y-32081D01*
X186175Y-32109D01*
X186111Y-32140D01*
X186048Y-32175D01*
X185988Y-32213D01*
X185929Y-32254D01*
X185873Y-32298D01*
X185819Y-32345D01*
X185768Y-32394D01*
X185720Y-32447D01*
X185674Y-32502D01*
X185632Y-32559D01*
X185592Y-32619D01*
X185556Y-32680D01*
X185523Y-32744D01*
X185494Y-32809D01*
X185468Y-32875D01*
X185445Y-32943D01*
X185426Y-33012D01*
X185411Y-33082D01*
X185400Y-33152D01*
X185392Y-33223D01*
X185388Y-33294D01*
X185388Y-33366D01*
X185392Y-33437D01*
X185400Y-33508D01*
X185411Y-33578D01*
X185426Y-33648D01*
X185445Y-33717D01*
X185468Y-33785D01*
X185494Y-33851D01*
X185523Y-33916D01*
X185556Y-33980D01*
X185592Y-34041D01*
X185632Y-34101D01*
X185674Y-34158D01*
X185720Y-34213D01*
X185768Y-34266D01*
X185819Y-34315D01*
X185873Y-34362D01*
X185929Y-34406D01*
X185988Y-34447D01*
X186048Y-34485D01*
X186111Y-34520D01*
X186175Y-34551D01*
X186241Y-34579D01*
X186308Y-34603D01*
X186376Y-34624D01*
X186446Y-34641D01*
X186516Y-34654D01*
X186586Y-34663D01*
X186658Y-34669D01*
X186729Y-34671D01*
X188069Y-34671D01*
X188069Y-29845D01*
X186729Y-29845D01*
X186664Y-29847D01*
X186600Y-29853D01*
X186536Y-29863D01*
X186472Y-29876D01*
X186410Y-29894D01*
X186349Y-29915D01*
X186289Y-29939D01*
X186231Y-29968D01*
X186174Y-30000D01*
X186120Y-30035D01*
X186068Y-30073D01*
X186018Y-30115D01*
X185971Y-30159D01*
X185927Y-30206D01*
X185885Y-30256D01*
X185847Y-30308D01*
X185812Y-30362D01*
X185780Y-30419D01*
X185751Y-30477D01*
X185727Y-30537D01*
X185706Y-30598D01*
X185688Y-30660D01*
X185675Y-30724D01*
X185665Y-30788D01*
X185659Y-30852D01*
X185657Y-30917D01*
X185659Y-30982D01*
X185665Y-31046D01*
X185675Y-31110D01*
X185688Y-31174D01*
X185706Y-31236D01*
X185727Y-31297D01*
X185751Y-31357D01*
X185780Y-31415D01*
X185812Y-31472D01*
X185847Y-31526D01*
X185885Y-31578D01*
X185927Y-31628D01*
X185971Y-31675D01*
X186018Y-31719D01*
X186068Y-31761D01*
X186120Y-31799D01*
X186174Y-31834D01*
X186231Y-31866D01*
X186289Y-31895D01*
X186349Y-31919D01*
X186410Y-31940D01*
X186472Y-31958D01*
X186536Y-31971D01*
X186600Y-31981D01*
X186664Y-31987D01*
X186729Y-31989D01*
X182912Y-30917D02*
X181572Y-29845D01*
X181572Y-34671D01*
X182912Y-34671D02*
X180231Y-34671D01*
D11*
X568960Y36830D02*
X568960Y240030D01*
X510540Y240030D02*
X510540Y36830D01*
X510540Y240030D02*
X568960Y240030D01*
X568960Y36830D02*
X549910Y36830D01*
X529590Y36830D02*
X510540Y36830D01*
X529590Y36830D02*
X529593Y37077D01*
X529602Y37325D01*
X529617Y37572D01*
X529638Y37818D01*
X529665Y38064D01*
X529698Y38309D01*
X529737Y38554D01*
X529782Y38797D01*
X529833Y39039D01*
X529890Y39280D01*
X529952Y39519D01*
X530021Y39757D01*
X530095Y39993D01*
X530175Y40227D01*
X530260Y40459D01*
X530352Y40689D01*
X530448Y40917D01*
X530551Y41142D01*
X530658Y41365D01*
X530772Y41585D01*
X530890Y41802D01*
X531014Y42017D01*
X531143Y42228D01*
X531277Y42436D01*
X531416Y42641D01*
X531560Y42842D01*
X531708Y43040D01*
X531862Y43234D01*
X532020Y43424D01*
X532183Y43610D01*
X532350Y43792D01*
X532522Y43970D01*
X532698Y44144D01*
X532878Y44314D01*
X533063Y44479D01*
X533251Y44639D01*
X533443Y44795D01*
X533639Y44947D01*
X533838Y45093D01*
X534041Y45235D01*
X534248Y45371D01*
X534457Y45503D01*
X534670Y45629D01*
X534886Y45750D01*
X535104Y45866D01*
X535326Y45976D01*
X535550Y46081D01*
X535776Y46181D01*
X536005Y46275D01*
X536236Y46363D01*
X536470Y46446D01*
X536705Y46523D01*
X536942Y46594D01*
X537180Y46660D01*
X537420Y46719D01*
X537662Y46773D01*
X537905Y46821D01*
X538148Y46863D01*
X538393Y46899D01*
X538639Y46929D01*
X538885Y46953D01*
X539132Y46971D01*
X539379Y46983D01*
X539626Y46989D01*
X539874Y46989D01*
X540121Y46983D01*
X540368Y46971D01*
X540615Y46953D01*
X540861Y46929D01*
X541107Y46899D01*
X541352Y46863D01*
X541595Y46821D01*
X541838Y46773D01*
X542080Y46719D01*
X542320Y46660D01*
X542558Y46594D01*
X542795Y46523D01*
X543030Y46446D01*
X543264Y46363D01*
X543495Y46275D01*
X543724Y46181D01*
X543950Y46081D01*
X544174Y45976D01*
X544396Y45866D01*
X544614Y45750D01*
X544830Y45629D01*
X545043Y45503D01*
X545252Y45371D01*
X545459Y45235D01*
X545662Y45093D01*
X545861Y44947D01*
X546057Y44795D01*
X546249Y44639D01*
X546437Y44479D01*
X546622Y44314D01*
X546802Y44144D01*
X546978Y43970D01*
X547150Y43792D01*
X547317Y43610D01*
X547480Y43424D01*
X547638Y43234D01*
X547792Y43040D01*
X547940Y42842D01*
X548084Y42641D01*
X548223Y42436D01*
X548357Y42228D01*
X548486Y42017D01*
X548610Y41802D01*
X548728Y41585D01*
X548842Y41365D01*
X548949Y41142D01*
X549052Y40917D01*
X549148Y40689D01*
X549240Y40459D01*
X549325Y40227D01*
X549405Y39993D01*
X549479Y39757D01*
X549548Y39519D01*
X549610Y39280D01*
X549667Y39039D01*
X549718Y38797D01*
X549763Y38554D01*
X549802Y38309D01*
X549835Y38064D01*
X549862Y37818D01*
X549883Y37572D01*
X549898Y37325D01*
X549907Y37077D01*
X549910Y36830D01*
D10*
X533019Y32385D02*
X533019Y20955D01*
X534289Y20955D02*
X531749Y20955D01*
X531749Y32385D02*
X534289Y32385D01*
X524547Y20955D02*
X522007Y20955D01*
X524547Y20955D02*
X524647Y20957D01*
X524746Y20963D01*
X524846Y20973D01*
X524944Y20986D01*
X525043Y21004D01*
X525140Y21025D01*
X525236Y21050D01*
X525332Y21079D01*
X525426Y21112D01*
X525519Y21148D01*
X525610Y21188D01*
X525700Y21232D01*
X525788Y21279D01*
X525874Y21329D01*
X525958Y21383D01*
X526040Y21440D01*
X526119Y21500D01*
X526197Y21564D01*
X526271Y21630D01*
X526343Y21699D01*
X526412Y21771D01*
X526478Y21845D01*
X526542Y21923D01*
X526602Y22002D01*
X526659Y22084D01*
X526713Y22168D01*
X526763Y22254D01*
X526810Y22342D01*
X526854Y22432D01*
X526894Y22523D01*
X526930Y22616D01*
X526963Y22710D01*
X526992Y22806D01*
X527017Y22902D01*
X527038Y22999D01*
X527056Y23098D01*
X527069Y23196D01*
X527079Y23296D01*
X527085Y23395D01*
X527087Y23495D01*
X527087Y29845D01*
X527085Y29945D01*
X527079Y30044D01*
X527069Y30144D01*
X527056Y30242D01*
X527038Y30341D01*
X527017Y30438D01*
X526992Y30534D01*
X526963Y30630D01*
X526930Y30724D01*
X526894Y30817D01*
X526854Y30908D01*
X526810Y30998D01*
X526763Y31086D01*
X526713Y31172D01*
X526659Y31256D01*
X526602Y31338D01*
X526542Y31417D01*
X526478Y31495D01*
X526412Y31569D01*
X526343Y31641D01*
X526271Y31710D01*
X526197Y31776D01*
X526119Y31840D01*
X526040Y31900D01*
X525958Y31957D01*
X525874Y32011D01*
X525788Y32061D01*
X525700Y32108D01*
X525610Y32152D01*
X525519Y32192D01*
X525426Y32228D01*
X525332Y32261D01*
X525236Y32290D01*
X525140Y32315D01*
X525043Y32336D01*
X524944Y32354D01*
X524846Y32367D01*
X524746Y32377D01*
X524647Y32383D01*
X524547Y32385D01*
X522007Y32385D01*
X517525Y29845D02*
X514350Y32385D01*
X514350Y20955D01*
X517525Y20955D02*
X511175Y20955D01*
M02*
