G04 EAGLE Gerber RS-274X export*
G75*
%MOMM*%
%FSLAX34Y34*%
%LPD*%
%INSoldermask Bottom*%
%IPPOS*%
%AMOC8*
5,1,8,0,0,1.08239X$1,22.5*%
G01*
%ADD10C,2.082800*%
%ADD11C,1.854200*%
%ADD12C,1.524000*%
%ADD13C,1.727200*%
%ADD14C,2.082800*%


D10*
X107950Y24130D03*
X107950Y49530D03*
X107950Y74930D03*
X107950Y100330D03*
X107950Y125730D03*
X107950Y151130D03*
X107950Y176530D03*
X107950Y201930D03*
X107950Y227330D03*
X107950Y252730D03*
X107950Y278130D03*
X107950Y303530D03*
X260350Y303530D03*
X260350Y278130D03*
X260350Y252730D03*
X260350Y227330D03*
X260350Y201930D03*
X260350Y176530D03*
X260350Y151130D03*
X260350Y125730D03*
X260350Y100330D03*
X260350Y74930D03*
X260350Y49530D03*
X260350Y24130D03*
D11*
X603250Y100330D03*
X603250Y74930D03*
D12*
X508254Y49530D02*
X495046Y49530D01*
X495046Y74930D02*
X508254Y74930D01*
X508254Y201930D02*
X495046Y201930D01*
X495046Y227330D02*
X508254Y227330D01*
X508254Y100330D02*
X495046Y100330D01*
X495046Y125730D02*
X508254Y125730D01*
X508254Y176530D02*
X495046Y176530D01*
X495046Y151130D02*
X508254Y151130D01*
X571246Y227330D02*
X584454Y227330D01*
X584454Y201930D02*
X571246Y201930D01*
X571246Y176530D02*
X584454Y176530D01*
X584454Y151130D02*
X571246Y151130D01*
X571246Y125730D02*
X584454Y125730D01*
X584454Y100330D02*
X571246Y100330D01*
X571246Y74930D02*
X584454Y74930D01*
X584454Y49530D02*
X571246Y49530D01*
D13*
X39370Y201930D02*
X24130Y201930D01*
X24130Y227330D02*
X39370Y227330D01*
X39370Y252730D02*
X24130Y252730D01*
X24130Y278130D02*
X39370Y278130D01*
X39370Y303530D02*
X24130Y303530D01*
X24130Y328930D02*
X39370Y328930D01*
X443230Y87630D02*
X458470Y87630D01*
X458470Y113030D02*
X443230Y113030D01*
X443230Y138430D02*
X458470Y138430D01*
X458470Y163830D02*
X443230Y163830D01*
X443230Y189230D02*
X458470Y189230D01*
X458470Y214630D02*
X443230Y214630D01*
X443230Y240030D02*
X458470Y240030D01*
D10*
X412750Y214630D03*
X336550Y214630D03*
X412750Y189230D03*
X336550Y189230D03*
X412750Y163830D03*
X336550Y163830D03*
X412750Y138430D03*
X336550Y138430D03*
X412750Y113030D03*
X336550Y113030D03*
X412750Y87630D03*
X336550Y87630D03*
D14*
X79248Y303530D02*
X60452Y303530D01*
X60452Y278130D02*
X79248Y278130D01*
X79248Y252730D02*
X60452Y252730D01*
X60452Y227330D02*
X79248Y227330D01*
X79248Y201930D02*
X60452Y201930D01*
X60452Y176530D02*
X79248Y176530D01*
X79248Y151130D02*
X60452Y151130D01*
X60452Y125730D02*
X79248Y125730D01*
X79248Y100330D02*
X60452Y100330D01*
X60452Y74930D02*
X79248Y74930D01*
X79248Y49530D02*
X60452Y49530D01*
X60452Y24130D02*
X79248Y24130D01*
X289052Y24130D02*
X307848Y24130D01*
X307848Y49530D02*
X289052Y49530D01*
X289052Y74930D02*
X307848Y74930D01*
X307848Y100330D02*
X289052Y100330D01*
X289052Y125730D02*
X307848Y125730D01*
X307848Y151130D02*
X289052Y151130D01*
X289052Y176530D02*
X307848Y176530D01*
X307848Y201930D02*
X289052Y201930D01*
X289052Y227330D02*
X307848Y227330D01*
X307848Y252730D02*
X289052Y252730D01*
X289052Y278130D02*
X307848Y278130D01*
X307848Y303530D02*
X289052Y303530D01*
M02*
